<svg width="77" height="52" viewBox="0 0 77 52" fill="none" xmlns="http://www.w3.org/2000/svg">
<path d="M32.9664 28.3386L31.473 27.4262L33.0469 26.4648L34.5406 27.377L40.2758 23.8738L76.6221 46.0704C76.9424 46.266 76.9425 46.7551 76.6223 46.9508L68.7065 51.7884C68.2445 52.0708 67.6751 52.0708 67.213 51.7885L30.8994 29.6012L32.9664 28.3386Z" fill="#888888"/>
<path d="M77.0001 39.5402C77.0001 38.2773 76.542 37.0826 75.716 36.1747L72.0248 32.1266L70.9342 26.2626C70.9019 26.0646 70.7858 25.9008 70.6244 25.7984L61.9256 20.4874C61.7256 20.3645 61.4803 20.3645 61.2803 20.4874L58.8862 21.9483L58.9443 21.7503L61.4868 20.2007C61.59 20.1392 61.6481 20.0232 61.6481 19.9003V18.3643C61.6481 18.221 61.5642 18.0981 61.4416 18.0503L59.467 16.842C59.3637 16.7806 59.2411 16.7806 59.1443 16.842L55.9694 18.7807H55.9629L52.6912 20.7877L52.1427 21.1154L49.7743 19.675L41.1272 14.3913C40.94 14.2753 40.7271 14.2753 40.5464 14.3572L38.2555 12.2136C38.249 12.2136 38.249 12.2068 38.2426 12.2068C38.2233 12.1932 38.2039 12.1795 38.1845 12.1727C38.1652 12.159 38.1522 12.1522 38.1329 12.1454C38.1135 12.1386 38.0942 12.1386 38.0748 12.1386C38.0555 12.1317 38.0296 12.1317 38.0103 12.1317C38.0038 12.1317 37.9909 12.1317 37.9845 12.1386L36.5196 11.217C36.4422 11.1692 36.3518 11.1692 36.2744 11.217L35.9388 11.415L35.1838 11.5651C35.158 11.572 35.1322 11.5856 35.1128 11.5993L34.4353 12.0089C34.4353 12.0089 34.4353 12.0157 34.4288 12.0157C34.3901 12.043 34.3514 12.0839 34.332 12.1386C34.332 12.1454 34.332 12.1454 34.3255 12.1522C34.3191 12.1864 34.3127 12.2205 34.3127 12.2614L34.3772 12.9168C34.3901 13.0465 34.4998 13.142 34.6224 13.142H34.6482C34.7773 13.1284 34.8741 13.0055 34.8612 12.8622L34.8224 12.4389L34.9902 12.4048V13.0465C34.9902 13.1353 35.0354 13.2172 35.1064 13.2649L36.1582 13.9203L36.0034 14.2548C35.9969 14.2616 35.9969 14.2684 35.9969 14.2753C35.984 14.3026 35.984 14.3231 35.9775 14.3435L33.1511 16.0638C33.1446 16.0706 33.1382 16.0775 33.1317 16.0843L33.1123 16.1048C33.093 16.1321 33.0736 16.1662 33.0736 16.2072V17.04C33.0736 17.1015 33.1059 17.1629 33.1511 17.1902L33.9577 17.6817C33.9835 17.6954 34.0093 17.7021 34.0416 17.7021C34.0674 17.7021 34.0932 17.6954 34.119 17.6817L34.2546 17.5998L34.0223 18.3302L32.3896 19.3269C32.3444 19.3542 32.3186 19.3952 32.2864 19.4293C32.2541 19.4566 32.2218 19.4839 32.196 19.518C32.1444 19.5931 32.1056 19.675 32.0863 19.7569C32.0863 19.7706 32.0799 19.7774 32.0734 19.7843L31.1183 24.7949C31.0667 25.0816 31.1893 25.3752 31.4345 25.5253L32.0541 25.9008L32.7768 26.3445C32.8542 26.3923 32.9446 26.4196 33.0349 26.4265C32.9704 26.679 32.9188 26.9589 32.9188 27.2866C32.9123 29.2458 34.2094 31.6214 35.8097 32.5976C36.6358 33.1028 37.3843 33.1438 37.9135 32.7956L38.604 32.3724C39.2299 31.9901 39.6236 31.2938 39.6558 30.5429L52.2265 38.2227L53.1945 38.8166L58.8152 42.2503C58.8668 42.2776 58.9185 42.2981 58.9765 42.3186C58.9185 42.5643 58.8733 42.8306 58.8668 43.1446C58.8604 45.1038 60.1575 47.4794 61.7578 48.4556C62.5838 48.9608 63.3324 49.0017 63.8616 48.6536L65.4039 47.7115L67.0236 48.7014C67.3979 48.9267 67.8173 49.0427 68.2368 49.0427C68.6627 49.0427 69.0822 48.9267 69.4564 48.7014L76.2129 44.5782C76.6839 44.2914 76.9743 43.759 76.9808 43.1855L77.0001 42.3049C77.0001 42.3049 76.9937 42.3049 76.9937 42.2981C76.9937 42.2981 77.0001 42.2981 77.0001 42.2913V39.5402ZM36.0485 16.9308L36.2099 16.4051L36.6874 16.1184L36.0485 16.9308Z" fill="black"/>
<path d="M50.2224 23.479V24.2231L51.5905 25.0559V24.3119L50.2224 23.479Z" fill="#F79420"/>
<path d="M66.1873 45.7064V46.6143L67.6715 47.5154C68.0264 47.7339 68.4588 47.7339 68.8137 47.5154L75.5701 43.399C75.6476 43.3513 75.6928 43.2693 75.6928 43.167L75.7056 42.4365L68.7621 46.6758C68.6588 46.7372 68.5491 46.7645 68.4394 46.7645C68.3168 46.7645 68.2006 46.7304 68.0974 46.6621L66.2066 45.5085C66.2066 45.5085 66.2066 45.5153 66.2066 45.5221C66.2131 45.5835 66.2002 45.645 66.1873 45.7064Z" fill="#666666"/>
<path d="M32.4832 24.5848L32.7026 24.7214C32.9413 24.1479 33.3221 23.7111 33.819 23.4517C34.6191 23.042 35.6129 23.1513 36.6196 23.7657C38.3168 24.7965 39.73 27.0492 40.085 29.2269L52.8751 37.0432V31.7868L45.7573 27.4452L43.7374 27.3564C43.6342 27.3496 43.5309 27.3223 43.4406 27.2608L33.1672 20.9873L32.4832 24.5848ZM46.9382 32.4422L46.9447 29.3566C46.9447 29.302 46.964 29.261 46.9963 29.2474C47.0285 29.2269 47.0737 29.2337 47.1189 29.261L49.2871 30.5854L51.4619 31.9165C51.507 31.9438 51.5522 31.9916 51.5844 32.0462C51.6167 32.1008 51.6361 32.1691 51.6361 32.2237L51.6296 35.3093C51.6296 35.3639 51.6103 35.4049 51.578 35.4253C51.5457 35.4458 51.5006 35.439 51.4554 35.4117L49.2807 34.0805L47.106 32.7562C47.0608 32.7289 47.0156 32.6811 46.9898 32.6197C46.9575 32.565 46.9382 32.4968 46.9382 32.4422Z" fill="#6699C8"/>
<path d="M34.4446 18.0725L34.6317 17.9632C34.6705 17.9359 34.7156 17.9359 34.7544 17.9291L34.9996 17.1509L34.6769 17.3489L34.4446 18.0725Z" fill="#0099FF"/>
<path d="M35.0901 17.936C35.1224 17.9496 35.1482 17.9428 35.174 17.9633L35.2192 17.9838L35.4838 17.6493L35.7935 16.6663L35.4192 16.8915V16.8983L35.0901 17.936Z" fill="#3751A0"/>
<path d="M33.3997 16.509V16.9459L33.8836 17.2395V16.8026L33.3997 16.509Z" fill="#666666"/>
<path d="M34.2063 16.8028V17.2397L34.4709 17.0758L37.0005 15.533L36.7166 15.2668L34.2063 16.8028Z" fill="#666666"/>
<path d="M33.5618 16.2156L34.0458 16.5091L36.4657 15.0278L36.0914 14.6729L33.5618 16.2156Z" fill="#666666"/>
<path d="M36.2517 11.8265L37.3423 12.5024L37.4842 12.4204L36.4001 11.7378L36.2517 11.8265Z" fill="#0099FF"/>
<path d="M35.7161 12.1539L36.8002 12.8365L37.026 12.7L35.9354 12.0242L35.7161 12.1539Z" fill="#0099FF"/>
<path d="M35.4778 12.5972V12.8975L36.3812 13.4641L36.4909 13.232L35.4778 12.5972Z" fill="#0099FF"/>
<path d="M49.591 22.8236C49.591 22.8168 49.591 22.8168 49.591 22.81C49.5975 22.7895 49.6039 22.7622 49.6103 22.7417C49.6233 22.7212 49.6362 22.7007 49.6555 22.6734C49.6684 22.6529 49.6878 22.6393 49.7072 22.6257C49.7136 22.612 49.7201 22.5984 49.7394 22.5915L50.8558 21.9089L49.1328 20.8576L44.3962 17.9631L49.591 22.8236Z" fill="#6699C8"/>
<path d="M37.9172 12.9389L48.9586 23.3289L49.0747 23.2538L47.6292 21.9021L38.0011 12.8911L37.9172 12.9389Z" fill="#0099FF"/>
<path d="M37.4265 13.2391L46.661 22.0112L47.1965 22.5163L48.6743 23.9158C48.6614 23.8748 48.6614 23.8338 48.6614 23.7997V23.7929C48.6679 23.7041 48.6872 23.6291 48.7195 23.5608L37.6266 13.1162L37.4265 13.2391Z" fill="#0099FF"/>
<path d="M38.3752 18.5571L42.06 20.8099L38.9237 17.8608L38.3752 18.5571Z" fill="#999999"/>
<path d="M37.7361 19.5262L46.1768 24.6803L44.4538 23.0555L38.2007 19.2395L37.7361 19.5262Z" fill="#999999"/>
<path d="M35.7869 18.3323L35.8772 18.3868L36.4516 18.7418L36.6581 18.8715L38.2778 16.8099C38.3359 16.7417 38.4133 16.7007 38.5037 16.6871C38.5875 16.6871 38.6779 16.7144 38.7424 16.7758L47.3186 24.8447L48.4673 24.8925C48.5189 24.8925 48.5705 24.9062 48.6157 24.9335L49.0287 25.1861L36.9743 13.7312L36.6903 14.3319L37.7486 15.3217C37.7615 15.3354 37.768 15.3559 37.7809 15.3695C37.7938 15.39 37.8132 15.4037 37.8196 15.4242C37.8325 15.4446 37.8325 15.4651 37.839 15.4856C37.8454 15.5061 37.8519 15.5334 37.8519 15.5539C37.8583 15.5743 37.8519 15.5948 37.8454 15.6153C37.8454 15.6358 37.8454 15.6631 37.839 15.6836C37.8325 15.704 37.8196 15.7177 37.8132 15.7382C37.8002 15.7587 37.7938 15.7792 37.7809 15.7996L35.7869 18.3323Z" fill="#0099FF"/>
<path d="M49.5642 24.7626L50.0353 25.2131L50.1192 24.9469L49.7384 24.7148C49.7191 24.7011 49.7062 24.6943 49.6932 24.6807C49.6739 24.708 49.6481 24.7285 49.6223 24.7421C49.6029 24.7557 49.5835 24.7626 49.5642 24.7626Z" fill="#0099FF"/>
<path d="M48.9841 23.7996C48.9841 24.018 49.1455 24.3048 49.3197 24.414C49.3971 24.4549 49.4423 24.4549 49.4617 24.4413C49.4875 24.4276 49.5068 24.373 49.5068 24.3048C49.5068 24.0863 49.352 23.8064 49.1648 23.6904C49.1197 23.6631 49.0809 23.6494 49.0616 23.6494C49.0486 23.6494 49.0358 23.6562 49.0293 23.6562C49.0099 23.6699 48.9841 23.7109 48.9841 23.7996Z" fill="#0099FF"/>
<path d="M34.0061 19.9225L43.9504 25.9981L45.9702 26.0868C46.0735 26.0937 46.1703 26.121 46.2606 26.1756L52.8751 30.21V27.9914C52.8428 28.0324 52.8106 28.0733 52.7718 28.1007L51.507 28.8652C51.4619 28.8994 51.4038 28.913 51.3457 28.913C51.3134 28.913 51.2812 28.9062 51.2425 28.8925C51.2295 28.8857 51.2231 28.8789 51.2102 28.8721C51.2037 28.8721 51.1973 28.8721 51.1844 28.8652L49.4678 27.814C49.4614 27.8071 49.4549 27.8003 49.442 27.7935C49.4291 27.7798 49.4097 27.7662 49.3969 27.7457C49.3839 27.732 49.371 27.7184 49.3581 27.6979C49.3452 27.6774 49.3388 27.6569 49.3323 27.6365C49.3258 27.616 49.3194 27.5955 49.3194 27.575C49.313 27.5546 49.313 27.5341 49.313 27.5136C49.313 27.4931 49.313 27.4658 49.3194 27.4453C49.3258 27.4316 49.3194 27.4249 49.3258 27.4112L49.6614 26.3599L48.3643 25.568L46.2671 25.4793C46.2155 25.4793 46.1638 25.4657 46.1187 25.4383L36.1292 19.3354L36.1228 19.3286L35.5549 18.9736C35.5549 18.9805 35.5484 18.9805 35.5484 18.9805L34.0061 19.9225Z" fill="#6699C8"/>
<path d="M51.9329 27.8208L52.3394 27.5682L53.0299 25.3701L52.6492 25.6022L51.9329 27.8208Z" fill="#999999"/>
<path d="M50.0227 27.3633L51.1714 28.0665L51.8425 25.9776C51.8167 25.9707 51.7909 25.9639 51.7651 25.9502C51.7651 25.9502 51.7651 25.9502 51.7586 25.9502L50.6939 25.2949L50.0227 27.3633Z" fill="#CCCCCC"/>
<path d="M53.8108 25.0494L55.921 23.766L55.7854 23.6841L53.8753 24.8514L53.8108 25.0494Z" fill="#999999"/>
<path d="M57.6633 22.701L58.044 22.4689L58.1086 22.2642L57.7278 22.5031L57.6633 22.701Z" fill="#999999"/>
<path d="M52.2366 24.312V25.0629L53.3788 24.3666C53.4175 24.3188 53.4756 24.2915 53.5337 24.2779L54.5468 23.6567V22.8989L52.2366 24.312Z" fill="#F79420"/>
<path d="M55.1921 22.5098V23.2607L57.825 21.6565V20.9055L55.1921 22.5098Z" fill="#F79420"/>
<path d="M58.47 20.5096V21.2605C58.5022 21.2195 58.5539 21.1922 58.6055 21.1786L61.006 19.7109V18.96L58.47 20.5096Z" fill="#F79420"/>
<path d="M56.7727 19.0758L58.1472 19.9154L60.6833 18.3726L59.3023 17.533L56.7727 19.0758Z" fill="#F79420"/>
<path d="M53.4949 21.0827L54.8694 21.9156L57.5023 20.3113L56.1278 19.4717L53.4949 21.0827Z" fill="#F79420"/>
<path d="M50.5457 22.8853L51.9137 23.7181L54.2175 22.3118L52.8494 21.479L50.5457 22.8853Z" fill="#F79420"/>
<path d="M54.1653 26.4144L62.2124 31.3295L69.7303 26.8308L61.6058 21.8679L54.1653 26.4144Z" fill="#7EC0FC"/>
<path d="M62.2131 31.3295L63.3424 37.3914L63.3489 37.3982L70.8797 32.7972C70.8345 32.7289 70.8087 32.6606 70.7958 32.5856L70.557 31.309L69.7311 26.8308L62.2131 31.3295Z" fill="#CCCCCC"/>
<path d="M70.4514 32.5085L70.2399 31.379L69.5239 27.4988L62.6018 31.6406L63.549 36.7254L70.4514 32.5085Z" fill="#797979"/>
<path d="M63.3484 37.3982L65.2456 39.4803L67.1622 41.5897C67.5816 42.0402 67.8849 42.5863 68.0656 43.1802L68.3689 42.9959L75.5835 38.586C75.4416 38.0399 75.1705 37.5416 74.7898 37.1251L70.9631 32.9337C70.9244 32.8927 70.8986 32.8449 70.8792 32.7971L63.3484 37.3982Z" fill="#7EC0FC"/>
<path d="M68.0657 43.1804C68.1366 43.392 68.1883 43.6105 68.2141 43.8289C68.2463 44.0406 68.2657 44.259 68.2657 44.4775V45.1806L68.44 45.2898L69.5305 44.6276L71.602 43.3647L75.7126 40.8594V39.5419C75.7126 39.2142 75.6675 38.8934 75.5836 38.5862L68.369 42.9961L68.0657 43.1804Z" fill="#CCCCCC"/>
<path d="M46.9377 32.4423C46.9377 32.4969 46.9571 32.5652 46.9893 32.6198C47.0152 32.6812 47.0604 32.729 47.1055 32.7564L49.2802 34.0807L51.4549 35.4118C51.5001 35.4392 51.5453 35.446 51.5776 35.4255C51.6098 35.405 51.6291 35.3641 51.6291 35.3095L51.6356 32.2239C51.6356 32.1692 51.6163 32.101 51.584 32.0464C51.5517 31.9918 51.5065 31.944 51.4614 31.9167L49.2867 30.5855L47.1184 29.2612C47.0732 29.2338 47.0281 29.227 46.9958 29.2475C46.9635 29.2612 46.9442 29.3021 46.9442 29.3567L46.9377 32.4423ZM49.4544 33.7735L49.4609 31.1111L51.2872 32.2239L51.2807 34.8862L49.4544 33.7735ZM47.2797 32.4492L47.2927 29.78L49.1189 30.8995L49.1124 33.5619L47.2797 32.4492Z" fill="black"/>
<path d="M47.2805 32.4492L49.1132 33.5619L49.1197 30.8996L47.2934 29.78L47.2805 32.4492Z" fill="#CCCCCC"/>
<path d="M49.4553 33.7737L51.2816 34.8864L51.288 32.2241L49.4618 31.1113L49.4553 33.7737Z" fill="#CCCCCC"/>
<path d="M54.1653 26.4146V37.8285L58.7148 40.6137C58.9471 39.9993 59.3343 39.5283 59.8441 39.2552C60.6507 38.8251 61.6574 38.9344 62.6899 39.5556C64.0451 40.3884 65.2002 41.979 65.8003 43.6857C65.8068 43.6924 65.8068 43.6857 65.8132 43.6924L68.2654 45.1806V44.4775C68.2654 43.3989 67.8718 42.3613 67.1619 41.5899L63.3417 37.3916L62.2124 31.3296L54.1653 26.4146Z" fill="#6699C8"/>
<path d="M60.335 31.7987L61.1191 36.6395L56.3381 33.7158V29.3574L60.335 31.7987Z" fill="#797979"/>
<path d="M61.3771 44.5109C61.1051 44.3448 60.8833 43.9435 60.8842 43.6129C60.8851 43.2774 61.1083 43.1478 61.3803 43.3139C61.6522 43.48 61.874 43.8813 61.8731 44.2169C61.8722 44.5474 61.649 44.677 61.3771 44.5109ZM61.7804 43.3677C61.0759 42.9374 60.4972 43.2812 60.4949 44.1427C60.4926 44.9991 61.0675 46.0475 61.7721 46.4778C62.4807 46.9106 63.0594 46.5668 63.0617 45.7104C63.064 44.849 62.4891 43.8005 61.7804 43.3677Z" fill="#888888"/>
<path d="M61.3801 43.3141C61.652 43.4801 61.8738 43.8814 61.8729 44.217C61.872 44.5475 61.6488 44.6771 61.3769 44.511C61.1049 44.3449 60.8831 43.9436 60.884 43.613C60.8849 43.2775 61.1081 43.148 61.3801 43.3141Z" fill="#BABABA"/>
<path d="M35.4244 28.6527C35.1525 28.4867 34.9307 28.0853 34.9316 27.7548C34.9325 27.4192 35.1557 27.2897 35.4276 27.4558C35.6995 27.6219 35.9213 28.0232 35.9204 28.3587C35.9195 28.6892 35.6963 28.8188 35.4244 28.6527ZM35.8278 27.5095C35.1232 27.0792 34.5446 27.4231 34.5422 28.2845C34.5399 29.1409 35.1149 30.1893 35.8194 30.6196C36.5281 31.0525 37.1068 30.7086 37.1091 29.8522C37.1114 28.9908 36.5364 27.9423 35.8278 27.5095Z" fill="#888888"/>
<path d="M35.4274 27.4559C35.6994 27.622 35.9211 28.0233 35.9202 28.3588C35.9193 28.6894 35.6961 28.8189 35.4242 28.6529C35.1523 28.4868 34.9305 28.0854 34.9314 27.7549C34.9323 27.4194 35.1555 27.2898 35.4274 27.4559Z" fill="#BABABA"/>
<path d="M28.5423 21.12C34.3055 20.8778 34.6923 14.5282 34.8194 12.4412L34.4135 12.4236C34.2006 15.911 33.359 20.5707 28.5225 20.7736L28.5423 21.12Z" fill="black"/>
<path d="M0.00496785 7.21511C0.00559841 7.22946 0.304204 8.61453 0.358636 9.25201C0.395093 9.78224 0.486279 10.2034 0.654093 10.5654C0.70564 10.6861 0.82725 10.7477 0.944769 10.7161L1.28415 10.6216C1.28163 10.5642 1.27283 10.5142 1.27062 10.464L1.26748 10.3923C1.24199 9.81153 1.39468 9.37706 1.68157 9.14027C1.71991 9.11063 1.75824 9.08098 1.80974 9.05097L2.21384 8.7754C2.36659 8.79317 2.52653 8.82509 2.70157 8.8997C2.78264 8.94076 2.87064 8.98883 2.95895 9.04407C4.06381 9.68424 5.03714 11.2392 5.2248 12.6557C5.24745 12.8705 5.25595 13.0641 5.2506 13.2437C5.24467 13.2582 5.25847 13.2722 5.25909 13.2865C5.26098 13.3295 5.2569 13.3871 5.25254 13.4374C5.24656 13.6027 5.23556 13.8039 5.22365 13.9836C5.21547 14.0987 5.27299 14.2049 5.36759 14.2528C5.43546 14.2942 7.05825 15.1441 8.05786 15.4925C9.00403 15.828 11.4778 16.9511 11.6264 17.0264C12.6327 17.6761 13.8903 18.4848 15.1206 19.2726C15.202 19.3208 15.3076 19.3182 15.3845 19.266C15.4678 19.2066 15.5027 19.0981 15.4851 18.998L15.4678 18.9051L15.4659 18.8621C15.4587 18.8479 15.458 18.8336 15.4577 18.8264C15.4254 18.5401 15.4338 18.2815 15.464 18.0654L15.4637 18.0583C15.4693 18.0366 15.4684 18.0151 15.4743 18.0006C15.501 17.8563 15.5482 17.726 15.6028 17.617C15.6575 17.5079 15.7263 17.4201 15.8093 17.3534C16.0641 17.139 16.4531 17.1222 16.8909 17.3123C16.972 17.3534 17.053 17.3945 17.1344 17.4427C18.1583 18.0418 19.0674 19.4907 19.2441 20.807C19.285 21.1362 19.2778 21.4235 19.2222 21.6617C19.2165 21.6834 19.2112 21.7122 19.2118 21.7265C19.2103 21.8414 19.2813 21.9545 19.3884 21.9877C19.9205 22.2186 21.6033 22.9306 21.9414 22.9581C21.9879 22.9641 22.0872 22.9689 22.2125 22.9658C22.9846 22.9467 24.9602 22.8044 25.557 22.7035L25.5966 22.7026C25.6292 22.6946 25.6556 22.6939 25.6685 22.6864C26.1851 22.566 27.8716 21.706 28.5506 21.2226L28.768 21.0593C29.4597 20.5613 30.3241 19.937 30.7058 19.3031C31.1363 18.5747 30.9992 16.9559 30.9781 16.777C30.9769 16.7483 30.969 16.7198 30.9611 16.6913C31.0341 16.5459 31.0746 16.4157 31.0758 16.2937C31.0975 15.884 30.945 15.1198 30.9042 14.9413C30.8447 14.6414 29.0239 12.1383 28.2942 11.3166C27.5154 10.4315 26.3072 9.69343 25.2259 9.44031C24.3513 9.23227 23.8859 9.0141 23.879 9.00708C23.879 9.00708 23.8652 8.99306 23.8448 8.97924C23.8849 8.69112 23.9562 8.20847 23.9653 7.81348C23.9785 7.36096 23.8204 6.76912 23.5624 6.61043C23.4606 6.54834 23.355 6.55095 23.2525 6.62529C22.9707 6.82603 22.7338 7.29846 22.7608 7.61361C22.7876 7.92158 22.8778 8.01984 23.0685 8.1515C23.1163 8.1862 23.1348 8.30774 23.1339 8.43696C22.286 7.78325 20.9124 6.74061 20.1755 6.2062C19.0913 5.43629 16.3571 4.09719 15.986 3.91975C15.7581 3.6957 14.4263 2.40083 13.2654 1.5395C11.8167 0.441333 8.94426 0.017183 8.91127 0.0180004C8.30696 -0.053168 6.90578 0.0819714 5.93356 0.507985C4.99436 0.933179 1.88793 3.15623 1.75347 3.25287C0.334788 4.94602 0.415294 6.02781 0.444239 6.38598C0.443613 6.52237 0.263233 6.77808 0.0794298 6.95488C0.0162885 7.02106 -0.012334 7.12223 0.00496785 7.21511ZM23.1543 7.99863C22.9978 7.89482 22.9428 7.84593 22.9255 7.60235C22.9013 7.35175 23.1146 6.94448 23.3515 6.77354C23.3962 6.73656 23.4358 6.73558 23.4832 6.7631C23.6598 6.87359 23.8142 7.37935 23.7997 7.80321C23.795 8.14784 23.7344 8.57284 23.6942 8.86091C23.5918 8.7845 23.4617 8.68009 23.2979 8.56209C23.3165 8.38219 23.3108 8.10244 23.1543 7.99863Z" fill="black"/>
<path d="M15.4319 18.5397L15.4351 18.6114C15.4382 18.6831 15.448 18.7546 15.4577 18.8262C15.458 18.8334 15.4587 18.8477 15.4659 18.8619C15.6385 20.085 16.4826 21.4063 17.4251 21.9572C17.4995 21.9984 17.5737 22.0324 17.6482 22.0737C18.0454 22.2433 18.3892 22.2491 18.6537 22.1062C18.7248 22.0686 18.7892 22.0311 18.8398 21.9796L19.2118 21.7263C19.2111 21.712 19.2165 21.6831 19.2222 21.6615C19.2777 21.4232 19.285 21.1359 19.2441 20.8068C19.0674 19.4905 18.1582 18.0416 17.1344 17.4425C17.053 17.3942 16.9719 17.3532 16.8909 17.3121C16.4531 17.122 16.0641 17.1388 15.8092 17.3532C15.6436 17.4937 15.5277 17.7119 15.4743 18.0003C15.435 18.1592 15.4231 18.339 15.4319 18.5397Z" fill="#1A1A1A"/>
<path d="M17.4005 21.1502C17.2484 21.061 17.1 20.9377 16.96 20.7949L17.3919 20.1162L18.0675 21.2828C17.9155 21.322 17.7386 21.3097 17.5379 21.2207C17.4918 21.2005 17.446 21.1769 17.4005 21.1502ZM16.8883 20.7205C16.8179 20.6425 16.751 20.5593 16.6876 20.4719L16.9826 19.9121C17.0335 19.8195 17.1122 19.783 17.1744 19.8195C17.187 19.8269 17.1988 19.8372 17.2097 19.8506C17.2758 19.9324 17.274 20.0847 17.2105 20.1928L16.8883 20.7205ZM18.1258 21.265L17.6133 20.3672C17.5138 20.1904 17.466 20.0162 17.518 19.9874C17.5321 19.9794 17.5514 19.983 17.5741 19.9963C17.6346 20.0318 17.7186 20.1356 17.79 20.2663L18.2829 21.1733C18.2351 21.2125 18.1832 21.244 18.1258 21.265ZM17.2633 19.8432C17.2533 19.8374 17.2434 19.8291 17.2342 19.8183C17.2155 19.7957 17.2056 19.7711 17.2025 19.7496C17.1959 19.7322 17.195 19.7111 17.2027 19.7003C17.213 19.6842 17.2331 19.6814 17.2544 19.6939C17.2632 19.6991 17.2723 19.7069 17.2809 19.7175L17.2863 19.7224L17.2887 19.7265C17.3182 19.7627 17.3291 19.8112 17.3147 19.8368C17.307 19.8476 17.2968 19.8515 17.2827 19.8486L17.2835 19.8518C17.2769 19.85 17.2701 19.8472 17.2633 19.8432ZM17.4451 19.9222C17.4424 19.9206 17.4396 19.9187 17.4368 19.9165C17.4224 19.9072 17.4091 19.8895 17.3972 19.87C17.3764 19.8318 17.3755 19.7909 17.3932 19.7726L17.3966 19.7656L17.3988 19.7642L17.401 19.7646C17.4106 19.7605 17.4223 19.7628 17.4343 19.7699C17.4514 19.7799 17.4692 19.7994 17.4832 19.8244C17.4943 19.8435 17.5009 19.8608 17.5009 19.8779C17.504 19.9003 17.4973 19.917 17.4852 19.926C17.473 19.9309 17.4595 19.9307 17.4451 19.9222ZM16.6213 20.3846C16.3619 20.0019 16.1726 19.5483 16.1141 19.1131C16.1032 19.0278 16.1014 18.9487 16.1004 18.87L17.0003 19.6426L16.6213 20.3846ZM17.177 19.595C17.1723 19.5922 17.1674 19.5887 17.1625 19.5844C17.1472 19.5718 17.1339 19.5542 17.1252 19.5392C17.1132 19.516 17.1077 19.4903 17.1121 19.4723C17.1135 19.4525 17.1256 19.4407 17.1387 19.4377C17.1491 19.4382 17.16 19.4401 17.1712 19.4466C17.1744 19.4485 17.1775 19.4507 17.1807 19.4533C17.2113 19.4784 17.2332 19.5263 17.231 19.5626L17.2319 19.5658L17.2321 19.5714L17.233 19.5746C17.2272 19.6017 17.2041 19.6109 17.177 19.595ZM17.4681 19.7207C17.447 19.7083 17.4262 19.6818 17.4125 19.6512L17.41 19.6443C17.3949 19.6005 17.4083 19.5652 17.437 19.5641C17.4444 19.564 17.4522 19.5668 17.4603 19.5716C17.4667 19.5753 17.4732 19.5802 17.48 19.5858C17.4954 19.6011 17.5095 19.6219 17.5194 19.6465C17.5279 19.673 17.5281 19.6965 17.5213 19.7114C17.5166 19.723 17.508 19.7277 17.4947 19.728C17.4861 19.7286 17.4771 19.7259 17.4681 19.7207ZM17.3026 19.5186C17.2702 19.4996 17.2443 19.4597 17.2391 19.4185C17.236 19.3969 17.2405 19.3817 17.2482 19.3709C17.2582 19.3633 17.2714 19.3603 17.2879 19.3682C17.2905 19.3693 17.293 19.3706 17.2956 19.3721C17.3098 19.3804 17.3243 19.395 17.3363 19.4127C17.3481 19.4322 17.357 19.45 17.3601 19.4724C17.3655 19.5123 17.3456 19.5321 17.3149 19.5213L17.3158 19.5245L17.306 19.5205L17.3026 19.5186ZM18.3302 21.1382L17.6933 19.9431L18.4844 19.92C18.5065 20.0083 18.5271 20.0966 18.5388 20.1842C18.5966 20.6181 18.5121 20.9507 18.3302 21.1382ZM16.8902 19.4304C16.8589 19.412 16.8253 19.3881 16.7908 19.3592L16.101 18.7789C16.1048 18.6924 16.1148 18.6112 16.1324 18.5372L16.8283 19.087C16.9656 19.1963 17.0762 19.3526 17.0639 19.4306C17.0569 19.4905 16.9845 19.4857 16.8902 19.4304ZM17.6741 19.7758C17.6213 19.7449 17.5794 19.701 17.5624 19.6511C17.5273 19.5516 17.607 19.48 17.7305 19.4851L18.354 19.5171C18.3951 19.6165 18.4295 19.7174 18.4588 19.8189L17.847 19.8234C17.7876 19.824 17.7256 19.8061 17.6741 19.7758ZM17.0605 19.1694L16.1576 18.4677C16.2726 18.1064 16.5562 17.9319 16.9365 18.0257L17.0605 19.1694ZM17.2127 18.1364C17.2188 18.1399 17.2248 18.1432 17.2308 18.1463L17.3619 19.0331C17.3878 19.2124 17.3532 19.3392 17.2825 19.3076C17.2796 19.3064 17.2768 19.3049 17.2739 19.3032C17.2031 19.2617 17.1328 19.0933 17.1123 18.9226L17.0083 18.0481C17.0457 18.0602 17.0814 18.0668 17.1198 18.0839C17.1368 18.0915 17.1533 18.1007 17.1697 18.1104C17.178 18.1152 17.1862 18.1201 17.1945 18.125C17.2006 18.129 17.2067 18.1328 17.2127 18.1364ZM17.4898 19.3583L17.3057 18.1884C17.705 18.4378 18.0739 18.8999 18.3071 19.416L17.4898 19.3583ZM17.2579 17.9166C17.2008 17.8831 17.1433 17.8534 17.0856 17.8279C16.3051 17.4833 15.7826 18.0209 15.9171 19.0263C16.0418 19.9616 16.6843 20.9686 17.3978 21.387C17.4555 21.4209 17.5137 21.4509 17.572 21.4767C18.3487 21.8191 18.8705 21.282 18.7358 20.271C18.612 19.3407 17.9689 18.3335 17.2579 17.9166Z" fill="#CCCCCC"/>
<path d="M1.2674 10.392L1.27055 10.4637C1.27275 10.5139 1.28156 10.5639 1.28408 10.6213L1.28628 10.6715C1.45289 11.9091 2.30426 13.2446 3.25358 13.8025C3.32809 13.8437 3.40916 13.8848 3.48332 13.9188C3.88086 14.0956 4.2246 14.1014 4.48889 13.9513C4.55361 13.921 4.61769 13.8764 4.6749 13.8247L5.25246 13.4372C5.25682 13.3868 5.26091 13.3293 5.25902 13.2863C5.25839 13.2719 5.24459 13.2579 5.25053 13.2434C5.25587 13.0638 5.24737 12.8702 5.22472 12.6555C5.03707 11.239 4.06373 9.68399 2.95887 9.04382C2.87056 8.98858 2.78257 8.94051 2.7015 8.89945C2.52645 8.82484 2.36651 8.79292 2.21376 8.77515L1.80967 9.05072C1.75817 9.08073 1.71983 9.11038 1.6815 9.14002C1.39461 9.37681 1.24191 9.81128 1.2674 10.392Z" fill="#1A1A1A"/>
<path d="M3.23106 12.9986C3.07896 12.9094 2.93058 12.7861 2.7906 12.6433L3.22244 11.9646L3.89803 13.1312C3.74611 13.1704 3.56919 13.1581 3.36843 13.0691C3.32238 13.0489 3.27656 13.0253 3.23106 12.9986ZM2.71888 12.5689C2.64849 12.4909 2.58157 12.4077 2.51818 12.3203L2.81321 11.7605C2.86406 11.6679 2.94278 11.6314 3.00498 11.6679C3.01752 11.6752 3.0294 11.6856 3.04023 11.699C3.10635 11.7808 3.10452 11.9331 3.04107 12.0412L2.71888 12.5689ZM3.95634 13.1134L3.44391 12.2156C3.34435 12.0388 3.29656 11.8646 3.34852 11.8358C3.36267 11.8277 3.38201 11.8314 3.40465 11.8447C3.46513 11.8802 3.54914 11.984 3.62059 12.1147L4.11347 13.0217C4.06563 13.0609 4.01379 13.0924 3.95634 13.1134ZM3.09383 11.6916C3.08387 11.6858 3.07396 11.6775 3.06473 11.6667C3.04608 11.6441 3.03621 11.6195 3.03311 11.5979C3.02648 11.5806 3.02561 11.5595 3.03329 11.5487C3.04357 11.5326 3.06362 11.5298 3.08492 11.5423C3.09377 11.5474 3.10283 11.5553 3.1115 11.5659L3.11687 11.5708L3.11926 11.5749C3.1488 11.6111 3.15966 11.6596 3.14522 11.6852C3.13754 11.696 3.12737 11.6999 3.11322 11.6969L3.1141 11.7001C3.10744 11.6984 3.10063 11.6956 3.09383 11.6916ZM3.27566 11.7706C3.27292 11.769 3.27015 11.7671 3.26735 11.7649C3.25294 11.7556 3.23966 11.7379 3.22778 11.7184C3.20701 11.6802 3.20606 11.6393 3.22376 11.6209L3.22716 11.614L3.22932 11.6125L3.23155 11.613C3.24118 11.6089 3.25285 11.6112 3.26491 11.6183C3.28194 11.6283 3.29975 11.6478 3.31374 11.6728C3.32486 11.6919 3.33148 11.7092 3.33145 11.7263C3.33459 11.7487 3.3279 11.7654 3.31572 11.7744C3.30352 11.7793 3.29006 11.7791 3.27566 11.7706ZM2.45183 12.2329C2.19244 11.8503 2.00321 11.3967 1.94464 10.9615C1.93374 10.8761 1.93195 10.7971 1.93092 10.7184L2.83087 11.491L2.45183 12.2329ZM3.00754 11.4434C3.00282 11.4406 2.99797 11.4371 2.99307 11.4328C2.97779 11.4202 2.96451 11.4026 2.95577 11.3876C2.94375 11.3644 2.93826 11.3387 2.94268 11.3207C2.94408 11.3009 2.95614 11.2891 2.9693 11.2861C2.9797 11.2866 2.9906 11.2885 3.00179 11.295C3.00493 11.2969 3.0081 11.2991 3.01128 11.3017C3.04184 11.3268 3.06375 11.3746 3.06156 11.411L3.06243 11.4142L3.06266 11.4197L3.06353 11.4229C3.05774 11.4501 3.03462 11.4593 3.00754 11.4434ZM3.29867 11.569C3.27758 11.5567 3.2568 11.5302 3.24311 11.4995L3.24061 11.4927C3.22551 11.4489 3.23882 11.4136 3.26757 11.4125C3.275 11.4124 3.28278 11.4152 3.29087 11.42C3.29724 11.4237 3.3038 11.4286 3.31053 11.4341C3.32593 11.4495 3.34007 11.4703 3.34995 11.4949C3.35842 11.5214 3.35865 11.5449 3.35188 11.5597C3.3472 11.5713 3.33854 11.5761 3.32526 11.5764C3.31669 11.577 3.30765 11.5743 3.29867 11.569ZM3.13319 11.367C3.1008 11.348 3.0749 11.3081 3.06963 11.2669C3.06653 11.2453 3.07106 11.23 3.07874 11.2193C3.08876 11.2117 3.10192 11.2087 3.11849 11.2166C3.12103 11.2177 3.12359 11.219 3.12617 11.2205C3.14036 11.2288 3.15486 11.2434 3.16683 11.2611C3.17871 11.2806 3.18756 11.2984 3.1907 11.3208C3.19604 11.3607 3.17619 11.3805 3.14548 11.3697L3.14635 11.3728L3.13659 11.3689L3.13319 11.367ZM4.16074 12.9866L3.52384 11.7915L4.31492 11.7684C4.33702 11.8567 4.35764 11.945 4.36938 12.0326C4.42715 12.4665 4.3427 12.7991 4.16074 12.9866ZM2.72079 11.2788C2.68951 11.2604 2.65583 11.2365 2.62135 11.2076L1.93159 10.6273C1.9354 10.5408 1.94533 10.4596 1.96294 10.3856L2.65883 10.9354C2.7962 11.0446 2.90674 11.201 2.89446 11.279C2.8875 11.3389 2.81505 11.3341 2.72079 11.2788ZM3.50464 11.6242C3.45183 11.5933 3.40995 11.5494 3.39295 11.4995C3.35784 11.4 3.43755 11.3283 3.56104 11.3335L4.18461 11.3655C4.22562 11.4649 4.26005 11.5658 4.28934 11.6673L3.6776 11.6718C3.61818 11.6724 3.5562 11.6545 3.50464 11.6242ZM2.89105 11.0178L1.98812 10.3161C2.10312 9.95477 2.38675 9.78026 2.76708 9.87413L2.89105 11.0178ZM3.04328 9.98474C3.04933 9.98829 3.05537 9.99161 3.06141 9.9947L3.1925 10.8815C3.21835 11.0608 3.18373 11.1876 3.11304 11.156C3.11019 11.1547 3.10736 11.1533 3.10451 11.1516C3.03365 11.1101 2.9634 10.9417 2.94287 10.771L2.83886 9.89649C2.87627 9.90856 2.91197 9.91514 2.95032 9.93225C2.96737 9.93985 2.98382 9.9491 3.0003 9.95877C3.00853 9.96359 3.01678 9.96853 3.0251 9.97341C3.03117 9.97742 3.03723 9.9812 3.04328 9.98474ZM3.32033 11.2067L3.13622 10.0368C3.53552 10.2862 3.90447 10.7483 4.13763 11.2644L3.32033 11.2067ZM3.08846 9.76497C3.0314 9.73151 2.97383 9.70181 2.91613 9.67631C2.13571 9.33169 1.61315 9.86927 1.74766 10.8747C1.87233 11.81 2.51483 12.817 3.22836 13.2354C3.28602 13.2692 3.34426 13.2993 3.40261 13.325C4.17925 13.6674 4.70109 13.1303 4.56636 12.1194C4.44254 11.1891 3.79946 10.1819 3.08846 9.76497Z" fill="#CCCCCC"/>
<path d="M23.3515 6.7735C23.3962 6.73651 23.4357 6.73553 23.4832 6.76305C23.6598 6.87355 23.8141 7.37931 23.7997 7.80317C23.7971 7.99126 23.7776 8.20189 23.7541 8.40259C23.5777 7.93431 23.3327 7.49668 23.0488 7.14531C23.1282 6.99592 23.2365 6.85647 23.3515 6.7735Z" fill="#FF0000"/>
<path d="M23.2976 8.56201C23.3162 8.38211 23.3105 8.10235 23.154 7.99855C22.9975 7.89474 22.9425 7.84585 22.9252 7.60226C22.9127 7.47329 22.9643 7.30366 23.0485 7.14526C23.3324 7.49664 23.5774 7.93427 23.7539 8.40255C23.7343 8.56951 23.7121 8.73 23.6939 8.86083C23.5915 8.78442 23.4614 8.68001 23.2976 8.56201Z" fill="#BF0000"/>
<path d="M28.2681 12.0779L28.2781 12.3073C28.4371 12.4685 29.1983 13.2535 29.3997 13.7797C29.5949 14.3132 29.7144 15.2289 29.7345 15.3864L30.1849 16.1648C30.2581 15.8758 30.3589 15.3135 30.3067 14.877C29.966 14.3399 29.0009 12.9713 28.2681 12.0779Z" fill="#CCCCCC"/>
<path d="M5.72705 13.8565C6.16603 14.0753 7.40921 14.7049 8.20111 14.9867C8.40882 15.0534 8.68471 15.1686 8.99394 15.2901C8.01033 14.7044 6.63237 14.0135 5.74431 13.6479C5.74085 13.7198 5.73078 13.7918 5.72705 13.8565Z" fill="#4D4D4D"/>
<path d="M8.85303 2.15134C9.84166 2.24887 11.0109 2.39937 11.9248 2.59929C13.0919 2.8503 14.2014 3.29658 14.9154 3.60905C14.3784 3.11276 13.6499 2.47042 12.9941 1.97707C12.0921 1.29596 10.4814 0.869314 9.52795 0.67041C9.59204 0.776462 9.65019 0.897074 9.66246 1.02596C9.68288 1.34127 9.14495 1.87854 8.85303 2.15134Z" fill="#BF0000"/>
<path d="M3.23755 5.0104C3.2464 5.36188 3.32024 5.53949 3.35637 5.61035C3.41484 5.5874 3.46041 5.5719 3.50566 5.54923C3.91412 5.37404 4.5341 5.05006 4.66955 4.97495C4.14914 4.55715 3.76764 4.29384 3.68625 4.24561C3.55867 4.34926 3.43769 4.45275 3.31703 4.56338L3.31735 4.57056C3.27021 4.70091 3.23094 4.85982 3.23755 5.0104Z" fill="#BF0000"/>
<path d="M8.86902 0.55034C8.96204 0.562406 9.1085 0.587475 9.28822 0.618905C9.38565 0.73136 9.48465 0.879611 9.49818 1.03721C9.51387 1.24495 9.00264 1.78875 8.62088 2.1212C8.54799 2.11582 8.4751 2.11044 8.40185 2.09793C8.49141 2.03109 8.76038 1.83781 8.84993 1.62027C8.92157 1.44624 8.89078 1.34651 8.85555 1.29713C9.01895 1.25721 9.17673 1.23893 9.34139 1.22771C9.03783 1.15997 8.73324 1.17824 8.42977 1.24047C8.15685 1.01924 7.82021 0.812564 7.45117 0.636564C8.04341 0.538359 8.59347 0.516375 8.86902 0.55034Z" fill="#BF0000"/>
<path d="M2.08204 3.66082C2.09526 3.6605 5.23998 1.40785 6.12736 1.00545C6.52743 0.828237 7.00096 0.710846 7.45089 0.63623C7.81993 0.812231 8.15657 1.01891 8.42949 1.24013C7.3724 1.45691 6.331 2.3056 5.41226 2.77449C4.85484 3.16873 1.86847 4.96526 2.50609 5.79643C2.39552 5.81262 2.28571 5.82878 2.18057 5.84479C1.85847 5.5284 1.53626 5.24816 1.20703 5.00998C1.37698 4.6323 1.64486 4.18473 2.08204 3.66082Z" fill="#FF0000"/>
<path d="M2.17996 5.84482C2.17275 5.84592 2.16482 5.84704 2.15764 5.84814C1.88864 5.89072 1.63284 5.93293 1.44966 5.97335C1.22717 6.02192 1.05654 6.0477 0.931152 6.0508C0.942244 5.81203 1.00308 5.46185 1.20642 5.01001C1.53565 5.2482 1.85786 5.52844 2.17996 5.84482Z" fill="#BF0000"/>
<path d="M3.82666 4.12746C3.99038 4.24541 4.46082 4.57832 5.05695 5.06596C5.74958 5.64457 7.00158 6.77635 7.16687 6.93019C7.30641 6.94824 8.00464 7.05297 8.29783 7.11033C9.25721 7.29471 9.43917 7.22563 9.47121 7.20329C9.68207 7.04018 10.6923 6.27586 11.7305 5.54676C12.6408 4.91415 13.87 4.17309 14.2499 3.94837C14.0526 3.81688 13.5447 3.53519 12.5172 3.30224C11.1559 2.99138 6.36152 2.72968 5.91814 2.71191C5.78301 2.79425 5.64792 2.87653 5.51247 2.95165C4.94057 3.3175 4.36274 3.69787 3.82666 4.12746Z" fill="#333333"/>
<path d="M7.96826 8.18066C8.154 8.49907 8.66534 9.31185 9.42898 10.1542C9.4425 10.0104 9.47827 9.77262 9.54298 9.44083C9.62907 8.99369 9.84964 8.60065 9.96684 8.41113C9.06812 8.25393 8.27938 8.19452 7.96826 8.18066Z" fill="#333333"/>
<path d="M6.63358 9.08933C6.60357 9.08276 6.57445 9.08247 6.54443 9.07752C6.95368 9.52379 7.31647 10.0066 7.60718 10.5016C7.93011 10.6082 8.26008 10.6915 8.32299 10.7055C8.2718 10.7427 8.00846 10.7636 7.83499 10.7248C7.83499 10.7248 7.87427 10.8674 7.91359 11.1607C7.96231 11.5184 7.94474 11.7197 7.90453 11.8571C7.99378 11.9339 8.07705 12.0251 8.16631 12.1019C8.22536 11.9425 8.31051 11.7753 8.42174 11.6003C8.47108 11.5201 8.52478 11.3896 8.56563 11.2666C8.5961 11.2084 8.61308 11.1434 8.63758 11.0997C8.65582 11.0634 8.66742 11.0272 8.67905 10.991C8.72714 10.8822 8.7821 10.7803 8.85031 10.6781C8.35502 10.0803 7.86067 9.50397 7.54456 9.22467C7.40848 9.13473 7.26611 9.05212 7.11812 8.99121C7.28907 9.12336 7.44839 9.29167 7.52569 9.39739C7.52569 9.39739 7.04082 9.18689 6.63358 9.08933ZM7.6118 9.55319C7.68882 9.65178 7.9968 10.0461 8.11212 10.2658C8.1772 10.3933 8.19918 10.443 8.20672 10.4644C8.15769 10.401 7.90441 10.0484 7.79628 9.84289C7.70325 9.68012 7.63318 9.58854 7.6118 9.55319Z" fill="#BF0000"/>
<path d="M7.25822 10.3731C6.66618 10.1293 6.34566 10.0511 6.18064 9.90447C6.01283 9.69331 5.8381 9.47513 5.68319 9.25646C5.67469 9.21361 5.67218 9.15623 5.71711 9.12638C5.78821 9.07139 6.16109 9.01437 6.54461 9.07755C6.95386 9.52382 7.31665 10.0066 7.60736 10.5016C7.48498 10.4612 7.36364 10.4178 7.25822 10.3731Z" fill="#FF0000"/>
<path d="M8.6377 11.5447C9.5286 12.2762 10.3755 13.0592 11.2165 13.8566C11.4509 14.0805 11.6721 14.3047 11.9 14.5288C11.9345 14.5638 11.9823 14.5985 12.0169 14.6335C11.6781 13.9887 10.7831 13.0132 10.2177 12.3238C9.91917 11.9938 9.44401 11.4027 8.96256 10.8188C8.9129 10.8918 8.87048 10.979 8.83466 11.066C8.81646 11.1024 8.80482 11.1386 8.78662 11.1749C8.76901 11.2256 8.74514 11.2836 8.72124 11.3416C8.69769 11.4068 8.66785 11.4793 8.6377 11.5447Z" fill="#BF0000"/>
<path d="M8.23834 12.6815C9.47456 13.4547 10.7668 14.1477 12.0681 14.7471L12.0678 14.7399C12.053 14.7044 12.0382 14.6689 12.0168 14.6335C11.9823 14.5985 11.9345 14.5638 11.8999 14.5288C11.6721 14.3047 11.4509 14.0805 11.2164 13.8566C10.3755 13.0592 9.52856 12.2763 8.63765 11.5447C8.61375 11.6027 8.58988 11.6607 8.55879 11.7045C8.34259 12.0472 8.23546 12.3155 8.23834 12.6815Z" fill="#FF0000"/>
<path d="M12.4502 14.1203C12.6368 14.0081 12.8841 13.923 13.0887 13.9179C13.1679 13.916 13.2411 13.9285 13.3017 13.9557C13.4507 14.0382 13.6119 14.4002 13.6808 14.6138C13.6958 14.6565 13.7298 14.6772 13.7628 14.6764C13.7694 14.6762 14.2247 14.665 14.4566 14.8315C14.5206 14.876 14.5602 14.9335 14.586 14.9922C13.848 15.0064 13.0906 14.5781 12.3354 14.2016C12.3708 14.1749 12.4012 14.1488 12.4502 14.1203Z" fill="#FF0000"/>
<path d="M12.3352 14.2019C13.0904 14.5784 13.8477 15.0067 14.5857 14.9924C14.6122 15.0526 14.624 15.1141 14.6295 15.1648C14.4225 15.1125 13.9216 14.9886 13.5998 14.8817C13.4458 14.8353 13.2462 14.8043 13.0464 14.7662C12.7403 14.7164 12.3541 14.647 12.2633 14.5344C12.214 14.4638 12.192 14.4141 12.1963 14.3638C12.2032 14.3146 12.2589 14.2595 12.3352 14.2019Z" fill="#BF0000"/>
<path d="M9.57471 10.3231C9.76166 10.5195 9.95527 10.7157 10.1683 10.9041C11.6063 12.2108 13.7669 13.8727 15.2375 14.5685C14.9248 13.7651 13.7431 10.7726 13.2437 10.0816C12.6391 9.24957 11.2658 8.6663 10.1465 8.44995C10.0594 8.57411 9.80055 8.99684 9.70286 9.48014C9.60486 9.95632 9.58379 10.2296 9.57471 10.3231Z" fill="#333333"/>
<path d="M9.02393 10.7243C9.55315 11.3428 10.1245 12.0177 10.3121 12.2284C10.4403 12.4406 11.6034 13.6535 12.0377 14.3677C12.0371 14.3533 12.0302 14.3464 12.0361 14.3318C12.0566 14.195 12.1574 14.0848 12.3702 13.9647C12.6599 13.7924 13.096 13.6453 13.3735 13.7963C13.59 13.9129 13.7604 14.3322 13.8204 14.4958C13.9593 14.4995 14.3172 14.5266 14.5419 14.6789C14.8417 14.8868 14.7927 15.2756 14.7867 15.2901C14.7811 15.3118 14.7688 15.3336 14.7497 15.3485C14.7368 15.356 14.7239 15.3635 14.7107 15.3638L14.6909 15.3643C14.684 15.3573 13.9763 15.1882 13.5609 15.0549C13.4135 15.0083 13.2139 14.9774 13.021 14.9463C12.6681 14.8832 12.335 14.8197 12.1835 14.6799C12.1914 14.7084 12.1923 14.7299 12.1936 14.7586C12.2885 14.8137 12.6002 14.9926 12.7913 15.1314C13.235 15.4577 14.2714 16.0422 14.8805 16.3717C14.91 16.292 14.9464 16.2193 14.9951 16.1248C15.068 15.9794 15.1657 15.7976 15.2547 15.5657C15.385 15.2251 15.3373 14.8889 15.3199 14.7961C13.8311 14.1367 11.5615 12.3984 10.0685 11.0429C9.85541 10.8544 9.66184 10.6582 9.47485 10.4619C9.29891 10.5165 9.16314 10.5845 9.06163 10.6803C9.04909 10.695 9.03651 10.7096 9.02393 10.7243Z" fill="#FF0000"/>
<path d="M8.24365 12.7961C8.25242 12.8462 8.24806 12.8965 8.25714 12.9537C8.28577 13.154 8.41713 13.4379 8.55573 13.7359C8.69402 14.0268 8.83985 14.339 8.92596 14.6455C9.33951 14.8864 9.70627 15.1142 9.98561 15.3083C10.0538 15.3568 10.1493 15.4263 10.2788 15.5163C10.2923 15.5232 10.2989 15.523 10.3058 15.53C10.3124 15.5299 10.3124 15.5299 10.3124 15.5299C10.8756 15.7169 11.439 15.9111 11.9962 16.1126C12.8955 16.4349 13.7776 16.815 14.6424 17.253C14.7074 16.9284 14.7753 16.6683 14.8158 16.5381C14.2065 16.2015 13.1569 15.6174 12.706 15.2768C12.4876 15.1171 12.0816 14.8975 12.0746 14.8905C12.0614 14.8908 12.0551 14.8981 12.042 14.8985C10.7227 14.3426 9.47331 13.5696 8.24365 12.7961Z" fill="#BF0000"/>
<path d="M14.8047 17.3352C14.9059 17.3829 15.0074 17.4378 15.1023 17.4929C15.1912 17.261 15.3282 17.071 15.4938 16.9306C15.8951 16.5904 16.4547 16.5479 17.0744 16.8197C17.1621 16.8606 17.257 16.9156 17.3585 16.9705C18.5042 17.6384 19.5121 19.2284 19.7212 20.6803C20.0998 21.0298 20.4722 21.3866 20.8811 21.6708C21.2353 21.9133 21.5951 22.134 21.9734 22.3256C21.8169 22.2219 21.6856 22.0887 21.6126 21.9326C21.5467 21.7835 21.5397 21.6258 21.5994 21.4807C21.6654 21.3284 21.8366 21.1662 22.0554 21.0316C21.7531 20.9171 21.3291 20.741 20.9106 20.536C20.1479 20.1673 19.7456 19.883 19.7255 19.8763C19.7117 19.8623 19.6976 19.8411 19.69 19.8197C19.6891 19.7982 19.2528 17.9859 17.7211 16.9544C16.7548 16.3108 15.9192 16.3889 15.4878 16.6436C15.3464 16.7332 15.1881 16.7372 15.0391 16.6547C15.019 16.648 14.9916 16.6272 14.9649 16.6206C14.925 16.7652 14.8572 17.0253 14.8047 17.3352Z" fill="#BF0000"/>
<path d="M25.2609 21.8211C25.287 21.8132 25.3131 21.8054 25.3395 21.8048C25.7448 21.7086 27.3804 20.8929 28.0399 20.4172L28.2577 20.2611C28.8786 19.8079 29.7304 19.1983 30.0563 18.6447C30.1486 18.4916 30.2045 18.2606 30.2394 18.0013C30.246 18.0012 30.2457 17.994 30.2454 17.9868C30.2684 17.9073 30.285 17.8351 30.3017 17.7629C30.329 17.633 30.3563 17.5032 30.3997 17.4375C30.4308 17.3937 30.4685 17.3497 30.5188 17.291C30.5301 17.8506 30.4987 18.6409 30.2832 18.9979C29.9574 19.5515 29.1055 20.1612 28.4846 20.6144L28.2668 20.7705C27.6073 21.2462 25.9717 22.0619 25.5664 22.158C25.54 22.1587 25.5139 22.1665 25.4878 22.1743C25.3322 22.1912 24.0709 22.3202 22.8521 22.0708L23.028 21.7904C24.1044 21.9428 25.123 21.8388 25.2609 21.8211Z" fill="#BF0000"/>
<path d="M23.2268 21.2324C23.3858 21.2428 23.5319 21.2607 23.6579 21.272C23.4351 21.4199 23.1821 21.6109 23.0309 21.7858C23.0296 21.7872 23.0279 21.7886 23.0266 21.7901C23.0271 21.7901 23.0275 21.7901 23.028 21.7902L22.852 22.0706C22.7321 22.0461 22.6118 22.0223 22.4937 21.9898C22.2599 21.931 22.0676 21.7636 22.0513 21.6922C22.1128 21.5902 22.6901 21.1955 23.2268 21.2324Z" fill="#FF0000"/>
<path d="M19.394 17.7456C19.7633 18.0307 20.4417 18.5881 20.8063 19.0672C21.2548 19.6518 21.7673 20.0411 21.8628 20.1105C22.0291 20.1351 23.2713 20.291 24.1555 20.2691L24.2149 20.2676C23.9824 20.0868 23.5933 19.8021 23.4579 19.7265C23.3969 19.6921 23.1898 19.6398 22.9557 19.5738C22.4071 19.4152 21.6579 19.204 21.3295 18.9466C20.9049 18.6054 19.922 17.8832 19.7721 17.7793L19.394 17.7456Z" fill="#CCCCCC"/>
<path d="M0.521484 7.25259C0.589353 7.59542 0.75879 8.44537 0.830165 9.01784C0.926919 8.81446 1.05796 8.63896 1.22387 8.50566C1.6512 8.15771 2.23758 8.12168 2.89088 8.40696C2.98579 8.46204 3.08699 8.50978 3.18879 8.57184C4.42254 9.2878 5.5027 11.0195 5.71052 12.5935C5.72967 12.7294 5.73534 12.8584 5.74069 12.9804C5.74824 13.0017 5.75013 13.0447 5.7517 13.0805C5.91982 13.1482 6.10147 13.2226 6.30384 13.3181C7.02472 13.6376 7.92974 14.0889 8.70846 14.5219C8.62549 14.287 8.51548 14.0385 8.41333 13.8185C8.26722 13.4992 8.12893 13.2083 8.09244 12.9795C8.07455 12.8723 8.07707 12.779 8.07297 12.6857C7.99123 12.6303 7.90984 12.5821 7.82153 12.5269C7.10631 12.035 6.3647 11.5437 5.74906 10.913C4.97692 9.87697 4.09666 8.63549 2.90094 8.1842C2.5584 8.05631 2.1788 7.98676 1.81775 8.03876L1.25648 7.29183C1.25648 7.29183 2.21171 6.62936 2.2642 6.47018C2.29844 6.34728 2.26887 6.12551 2.25094 6.01831C2.23116 6.0188 2.20509 6.02659 2.18528 6.02708C1.91631 6.06966 1.6668 6.10453 1.49019 6.14478C1.24195 6.20836 1.06439 6.22713 0.932443 6.23039L0.941254 6.43112C0.953843 6.71794 0.697737 7.05442 0.521484 7.25259Z" fill="#BF0000"/>
<path d="M29.3633 15.6685C29.2775 15.0677 28.9585 13.8195 27.8123 12.2401C26.9971 11.1262 26.0148 10.4184 25.2832 10.0059C26.039 10.2168 27.1262 10.7569 27.9399 11.6843C27.9886 11.7405 28.0442 11.8037 28.0932 11.8671L28.1146 12.3546C28.1156 12.3762 28.1297 12.3973 28.1439 12.4185C28.1508 12.4255 29.0417 13.3078 29.2435 13.8411C29.4459 14.3888 29.5701 15.4122 29.5704 15.4193C29.571 15.4337 29.5783 15.4478 29.5854 15.462L30.1499 16.4314C30.164 16.4526 30.1914 16.4734 30.2244 16.4726C30.2244 16.4726 30.2244 16.4726 30.231 16.4724C30.257 16.4646 30.2891 16.4423 30.2944 16.4134C30.3061 16.3773 30.4427 15.8786 30.4861 15.3608C30.5313 15.6396 30.5948 16.0328 30.5845 16.2484C30.5794 16.2844 30.5638 16.3781 30.4462 16.5604C30.3712 16.6556 30.2898 16.7581 30.2078 16.8463C30.1255 16.9493 30.0508 17.0383 30.0008 17.1153C29.8343 16.851 29.6315 16.5876 29.4013 16.3249C29.4166 16.1579 29.4044 15.9543 29.3633 15.6685Z" fill="#BF0000"/>
<path d="M1.25684 7.29161L1.81811 8.03854C2.17915 7.98654 2.55876 8.05609 2.90129 8.18398C4.09702 8.63527 4.97728 9.87675 5.74941 10.9128C6.48289 11.5191 7.26629 12.0595 8.0683 12.5708C8.07391 12.3984 8.11382 12.2538 8.16662 12.1018C7.39387 11.6544 6.07615 9.92849 5.42972 9.04729C5.37283 8.95539 5.32663 8.80583 5.38693 8.67515C5.46014 8.53696 5.60597 8.54767 5.71185 8.55223C6.56189 8.65324 7.51529 8.85214 8.08411 9.6204C8.20258 9.76103 8.53698 10.1547 8.91282 10.5904L8.95053 10.5464C9.052 10.4506 9.18744 10.3755 9.3433 10.3142C8.34363 9.21203 7.74843 8.14294 7.74119 8.12879C7.72672 8.10041 7.72515 8.06457 7.74402 8.04255C7.75593 8.01356 7.78141 7.99142 7.81471 7.99774C7.82132 7.99757 8.87966 8.02881 10.125 8.25636C11.5372 8.52289 12.8086 9.19481 13.3712 9.97041C13.9623 10.7956 15.4018 14.5425 15.4681 14.6988L15.4684 14.706C15.4684 14.706 15.4684 14.706 15.4687 14.7132C15.4759 14.7273 15.5819 15.1841 15.4037 15.6407C15.3151 15.8798 15.2177 16.0687 15.1382 16.2143C15.0895 16.3088 15.0597 16.3813 15.0298 16.4538C15.0568 16.4675 15.0839 16.4812 15.1109 16.4949C15.2058 16.55 15.3114 16.5474 15.4079 16.4875C15.871 16.2033 16.7788 16.1163 17.7999 16.8016C19.2907 17.8054 19.7731 19.4658 19.8382 19.7442C19.947 19.8132 20.3344 20.0621 20.9758 20.3763C21.4616 20.6084 21.966 20.8112 22.2548 20.9189C22.52 20.7903 22.8201 20.7039 23.1104 20.6968C23.1566 20.6956 23.2028 20.6945 23.2427 20.7007C23.6336 20.7269 23.946 20.7694 24.1122 20.794C24.1785 20.7995 24.2376 20.7909 24.2832 20.7754C24.296 20.7679 25.3518 20.2896 25.5891 20.2765C25.635 20.2682 25.701 20.2666 25.7871 20.2716C26.0513 20.2723 26.4875 20.2758 26.907 20.0501C27.4811 19.7344 29.5204 18.1838 29.6967 17.9857C29.7532 17.9196 29.7862 17.7681 29.8192 17.6166C29.8582 17.4505 29.8965 17.2701 29.9895 17.1315C29.9925 17.1265 29.9979 17.1202 30.0012 17.1151C29.8347 16.8508 29.632 16.5874 29.4017 16.3247C29.371 16.6592 29.2213 16.8345 28.9132 17.1437C28.4576 17.6 26.3105 19.1031 25.4228 19.3475C25.1353 19.4192 24.8465 19.4623 24.5627 19.4693C24.0084 19.483 23.4746 19.3599 23.0409 19.1122C22.7493 18.94 21.9338 18.4218 21.0708 17.8762C20.1061 17.2684 19.0185 16.5704 18.5374 16.2952C17.6559 15.7787 16.6597 15.2076 16.6054 15.1731C16.386 15.1426 16.2329 15.1177 16.1858 15.0974C15.9231 14.9818 15.8109 14.6832 15.7138 14.4272C15.6981 14.3701 15.6761 14.3204 15.661 14.2777C15.5501 14.0077 13.9981 10.4071 13.9767 10.3717C13.9616 10.329 13.9727 10.2785 14.0113 10.2561C14.4034 10.0095 14.7953 9.75571 15.1875 9.50918C16.2473 8.82256 17.3839 8.07667 18.4972 7.2524L18.7017 7.09663C18.8812 6.97014 19.0536 6.83668 19.2331 6.71023C19.3547 6.62109 19.4766 6.53913 19.5982 6.44995C18.334 5.64147 15.7826 4.40548 15.7556 4.39178C15.7285 4.37813 15.7081 4.36426 15.6874 4.34327C15.6805 4.33625 15.5356 4.19628 15.3216 3.98626C14.728 3.70664 13.3534 3.09471 11.8925 2.77199C9.98477 2.35266 6.931 2.16269 6.83169 2.15796C6.61269 2.28539 6.40027 2.4127 6.18815 2.54714C7.34019 2.60475 11.3008 2.83689 12.5487 3.12182C13.997 3.45917 14.4379 3.87176 14.4587 3.89275C14.4794 3.91379 14.4873 3.94229 14.4885 3.971C14.4832 3.99983 14.4709 4.02164 14.4452 4.03665C14.4326 4.05133 12.8998 4.9506 11.8226 5.69502C10.7845 6.42412 9.78051 7.1811 9.5697 7.34421C9.52507 7.38119 9.45371 7.4117 9.29534 7.41562C9.11059 7.42019 8.79853 7.38485 8.2725 7.29019C7.95262 7.22635 7.13462 7.10304 7.12802 7.10321C7.10824 7.10369 7.09472 7.09684 7.08091 7.08282C7.06707 7.06883 5.69126 5.82525 4.95747 5.21178C4.90247 5.1629 4.85469 5.1282 4.80665 5.08633C4.80067 5.10084 4.7947 5.11532 4.77519 5.12298C4.76863 5.12315 4.0327 5.51461 3.57266 5.71981C3.27444 5.8492 2.73682 5.94146 2.25129 6.01809C2.26922 6.12529 2.2988 6.34706 2.26456 6.46996C2.21207 6.62914 1.25684 7.29161 1.25684 7.29161ZM19.0239 17.5967C19.0355 17.5605 19.0672 17.531 19.1071 17.5372L19.8038 17.6061C19.817 17.6058 19.8305 17.6126 19.844 17.6194C19.8575 17.6263 20.9634 18.4387 21.4219 18.8006C21.723 19.0372 22.4922 19.255 22.9941 19.4005C23.2615 19.4728 23.4488 19.5256 23.5233 19.5668C23.7398 19.6835 24.4713 20.2467 24.5056 20.2746C24.533 20.2955 24.5477 20.331 24.5361 20.3672C24.5311 20.4032 24.4993 20.4327 24.4664 20.4335C24.3677 20.4431 24.2687 20.4456 24.1565 20.4483C23.1996 20.472 21.8839 20.2965 21.8239 20.2836C21.8107 20.2839 21.7972 20.2771 21.7903 20.2701C21.7633 20.2564 21.1904 19.8471 20.6787 19.1779C20.1882 18.5369 19.0685 17.7104 19.055 17.7036C19.0208 17.6757 19.0123 17.6328 19.0239 17.5967Z" fill="#FF0000"/>
<path d="M18.9595 15.2227C19.516 15.2592 20.0055 15.2758 20.2095 15.2564C20.723 15.215 21.8269 14.7786 23.1365 13.9135C24.401 13.0711 24.7915 12.4873 24.9847 12.0733C25.0212 12.0007 24.9888 11.8651 24.9577 11.7582L24.9414 11.6868C24.876 11.4013 24.7751 11.0593 24.6283 10.7256C24.7208 11.3262 24.6215 12.0752 23.8438 12.7189C22.4097 13.91 21.2593 14.6419 20.4257 14.9137C19.9565 15.0617 19.4126 15.1613 18.9595 15.2227Z" fill="#1A1A1A"/>
<path d="M14.1621 10.3745C14.3903 10.9071 15.7131 13.9536 15.8102 14.2096C15.8322 14.2593 15.8476 14.3091 15.8696 14.3588C15.9595 14.6007 16.0497 14.8496 16.2382 14.9311C16.3457 14.9715 17.0895 15.0608 17.9188 15.1407C17.9515 15.1327 19.3363 15.0769 20.3786 14.7425C21.1862 14.4785 22.3237 13.754 23.7386 12.5778C24.7523 11.7416 24.5288 10.7136 24.2925 10.1452C24.2434 10.0818 24.2076 10.0181 24.1589 9.96191C23.999 9.77924 23.8268 9.61839 23.6552 9.47194C23.6486 9.4721 23.6486 9.4721 23.642 9.47226C23.6212 9.45122 21.0233 7.45556 19.9114 6.65768C19.8637 6.62294 19.8093 6.58841 19.7616 6.55371C19.6139 6.65068 19.4665 6.75483 19.3257 6.85876C19.1529 6.98509 18.9738 7.11872 18.801 7.245L18.5898 7.40098C17.4765 8.22524 16.3337 8.97848 15.2735 9.65787C14.9008 9.89679 14.5348 10.1355 14.1621 10.3745Z" fill="#333333"/>
<path d="M17.0503 15.227C17.4302 15.4545 18.0468 15.8053 18.6096 16.1358C19.0976 16.4181 20.1441 17.0812 21.15 17.7238C22.0129 18.2695 22.8218 18.7878 23.1131 18.9528C23.7366 19.3106 24.5659 19.3906 25.3819 19.1694C26.2306 18.9402 28.3649 17.4447 28.795 17.0106C29.2444 16.5616 29.3129 16.4666 29.1997 15.6942C29.1145 15.1078 28.8036 13.8953 27.6789 12.3512C26.4624 10.6731 24.8581 9.94479 24.3475 9.74925C24.2535 9.71569 24.1665 9.68915 24.0857 9.65527C24.1479 9.71831 24.2164 9.77405 24.2787 9.83708C24.3135 9.87928 24.3422 9.92882 24.3774 9.9782C24.3908 9.98505 24.4113 9.99891 24.4188 10.0202C24.4261 10.0344 24.4267 10.0488 24.4336 10.0557C24.7928 10.5637 24.9984 11.183 25.1046 11.647L25.1206 11.7111C25.153 11.8467 25.1935 12.018 25.1335 12.1558C24.928 12.5916 24.5256 13.2045 23.2222 14.0622C22.0734 14.8299 20.8689 15.3837 20.2304 15.4354C20.1977 15.4434 20.1647 15.4442 20.1251 15.4452C19.7358 15.4548 18.795 15.392 17.9264 15.3202L17.9198 15.3203L17.9195 15.3131C17.608 15.2921 17.3092 15.2565 17.0503 15.227Z" fill="#FF0000"/>
<path d="M19.024 17.5969C19.0123 17.6331 19.0208 17.676 19.0551 17.7038C19.0686 17.7107 20.1882 18.5371 20.6788 19.1781C21.1904 19.8473 21.7633 20.2566 21.7903 20.2703C21.7973 20.2773 21.8108 20.2841 21.824 20.2838C21.884 20.2967 23.1997 20.4723 24.1566 20.4486C24.2688 20.4458 24.3677 20.4433 24.4664 20.4337C24.4994 20.4329 24.5311 20.4034 24.5362 20.3674C24.5478 20.3312 24.533 20.2957 24.5057 20.2749C24.4714 20.247 23.7399 19.6837 23.5233 19.567C23.4488 19.5258 23.2616 19.473 22.9941 19.4007C22.4923 19.2552 21.723 19.0374 21.422 18.8008C20.9635 18.4389 19.8576 17.6265 19.8441 17.6197C19.8306 17.6128 19.8171 17.606 19.8039 17.6063L19.1072 17.5374C19.0673 17.5313 19.0356 17.5607 19.024 17.5969ZM19.3938 17.7457L19.7719 17.7794C19.9217 17.8833 20.9047 18.6055 21.3293 18.9467C21.6577 19.2041 22.4068 19.4152 22.9555 19.5739C23.1896 19.6399 23.3967 19.6922 23.4576 19.7266C23.5931 19.8022 23.9821 20.0868 24.2147 20.2677L24.1553 20.2692C23.2711 20.2911 22.0288 20.1352 21.8626 20.1106C21.7671 20.0412 21.2545 19.6519 20.8061 19.0673C20.4415 18.5882 19.7631 18.0308 19.3938 17.7457Z" fill="black"/>
<path d="M7.6123 9.55347C7.63369 9.58882 7.70376 9.68039 7.79679 9.84316C7.90491 10.0487 8.1582 10.4013 8.20723 10.4646C8.19968 10.4433 8.17771 10.3936 8.11263 10.266C7.99731 10.0464 7.68933 9.65206 7.6123 9.55347Z" fill="black"/>
<path d="M19.7465 21.5698C20.7361 21.9903 21.7982 22.409 21.9707 22.4263C22.0037 22.4255 22.0635 22.4312 22.1558 22.4289C22.1018 22.4015 22.0477 22.3742 21.9934 22.3396C21.6081 22.141 21.2417 21.9204 20.8806 21.6709C20.4718 21.3868 20.0994 21.0299 19.7207 20.6804C19.7216 20.702 19.7289 20.7161 19.7298 20.7376C19.7697 21.0453 19.7754 21.3251 19.7465 21.5698Z" fill="#FF0000"/>
<path d="M10.3057 15.5299C11.0545 16.0354 12.7408 17.1277 14.5013 18.2541C14.5257 17.909 14.5826 17.5487 14.6423 17.2529C13.7775 16.815 12.8954 16.4348 11.996 16.1126C11.4388 15.911 10.8754 15.7168 10.3123 15.5298C10.3123 15.5298 10.3123 15.5298 10.3057 15.5299Z" fill="#FF0000"/>
<path d="M14.6641 18.3579C14.7527 18.4203 14.8476 18.4754 14.9362 18.5378C14.9255 18.1433 14.9758 17.7832 15.1017 17.493C15.0068 17.4379 14.9053 17.3829 14.8041 17.3352C14.7385 17.6455 14.6819 18.0129 14.6641 18.3579Z" fill="#FF0000"/>
</svg>
