<svg width="78" height="54" viewBox="0 0 78 54" fill="none" xmlns="http://www.w3.org/2000/svg">
<path opacity="0.97" d="M1.25633 11.0864L5.98818 4.88867L31.4074 19.8234L31.7423 22.2233L28.8145 24.5282L35.0508 28.5647C34.8285 28.9268 34.6072 29.2894 34.3652 29.6383L27.6418 25.2866L27.2821 25.5192C24.5141 26.2868 21.4217 26.1906 18.8142 24.8196C17.8336 24.304 16.9089 23.6701 15.9703 23.063C14.6733 22.224 13.3762 21.385 12.0791 20.5459C10.462 19.4999 8.84489 18.4539 7.22779 17.4079C5.87787 16.5346 4.52794 15.6614 3.17802 14.7882C2.67677 14.464 2.17551 14.1398 1.67427 13.8155C0.803472 13.2522 0.602872 11.9423 1.25633 11.0864Z" fill="#888888"/>
<path d="M25.8928 20.7852V22.2315C25.8928 22.3398 25.955 22.4481 26.0448 22.4945L30.3001 24.5828L30.6662 24.7684C30.7008 24.7839 30.7353 24.7916 30.7698 24.7916C30.8735 24.7916 30.9632 24.722 31.0116 24.6137C31.0669 24.4668 31.0047 24.2966 30.8735 24.2347L29.9892 23.8016L26.4109 22.0382V21.2338L29.6991 22.8503L30.1412 23.0668C30.2724 23.1287 30.4244 23.0668 30.4797 22.9199C30.5419 22.773 30.4797 22.6028 30.3485 22.5332L30.2517 22.4867L26.7701 20.7775H26.7632L26.252 20.5222C26.1968 20.4913 26.1346 20.4913 26.0794 20.5067L26.0379 20.5299C25.9481 20.5763 25.8928 20.6769 25.8928 20.7852Z" fill="black"/>
<path d="M25.8928 20.785C25.8928 20.8314 25.8997 20.8701 25.9204 20.9165C25.9757 21.0557 26.1346 21.1176 26.2658 21.048L26.7632 20.7773H26.7701L26.9221 20.6922L30.4175 22.4092L30.8735 22.6335C30.908 22.649 30.9425 22.6567 30.9771 22.6567C31.0807 22.6567 31.1705 22.5948 31.2189 22.4865C31.2741 22.3396 31.212 22.1695 31.0807 22.1076L31.053 22.0921L27.0188 20.1044C26.9497 20.0734 26.8737 20.0734 26.8047 20.1121L26.0794 20.5065L26.0379 20.5298C25.9481 20.5762 25.8928 20.6767 25.8928 20.785Z" fill="black"/>
<path d="M26.4106 21.2334V22.0378L29.989 23.8012L29.6988 22.8499L26.4106 21.2334Z" fill="#8797C6"/>
<path d="M26.7698 20.7772L30.2514 22.4865L30.4172 22.4092L26.9217 20.6921L26.7698 20.7772Z" fill="#8797C6"/>
<path d="M29.6785 22.7727L29.6992 22.85L29.9893 23.8013L30.2035 24.5129L30.3002 24.5825L30.7838 24.9692L31.3433 24.8068V27.3592C31.3433 27.5216 31.3917 27.6685 31.4746 27.8001C31.5229 27.8929 31.5989 27.9702 31.6887 28.0243L33.4917 29.1923L34.2032 29.6563C34.2792 29.7027 34.369 29.7337 34.4588 29.7414C34.2654 30.1127 34.1479 30.5767 34.1479 31.1568C34.141 33.1678 35.3983 35.6041 36.9595 36.6096C37.7263 37.1046 38.417 37.1587 38.9282 36.8571C38.9282 36.8571 38.9282 36.8571 38.9282 36.8648C38.9421 36.8571 38.949 36.8493 38.9558 36.8493C38.9628 36.8416 38.9697 36.8416 38.9697 36.8339C39.4532 36.5245 39.9437 36.2074 40.4272 35.898C40.7174 35.7124 41.0351 35.5577 41.2286 35.2329C41.3805 34.9776 41.4565 34.6605 41.4704 34.3511L44.8553 36.54C44.8622 36.54 44.8622 36.54 44.8622 36.5477L49.5319 39.5641C49.5527 39.5796 49.5803 39.6105 49.6079 39.626L54.2639 42.6425C54.4435 42.7507 54.6507 42.774 54.8373 42.6966C54.9547 42.6579 55.0445 42.5729 55.1205 42.4723L55.6869 42.1088L56.06 42.3486L55.7215 42.5651C55.231 42.9054 54.934 43.5938 54.927 44.5761C54.9202 46.587 56.1774 49.0234 57.7386 50.0289C58.4708 50.5084 59.1409 50.578 59.6452 50.3228C59.6935 50.2918 59.735 50.2687 59.7834 50.2377L62.0354 48.7836V49.8897C62.0284 49.9361 62.0215 49.9825 62.0215 50.0211C62.0215 50.23 62.0975 50.4234 62.2357 50.578C62.2771 50.6167 62.3116 50.6631 62.36 50.7018L64.9436 52.3647C65.4548 52.6973 66.035 52.8597 66.6084 52.8597C67.1818 52.8597 67.762 52.6973 68.2732 52.3647L76.998 46.7263L77.1845 46.6025C77.5575 46.3628 77.8131 45.9837 77.9236 45.5429C77.9236 45.5352 77.9236 45.5274 77.9306 45.5197V45.5119C77.9582 45.4269 77.9789 45.3341 77.9789 45.2335V42.9905C77.9789 42.9673 77.972 42.9441 77.972 42.9209C77.9789 42.8281 77.9996 42.743 77.9996 42.6502C77.9996 42.0083 77.7026 41.4359 77.2052 41.111L76.0101 40.3453V39.0459C76.0101 38.6283 75.9411 38.2261 75.796 37.8394C75.6095 37.2825 75.2641 36.7798 74.8082 36.4162L68.9917 31.675L65.6482 23.9792C65.5929 23.84 65.4962 23.724 65.3719 23.6466L59.8524 20.0888C59.3136 19.7253 58.6367 19.733 58.084 20.0965L58.0356 20.1274C58.0356 20.112 58.0425 20.1043 58.0425 20.0888V18.8358C58.0425 18.7894 58.0287 18.743 58.008 18.7043C58.008 18.6888 58.0011 18.6811 57.9942 18.6734C57.9735 18.6502 57.9596 18.627 57.932 18.6038L57.9113 18.5805L56.4882 17.6601C56.4054 17.606 56.3086 17.606 56.2257 17.6601L53.3797 19.501C53.3727 19.501 53.3727 19.501 53.3727 19.501L52.834 19.849C52.7925 19.7949 52.7372 19.7407 52.6751 19.6943L50.2849 18.1474C50.0708 18.0159 49.8083 18.0159 49.5941 18.1474L47.6461 19.4004C47.6322 19.4159 47.6185 19.4314 47.6046 19.4391C47.5839 19.4545 47.5701 19.47 47.5563 19.4855C47.425 19.6015 47.3421 19.7639 47.3145 19.9418C47.3145 19.965 47.3076 19.9882 47.3076 20.0115C47.3076 20.0346 47.3007 20.0501 47.3007 20.0733C47.3007 20.1429 47.3076 20.2048 47.3214 20.2667L42.8381 15.6415C42.9625 15.5022 43.0246 15.3011 42.9763 15.1C42.9141 14.783 42.6309 14.5973 42.3546 14.6747L41.9885 14.7675L37.9404 10.5986C37.8575 10.5135 37.7332 10.498 37.6364 10.5599L37.3601 10.7378C37.3532 10.7301 37.3601 10.7146 37.3463 10.7069L36.8904 10.2506C36.9249 10.2042 36.9457 10.1578 36.9526 10.1036C36.9595 10.0108 36.9249 9.91795 36.8628 9.8561L35.3154 8.30147C35.1081 8.09262 34.8042 8.0617 34.5624 8.2164L33.8509 8.68045C33.6989 8.781 33.6091 8.9357 33.5676 9.12132C33.5538 9.1445 33.5469 9.17547 33.54 9.21413C33.54 9.21413 33.5331 9.22187 33.5331 9.22961V10.9235C33.5331 10.993 33.5538 11.0627 33.5953 11.1091L34.4657 12.2615C34.6453 12.5013 34.9009 12.625 35.1565 12.625H35.1634C35.3361 12.5941 35.5641 12.4704 35.5641 12.4704L35.6815 12.5786L35.8473 12.741C35.8127 12.8493 35.8404 12.9731 35.9164 13.0504L37.5605 14.752L40.4411 17.7143L41.4565 18.7662L40.8487 18.3718C40.6483 18.2402 40.3996 18.2402 40.1993 18.364L39.5983 18.7507C39.4878 18.7043 39.3773 18.6811 39.2805 18.6811C39.1355 18.6811 39.0042 18.7275 38.8937 18.8049L38.2651 19.207L37.8851 18.9982C37.823 18.9595 37.747 18.9518 37.6779 18.9828L35.1358 20.0656C35.1358 20.0733 35.1358 20.0733 35.1289 20.0733C35.1289 20.0733 35.1289 20.0733 35.1219 20.0733L31.0531 22.092L30.4176 22.4091L30.2518 22.4864L29.6785 22.7727Z" fill="black"/>
<path d="M38.2835 33.3663C38.2906 33.3741 38.2906 33.3741 38.2906 33.3818C38.2906 33.3741 38.2906 33.3741 38.2906 33.3663C38.2835 33.3508 38.2835 33.3432 38.2835 33.3277C38.2835 33.3199 38.2764 33.3122 38.2764 33.3044C38.2764 33.3277 38.2764 33.3432 38.2835 33.3663Z" fill="#888888"/>
<path d="M38.2149 33.0572C38.2218 33.0649 38.2286 33.0804 38.2286 33.0882C38.2286 33.0804 38.2286 33.0649 38.2218 33.0572C38.208 33.0108 38.1942 32.9644 38.1736 32.918C38.1873 32.9644 38.2011 33.0108 38.2149 33.0572Z" fill="#888888"/>
<path d="M30.3323 28.8419L33.1991 30.6905L31.1544 32.013C30.8504 32.2141 30.8504 32.6937 31.1544 32.8948L36.9432 36.6382L57.7155 50.0575V50.0653L62.6547 53.2519C64.1951 54.2496 66.1017 54.2496 67.6422 53.2519L76.5397 47.4974C76.816 47.3273 76.9679 47.0333 76.9956 46.724L68.2709 52.3624C67.7596 52.695 67.1794 52.8574 66.606 52.8574C66.0326 52.8574 65.4524 52.695 64.9412 52.3624L62.3576 50.6995C62.3093 50.6608 62.2747 50.6144 62.2333 50.5757C62.0951 50.421 62.0191 50.2277 62.0191 50.0189C62.0191 49.9802 62.026 49.9338 62.0329 49.8874V48.7813L59.7809 50.2354C59.7326 50.2664 59.6911 50.2896 59.6428 50.3205C59.1385 50.5757 58.4685 50.5062 57.7362 50.0266C56.175 49.0211 54.9178 46.5848 54.9247 44.5738C54.9316 43.5915 55.2286 42.9032 55.7191 42.5629L56.0576 42.3463L55.6845 42.1065L55.1181 42.47C55.0421 42.5706 54.9523 42.6557 54.8349 42.6943C54.6483 42.7717 54.4411 42.7485 54.2615 42.6402L49.6055 39.6238C49.5779 39.6083 49.5503 39.5774 49.5296 39.5619L44.8598 36.5454C44.8598 36.5377 44.8598 36.5377 44.8529 36.5377L41.4679 34.3489C41.4542 34.6582 41.3781 34.9753 41.2262 35.2306C41.0327 35.5554 40.715 35.7101 40.4249 35.8958C39.9413 36.2051 39.4508 36.5222 38.9673 36.8316C38.9673 36.8393 38.9604 36.8393 38.9535 36.8471C38.9466 36.8471 38.9397 36.8548 38.9258 36.8626C38.9258 36.8548 38.9258 36.8548 38.9258 36.8548C38.4146 37.1565 37.7238 37.1023 36.9571 36.6073C35.3959 35.6018 34.1386 33.1655 34.1455 31.1545C34.1455 30.5744 34.263 30.1104 34.4564 29.7391C34.3666 29.7314 34.2768 29.7004 34.2008 29.654L33.4893 29.19L31.6863 28.0221C31.5965 27.9679 31.5205 27.8906 31.4722 27.7977C31.4238 27.7823 31.3685 27.7901 31.3271 27.821L30.3323 28.4629C30.2011 28.548 30.2011 28.7569 30.3323 28.8419Z" fill="#888888"/>
<path d="M34.1875 27.8526L34.6365 28.1465C34.7401 27.9918 34.823 27.9299 34.9543 27.8449C35.1477 27.7211 35.348 27.6592 35.5553 27.6592C35.7556 27.6592 35.9559 27.7211 36.1425 27.8449L38.7813 29.5464C39.5273 30.0337 40.0731 30.8613 40.2734 31.7972L40.8606 32.1684C40.7294 30.869 40.0593 29.7088 39.0438 29.0437L36.405 27.3421C35.873 26.994 35.2375 26.994 34.7056 27.3421C34.4984 27.4736 34.3257 27.6515 34.1875 27.8526Z" fill="#3751A0"/>
<path d="M32.73 25.563V26.9088L34.1875 27.8524C34.3257 27.6513 34.4984 27.4734 34.7056 27.3419C35.2376 26.9938 35.8731 26.9938 36.405 27.3419L39.0439 29.0435C40.0593 29.7086 40.7294 30.8688 40.8607 32.1682L44.515 34.5272V32.2223L36.329 26.932L32.73 25.563Z" fill="#CCCCCC"/>
<path d="M32.73 25.563V26.9088L34.1875 27.8524C34.3257 27.6513 34.4984 27.4734 34.7056 27.3419C35.2376 26.9938 35.8731 26.9938 36.405 27.3419L39.0439 29.0435C40.0593 29.7086 40.7294 30.8688 40.8607 32.1682L44.515 34.5272V32.2223L36.329 26.932L32.73 25.563Z" fill="#CCCCCC"/>
<path d="M45.8933 31.2083V31.7651C45.8933 31.7729 45.9002 31.7729 45.9002 31.7806V35.4235L49.2644 37.5969V33.3816L45.8933 31.2083Z" fill="#CCCCCC"/>
<path d="M50.6462 26.6914V38.5097L54.3282 40.8842C54.5976 40.4665 54.9845 40.1416 55.4335 39.9638C56.069 39.7085 56.7736 39.7858 57.3608 40.1649L61.2914 42.7095C62.1549 43.2663 62.7974 43.8851 63.1151 45.0298L66.2928 47.0795L66.2997 47.0717V45.1226C66.2997 44.7359 66.2168 44.3569 66.0579 44.0244C65.9059 43.6686 65.678 43.3669 65.3878 43.1271L59.4194 38.2622L56.9049 32.4613L56.3453 31.1697L56.0068 30.3962L50.6462 26.6914ZM51.6756 29.267L54.8946 31.3398L57.3608 37.5506L51.6756 33.8767V29.267Z" fill="#CCCCCC"/>
<path d="M50.6462 26.6606V26.6915L56.0068 30.3964L56.3453 31.1698L56.9049 32.4614L59.4194 38.2623L65.3878 43.1272C65.678 43.367 65.9059 43.6687 66.0579 44.0245L74.5547 38.533C74.5478 38.4943 74.5271 38.4479 74.5133 38.4092C74.4165 38.1153 74.2369 37.8523 74.0021 37.6667L68.0405 32.8095C67.9507 32.7321 67.8747 32.6393 67.8264 32.5233L64.8559 25.6783L64.5036 24.8662L59.1568 21.4166C59.0463 21.347 58.9082 21.347 58.7838 21.4321L50.6462 26.6606ZM56.6907 30.9842L64.5934 25.8253L67.5915 32.7399L59.6749 37.8523L56.6907 30.9842Z" fill="white"/>
<path d="M35.8606 20.3788L36.0057 20.4638L36.6826 20.0229L35.8606 20.3788Z" fill="#8797C6"/>
<path d="M33.6497 24.2766L36.8342 25.4909C36.8757 25.5064 36.9172 25.5296 36.9517 25.5528L44.509 30.441V30.0697L42.1326 28.5228C41.8701 28.3604 41.7389 28.0201 41.801 27.6875L42.0428 26.4655C42.0221 26.4577 42.0014 26.4655 41.9876 26.45L41.8771 26.3881L41.359 26.7207L41.2139 26.8135C40.9583 26.945 40.6198 26.9063 40.2537 26.6666C39.6527 26.2798 39.1415 25.4909 38.9273 24.6865L38.2089 24.2688L37.8428 24.5087L37.6977 24.6015C37.4421 24.7329 37.1036 24.6943 36.7375 24.4545C36.2678 24.1606 35.8671 23.6114 35.6046 23.0159L33.6497 24.2766Z" fill="#3751A0"/>
<path d="M36.9656 19.9067C37.1936 19.8681 37.4561 19.9299 37.7393 20.1155C38.3679 20.5255 38.8998 21.3917 39.0932 22.2425L39.6735 22.5751L40.2883 22.1807C40.5439 22.0491 40.8824 22.0801 41.2554 22.3199C41.7943 22.6756 42.264 23.364 42.5058 24.0988L42.7544 22.8536V22.8458C42.7752 22.7375 42.8236 22.6447 42.8788 22.5596C42.8857 22.5442 42.8995 22.5287 42.9064 22.521C42.9271 22.49 42.9479 22.4668 42.9755 22.4436L37.7531 19.5664L36.9656 19.9067Z" fill="#8797C6"/>
<path d="M40.8538 20.0557C40.9643 20.2567 41.0472 20.4733 41.1024 20.6898L41.4685 20.4578L40.8538 20.0557Z" fill="#3751A0"/>
<path d="M30.4792 22.9541L30.7832 23.9055L30.9213 23.8591L35.2112 21.9951C35.2457 21.9796 35.2872 21.9796 35.3217 21.9796C35.3148 21.879 35.301 21.7785 35.301 21.6779C35.301 21.3144 35.3839 21.0283 35.522 20.8349L35.2181 20.657L30.4792 22.9541Z" fill="#8797C6"/>
<path d="M34.0508 10.1382V10.3006L34.8867 11.1591L34.9212 11.0122L34.0508 10.1382Z" fill="#8797C6"/>
<path d="M34.0504 9.28746C34.0435 9.31069 34.0504 9.35709 34.0919 9.4035L35.1212 10.4322C35.1281 10.4245 35.1419 10.4167 35.1557 10.409L36.0538 9.82114L34.9692 8.7306C34.9278 8.69194 34.8725 8.6842 34.8241 8.71512L34.1126 9.17922C34.0643 9.21014 34.0504 9.25654 34.0504 9.28746Z" fill="#8797C6"/>
<path d="M35.3489 11.461L36.0258 12.1416L36.1087 11.8864L35.4456 11.2212L35.411 11.2367C35.411 11.2367 35.4042 11.2367 35.4042 11.2444L35.3489 11.461Z" fill="#8797C6"/>
<path d="M35.9158 10.9114L36.3786 11.3678L36.5789 11.2363L36.0885 10.7954L35.9158 10.9114Z" fill="#8797C6"/>
<path d="M37.5044 11.3137L40.1985 13.7036L37.7324 11.1667L37.5044 11.3137Z" fill="#8797C6"/>
<path d="M36.8896 11.7086L40.7167 15.6532L41.1173 15.2665L37.0209 11.6235L36.8896 11.7086Z" fill="#8797C6"/>
<path d="M36.3853 12.7446L40.1846 16.6583L40.3988 16.1168L36.5718 12.1646L36.3853 12.7446Z" fill="#8797C6"/>
<path d="M40.9792 17.4783L44.6957 21.3068L45.055 21.0748C45.0895 21.0516 45.124 21.0438 45.1586 21.0284L41.2072 16.9446L41.0276 17.3932C41.0138 17.4241 40.9931 17.4473 40.9792 17.4783Z" fill="#8797C6"/>
<path d="M44.4817 18.1279L48.1015 22.1962L48.3087 22.0647L44.4817 18.1279Z" fill="#8797C6"/>
<path d="M41.4832 16.442L46.3533 21.4694L47.2306 22.034L41.8976 16.0398L41.4832 16.442Z" fill="#8797C6"/>
<path d="M48.0254 20.9897L48.7784 21.7632L48.9994 21.6162L48.0254 20.9897Z" fill="#003366"/>
<path d="M49.3723 20.0691L50.3809 20.7188L50.9404 20.363L49.9388 19.7056L49.3723 20.0691Z" fill="#8797C6"/>
<path d="M44.8064 23.0237L45.8149 23.6734L46.316 23.355L45.29 22.7144L44.8064 23.0237Z" fill="#8797C6"/>
<path d="M43.2588 27.4711L45.1239 28.6777V25.0116L43.8943 24.2227L43.2588 27.4711Z" fill="#8797C6"/>
<path d="M46.5056 25.0193V27.3242L47.4589 25.2204L47.3415 25.1508C47.2655 25.0966 47.2172 25.0038 47.2172 24.8956V24.6945L47.1343 24.6094L46.5056 25.0193Z" fill="#8797C6"/>
<path d="M46.5471 29.8457L49.2619 31.5937V29.7374L48.1981 30.4258C48.1566 30.449 48.1152 30.4644 48.0668 30.4644C48.0599 30.4644 48.0599 30.4567 48.053 30.4567C48.0461 30.4567 48.0392 30.4644 48.0323 30.4644C47.9839 30.4644 47.9425 30.449 47.9011 30.4258L46.7681 29.6987L46.5471 29.8457Z" fill="#3751A0"/>
<path d="M48.4604 29.5826L49.2618 29.0643V26.6357L48.4604 29.5826Z" fill="#3751A0"/>
<path d="M46.5056 28.6079V28.8555L47.8734 29.7449L48.8613 26.102C48.8336 26.102 48.806 26.0942 48.7853 26.0788C48.7853 26.0788 48.7784 26.0788 48.7714 26.0788L47.908 25.5142L46.5056 28.6079Z" fill="#3751A0"/>
<path d="M55.1885 20.8429V21.423L57.5234 19.9148V19.3347L55.1885 20.8429Z" fill="#F79420"/>
<path d="M51.9629 22.931V23.5111L54.6708 21.7631V21.1753L51.9629 22.931Z" fill="#F79420"/>
<path d="M47.7351 24.1528V24.7329L48.647 25.3207V24.7407L47.7351 24.1528Z" fill="#F79420"/>
<path d="M49.1653 24.741V25.3211L51.4449 23.8515V23.2637L49.1653 24.741Z" fill="#F79420"/>
<path d="M47.9912 23.6504L48.9031 24.2382L51.1827 22.7609L50.2777 22.1731L47.9912 23.6504Z" fill="#F79420"/>
<path d="M50.7954 21.8405L51.7004 22.4283L54.4152 20.6725L53.5033 20.0847L50.7954 21.8405Z" fill="#F79420"/>
<path d="M54.0217 19.7524L54.1599 19.8374L54.9336 20.3402L57.2685 18.832L56.3566 18.2441L54.0217 19.7524Z" fill="#F79420"/>
<path d="M63.4167 48.9576V49.5918L65.6342 51.0227C66.2352 51.4094 66.9812 51.4094 67.5822 51.0227L76.4935 45.2605C76.5902 45.1986 76.5971 45.1058 76.5971 45.0594V44.5798L68.2938 49.9553C67.7757 50.2879 67.2023 50.4503 66.6289 50.4503C66.0487 50.4503 65.4753 50.2879 64.9641 49.9553L63.4167 48.9576Z" fill="#BABABA"/>
<path d="M64.114 47.6117L65.6545 48.6171C66.2555 49.0039 67.0015 49.0039 67.6025 48.6094L76.5138 42.8472C76.6036 42.7931 76.6174 42.7003 76.6174 42.6461C76.6174 42.5997 76.6036 42.5069 76.5138 42.445L75.9819 42.1047C75.9404 42.2981 75.8299 42.4605 75.6779 42.5688L66.6492 48.6403C66.6492 48.6403 66.6492 48.6403 66.6423 48.6481C66.6078 48.6713 66.5732 48.679 66.5318 48.6945C66.5111 48.7022 66.4972 48.7177 66.4765 48.7254C66.4282 48.7409 66.3867 48.7409 66.3384 48.7409C66.3245 48.7486 66.3107 48.7486 66.2969 48.7486C66.2693 48.7486 66.2485 48.7409 66.2209 48.7409C66.1864 48.7331 66.1518 48.7331 66.1242 48.7254C66.1035 48.7177 66.0897 48.7099 66.0758 48.7022C66.0344 48.6867 65.993 48.6713 65.9584 48.6481C65.9515 48.6481 65.9515 48.6481 65.9515 48.6481L64.2314 47.5343L64.114 47.6117Z" fill="#BABABA"/>
<path d="M66.0579 44.0242C66.2167 44.3568 66.2996 44.7358 66.2996 45.1225V47.0716L74.6306 41.4641V39.0432C74.6306 38.873 74.6099 38.7029 74.5546 38.5327L66.0579 44.0242Z" fill="#CCCCCC"/>
<path d="M51.6755 29.2671V33.8768L57.3608 37.5507L54.8946 31.3399L51.6755 29.2671Z" fill="#797979"/>
<path d="M56.6899 30.9839L59.6742 37.852L67.5907 32.7396L64.5926 25.825L56.6899 30.9839Z" fill="#B3B3B3"/>
<path d="M57.7574 44.6421C58.5116 45.1297 59.1227 46.3147 59.1202 47.285C59.1178 48.2553 58.5027 48.6478 57.7485 48.1602C56.9943 47.6727 56.3833 46.4877 56.3857 45.5174C56.3882 44.547 57.0033 44.1546 57.7574 44.6421Z" fill="#999999"/>
<path d="M57.2232 44.6613C57.5163 44.8508 57.7539 45.3114 57.7529 45.6886C57.7519 46.0658 57.5129 46.2184 57.2197 46.0288C56.9265 45.8393 56.689 45.3787 56.6899 45.0015C56.6909 44.6243 56.93 44.4718 57.2232 44.6613Z" fill="#BABABA"/>
<path d="M36.9777 31.2217C37.7319 31.7092 38.3429 32.8943 38.3405 33.8646C38.338 34.8349 37.7229 35.2273 36.9688 34.7398C36.2146 34.2523 35.6035 33.0672 35.606 32.0969C35.6084 31.1266 36.2235 30.7342 36.9777 31.2217Z" fill="#999999"/>
<path d="M36.7416 21.7146C37.1257 21.9629 37.4369 22.5664 37.4356 23.0606C37.4344 23.5548 37.1211 23.7547 36.737 23.5064C36.3529 23.2581 36.0417 22.6545 36.043 22.1604C36.0442 21.6662 36.3575 21.4663 36.7416 21.7146Z" fill="#999999"/>
<path d="M40.2589 23.9253C40.643 24.1736 40.9542 24.7771 40.953 25.2713C40.9517 25.7655 40.6385 25.9654 40.2544 25.7171C39.8703 25.4688 39.5591 24.8652 39.5603 24.3711C39.5616 23.8769 39.8748 23.677 40.2589 23.9253Z" fill="#999999"/>
<path d="M73.53 39.5993C73.0398 39.9161 72.6427 40.6863 72.6443 41.3169C72.6459 41.9475 73.0456 42.2026 73.5358 41.8857C74.0259 41.5689 74.4231 40.7987 74.4215 40.1681C74.4199 39.5375 74.0201 39.2824 73.53 39.5993Z" fill="white"/>
<path d="M67.518 43.673C67.0279 43.9899 66.6307 44.76 66.6323 45.3907C66.6339 46.0213 67.0337 46.2763 67.5238 45.9595C68.014 45.6426 68.4111 44.8724 68.4095 44.2418C68.4079 43.6112 68.0082 43.3562 67.518 43.673Z" fill="white"/>
<path d="M36.4434 31.2313C36.7365 31.4209 36.9741 31.8815 36.9731 32.2587C36.9722 32.6359 36.7331 32.7884 36.4399 32.5989C36.1467 32.4094 35.9092 31.9487 35.9102 31.5716C35.9111 31.1944 36.1502 31.0418 36.4434 31.2313Z" fill="#BABABA"/>
<path d="M29.72 22.2549C34.6146 21.977 34.9431 14.6918 35.0511 12.2973L34.7063 12.2771C34.5255 16.2783 33.8108 21.6246 29.7031 21.8575L29.72 22.2549Z" fill="black"/>
<path d="M0.00520072 7.77444C0.00586085 7.78991 0.318464 9.28235 0.375447 9.96924C0.413614 10.5406 0.509074 10.9944 0.684755 11.3844C0.738718 11.5145 0.866028 11.5809 0.989056 11.5468L1.34435 11.445C1.34171 11.3831 1.33249 11.3292 1.33018 11.2751L1.32689 11.1979C1.30021 10.5721 1.46006 10.104 1.7604 9.84884C1.80053 9.8169 1.84066 9.78496 1.89458 9.75262L2.31762 9.45568C2.47753 9.47483 2.64496 9.50923 2.82821 9.58962C2.91308 9.63386 3.0052 9.68566 3.09765 9.74519C4.25431 10.435 5.27326 12.1105 5.46971 13.6368C5.49343 13.8682 5.50232 14.0769 5.49673 14.2703C5.49052 14.286 5.50496 14.3011 5.50562 14.3165C5.5076 14.3629 5.50332 14.4249 5.49875 14.4791C5.4925 14.6572 5.48098 14.874 5.46851 15.0677C5.45995 15.1916 5.52017 15.3061 5.6192 15.3577C5.69025 15.4023 7.38911 16.3181 8.43558 16.6936C9.4261 17.055 12.0158 18.2652 12.1714 18.3463C13.2248 19.0464 14.5414 19.9178 15.8294 20.7666C15.9146 20.8186 16.0251 20.8158 16.1057 20.7596C16.1929 20.6955 16.2294 20.5786 16.211 20.4707L16.1929 20.3707L16.1909 20.3243C16.1833 20.309 16.1827 20.2936 16.1823 20.2859C16.1484 19.9774 16.1573 19.6987 16.1889 19.4659L16.1885 19.4582C16.1945 19.4348 16.1935 19.4116 16.1997 19.396C16.2277 19.2406 16.277 19.1001 16.3342 18.9827C16.3915 18.8652 16.4635 18.7706 16.5503 18.6987C16.8171 18.4676 17.2244 18.4495 17.6827 18.6544C17.7675 18.6987 17.8524 18.7429 17.9376 18.7949C19.0094 19.4404 19.9612 21.0016 20.1462 22.42C20.189 22.7747 20.1814 23.0842 20.1232 23.341C20.1173 23.3643 20.1117 23.3954 20.1124 23.4108C20.1108 23.5346 20.1851 23.6565 20.2973 23.6923C20.8543 23.9411 22.6159 24.7082 22.9699 24.7379C23.0186 24.7444 23.1225 24.7495 23.2538 24.7461C24.062 24.7255 26.1303 24.5723 26.755 24.4636L26.7964 24.4625C26.8306 24.4539 26.8583 24.4532 26.8718 24.4451C27.4126 24.3153 29.1781 23.3887 29.889 22.8678L30.1166 22.6919C30.8406 22.1552 31.7455 21.4825 32.1452 20.7995C32.5958 20.0146 32.4523 18.2704 32.4303 18.0776C32.4289 18.0467 32.4207 18.0159 32.4125 17.9852C32.4888 17.8286 32.5312 17.6883 32.5325 17.5568C32.5552 17.1154 32.3956 16.2919 32.3528 16.0996C32.2906 15.7764 30.3844 13.0793 29.6205 12.1939C28.8052 11.2402 27.5403 10.4449 26.4083 10.1721C25.4928 9.94797 25.0056 9.71289 24.9983 9.70533C24.9983 9.70533 24.9839 9.69022 24.9625 9.67532C25.0046 9.36487 25.0792 8.8448 25.0887 8.4192C25.1025 7.93159 24.937 7.29387 24.6669 7.12289C24.5603 7.05598 24.4498 7.05879 24.3425 7.13889C24.0475 7.3552 23.7995 7.86425 23.8278 8.20383C23.8558 8.53568 23.9502 8.64156 24.1499 8.78342C24.1999 8.82081 24.2193 8.95178 24.2183 9.09101C23.3307 8.38662 21.8927 7.26315 21.1213 6.68732C19.9863 5.85772 17.1238 4.41481 16.7353 4.22362C16.4968 3.9822 15.1025 2.58695 13.8873 1.65885C12.3707 0.475546 9.36353 0.0185151 9.32899 0.0193958C8.69636 -0.0572897 7.2295 0.088326 6.2117 0.547365C5.22848 1.00552 1.97643 3.40091 1.83566 3.50504C0.350481 5.32944 0.434761 6.4951 0.465063 6.88103C0.464408 7.028 0.275572 7.30353 0.0831532 7.49404C0.0170521 7.56535 -0.0129121 7.67436 0.00520072 7.77444ZM24.2397 8.6187C24.0758 8.50684 24.0183 8.45417 24.0001 8.1917C23.9748 7.92167 24.1981 7.48283 24.4462 7.29864C24.4929 7.25879 24.5343 7.25773 24.584 7.28738C24.7689 7.40644 24.9305 7.95141 24.9153 8.40813C24.9104 8.77948 24.847 9.23742 24.8049 9.54783C24.6977 9.4655 24.5615 9.35299 24.39 9.22584C24.4095 9.03199 24.4035 8.73055 24.2397 8.6187Z" fill="black"/>
<path d="M16.156 19.9771L16.1593 20.0544C16.1625 20.1317 16.1727 20.2087 16.1829 20.2858C16.1833 20.2936 16.1839 20.309 16.1915 20.3243C16.3722 21.6422 17.2559 23.066 18.2425 23.6595C18.3204 23.7039 18.3981 23.7406 18.4761 23.785C18.8919 23.9678 19.2518 23.9741 19.5287 23.8201C19.6031 23.7796 19.6705 23.7392 19.7235 23.6837L20.113 23.4108C20.1123 23.3953 20.1179 23.3642 20.1238 23.3409C20.182 23.0842 20.1896 22.7746 20.1468 22.42C19.9618 21.0016 19.01 19.4404 17.9382 18.7948C17.853 18.7429 17.7681 18.6986 17.6833 18.6544C17.225 18.4495 16.8177 18.4676 16.5509 18.6987C16.3776 18.85 16.2562 19.0852 16.2003 19.396C16.1592 19.5672 16.1467 19.7608 16.156 19.9771Z" fill="#1A1A1A"/>
<path d="M18.2164 22.7899C18.0571 22.6938 17.9018 22.5609 17.7553 22.407L18.2074 21.6757L18.9146 22.9328C18.7556 22.975 18.5704 22.9618 18.3602 22.8658C18.312 22.8441 18.264 22.8186 18.2164 22.7899ZM17.6802 22.3269C17.6065 22.2428 17.5364 22.1531 17.4701 22.059L17.7789 21.4558C17.8322 21.356 17.9146 21.3167 17.9797 21.356C17.9928 21.3639 18.0053 21.375 18.0166 21.3895C18.0858 21.4777 18.0839 21.6418 18.0175 21.7583L17.6802 22.3269ZM18.9757 22.9136L18.4392 21.9461C18.335 21.7556 18.285 21.5679 18.3393 21.5369C18.3542 21.5282 18.3744 21.5322 18.3981 21.5465C18.4614 21.5847 18.5494 21.6966 18.6242 21.8374L19.1402 22.8147C19.0901 22.857 19.0358 22.8909 18.9757 22.9136ZM18.0727 21.3815C18.0623 21.3752 18.0519 21.3663 18.0423 21.3547C18.0227 21.3304 18.0124 21.3039 18.0091 21.2806C18.0022 21.262 18.0013 21.2392 18.0093 21.2276C18.0201 21.2102 18.0411 21.2072 18.0634 21.2206C18.0727 21.2262 18.0821 21.2347 18.0912 21.2461L18.0968 21.2514L18.0993 21.2558C18.1303 21.2948 18.1416 21.3471 18.1265 21.3747C18.1185 21.3862 18.1078 21.3904 18.093 21.3873L18.0939 21.3908C18.087 21.3889 18.0798 21.3858 18.0727 21.3815ZM18.2631 21.4667C18.2602 21.465 18.2573 21.4629 18.2544 21.4605C18.2393 21.4505 18.2254 21.4314 18.2129 21.4104C18.1912 21.3693 18.1902 21.3252 18.2087 21.3054L18.2123 21.2979L18.2146 21.2964L18.2169 21.2968C18.227 21.2925 18.2392 21.2949 18.2518 21.3025C18.2696 21.3133 18.2883 21.3344 18.3029 21.3613C18.3146 21.3819 18.3215 21.4005 18.3215 21.4189C18.3248 21.4431 18.3178 21.4611 18.305 21.4708C18.2922 21.4761 18.2781 21.4758 18.2631 21.4667ZM17.4006 21.9649C17.1291 21.5526 16.931 21.0638 16.8697 20.5948C16.8582 20.5029 16.8564 20.4177 16.8553 20.3329L17.7974 21.1654L17.4006 21.9649ZM17.9824 21.1141C17.9774 21.1111 17.9724 21.1073 17.9672 21.1026C17.9512 21.0891 17.9373 21.0701 17.9282 21.0539C17.9156 21.0289 17.9099 21.0013 17.9145 20.9819C17.9159 20.9605 17.9286 20.9479 17.9424 20.9446C17.9532 20.9451 17.9646 20.9471 17.9764 20.9542C17.9797 20.9562 17.983 20.9586 17.9863 20.9614C18.0183 20.9885 18.0412 21.04 18.0389 21.0792L18.0398 21.0827L18.0401 21.0886L18.041 21.0921C18.0349 21.1213 18.0107 21.1312 17.9824 21.1141ZM18.2872 21.2495C18.2651 21.2362 18.2433 21.2077 18.229 21.1746L18.2264 21.1672C18.2106 21.12 18.2245 21.082 18.2546 21.0809C18.2624 21.0807 18.2705 21.0838 18.279 21.0889C18.2857 21.0929 18.2925 21.0982 18.2996 21.1041C18.3157 21.1206 18.3305 21.1431 18.3408 21.1696C18.3497 21.1982 18.35 21.2235 18.3429 21.2395C18.338 21.252 18.3289 21.2571 18.315 21.2574C18.306 21.2581 18.2966 21.2552 18.2872 21.2495ZM18.1139 21.0318C18.08 21.0113 18.0529 20.9683 18.0474 20.9239C18.0441 20.9007 18.0489 20.8842 18.0569 20.8726C18.0674 20.8645 18.0812 20.8612 18.0985 20.8697C18.1012 20.8709 18.1039 20.8723 18.1066 20.8739C18.1214 20.8829 18.1366 20.8986 18.1491 20.9177C18.1616 20.9387 18.1708 20.9578 18.1741 20.982C18.1797 21.025 18.1589 21.0463 18.1268 21.0346L18.1277 21.0381L18.1175 21.0339L18.1139 21.0318ZM19.1896 22.7769L18.5229 21.4892L19.351 21.4643C19.3742 21.5594 19.3958 21.6546 19.4081 21.749C19.4685 22.2166 19.3801 22.5749 19.1896 22.7769ZM17.6822 20.9367C17.6494 20.917 17.6142 20.8912 17.5781 20.86L16.856 20.2348C16.86 20.1415 16.8704 20.054 16.8888 19.9743L17.6173 20.5667C17.7611 20.6844 17.8769 20.8529 17.864 20.9369C17.8567 21.0015 17.7809 20.9963 17.6822 20.9367ZM18.5028 21.3089C18.4475 21.2756 18.4037 21.2283 18.3859 21.1746C18.3491 21.0673 18.4326 20.9901 18.5618 20.9957L19.2146 21.0302C19.2576 21.1373 19.2936 21.246 19.3243 21.3553L18.6839 21.3602C18.6217 21.3609 18.5568 21.3415 18.5028 21.3089ZM17.8604 20.6555L16.9152 19.8994C17.0356 19.5101 17.3325 19.322 17.7306 19.4232L17.8604 20.6555ZM18.0198 19.5424C18.0261 19.5462 18.0325 19.5498 18.0388 19.5531L18.176 20.5086C18.2031 20.7018 18.1668 20.8385 18.0928 20.8044C18.0898 20.8031 18.0869 20.8015 18.0839 20.7997C18.0097 20.7549 17.9362 20.5735 17.9147 20.3896L17.8058 19.4473C17.845 19.4603 17.8823 19.4674 17.9225 19.4858C17.9403 19.494 17.9576 19.504 17.9748 19.5144C17.9834 19.5196 17.9921 19.5249 18.0008 19.5302C18.0071 19.5345 18.0135 19.5385 18.0198 19.5424ZM18.3098 20.8591L18.1171 19.5984C18.5351 19.8672 18.9214 20.3651 19.1654 20.9212L18.3098 20.8591ZM18.0671 19.3056C18.0074 19.2695 17.9471 19.2375 17.8867 19.21C17.0697 18.8387 16.5226 19.4179 16.6634 20.5013C16.794 21.5091 17.4666 22.5942 18.2136 23.0451C18.2739 23.0815 18.3349 23.1139 18.396 23.1416C19.209 23.5106 19.7553 22.9318 19.6143 21.8425C19.4846 20.8401 18.8114 19.7548 18.0671 19.3056Z" fill="#CCCCCC"/>
<path d="M1.32661 11.1978L1.3299 11.275C1.33221 11.3291 1.34143 11.383 1.34407 11.4448L1.34637 11.4989C1.5208 12.8325 2.41207 14.2715 3.4059 14.8726C3.4839 14.917 3.56877 14.9613 3.6464 14.998C4.06258 15.1885 4.42244 15.1947 4.69911 15.033C4.76686 15.0003 4.83395 14.9522 4.89384 14.8966L5.49847 14.479C5.50304 14.4248 5.50732 14.3628 5.50534 14.3164C5.50468 14.3009 5.49023 14.2859 5.49645 14.2702C5.50204 14.0767 5.49315 13.8681 5.46943 13.6367C5.27298 12.1104 4.25403 10.4349 3.09737 9.74507C3.00492 9.68554 2.9128 9.63374 2.82793 9.58951C2.64468 9.50911 2.47725 9.47472 2.31734 9.45557L1.8943 9.7525C1.84038 9.78484 1.80025 9.81678 1.76012 9.84872C1.45978 10.1039 1.29993 10.572 1.32661 11.1978Z" fill="#1A1A1A"/>
<path d="M3.38239 14.0064C3.22316 13.9103 3.06783 13.7775 2.92129 13.6235L3.37338 12.8923L4.08063 14.1493C3.92159 14.1915 3.73637 14.1783 3.5262 14.0824C3.478 14.0606 3.43003 14.0352 3.38239 14.0064ZM2.84621 13.5434C2.77251 13.4593 2.70246 13.3697 2.63609 13.2755L2.94495 12.6723C2.99819 12.5726 3.0806 12.5332 3.14572 12.5726C3.15885 12.5805 3.17128 12.5916 3.18262 12.6061C3.25184 12.6942 3.24992 12.8583 3.1835 12.9748L2.84621 13.5434ZM4.14168 14.1301L3.60523 13.1627C3.501 12.9722 3.45096 12.7845 3.50536 12.7535C3.52017 12.7448 3.54042 12.7488 3.56413 12.7631C3.62743 12.8013 3.71539 12.9132 3.79019 13.054L4.30617 14.0313C4.25609 14.0735 4.20182 14.1074 4.14168 14.1301ZM3.23874 12.5981C3.2283 12.5918 3.21793 12.5829 3.20827 12.5713C3.18875 12.5469 3.17841 12.5204 3.17516 12.4972C3.16823 12.4785 3.16732 12.4557 3.17535 12.4442C3.18612 12.4267 3.20711 12.4237 3.2294 12.4372C3.23867 12.4428 3.24816 12.4512 3.25723 12.4626L3.26286 12.468L3.26535 12.4724C3.29628 12.5113 3.30765 12.5636 3.29253 12.5912C3.28449 12.6028 3.27384 12.607 3.25904 12.6039L3.25995 12.6073C3.25298 12.6055 3.24585 12.6024 3.23874 12.5981ZM3.42908 12.6833C3.42622 12.6815 3.42332 12.6795 3.42039 12.6771C3.4053 12.667 3.3914 12.648 3.37896 12.627C3.35722 12.5858 3.35623 12.5417 3.37475 12.522L3.37832 12.5145L3.38057 12.5129L3.38291 12.5134C3.39299 12.509 3.40521 12.5115 3.41784 12.5191C3.43566 12.5298 3.45431 12.5509 3.46895 12.5779C3.48059 12.5984 3.48753 12.6171 3.48749 12.6354C3.49078 12.6597 3.48377 12.6777 3.47103 12.6874C3.45825 12.6926 3.44416 12.6923 3.42908 12.6833ZM2.56664 13.1814C2.29509 12.7691 2.09699 12.2804 2.03567 11.8114C2.02426 11.7194 2.02239 11.6342 2.02131 11.5495L2.96345 12.382L2.56664 13.1814ZM3.1484 12.3307C3.14345 12.3277 3.13838 12.3239 3.13325 12.3192C3.11725 12.3057 3.10336 12.2867 3.09421 12.2705C3.08161 12.2455 3.07587 12.2179 3.0805 12.1984C3.08196 12.1771 3.09459 12.1644 3.10837 12.1611C3.11925 12.1617 3.13066 12.1637 3.14238 12.1708C3.14567 12.1728 3.14898 12.1751 3.15232 12.178C3.18431 12.205 3.20724 12.2566 3.20495 12.2958L3.20586 12.2992L3.2061 12.3052L3.20701 12.3086C3.20095 12.3379 3.17675 12.3478 3.1484 12.3307ZM3.45318 12.466C3.4311 12.4527 3.40934 12.4242 3.39501 12.3912L3.39239 12.3838C3.37659 12.3366 3.39052 12.2986 3.42061 12.2974C3.42839 12.2972 3.43654 12.3003 3.44501 12.3054C3.45168 12.3095 3.45855 12.3147 3.46559 12.3207C3.48171 12.3372 3.49652 12.3597 3.50686 12.3862C3.51573 12.4147 3.51597 12.44 3.50888 12.456C3.50398 12.4685 3.49491 12.4737 3.48102 12.474C3.47204 12.4746 3.46258 12.4717 3.45318 12.466ZM3.27993 12.2484C3.24603 12.2279 3.21892 12.1849 3.2134 12.1405C3.21015 12.1172 3.2149 12.1008 3.22294 12.0892C3.23343 12.081 3.24721 12.0777 3.26455 12.0863C3.26721 12.0874 3.26989 12.0888 3.27259 12.0905C3.28744 12.0994 3.30262 12.1152 3.31515 12.1342C3.32759 12.1552 3.33686 12.1744 3.34015 12.1986C3.34573 12.2416 3.32495 12.2629 3.2928 12.2512L3.29371 12.2546L3.2835 12.2504L3.27993 12.2484ZM4.35566 13.9935L3.6889 12.7058L4.51706 12.6808C4.5402 12.776 4.56179 12.8712 4.57407 12.9656C4.63455 13.4331 4.54615 13.7915 4.35566 13.9935ZM2.8482 12.1533C2.81546 12.1335 2.7802 12.1078 2.7441 12.0766L2.02201 11.4513C2.026 11.3581 2.0364 11.2706 2.05483 11.1909L2.78334 11.7833C2.92715 11.901 3.04287 12.0694 3.03001 12.1535C3.02273 12.218 2.94689 12.2128 2.8482 12.1533ZM3.6688 12.5255C3.61352 12.4921 3.56967 12.4449 3.55187 12.3911C3.51512 12.2839 3.59857 12.2067 3.72784 12.2122L4.38065 12.2467C4.42358 12.3538 4.45962 12.4625 4.49028 12.5719L3.84987 12.5768C3.78766 12.5774 3.72278 12.5581 3.6688 12.5255ZM3.02645 11.872L2.08119 11.1159C2.20158 10.7266 2.49851 10.5386 2.89666 10.6397L3.02645 11.872ZM3.18582 10.7589C3.19215 10.7628 3.19847 10.7663 3.20479 10.7697L3.34202 11.7252C3.36909 11.9184 3.33284 12.055 3.25884 12.021C3.25586 12.0196 3.25289 12.0181 3.24992 12.0163C3.17573 11.9715 3.10219 11.7901 3.0807 11.6061L2.97181 10.6638C3.01097 10.6768 3.04835 10.6839 3.0885 10.7024C3.10634 10.7106 3.12357 10.7205 3.14081 10.7309C3.14944 10.7361 3.15807 10.7415 3.16678 10.7467C3.17313 10.751 3.17948 10.7551 3.18582 10.7589ZM3.47585 12.0756L3.28311 10.815C3.70112 11.0837 4.08738 11.5817 4.33146 12.1378L3.47585 12.0756ZM3.23311 10.5221C3.17338 10.4861 3.1131 10.4541 3.05271 10.4266C2.2357 10.0552 1.68865 10.6345 1.82946 11.7178C1.95997 12.7257 2.63259 13.8108 3.37957 14.2616C3.43993 14.2981 3.5009 14.3304 3.56199 14.3582C4.37503 14.7271 4.92134 14.1484 4.78028 13.0591C4.65066 12.0567 3.97744 10.9714 3.23311 10.5221Z" fill="#CCCCCC"/>
<path d="M24.4458 7.29874C24.4925 7.25889 24.534 7.25783 24.5836 7.28749C24.7685 7.40655 24.9301 7.95152 24.915 8.40824C24.9123 8.61091 24.8919 8.83787 24.8673 9.05413C24.6826 8.54954 24.4261 8.07798 24.1289 7.69937C24.212 7.53841 24.3254 7.38815 24.4458 7.29874Z" fill="#FF0000"/>
<path d="M24.3896 9.22579C24.409 9.03194 24.4031 8.7305 24.2393 8.61865C24.0754 8.50679 24.0178 8.45412 23.9997 8.19165C23.9867 8.05268 24.0407 7.86989 24.1289 7.69922C24.4261 8.07783 24.6826 8.54939 24.8673 9.05397C24.8468 9.23387 24.8236 9.40681 24.8045 9.54778C24.6973 9.46545 24.5611 9.35294 24.3896 9.22579Z" fill="#BF0000"/>
<path d="M29.593 13.0144L29.6036 13.2616C29.77 13.4353 30.5668 14.2812 30.7777 14.8482C30.9821 15.423 31.1071 16.4097 31.1282 16.5794L31.5997 17.4181C31.6763 17.1068 31.7819 16.5008 31.7272 16.0305C31.3706 15.4518 30.3602 13.9771 29.593 13.0144Z" fill="#CCCCCC"/>
<path d="M5.99561 14.9308C6.45516 15.1666 7.75662 15.8449 8.58564 16.1486C8.80309 16.2205 9.09191 16.3446 9.41564 16.4755C8.38592 15.8444 6.94336 15.1 6.01367 14.7061C6.01005 14.7835 5.99951 14.8611 5.99561 14.9308Z" fill="#4D4D4D"/>
<path d="M9.26807 2.3179C10.303 2.423 11.5271 2.58516 12.4838 2.80058C13.7056 3.07104 14.8672 3.55192 15.6146 3.88861C15.0524 3.35385 14.2898 2.66171 13.6032 2.13012C12.659 1.39621 10.9727 0.936491 9.97463 0.722168C10.0417 0.836441 10.1026 0.966403 10.1154 1.10528C10.1368 1.44504 9.57368 2.02396 9.26807 2.3179Z" fill="#BF0000"/>
<path d="M3.38944 5.39879C3.39871 5.77751 3.47601 5.9689 3.51383 6.04525C3.57504 6.02052 3.62274 6.00382 3.67012 5.97939C4.09773 5.79062 4.74677 5.44153 4.88857 5.36059C4.34376 4.9104 3.94438 4.62668 3.85918 4.57471C3.72561 4.6864 3.59897 4.79791 3.47265 4.91712L3.47298 4.92485C3.42363 5.06531 3.38252 5.23653 3.38944 5.39879Z" fill="#BF0000"/>
<path d="M9.2846 0.593002C9.38199 0.606003 9.53531 0.633016 9.72345 0.666883C9.82545 0.788055 9.92909 0.947799 9.94326 1.11761C9.95969 1.34146 9.42449 1.92741 9.02484 2.28564C8.94853 2.27984 8.87221 2.27404 8.79553 2.26056C8.8893 2.18855 9.17087 1.98028 9.26462 1.74588C9.33961 1.55836 9.30738 1.45089 9.2705 1.39769C9.44156 1.35467 9.60674 1.33497 9.77912 1.32289C9.46132 1.24989 9.14246 1.26958 8.82477 1.33663C8.53905 1.09826 8.18663 0.875554 7.80029 0.68591C8.42029 0.580092 8.99613 0.556404 9.2846 0.593002Z" fill="#BF0000"/>
<path d="M2.1797 3.94461C2.19353 3.94426 5.48567 1.51698 6.41465 1.08338C6.83347 0.892438 7.3292 0.765947 7.80022 0.685547C8.18656 0.875191 8.53898 1.09789 8.82469 1.33627C7.71805 1.56985 6.62783 2.48433 5.66603 2.98957C5.08247 3.41437 1.95611 5.35017 2.62363 6.24577C2.50787 6.26322 2.39291 6.28064 2.28284 6.29788C1.94565 5.95697 1.60834 5.65501 1.26367 5.39835C1.44158 4.9914 1.72203 4.50914 2.1797 3.94461Z" fill="#FF0000"/>
<path d="M2.2822 6.29797C2.27465 6.29915 2.26635 6.30036 2.25884 6.30154C1.97722 6.34742 1.70944 6.39291 1.51767 6.43645C1.28475 6.48879 1.10611 6.51657 0.974854 6.51991C0.986465 6.26263 1.05015 5.8853 1.26303 5.39844C1.60769 5.65509 1.945 5.95706 2.2822 6.29797Z" fill="#BF0000"/>
<path d="M4.00586 4.4474C4.17725 4.57449 4.66974 4.93321 5.29382 5.45866C6.01892 6.08212 7.3296 7.30164 7.50265 7.4674C7.64872 7.48686 8.37969 7.5997 8.68662 7.66151C9.69098 7.86019 9.88146 7.78575 9.91501 7.76167C10.1357 7.58592 11.1933 6.76235 12.2802 5.97673C13.2332 5.29507 14.52 4.49657 14.9177 4.25443C14.7111 4.11274 14.1795 3.80921 13.1038 3.55821C11.6787 3.22325 6.65954 2.94126 6.19538 2.92212C6.05392 3.01083 5.91249 3.0995 5.77069 3.18044C5.17199 3.57465 4.56707 3.98451 4.00586 4.4474Z" fill="#333333"/>
<path d="M8.34131 8.81519C8.53576 9.15827 9.07107 10.0341 9.8705 10.9417C9.88465 10.7867 9.9221 10.5306 9.98984 10.173C10.08 9.69124 10.3109 9.26773 10.4336 9.06351C9.49273 8.89414 8.66701 8.83011 8.34131 8.81519Z" fill="#333333"/>
<path d="M6.9444 9.79396C6.91299 9.78688 6.8825 9.78657 6.85107 9.78123C7.27951 10.2621 7.6593 10.7823 7.96364 11.3157C8.3017 11.4306 8.64714 11.5203 8.713 11.5355C8.65941 11.5755 8.38372 11.598 8.20212 11.5562C8.20212 11.5562 8.24325 11.7098 8.28442 12.0259C8.33542 12.4113 8.31703 12.6283 8.27492 12.7763C8.36836 12.859 8.45554 12.9574 8.54897 13.04C8.61079 12.8683 8.69994 12.6882 8.81638 12.4996C8.86803 12.4132 8.92425 12.2725 8.96702 12.14C8.99891 12.0773 9.01669 12.0072 9.04234 11.9602C9.06143 11.921 9.07357 11.882 9.08576 11.843C9.13609 11.7258 9.19363 11.616 9.26504 11.5059C8.74654 10.8617 8.22901 10.2407 7.89808 9.93979C7.75562 9.84287 7.60658 9.75387 7.45165 9.68823C7.63062 9.83062 7.7974 10.012 7.87832 10.1259C7.87832 10.1259 7.37073 9.89908 6.9444 9.79396ZM7.96847 10.2938C8.04911 10.4 8.37152 10.8249 8.49225 11.0616C8.56038 11.1991 8.58338 11.2526 8.59129 11.2756C8.53996 11.2073 8.2748 10.8274 8.1616 10.6059C8.06421 10.4305 7.99086 10.3319 7.96847 10.2938Z" fill="#BF0000"/>
<path d="M7.59839 11.1773C6.9786 10.9147 6.64306 10.8304 6.47031 10.6724C6.29463 10.4449 6.11171 10.2098 5.94954 9.97414C5.94064 9.92796 5.93801 9.86614 5.98505 9.83398C6.05948 9.77473 6.44984 9.71328 6.85134 9.78136C7.27977 10.2622 7.65956 10.7824 7.9639 11.3158C7.83579 11.2723 7.70876 11.2255 7.59839 11.1773Z" fill="#FF0000"/>
<path d="M9.04272 12.4398C9.97539 13.2281 10.862 14.0717 11.7424 14.931C11.9878 15.1722 12.2194 15.4138 12.4579 15.6552C12.4941 15.693 12.5441 15.7303 12.5803 15.7681C12.2257 15.0733 11.2887 14.0222 10.6968 13.2793C10.3843 12.9238 9.88683 12.2868 9.38282 11.6577C9.33083 11.7364 9.28642 11.8303 9.24892 11.9241C9.22987 11.9633 9.21769 12.0022 9.19863 12.0414C9.18019 12.096 9.15521 12.1585 9.13018 12.221C9.10553 12.2912 9.07429 12.3694 9.04272 12.4398Z" fill="#BF0000"/>
<path d="M8.62457 13.6646C9.91875 14.4978 11.2715 15.2445 12.6338 15.8904L12.6335 15.8827C12.618 15.8444 12.6026 15.8061 12.5802 15.768C12.544 15.7303 12.494 15.6929 12.4578 15.6551C12.2193 15.4137 11.9877 15.1721 11.7423 14.9309C10.8619 14.0716 9.97527 13.228 9.0426 12.4397C9.01758 12.5022 8.9926 12.5647 8.96004 12.6119C8.73371 12.9812 8.62156 13.2702 8.62457 13.6646Z" fill="#FF0000"/>
<path d="M13.0334 15.2151C13.2288 15.0942 13.4877 15.0025 13.7019 14.997C13.7848 14.9949 13.8615 15.0084 13.9249 15.0378C14.0809 15.1266 14.2496 15.5167 14.3217 15.7469C14.3375 15.7929 14.3731 15.8152 14.4076 15.8143C14.4145 15.8141 14.8912 15.802 15.1339 15.9814C15.2009 16.0294 15.2424 16.0913 15.2694 16.1545C14.4967 16.1699 13.7039 15.7084 12.9133 15.3027C12.9504 15.2739 12.9822 15.2458 13.0334 15.2151Z" fill="#FF0000"/>
<path d="M12.9138 15.3027C13.7043 15.7084 14.4972 16.1699 15.2698 16.1546C15.2974 16.2194 15.3098 16.2856 15.3156 16.3403C15.0989 16.284 14.5745 16.1504 14.2376 16.0352C14.0764 15.9852 13.8675 15.9519 13.6583 15.9108C13.3379 15.8571 12.9336 15.7823 12.8385 15.661C12.7868 15.5849 12.7638 15.5314 12.7684 15.4771C12.7756 15.4241 12.8339 15.3648 12.9138 15.3027Z" fill="#BF0000"/>
<path d="M10.0237 11.1231C10.2194 11.3347 10.4221 11.5461 10.6451 11.7492C12.1506 13.1571 14.4123 14.9479 15.952 15.6976C15.6246 14.832 14.3874 11.6074 13.8647 10.8628C13.2317 9.96635 11.7941 9.33786 10.6223 9.10474C10.5311 9.23852 10.2601 9.69402 10.1578 10.2148C10.0552 10.7279 10.0332 11.0223 10.0237 11.1231Z" fill="#333333"/>
<path d="M9.44727 11.5557C10.0013 12.2221 10.5994 12.9494 10.7958 13.1764C10.9301 13.405 12.1476 14.7119 12.6023 15.4815C12.6017 15.466 12.5944 15.4585 12.6007 15.4429C12.6221 15.2954 12.7276 15.1767 12.9504 15.0473C13.2537 14.8617 13.7103 14.7031 14.0007 14.8658C14.2274 14.9915 14.4058 15.4433 14.4686 15.6196C14.614 15.6236 14.9887 15.6527 15.2239 15.8169C15.5378 16.0409 15.4865 16.4598 15.4802 16.4755C15.4743 16.4988 15.4615 16.5223 15.4414 16.5383C15.4279 16.5464 15.4144 16.5545 15.4006 16.5548L15.3799 16.5553C15.3726 16.5478 14.6318 16.3656 14.1969 16.222C14.0426 16.1718 13.8337 16.1385 13.6317 16.1049C13.2623 16.037 12.9136 15.9686 12.755 15.8179C12.7632 15.8486 12.7642 15.8718 12.7655 15.9027C12.8649 15.9621 13.1912 16.1548 13.3913 16.3044C13.8558 16.6561 14.9408 17.2858 15.5783 17.6408C15.6092 17.555 15.6474 17.4766 15.6984 17.3748C15.7747 17.2182 15.877 17.0222 15.9701 16.7724C16.1066 16.4054 16.0565 16.0432 16.0384 15.9431C14.4798 15.2326 12.1038 13.3596 10.5408 11.899C10.3177 11.6959 10.1151 11.4845 9.91933 11.2729C9.73513 11.3317 9.59301 11.405 9.48674 11.5082C9.47361 11.5241 9.46044 11.5398 9.44727 11.5557Z" fill="#FF0000"/>
<path d="M8.63013 13.7881C8.63931 13.842 8.63474 13.8963 8.64425 13.9579C8.67422 14.1737 8.81174 14.4795 8.95684 14.8007C9.1016 15.1141 9.25428 15.4505 9.34442 15.7808C9.77735 16.0404 10.1613 16.2859 10.4537 16.4949C10.5251 16.5473 10.6251 16.6221 10.7607 16.7191C10.7748 16.7265 10.7818 16.7263 10.789 16.7339C10.7959 16.7337 10.7959 16.7337 10.7959 16.7337C11.3854 16.9353 11.9752 17.1445 12.5585 17.3617C13.5001 17.7089 14.4235 18.1185 15.3288 18.5904C15.3969 18.2407 15.4679 17.9604 15.5104 17.8201C14.8725 17.4574 13.7737 16.828 13.3016 16.461C13.073 16.289 12.6479 16.0523 12.6407 16.0448C12.6269 16.0451 12.6203 16.053 12.6065 16.0534C11.2254 15.4544 9.91743 14.6215 8.63013 13.7881Z" fill="#BF0000"/>
<path d="M15.4983 18.679C15.6042 18.7304 15.7105 18.7896 15.8098 18.8489C15.9029 18.5991 16.0463 18.3943 16.2197 18.2429C16.6398 17.8765 17.2257 17.8306 17.8744 18.1235C17.9662 18.1675 18.0656 18.2268 18.1718 18.286C19.3713 19.0057 20.4264 20.719 20.6452 22.2834C21.0417 22.66 21.4315 23.0445 21.8595 23.3507C22.2303 23.6119 22.607 23.8498 23.0031 24.0563C22.8392 23.9444 22.7017 23.801 22.6254 23.6328C22.5563 23.4722 22.549 23.3022 22.6115 23.1459C22.6806 22.9817 22.8599 22.807 23.0889 22.662C22.7724 22.5386 22.3286 22.3488 21.8904 22.1279C21.0919 21.7306 20.6708 21.4242 20.6498 21.417C20.6353 21.4019 20.6205 21.3791 20.6126 21.3561C20.6116 21.333 20.1549 19.3801 18.5514 18.2686C17.5398 17.5751 16.6651 17.6593 16.2134 17.9337C16.0654 18.0304 15.8996 18.0346 15.7437 17.9457C15.7226 17.9385 15.694 17.916 15.666 17.909C15.6243 18.0648 15.5532 18.345 15.4983 18.679Z" fill="#BF0000"/>
<path d="M26.4449 23.5128C26.4721 23.5044 26.4995 23.4959 26.5271 23.4952C26.9515 23.3916 28.6637 22.5127 29.3542 22.0001L29.5821 21.8319C30.2321 21.3436 31.1239 20.6867 31.465 20.0902C31.5617 19.9253 31.6203 19.6763 31.6568 19.397C31.6637 19.3968 31.6633 19.3891 31.663 19.3813C31.687 19.2956 31.7045 19.2179 31.7219 19.1401C31.7505 19.0001 31.7791 18.8602 31.8245 18.7895C31.8571 18.7422 31.8965 18.6948 31.9492 18.6316C31.961 19.2345 31.9282 20.0861 31.7025 20.4708C31.3615 21.0673 30.4697 21.7243 29.8197 22.2126L29.5917 22.3808C28.9012 22.8934 27.189 23.7723 26.7646 23.8759C26.737 23.8766 26.7097 23.885 26.6824 23.8935C26.5195 23.9117 25.1991 24.0507 23.9231 23.7819L24.1073 23.4798C25.2341 23.644 26.3005 23.5319 26.4449 23.5128Z" fill="#BF0000"/>
<path d="M24.3156 22.8784C24.482 22.8896 24.635 22.9089 24.7669 22.921C24.5336 23.0804 24.2688 23.2862 24.1105 23.4746C24.1092 23.4761 24.1073 23.4777 24.1061 23.4792C24.1066 23.4793 24.107 23.4793 24.1075 23.4794L23.9233 23.7815C23.7977 23.7551 23.6717 23.7295 23.5481 23.6945C23.3034 23.6311 23.102 23.4507 23.085 23.3737C23.1494 23.2639 23.7537 22.8385 24.3156 22.8784Z" fill="#FF0000"/>
<path d="M20.303 19.1211C20.6895 19.4283 21.3998 20.0289 21.7814 20.5452C22.2509 21.1751 22.7875 21.5945 22.8875 21.6694C23.0615 21.6958 24.362 21.8638 25.2877 21.8402L25.3498 21.8386C25.1064 21.6437 24.6991 21.337 24.5573 21.2555C24.4935 21.2185 24.2767 21.1621 24.0316 21.0911C23.4572 20.9201 22.6729 20.6926 22.3292 20.4152C21.8847 20.0475 20.8556 19.2694 20.6987 19.1574L20.303 19.1211Z" fill="#CCCCCC"/>
<path d="M0.546143 7.81483C0.617192 8.18424 0.794573 9.10007 0.869293 9.71693C0.970582 9.49777 1.10777 9.30867 1.28146 9.16504C1.72882 8.79011 2.34268 8.75129 3.0266 9.05868C3.12597 9.11804 3.23191 9.16948 3.33848 9.23634C4.63006 10.0078 5.76085 11.8738 5.97842 13.5698C5.99847 13.7162 6.0044 13.8553 6.01 13.9866C6.01791 14.0096 6.01988 14.056 6.02153 14.0946C6.19753 14.1675 6.3877 14.2477 6.59955 14.3506C7.35423 14.6948 8.30166 15.1811 9.11689 15.6476C9.03004 15.3946 8.91486 15.1268 8.80792 14.8898C8.65497 14.5457 8.5102 14.2323 8.472 13.9857C8.45327 13.8702 8.4559 13.7696 8.45162 13.6692C8.36604 13.6095 8.28084 13.5575 8.18839 13.498C7.43964 12.968 6.66326 12.4386 6.01876 11.759C5.21043 10.6427 4.28891 9.30493 3.03714 8.81866C2.67855 8.68085 2.28114 8.60591 1.90317 8.66194L1.31559 7.85711C1.31559 7.85711 2.3156 7.14329 2.37055 6.97176C2.4064 6.83933 2.37544 6.60037 2.35666 6.48486C2.33596 6.48539 2.30867 6.49378 2.28793 6.49431C2.00635 6.54019 1.74515 6.57777 1.56026 6.62114C1.30038 6.68965 1.1145 6.70987 0.976365 6.71338L0.98559 6.92968C0.998768 7.23872 0.730658 7.60129 0.546143 7.81483Z" fill="#BF0000"/>
<path d="M30.7399 16.8829C30.65 16.2355 30.316 14.8905 29.1162 13.1887C28.2628 11.9884 27.2344 11.2258 26.4685 10.7812C27.2597 11.0086 28.3979 11.5906 29.2497 12.5898C29.3007 12.6503 29.3589 12.7184 29.4103 12.7868L29.4327 13.3121C29.4337 13.3353 29.4484 13.3581 29.4633 13.3809C29.4705 13.3885 30.4032 14.3392 30.6144 14.9139C30.8263 15.504 30.9563 16.6066 30.9567 16.6144C30.9573 16.6298 30.9649 16.6451 30.9724 16.6604L31.5633 17.7049C31.5781 17.7277 31.6068 17.7502 31.6413 17.7493C31.6413 17.7493 31.6413 17.7493 31.6482 17.7491C31.6755 17.7407 31.709 17.7167 31.7146 17.6855C31.7268 17.6466 31.8699 17.1093 31.9153 16.5513C31.9627 16.8517 32.0291 17.2754 32.0183 17.5077C32.013 17.5465 31.9966 17.6474 31.8736 17.8439C31.795 17.9465 31.7098 18.0569 31.6239 18.1519C31.5378 18.2629 31.4596 18.3589 31.4073 18.4418C31.2329 18.157 31.0207 17.8732 30.7796 17.5901C30.7957 17.4102 30.7829 17.1908 30.7399 16.8829Z" fill="#BF0000"/>
<path d="M1.31592 7.85706L1.9035 8.6619C2.28147 8.60586 2.67887 8.6808 3.03746 8.81861C4.28924 9.30489 5.21076 10.6426 6.01909 11.7589C6.78695 12.4122 7.60707 12.9946 8.44667 13.5455C8.45255 13.3597 8.49433 13.204 8.5496 13.0402C7.74063 12.5581 6.36115 10.6984 5.68441 9.74885C5.62485 9.64982 5.57648 9.48866 5.63962 9.34785C5.71626 9.19895 5.86892 9.21049 5.97976 9.21541C6.86965 9.32425 7.86775 9.53857 8.46323 10.3664C8.58725 10.5179 8.93732 10.9421 9.33078 11.4116L9.37026 11.3642C9.47649 11.2609 9.61828 11.18 9.78144 11.1139C8.73492 9.92636 8.11181 8.77438 8.10424 8.75914C8.08909 8.72856 8.08744 8.68994 8.1072 8.66621C8.11967 8.63498 8.14634 8.61112 8.1812 8.61793C8.18811 8.61775 9.29607 8.6514 10.5998 8.8966C12.0782 9.18379 13.4092 9.9078 13.9981 10.7435C14.617 11.6327 16.1239 15.6701 16.1934 15.8385L16.1937 15.8462C16.1937 15.8462 16.1937 15.8462 16.194 15.854C16.2015 15.8692 16.3124 16.3614 16.126 16.8534C16.0332 17.111 15.9312 17.3146 15.848 17.4714C15.797 17.5733 15.7658 17.6514 15.7345 17.7296C15.7628 17.7443 15.7911 17.759 15.8194 17.7738C15.9188 17.8331 16.0293 17.8303 16.1303 17.7659C16.6152 17.4596 17.5655 17.3658 18.6344 18.1043C20.1951 19.1859 20.7002 20.9751 20.7683 21.275C20.8822 21.3494 21.2877 21.6175 21.9592 21.9561C22.4678 22.2062 22.9958 22.4247 23.2982 22.5407C23.5758 22.4022 23.8899 22.3091 24.1939 22.3014C24.2423 22.3002 24.2906 22.2989 24.3324 22.3056C24.7416 22.3338 25.0687 22.3797 25.2427 22.4061C25.3121 22.4121 25.3739 22.4028 25.4216 22.3861C25.4351 22.3781 26.5404 21.8626 26.7888 21.8486C26.8368 21.8396 26.9059 21.8378 26.996 21.8433C27.2727 21.844 27.7293 21.8478 28.1684 21.6046C28.7695 21.2645 30.9044 19.5936 31.0889 19.3801C31.1481 19.309 31.1826 19.1457 31.2172 18.9824C31.2579 18.8035 31.2981 18.6091 31.3954 18.4597C31.3986 18.4543 31.4043 18.4476 31.4077 18.4421C31.2334 18.1573 31.0212 17.8735 30.7801 17.5904C30.7479 17.9509 30.5913 18.1397 30.2687 18.4729C29.7917 18.9646 27.544 20.5842 26.6147 20.8476C26.3137 20.9248 26.0114 20.9712 25.7143 20.9788C25.134 20.9936 24.5751 20.8609 24.1211 20.594C23.8158 20.4084 22.9621 19.8501 22.0587 19.2622C21.0487 18.6073 19.9102 17.8552 19.4065 17.5587C18.4837 17.0021 17.4408 16.3868 17.3839 16.3496C17.1543 16.3167 16.994 16.2899 16.9447 16.2679C16.6697 16.1434 16.5522 15.8216 16.4506 15.5458C16.4341 15.4843 16.4111 15.4308 16.3953 15.3848C16.2792 15.0938 14.6545 11.214 14.6321 11.176C14.6163 11.13 14.6278 11.0755 14.6683 11.0513C15.0788 10.7856 15.489 10.5122 15.8995 10.2465C17.0091 9.5067 18.1989 8.70298 19.3644 7.81481L19.5785 7.64697C19.7664 7.51067 19.947 7.36686 20.1348 7.23061C20.2621 7.13456 20.3898 7.04625 20.5171 6.95015C19.1936 6.079 16.5226 4.7472 16.4943 4.73243C16.466 4.71772 16.4446 4.70278 16.4229 4.68016C16.4157 4.6726 16.264 4.52177 16.04 4.29547C15.4185 3.99418 13.9796 3.33481 12.4502 2.98708C10.453 2.53523 7.25607 2.33053 7.15209 2.32544C6.92284 2.46275 6.70045 2.59993 6.4784 2.74479C7.68443 2.80687 11.8307 3.057 13.1371 3.36402C14.6533 3.72752 15.1149 4.17209 15.1366 4.19471C15.1583 4.21739 15.1666 4.2481 15.1679 4.27903C15.1623 4.31009 15.1494 4.3336 15.1225 4.34977C15.1093 4.36558 13.5047 5.33457 12.377 6.1367C11.2902 6.92232 10.2391 7.73799 10.0185 7.91374C9.97174 7.95359 9.89703 7.98646 9.73124 7.99068C9.53783 7.99561 9.21114 7.95753 8.66045 7.85553C8.32557 7.78674 7.46923 7.65387 7.46232 7.65405C7.44161 7.65458 7.42745 7.6472 7.41301 7.63208C7.39852 7.61701 5.95821 6.27703 5.19002 5.616C5.13244 5.56333 5.08243 5.52594 5.03213 5.48082C5.02588 5.49646 5.01962 5.51206 4.9992 5.52032C4.99233 5.52049 4.2219 5.94231 3.74029 6.16341C3.4281 6.30284 2.86528 6.40224 2.35699 6.48482C2.37576 6.60032 2.40672 6.83929 2.37088 6.97171C2.31593 7.14324 1.31592 7.85706 1.31592 7.85706ZM19.9158 18.961C19.928 18.922 19.9612 18.8903 20.003 18.8969L20.7323 18.9712C20.7461 18.9708 20.7603 18.9781 20.7744 18.9855C20.7885 18.9929 21.9462 19.8683 22.4263 20.2582C22.7414 20.5132 23.5467 20.7478 24.0721 20.9046C24.3521 20.9826 24.5481 21.0395 24.6261 21.0839C24.8528 21.2096 25.6186 21.8165 25.6545 21.8466C25.6831 21.869 25.6986 21.9073 25.6864 21.9462C25.6811 21.9851 25.6479 22.0168 25.6134 22.0177C25.5101 22.0281 25.4065 22.0307 25.289 22.0337C24.2873 22.0593 22.9099 21.8701 22.8471 21.8562C22.8333 21.8566 22.8191 21.8492 22.8119 21.8416C22.7836 21.8269 22.1838 21.3859 21.6482 20.6648C21.1347 19.9741 19.9625 19.0836 19.9484 19.0762C19.9125 19.0462 19.9036 19 19.9158 18.961Z" fill="#FF0000"/>
<path d="M19.8479 16.4027C20.4305 16.442 20.943 16.4598 21.1565 16.439C21.6941 16.3943 22.8497 15.924 24.2208 14.9919C25.5445 14.0843 25.9533 13.4551 26.1556 13.0091C26.1938 12.9308 26.1599 12.7847 26.1273 12.6695L26.1102 12.5927C26.0418 12.285 25.9361 11.9165 25.7825 11.5569C25.8792 12.2041 25.7753 13.0111 24.9612 13.7047C23.4599 14.9881 22.2555 15.7768 21.3828 16.0697C20.8917 16.2291 20.3223 16.3364 19.8479 16.4027Z" fill="#1A1A1A"/>
<path d="M14.8262 11.1789C15.065 11.7529 16.4499 15.0355 16.5515 15.3114C16.5745 15.3649 16.5907 15.4186 16.6137 15.4722C16.7078 15.7328 16.8023 16.001 16.9996 16.0888C17.1122 16.1324 17.8908 16.2285 18.759 16.3147C18.7932 16.3061 20.2429 16.2459 21.3341 15.8856C22.1795 15.6011 23.3704 14.8205 24.8516 13.5531C25.9128 12.6521 25.6788 11.5444 25.4314 10.9319C25.3801 10.8636 25.3426 10.795 25.2916 10.7344C25.1241 10.5376 24.9439 10.3643 24.7642 10.2065C24.7573 10.2066 24.7573 10.2066 24.7504 10.2068C24.7287 10.1841 22.009 8.03377 20.845 7.17404C20.795 7.13661 20.7381 7.0994 20.6881 7.06201C20.5335 7.1665 20.3792 7.27872 20.2319 7.39071C20.0509 7.52683 19.8634 7.67082 19.6825 7.8069L19.4614 7.97496C18.296 8.86312 17.0996 9.67476 15.9897 10.4068C15.5995 10.6643 15.2163 10.9215 14.8262 11.1789Z" fill="#333333"/>
<path d="M17.8496 16.4074C18.2473 16.6526 18.8928 17.0305 19.482 17.3868C19.9929 17.6909 21.0884 18.4054 22.1415 19.0978C23.0449 19.6858 23.8917 20.2443 24.1966 20.4221C24.8493 20.8076 25.7175 20.8938 26.5718 20.6555C27.4603 20.4086 29.6946 18.7971 30.1449 18.3293C30.6153 17.8456 30.687 17.7432 30.5685 16.9109C30.4793 16.279 30.1539 14.9725 28.9764 13.3087C27.7029 11.5005 26.0234 10.7158 25.4888 10.5051C25.3905 10.4689 25.2994 10.4403 25.2148 10.4038C25.28 10.4717 25.3517 10.5318 25.4168 10.5997C25.4533 10.6452 25.4833 10.6986 25.5201 10.7518C25.5342 10.7591 25.5557 10.7741 25.5636 10.7971C25.5711 10.8124 25.5718 10.8278 25.579 10.8353C25.955 11.3826 26.1702 12.05 26.2815 12.5499L26.2983 12.6191C26.3321 12.7651 26.3746 12.9497 26.3118 13.0982C26.0966 13.5678 25.6753 14.2281 24.3108 15.1523C23.1081 15.9796 21.8472 16.5763 21.1788 16.632C21.1446 16.6406 21.11 16.6415 21.0686 16.6426C20.661 16.6529 19.6761 16.5852 18.7668 16.5079L18.7599 16.508L18.7595 16.5003C18.4335 16.4776 18.1207 16.4392 17.8496 16.4074Z" fill="#FF0000"/>
<path d="M19.9158 18.9612C19.9036 19.0002 19.9125 19.0464 19.9484 19.0764C19.9625 19.0838 21.1347 19.9743 21.6482 20.665C22.1838 21.386 22.7836 21.8271 22.8118 21.8418C22.8191 21.8494 22.8332 21.8568 22.8471 21.8564C22.9099 21.8703 24.2873 22.0595 25.289 22.0339C25.4065 22.0309 25.5101 22.0283 25.6134 22.0179C25.6479 22.017 25.6811 21.9853 25.6864 21.9464C25.6986 21.9075 25.6831 21.8692 25.6545 21.8468C25.6186 21.8167 24.8528 21.2098 24.6261 21.0841C24.5481 21.0397 24.352 20.9828 24.0721 20.9048C23.5467 20.748 22.7414 20.5134 22.4262 20.2584C21.9462 19.8685 20.7885 18.9931 20.7744 18.9857C20.7602 18.9783 20.7461 18.971 20.7323 18.9714L20.0029 18.8971C19.9612 18.8905 19.9279 18.9222 19.9158 18.9612ZM20.303 19.1215L20.6987 19.1578C20.8557 19.2698 21.8847 20.048 22.3292 20.4156C22.6729 20.693 23.4573 20.9205 24.0316 21.0915C24.2767 21.1625 24.4935 21.2189 24.5573 21.2559C24.6991 21.3374 25.1064 21.6441 25.3499 21.839L25.2877 21.8406C24.362 21.8642 23.0615 21.6962 22.8875 21.6698C22.7875 21.5949 22.2509 21.1755 21.7815 20.5456C21.3998 20.0293 20.6895 19.4287 20.303 19.1215Z" fill="black"/>
<path d="M7.96899 10.2939C7.99139 10.332 8.06474 10.4307 8.16212 10.6061C8.27532 10.8275 8.54048 11.2075 8.59181 11.2757C8.58391 11.2528 8.5609 11.1992 8.49277 11.0617C8.37205 10.8251 8.04963 10.4002 7.96899 10.2939Z" fill="black"/>
<path d="M20.672 23.242C21.708 23.6951 22.8199 24.1463 23.0005 24.1649C23.0351 24.164 23.0976 24.1702 23.1943 24.1677C23.1377 24.1382 23.0811 24.1087 23.0242 24.0715C22.6209 23.8575 22.2373 23.6198 21.8593 23.351C21.4313 23.0448 21.0414 22.6603 20.645 22.2837C20.646 22.3069 20.6536 22.3221 20.6546 22.3453C20.6964 22.6768 20.7023 22.9783 20.672 23.242Z" fill="#FF0000"/>
<path d="M10.7883 16.7338C11.5723 17.2784 13.3376 18.4554 15.1806 19.6691C15.2062 19.2972 15.2657 18.909 15.3282 18.5903C14.4229 18.1184 13.4994 17.7089 12.5579 17.3616C11.9746 17.1444 11.3848 16.9352 10.7952 16.7336C10.7952 16.7336 10.7952 16.7336 10.7883 16.7338Z" fill="#FF0000"/>
<path d="M15.3513 19.7812C15.4441 19.8484 15.5435 19.9078 15.6362 19.975C15.625 19.5499 15.6776 19.1619 15.8095 18.8492C15.7102 18.7898 15.6039 18.7306 15.4979 18.6792C15.4292 19.0136 15.37 19.4095 15.3513 19.7812Z" fill="#FF0000"/>
<path d="M16.2489 17.1077L16.3042 17.1386C16.394 17.1386 16.5805 17.038 16.7463 16.5585L16.5667 16.3187L16.3214 16.2244C16.2731 16.263 16.1039 16.7983 16.2489 17.1077Z" fill="black"/>
<path d="M16.5345 16.5097L16.5528 16.5218L16.5577 16.5434L16.5404 16.5731L16.503 16.5399L16.5043 16.647L16.5162 16.652L16.5296 16.6424L16.5486 16.6309L16.5419 16.7129L16.5256 16.7843L16.4885 16.8164L16.5182 16.7355L16.4856 16.7239L16.4643 16.741L16.4051 16.7812L16.3848 16.8401L16.3611 16.8627L16.3406 16.8888L16.3349 17.0125L16.318 16.9532L16.3044 16.9301L16.3089 16.8863L16.3165 16.8134L16.3083 16.7556L16.2989 16.6233L16.3382 16.5529L16.3227 16.6334L16.3271 16.7113L16.387 16.6475L16.4328 16.6168L16.4452 16.5655L16.4417 16.4966L16.4416 16.4639L16.5001 16.4474L16.5345 16.5097ZM16.5392 16.3443L16.3376 16.2678C16.2984 16.3709 16.1541 16.8209 16.2767 17.0945C16.3148 17.104 16.5059 17.1282 16.7005 16.5711L16.5392 16.3443Z" fill="#FFFF00"/>
</svg>
