<svg width="76" height="52" viewBox="0 0 76 52" fill="none" xmlns="http://www.w3.org/2000/svg">
<path d="M0 21.5732V21.5825L15.9523 30.4079C15.6112 30.2212 15.2702 29.9783 14.9583 29.7075C14.6465 29.4087 14.3639 29.1098 14.0813 28.7829C13.5453 28.1385 13.0678 27.3541 12.756 26.5696C12.5903 26.1493 12.4539 25.7104 12.3662 25.2715C12.2882 24.9072 12.2493 24.5337 12.2493 24.1881C12.2493 24.048 12.2493 23.9173 12.2785 23.8052V23.7305C12.2785 23.6464 12.3077 23.5904 12.3077 23.4783C12.3077 23.4597 12.337 23.4316 12.337 23.4036C12.3662 23.2075 12.4149 23.0207 12.5026 22.89C12.5026 22.8339 12.5319 22.7779 12.5319 22.7499C12.5611 22.7219 12.5611 22.6939 12.5903 22.6752C12.6488 22.5631 12.6975 22.4791 12.756 22.3763L12.6488 22.2923C12.678 22.2643 12.678 22.2643 12.6975 22.2362L11.4015 21.5078L9.28683 20.3124V16.4367L0.916017 21.0689L0 21.5732Z" fill="#888888"/>
<path d="M15.9523 30.4079L54.9706 52H59.9112L75.9999 42.5302V39.9899L73.8561 38.7945L60.2133 46.3498L55.8086 45.6401L53.5283 44.7809L51.9984 45.8549L51.9691 45.8829H51.9204L51.7158 46.023C51.6378 46.079 51.5209 46.1257 51.4039 46.1537C51.3552 46.1817 51.2675 46.2098 51.1798 46.2098C51.1311 46.2378 51.0434 46.2378 50.9557 46.2378H50.7315C50.6438 46.2378 50.5659 46.2378 50.4782 46.2098C50.3125 46.2098 50.1371 46.1818 49.9715 46.107C49.6889 46.051 49.377 45.9109 49.0652 45.7522C48.9775 45.7055 48.8898 45.6588 48.8118 45.6027C48.5585 45.4346 48.3051 45.2478 48.081 45.0517C47.7691 44.7809 47.4865 44.482 47.2332 44.1552H47.2039C47.1747 44.1271 47.1454 44.0711 47.1162 44.0431C46.8628 43.7442 46.6387 43.3987 46.4146 43.0718C46.2099 42.7169 46.015 42.3434 45.8786 41.9325V41.9044H45.8494C45.6253 41.3908 45.4791 40.8771 45.4206 40.3355V40.3075L44.144 39.5977L41.6104 38.2062L22.0232 27.3822C22.0232 27.7837 21.9355 28.2133 21.7114 28.6243C21.6822 28.6803 21.653 28.7363 21.5945 28.811C21.5458 28.8764 21.4775 28.9605 21.3703 29.0819C21.2242 29.222 21.0877 29.3527 20.9221 29.4368C20.8929 29.4648 20.8636 29.4648 20.7467 29.5395C20.7467 29.5395 18.6613 30.6508 18.6028 30.6789C18.5443 30.7069 18.4859 30.7349 18.4371 30.7349C18.4079 30.7629 18.3787 30.7629 18.3494 30.7629C18.2617 30.8189 18.174 30.8376 18.0668 30.8376C18.0376 30.8656 17.9499 30.8656 17.9012 30.8656C17.336 30.9497 16.6539 30.7908 15.9523 30.4079Z" fill="#888888"/>
<path d="M72.5114 32.388H72.5016C72.5114 32.3973 72.5211 32.4066 72.5211 32.416C72.5211 32.4066 72.5114 32.3973 72.5114 32.388ZM0 8.87214V10.9548L0.224131 11.0948L9.28683 16.1193V20.3124L11.4015 21.5078L12.6975 22.2362C12.678 22.2643 12.678 22.2643 12.6488 22.2923L12.756 22.3763C12.6975 22.4791 12.6488 22.5631 12.5903 22.6752C12.5611 22.6939 12.5611 22.7219 12.5319 22.7499C12.5319 22.7779 12.5026 22.8339 12.5026 22.89C12.4149 23.0207 12.3662 23.2075 12.337 23.4036C12.337 23.4316 12.3077 23.4597 12.3077 23.4783C12.3077 23.5904 12.2785 23.6464 12.2785 23.7305V23.8052C12.2493 23.9173 12.2493 24.048 12.2493 24.1881C12.2493 24.5337 12.2882 24.9072 12.3662 25.2715C12.4539 25.7104 12.5903 26.1493 12.756 26.5696C13.0678 27.3541 13.5453 28.1385 14.0813 28.7829C14.3639 29.1098 14.6465 29.4087 14.9583 29.7075C15.2702 29.9783 15.6112 30.2212 15.9523 30.4079C16.6539 30.7908 17.336 30.9497 17.9012 30.8656C17.9499 30.8656 18.0376 30.8656 18.0668 30.8376C18.174 30.8376 18.2617 30.8189 18.3494 30.7629C18.3787 30.7629 18.4079 30.7629 18.4371 30.7349C18.4859 30.7349 18.5443 30.7069 18.6028 30.6789C18.6613 30.6508 20.7467 29.5395 20.7467 29.5395C20.8636 29.4648 20.8929 29.4648 20.9221 29.4368C21.0877 29.3527 21.2242 29.222 21.3703 29.0819C21.4775 28.9605 21.5458 28.8764 21.5945 28.811C21.653 28.7363 21.6822 28.6803 21.7114 28.6243C21.9355 28.2133 22.0232 27.7837 22.0232 27.3822L41.6104 38.2062L44.144 39.5977L45.4206 40.3075V40.3355C45.4791 40.8771 45.6253 41.3908 45.8494 41.9044H45.8786V41.9325C46.015 42.3434 46.2099 42.7169 46.4146 43.0718C46.6387 43.3987 46.8628 43.7442 47.1162 44.0431C47.1454 44.0711 47.1747 44.1271 47.2039 44.1552H47.2332C47.4865 44.482 47.7691 44.7809 48.081 45.0517C48.3051 45.2478 48.5585 45.4346 48.8118 45.6027C48.8898 45.6588 48.9775 45.7055 49.0652 45.7522C49.377 45.9109 49.6889 46.051 49.9715 46.107C50.1371 46.1818 50.3125 46.2098 50.4782 46.2098C50.5659 46.2378 50.6438 46.2378 50.7315 46.2378H50.9557C51.0434 46.2378 51.1311 46.2378 51.1798 46.2098C51.2675 46.2098 51.3552 46.1817 51.4039 46.1537C51.5209 46.1257 51.6378 46.079 51.7158 46.023L51.9204 45.8829H51.9691L51.9984 45.8549L53.5283 44.7809L55.8086 45.6401L60.2133 46.3498L73.8561 38.7945L74.6747 38.337L76 37.6085V34.4706L74.9281 33.574L74.8988 30.352L70.6306 20.0417L63.2927 15.9885V14.8772L61.0904 13.6631L60.4472 13.2802L59.3461 12.6638V12.2249L57.2802 11.0668L57.2509 11.0948L46.668 16.9318L43.2768 15.064L18.1254 1.15805L16.001 0L10.4757 3.05388L9.0627 3.83837L5.33043 5.92098L3.94666 6.67745L0.194898 8.76007L0 8.87214ZM72.219 32.2105C72.2482 32.2105 72.2775 32.2199 72.3067 32.2385C72.3359 32.2479 72.3554 32.2572 72.3847 32.2759C72.4236 32.3039 72.4724 32.3319 72.5016 32.3786C72.5016 32.388 72.5016 32.388 72.5016 32.388C72.5114 32.3973 72.5211 32.4066 72.5211 32.416C72.5308 32.4253 72.5406 32.4347 72.5406 32.4533C72.5601 32.472 72.5698 32.5 72.5698 32.528C72.5698 32.528 72.5796 32.5281 72.5698 32.5374C72.5796 32.5654 72.5796 32.6028 72.5796 32.6308V32.8456C72.5796 33.0137 72.5406 33.1631 72.4626 33.2845C72.4626 33.2845 72.4724 33.2845 72.4626 33.2939C72.4334 33.3499 72.3847 33.4059 72.3262 33.462C72.3165 33.462 72.3165 33.462 72.3165 33.462V33.4713H72.3067C72.258 33.518 72.1995 33.5647 72.141 33.602H72.1313L72.0631 33.6487H72.0533L72.0339 33.6581L71.5076 33.9476H71.4979V33.9569H71.4784L71.4687 33.9663L70.9035 34.2745H70.8937C70.8547 34.2931 70.8157 34.3118 70.7768 34.3212C70.6696 34.3492 70.5721 34.3398 70.4844 34.3118C70.4747 34.3025 70.4747 34.3025 70.4747 34.3025C70.4552 34.2931 70.4357 34.2838 70.426 34.2745H70.4162C70.4065 34.2651 70.3967 34.2651 70.387 34.2464H70.3772C70.3577 34.2371 70.348 34.2278 70.348 34.2184C70.2993 34.1811 70.27 34.1344 70.2505 34.0877V34.0783C70.2408 34.069 70.2408 34.0597 70.2408 34.041C70.2311 34.0316 70.2213 34.013 70.2213 34.0036C70.2116 33.9756 70.2116 33.9476 70.2116 33.9102V33.6861C70.2116 33.6114 70.2213 33.5367 70.2408 33.462C70.2798 33.3219 70.3577 33.1911 70.4747 33.0884C70.4649 33.0791 70.4747 33.0791 70.4844 33.0791C70.4942 33.0604 70.5039 33.051 70.5137 33.051C70.5526 33.0043 70.6014 32.967 70.6598 32.9483L71.9072 32.2479C71.9461 32.2292 71.9754 32.2105 72.0144 32.2105C72.0144 32.2105 72.0144 32.2199 72.0241 32.2105C72.0436 32.2012 72.0533 32.2012 72.0728 32.2012C72.0826 32.1918 72.0923 32.1918 72.1021 32.2012C72.1118 32.1918 72.1118 32.1918 72.1216 32.1918C72.141 32.1918 72.1508 32.1918 72.1703 32.2012C72.1898 32.2012 72.2093 32.2012 72.219 32.2105Z" fill="black"/>
<path d="M70.2116 33.6861L70.2118 33.9008C70.2118 34.2557 70.5821 34.4425 70.894 34.2837L72.1316 33.6113C72.4142 33.4525 72.5798 33.1817 72.5798 32.8548V32.64C72.5798 32.3132 72.2095 32.0984 71.8977 32.2571L70.6601 32.9576C70.3775 33.0883 70.2116 33.3872 70.2116 33.6861ZM59.3756 39.663V39.8778C59.3756 40.1206 59.5997 40.3074 59.8238 40.3074C59.8823 40.3074 59.9603 40.2794 60.0187 40.2514L61.2856 39.579C61.5389 39.4202 61.7046 39.1214 61.7046 38.8225V38.6077C61.7046 38.2528 61.3343 38.066 61.0517 38.2248L59.8141 38.9252C59.5412 39.0653 59.3756 39.3642 59.3756 39.663ZM70.2116 33.6861L70.2118 33.9008C70.2118 34.2557 70.5821 34.4425 70.894 34.2837L72.1316 33.6113C72.4142 33.4525 72.5798 33.1817 72.5798 32.8548V32.64C72.5798 32.3132 72.2095 32.0984 71.8977 32.2571L70.6601 32.9576C70.3775 33.0883 70.2116 33.3872 70.2116 33.6861ZM59.3756 39.663V39.8778C59.3756 40.1206 59.5997 40.3074 59.8238 40.3074C59.8823 40.3074 59.9603 40.2794 60.0187 40.2514L61.2856 39.579C61.5389 39.4202 61.7046 39.1214 61.7046 38.8225V38.6077C61.7046 38.2528 61.3343 38.066 61.0517 38.2248L59.8141 38.9252C59.5412 39.0653 59.3756 39.3642 59.3756 39.663ZM70.2116 33.6861L70.2118 33.9008C70.2118 34.2557 70.5821 34.4425 70.894 34.2837L72.1316 33.6113C72.4142 33.4525 72.5798 33.1817 72.5798 32.8548V32.64C72.5798 32.3132 72.2095 32.0984 71.8977 32.2571L70.6601 32.9576C70.3775 33.0883 70.2116 33.3872 70.2116 33.6861ZM59.3756 39.663V39.8778C59.3756 40.1206 59.5997 40.3074 59.8238 40.3074C59.8823 40.3074 59.9603 40.2794 60.0187 40.2514L61.2856 39.579C61.5389 39.4202 61.7046 39.1214 61.7046 38.8225V38.6077C61.7046 38.2528 61.3343 38.066 61.0517 38.2248L59.8141 38.9252C59.5412 39.0653 59.3756 39.3642 59.3756 39.663ZM70.2116 33.6861L70.2118 33.9008C70.2118 34.2557 70.5821 34.4425 70.894 34.2837L72.1316 33.6113C72.4142 33.4525 72.5798 33.1817 72.5798 32.8548V32.64C72.5798 32.3132 72.2095 32.0984 71.8977 32.2571L70.6601 32.9576C70.3775 33.0883 70.2116 33.3872 70.2116 33.6861ZM59.3756 39.663V39.8778C59.3756 40.1206 59.5997 40.3074 59.8238 40.3074C59.8823 40.3074 59.9603 40.2794 60.0187 40.2514L61.2856 39.579C61.5389 39.4202 61.7046 39.1214 61.7046 38.8225V38.6077C61.7046 38.2528 61.3343 38.066 61.0517 38.2248L59.8141 38.9252C59.5412 39.0653 59.3756 39.3642 59.3756 39.663ZM70.2116 33.6861L70.2118 33.9008C70.2118 34.2557 70.5821 34.4425 70.894 34.2837L72.1316 33.6113C72.4142 33.4525 72.5798 33.1817 72.5798 32.8548V32.64C72.5798 32.3132 72.2095 32.0984 71.8977 32.2571L70.6601 32.9576C70.3775 33.0883 70.2116 33.3872 70.2116 33.6861ZM59.3756 39.663V39.8778C59.3756 40.1206 59.5997 40.3074 59.8238 40.3074C59.8823 40.3074 59.9603 40.2794 60.0187 40.2514L61.2856 39.579C61.5389 39.4202 61.7046 39.1214 61.7046 38.8225V38.6077C61.7046 38.2528 61.3343 38.066 61.0517 38.2248L59.8141 38.9252C59.5412 39.0653 59.3756 39.3642 59.3756 39.663ZM59.3756 39.663V39.8778C59.3756 40.1206 59.5997 40.3074 59.8238 40.3074C59.8823 40.3074 59.9603 40.2794 60.0187 40.2514L61.2856 39.579C61.5389 39.4202 61.7046 39.1214 61.7046 38.8225V38.6077C61.7046 38.2528 61.3343 38.066 61.0517 38.2248L59.8141 38.9252C59.5412 39.0653 59.3756 39.3642 59.3756 39.663ZM70.2116 33.6861L70.2118 33.9008C70.2118 34.2557 70.5821 34.4425 70.894 34.2837L72.1316 33.6113C72.4142 33.4525 72.5798 33.1817 72.5798 32.8548V32.64C72.5798 32.3132 72.2095 32.0984 71.8977 32.2571L70.6601 32.9576C70.3775 33.0883 70.2116 33.3872 70.2116 33.6861ZM70.2116 33.6861L70.2118 33.9008C70.2118 34.2557 70.5821 34.4425 70.894 34.2837L72.1316 33.6113C72.4142 33.4525 72.5798 33.1817 72.5798 32.8548V32.64C72.5798 32.3132 72.2095 32.0984 71.8977 32.2571L70.6601 32.9576C70.3775 33.0883 70.2116 33.3872 70.2116 33.6861ZM59.3756 39.663V39.8778C59.3756 40.1206 59.5997 40.3074 59.8238 40.3074C59.8823 40.3074 59.9603 40.2794 60.0187 40.2514L61.2856 39.579C61.5389 39.4202 61.7046 39.1214 61.7046 38.8225V38.6077C61.7046 38.2528 61.3343 38.066 61.0517 38.2248L59.8141 38.9252C59.5412 39.0653 59.3756 39.3642 59.3756 39.663ZM59.3756 39.663V39.8778C59.3756 40.1206 59.5997 40.3074 59.8238 40.3074C59.8823 40.3074 59.9603 40.2794 60.0187 40.2514L61.2856 39.579C61.5389 39.4202 61.7046 39.1214 61.7046 38.8225V38.6077C61.7046 38.2528 61.3343 38.066 61.0517 38.2248L59.8141 38.9252C59.5412 39.0653 59.3756 39.3642 59.3756 39.663ZM70.2116 33.6861L70.2118 33.9008C70.2118 34.2557 70.5821 34.4425 70.894 34.2837L72.1316 33.6113C72.4142 33.4525 72.5798 33.1817 72.5798 32.8548V32.64C72.5798 32.3132 72.2095 32.0984 71.8977 32.2571L70.6601 32.9576C70.3775 33.0883 70.2116 33.3872 70.2116 33.6861ZM70.2116 33.6861L70.2118 33.9008C70.2118 34.2557 70.5821 34.4425 70.894 34.2837L72.1316 33.6113C72.4142 33.4525 72.5798 33.1817 72.5798 32.8548V32.64C72.5798 32.3132 72.2095 32.0984 71.8977 32.2571L70.6601 32.9576C70.3775 33.0883 70.2116 33.3872 70.2116 33.6861ZM59.3756 39.663V39.8778C59.3756 40.1206 59.5997 40.3074 59.8238 40.3074C59.8823 40.3074 59.9603 40.2794 60.0187 40.2514L61.2856 39.579C61.5389 39.4202 61.7046 39.1214 61.7046 38.8225V38.6077C61.7046 38.2528 61.3343 38.066 61.0517 38.2248L59.8141 38.9252C59.5412 39.0653 59.3756 39.3642 59.3756 39.663Z" fill="black"/>
<path d="M2.30952 9.92724L43.501 32.7333V28.5681H43.4717L6.07103 7.84463L2.30952 9.92724Z" fill="#BABABA"/>
<path d="M7.4551 7.08811L23.6315 16.0163L43.4525 26.943V22.8618L11.1776 5.00549L7.4551 7.08811Z" fill="#BABABA"/>
<path d="M43.4522 21.2931V18.6969H43.4717L43.4717 28.5681H43.501L43.5009 18.6969L44.5241 18.1272L15.9815 2.35345L12.5903 4.24928L43.4522 21.2931Z" fill="#BABABA"/>
<path d="M6.07103 7.84463L43.4717 28.5681L43.4717 26.9711H43.4522L43.4525 26.943L23.6315 16.0163L7.4551 7.08811L6.07103 7.84463Z" fill="#888888"/>
<path d="M51.2966 43.1089C51.3259 43.0529 51.3259 42.9782 51.3259 42.8941C51.3259 42.4365 51.2089 41.9229 51.014 41.4559C50.6145 40.5127 49.8836 39.6441 49.0651 39.1865C48.9774 39.1305 48.9286 39.1025 48.8409 39.1025C48.5583 38.9437 48.2757 38.8877 48.0516 38.8877H47.9347L47.8762 38.9157C47.847 38.9157 47.847 38.9157 47.8177 38.9437C47.73 38.9157 47.6228 38.9437 47.5644 38.9997L47.4767 39.0278L47.389 39.1118H47.3597V39.1398C47.3013 39.1398 47.272 39.1678 47.2233 39.2519V39.2799C47.1941 39.2519 47.1648 39.2799 47.1648 39.3079L47.1356 39.336C47.0771 39.42 47.0187 39.4947 46.9992 39.6068C46.9699 39.6348 46.9699 39.6628 46.9699 39.6908C46.9115 39.7469 46.9115 39.8309 46.8822 39.9337C46.853 40.0644 46.8238 40.2325 46.8238 40.4193C46.8238 40.7181 46.8822 41.017 46.9602 41.3158C46.9894 41.5026 47.0479 41.6707 47.1259 41.8295C47.3207 42.3151 47.5741 42.8008 47.9152 43.1837H47.9444C48.0321 43.3144 48.1686 43.4545 48.2855 43.5666C48.5096 43.7814 48.763 43.9962 49.0456 44.1362C49.4159 44.351 49.7472 44.4351 50.059 44.4351H50.176C50.2052 44.4351 50.2345 44.4071 50.2637 44.4071C50.3514 44.4071 50.4001 44.3791 50.4586 44.351H50.4878C50.5171 44.351 50.5171 44.351 50.5171 44.351C50.5463 44.351 50.5755 44.351 50.5755 44.323C50.6048 44.323 50.634 44.295 50.6632 44.295L50.7217 44.267L50.7509 44.239C50.7802 44.239 50.7802 44.2109 50.7802 44.1829C50.8094 44.1829 50.8386 44.1269 50.8386 44.1269C50.8971 44.0989 50.9556 44.0709 50.9751 43.9962H51.0043L51.0335 43.9681H51.0043V43.9401C51.0628 43.8841 51.1212 43.8094 51.1407 43.7253C51.1407 43.6973 51.17 43.6693 51.17 43.6413C51.2284 43.5852 51.2284 43.5105 51.2577 43.4265C51.2869 43.3424 51.2869 43.2677 51.2869 43.1556V43.1089H51.2966ZM49.4939 41.045C49.4939 41.073 49.4938 41.1291 49.4646 41.1571V41.2972C49.4354 41.3532 49.4354 41.3812 49.4061 41.4092C49.4061 41.4373 49.4061 41.4372 49.4061 41.4653C49.3769 41.4933 49.3477 41.5493 49.3184 41.5773H49.3477L49.3184 41.6054C49.2892 41.6334 49.26 41.6614 49.2307 41.6614C49.2307 41.6614 49.2307 41.6894 49.2015 41.6894C49.2015 41.7174 49.2015 41.7174 49.2015 41.7174L49.182 41.7268H49.1528L49.1235 41.7548H49.0943C49.0943 41.7548 49.0943 41.7548 49.0651 41.7548C49.0358 41.7828 49.0066 41.7828 48.9481 41.7828L48.9189 41.8108H48.8604C48.6948 41.8108 48.5194 41.7548 48.3537 41.652C48.2173 41.596 48.0711 41.4933 47.9542 41.3812C47.8957 41.3252 47.8372 41.2505 47.7885 41.1944C47.6228 41.0076 47.4767 40.7648 47.389 40.522C47.3305 40.438 47.3013 40.3632 47.3013 40.2512C47.2428 40.1204 47.2136 39.9523 47.2136 39.8216C47.2136 39.7095 47.2428 39.6348 47.2428 39.5788C47.272 39.5227 47.272 39.4667 47.3013 39.448V39.42C47.3305 39.364 47.3597 39.3079 47.389 39.2893V39.2612C47.389 39.2612 47.389 39.2612 47.4182 39.2612V39.2052C47.4474 39.1772 47.4767 39.1492 47.5059 39.1492L47.5644 39.0931H47.5936C47.6228 39.0651 47.6813 39.0371 47.73 39.0651C47.73 39.0371 47.73 39.0371 47.7593 39.0371H47.847C47.9639 39.0371 48.1003 39.0651 48.2465 39.1492C48.2757 39.1492 48.305 39.1492 48.3634 39.1772C48.763 39.42 49.1235 39.8496 49.3282 40.3166C49.4354 40.5594 49.4939 40.8022 49.4939 41.045Z" fill="#888888"/>
<path d="M11.1776 5.00549L43.4525 22.8618L43.4522 26.9711H43.4717V18.6969H43.4522V21.2931L12.5903 4.24928L11.1776 5.00549Z" fill="#888888"/>
<path d="M17.8721 28.6521V28.5961H17.9013V28.5681C17.9305 28.5681 17.9305 28.5681 17.9305 28.5681C17.9305 28.54 17.9598 28.54 17.9598 28.54C17.989 28.512 17.989 28.512 17.989 28.484V28.4653C18.0182 28.4093 18.0475 28.3252 18.0767 28.2785C18.1059 28.2505 18.1059 28.2225 18.1059 28.1945V28.1665C18.1352 28.1385 18.1352 28.1104 18.1352 28.0824C18.1644 27.9984 18.1936 27.9237 18.1644 27.8396C18.2229 27.7275 18.2229 27.6248 18.2229 27.5127V27.4847C18.2229 27.0831 18.1352 26.6722 17.9695 26.2706C17.9695 26.1866 17.9403 26.1305 17.911 26.0839C17.7941 25.841 17.6869 25.5982 17.57 25.3834C17.4335 25.1686 17.2874 24.9538 17.1217 24.7577C17.034 24.6737 16.9853 24.5989 16.8976 24.5149V24.4869L16.8099 24.4028C16.7806 24.3748 16.7806 24.3468 16.7514 24.3468C16.6637 24.2347 16.5857 24.188 16.4688 24.104H16.4396C16.3811 24.0479 16.3519 24.0199 16.3031 23.9919C16.2739 23.9359 16.2154 23.9078 16.1667 23.9078C16.1667 23.9078 16.1667 23.8798 16.1375 23.8798C16.1375 23.8798 16.1082 23.8238 16.079 23.8238C16.0498 23.7958 16.0498 23.7678 16.0205 23.7958V23.7678H15.9913C15.8744 23.7117 15.7672 23.6557 15.6502 23.637C15.621 23.637 15.5918 23.609 15.5333 23.581C15.4748 23.553 15.3969 23.5249 15.3384 23.5249C15.2799 23.5249 15.202 23.5249 15.1143 23.4969C15.085 23.4689 15.0266 23.4689 14.9973 23.4689H14.9389L14.9096 23.4969C14.8804 23.4969 14.8804 23.4969 14.8804 23.4969C14.8512 23.4969 14.8512 23.4969 14.8512 23.4969C14.8219 23.4969 14.8219 23.4969 14.8219 23.4969H14.7342V23.5249H14.6757L14.6173 23.553C14.588 23.553 14.588 23.553 14.5588 23.553C14.5296 23.553 14.5296 23.553 14.5003 23.581H14.4711L14.3542 23.665C14.2957 23.693 14.2372 23.7211 14.1885 23.7771C14.1885 23.7771 14.1593 23.7771 14.1593 23.8331L14.13 23.8611C14.1008 23.8611 14.0423 23.9172 14.0131 23.9452H13.9839C13.9839 23.9452 13.9839 23.9452 13.9839 24.0012C13.8962 24.0573 13.8474 24.188 13.8182 24.2721C13.789 24.3841 13.7597 24.4308 13.7305 24.5429C13.7013 24.7017 13.672 24.8698 13.672 25.0566C13.672 25.3554 13.7305 25.6262 13.8085 25.9251C13.8377 26.1119 13.8962 26.308 13.9741 26.4668C14.0034 26.5508 14.0326 26.6068 14.0911 26.6535C14.1788 26.8964 14.286 27.0831 14.4029 27.2512C14.4614 27.3353 14.4906 27.41 14.5393 27.466C14.5686 27.5781 14.627 27.6248 14.705 27.7089C14.705 27.7649 14.7342 27.7649 14.7635 27.7929H14.7927C14.8804 27.9237 14.9876 28.0918 15.1338 28.1758H15.163C15.1922 28.2318 15.2215 28.2599 15.2507 28.2599C15.2507 28.2599 15.2507 28.2879 15.2799 28.2879C15.3092 28.3439 15.3384 28.4 15.3676 28.4C15.5333 28.5307 15.7379 28.6708 15.9328 28.7829C15.9621 28.8109 16.0205 28.8389 16.0498 28.8389C16.3908 28.9976 16.6734 29.1097 16.956 29.1097C16.9853 29.1097 17.0437 29.1097 17.073 29.0817H17.1022C17.1899 29.0817 17.2679 29.0257 17.3556 28.9977C17.414 28.9696 17.4725 28.9696 17.5212 28.9416L17.6089 28.8576L17.6674 28.8295C17.7259 28.7735 17.7551 28.7735 17.7844 28.7175C17.8136 28.7175 17.8136 28.6895 17.8136 28.6895C17.8428 28.6895 17.8428 28.6895 17.8428 28.6895C17.8428 28.6521 17.8721 28.6521 17.8721 28.6521ZM16.2934 25.5982C16.2934 25.7103 16.2642 25.813 16.2349 25.8691C16.2349 25.8971 16.2349 25.8971 16.2349 25.9251C16.2349 25.9531 16.2349 25.9531 16.2057 25.9811C16.2057 26.0091 16.1765 26.0372 16.1765 26.0652C16.1765 26.0932 16.1765 26.0932 16.1472 26.0932V26.1212H16.118V26.1492C16.118 26.1492 16.0888 26.1492 16.0888 26.1772C16.0595 26.2053 16.0595 26.2053 16.0303 26.2333L15.9718 26.2893C15.9426 26.2893 15.9133 26.3173 15.8841 26.3173C15.8256 26.3173 15.7964 26.3453 15.7672 26.3453H15.7379C15.7379 26.3453 15.7087 26.3453 15.6795 26.3453C15.543 26.3453 15.4261 26.3173 15.2604 26.2333C15.2604 26.2333 15.2312 26.2333 15.202 26.2053C15.1143 26.1492 15.0363 26.0932 14.9486 26.0185C14.9194 26.0185 14.9194 26.0185 14.8901 25.9905C14.8609 25.9905 14.8609 25.9624 14.8317 25.9344C14.7732 25.8784 14.7147 25.8224 14.666 25.7476C14.6368 25.7476 14.6368 25.7196 14.6368 25.6916C14.5783 25.6636 14.5491 25.6356 14.5491 25.5795C14.5198 25.5795 14.5198 25.5235 14.4906 25.4955C14.4321 25.3834 14.3737 25.3087 14.3249 25.1966C14.2957 25.1686 14.2957 25.1406 14.2665 25.1126C14.2372 25.0285 14.208 24.9538 14.208 24.8698C14.1495 24.711 14.1203 24.5709 14.1203 24.4402C14.1203 24.3561 14.1495 24.2814 14.1495 24.1974C14.1788 24.1413 14.1788 24.1133 14.208 24.0853C14.208 24.0293 14.2372 23.9732 14.2665 23.9265H14.2957C14.2957 23.8985 14.3249 23.8985 14.3542 23.8705C14.3542 23.8425 14.3834 23.8425 14.3834 23.8425C14.4126 23.8145 14.4419 23.7864 14.4711 23.7864L14.5296 23.7584C14.5296 23.7304 14.5296 23.7304 14.5588 23.7304C14.5588 23.7304 14.5588 23.7304 14.588 23.7304H14.6173V23.7024H14.6757C14.6757 23.7024 14.6757 23.7024 14.705 23.7024C14.705 23.7024 14.705 23.7024 14.7342 23.7024H14.7635C14.7927 23.7024 14.8804 23.7024 14.9291 23.7304C15.0168 23.7304 15.124 23.7864 15.2409 23.8425C15.2409 23.8425 15.2409 23.8705 15.2702 23.8705C15.2994 23.8985 15.3287 23.8985 15.3579 23.9545C15.3871 23.9545 15.4164 23.9826 15.4456 24.0106C15.5041 24.0386 15.5625 24.0666 15.582 24.1226C15.6113 24.1507 15.6113 24.1507 15.6405 24.1787V24.2067C15.699 24.2347 15.7282 24.2907 15.7574 24.3188C15.8451 24.4028 15.8939 24.5055 15.9816 24.6176C16.04 24.7297 16.0693 24.8324 16.118 24.9445C16.1472 24.9725 16.1472 25.0005 16.1472 25.0566C16.2349 25.2153 16.2934 25.4021 16.2934 25.5982Z" fill="#888888"/>
<path d="M55.4186 41.8856L56.968 42.4833L59.3945 43.3985L60.866 42.586L62.8734 41.4746C62.9611 41.4186 63.0683 41.3626 63.156 41.3159L63.2924 41.2598L73.8558 35.4136V36.4409L59.7648 44.2017L56.3444 43.688L55.4089 43.3331V41.8856H55.4186Z" fill="black"/>
<path d="M45.6837 23.4036L46.2197 23.1047L46.7264 23.4036L49.8642 25.1593L50.9654 24.5616L51.3844 24.3188L61.8601 18.5005L62.7079 18.0149H62.7372L68.9154 21.4517L69.2857 22.2922V22.3202L72.2481 29.4926L72.8426 30.9309V33.6392L61.8017 39.7283L61.7432 39.7563L60.223 40.5968L60.0476 40.6809L59.9891 40.7369L59.1706 41.1665L55.3603 39.7096L55.3311 39.6816C55.3311 39.6816 55.3603 39.6536 55.3311 39.6256C55.3311 39.6256 55.3311 39.6256 55.3311 39.5975C55.3603 39.5695 55.3311 39.5135 55.3311 39.4668C55.3603 39.4388 55.3311 39.3827 55.3311 39.3547C55.2434 38.8971 55.0777 38.2994 54.7659 37.7017C54.6782 37.5429 54.6002 37.3748 54.4833 37.2161C54.2007 36.7585 53.8011 36.3195 53.3237 35.9179C53.041 35.7031 52.7292 35.4883 52.3589 35.2642C50.0689 33.938 46.7166 32.313 45.5862 31.7714V23.4689L45.6447 23.4129H45.6837V23.4036Z" fill="black"/>
<path d="M48.8118 35.6658C48.8995 35.6938 48.9482 35.7219 49.0359 35.7779C49.1236 35.8339 49.2016 35.8619 49.2893 35.9086C49.3478 35.9366 50.79 36.6371 52.0568 37.4776C53.3236 38.3181 53.4991 39.9898 53.4991 41.428V42.5394C53.4991 42.0257 53.0995 41.3533 52.8169 40.8864C52.281 39.9151 51.4624 39.0466 50.4976 38.4208C49.9909 38.094 49.4842 37.7951 48.9482 37.4963C48.4707 37.2254 47.9055 36.9546 47.3111 36.9266C46.8921 36.8986 46.4925 37.1134 46.1514 37.3842C46.1514 37.3842 46.093 37.4683 46.0637 37.4683L45.5862 37.1694V34.0315C45.8104 34.1436 46.093 34.2743 46.3756 34.4331C47.1259 34.7973 47.964 35.2362 48.8118 35.6658Z" fill="black"/>
<path d="M61.8601 16.4554H61.8309L61.636 16.5862L60.8954 16.9971H60.8661L60.7297 17.0718L58.4397 18.3512H58.4104V18.8089H58.4397L58.6151 18.6968L61.2657 17.2399L61.8309 16.913H61.8601V16.4554Z" fill="black"/>
<path d="M58.4397 18.3512H58.4104V18.8089H58.4397V18.3512Z" fill="black"/>
<path d="M61.636 16.5862L61.8309 16.4554L61.8311 16.4834L61.636 16.5862Z" fill="black"/>
<path d="M57.7382 18.7529L54.6881 20.4339V20.4059L57.7382 18.7248V18.7529Z" fill="black"/>
<path d="M60.7297 17.0718L60.8662 16.9875L61.831 16.4459V16.9035L61.2658 17.2304L58.4105 18.7993V18.3417L60.7297 17.0718ZM47.7107 21.9466V22.4322L49.1237 23.1887V22.7311L47.9933 22.1054L47.8276 21.9933L47.7107 21.9466ZM50.5367 22.7311V23.1887L53.9571 21.2929V20.8352L50.5367 22.7311ZM48.3344 20.7325L49.2406 21.2462L49.4063 21.3302L49.8253 21.573L53.353 19.6212L52.9339 19.3783L51.8328 18.7526H51.8035L48.3344 20.7325ZM56.2667 16.3151L57.3386 16.9128L57.7576 17.1556L59.307 16.2871L59.424 16.2031L60.72 15.5026L61.1391 15.2598L59.6384 14.4193L56.2667 16.3151Z" fill="#F79420"/>
<path d="M55.9843 29.6607L56.1889 30.2491L58.6446 36.9919L72.2481 29.4926L69.286 22.3295H69.2568L55.9843 29.6607Z" fill="#9697CA"/>
<path d="M45.6837 23.4036L55.7309 28.979L55.9843 29.6607L69.2568 22.3295H69.286L69.286 22.3016L68.9157 21.4611L62.7375 18.0243H62.7082L61.8604 18.5099L51.3847 24.3282L50.9657 24.571L49.8645 25.1687L46.7264 23.4036L46.22 23.1141L45.6837 23.4036Z" fill="#72C6EF"/>
<path d="M14.2276 24.0761C14.2276 24.0201 14.2568 23.964 14.286 23.9173H14.3153C14.3153 23.8893 14.3445 23.8893 14.3737 23.8613C14.3737 23.8333 14.403 23.8333 14.403 23.8333C14.4322 23.8053 14.4614 23.7772 14.4907 23.7772L14.5491 23.7492C14.5491 23.7212 14.5491 23.7212 14.5784 23.7212C14.5784 23.7212 14.5784 23.7212 14.6076 23.7212H14.6369V23.7025H14.6953C14.6953 23.7025 14.6953 23.7025 14.7246 23.7025C14.7246 23.7025 14.7246 23.7025 14.7538 23.7025H14.783C14.8123 23.7025 14.9 23.7025 14.9487 23.7306C15.0364 23.7306 15.1436 23.7866 15.2605 23.8426C15.2605 23.8426 15.2605 23.8706 15.2898 23.8706C15.319 23.8987 15.3482 23.8987 15.3775 23.9547C15.4067 23.9547 15.4359 23.9827 15.4652 24.0107C15.5236 24.0387 15.5821 24.0668 15.6016 24.1228C15.6308 24.1508 15.6308 24.1508 15.6601 24.1788V24.2068C15.7185 24.2349 15.7478 24.2909 15.777 24.3189C15.8647 24.403 15.9134 24.5057 16.0011 24.6178C16.0596 24.7298 16.0888 24.8326 16.1376 24.9446C16.1668 24.9727 16.1668 25.0007 16.1668 25.0567C16.2545 25.2435 16.3032 25.4396 16.3032 25.6264C16.3032 25.7385 16.274 25.8412 16.2447 25.8972C16.2447 25.9252 16.2447 25.9252 16.2447 25.9533C16.2447 25.9813 16.2447 25.9813 16.2155 26.0093C16.2155 26.0373 16.1863 26.0653 16.1863 26.0933C16.1863 26.1214 16.1863 26.1214 16.157 26.1214V26.1494L16.118 26.1492L16.1181 26.1774C16.1181 26.1774 16.0888 26.1774 16.0888 26.2054C16.0596 26.2334 16.0596 26.2334 16.0304 26.2614L15.9719 26.3175C15.9427 26.3175 15.9134 26.3455 15.8842 26.3455C15.8257 26.3455 15.7965 26.3735 15.7673 26.3735H15.738C15.738 26.3735 15.7088 26.3735 15.6796 26.3735C15.5431 26.3735 15.4262 26.3455 15.2605 26.2614C15.2605 26.2614 15.2313 26.2614 15.2021 26.2334C15.1144 26.1774 15.0364 26.1214 14.9487 26.0466C14.9195 26.0466 14.9195 26.0466 14.8902 26.0186C14.861 26.0186 14.861 25.9906 14.8317 25.9626C14.7733 25.9066 14.7148 25.8505 14.6661 25.7758C14.6369 25.7758 14.6369 25.7478 14.6369 25.7198C14.5784 25.6918 14.5491 25.6637 14.5491 25.6077C14.5199 25.6077 14.5199 25.5517 14.4907 25.5237C14.4322 25.4116 14.3737 25.3369 14.325 25.2248C14.2958 25.1968 14.2958 25.1688 14.2665 25.1408C14.2373 25.0567 14.2081 24.982 14.2081 24.8979C14.1496 24.7392 14.1204 24.5991 14.1204 24.4683C14.1204 24.3843 14.1496 24.3096 14.1496 24.2255C14.1983 24.1321 14.1983 24.1041 14.2276 24.0761Z" fill="#BABABA"/>
<path d="M47.3206 39.4295V39.4015C47.3499 39.3455 47.3791 39.2894 47.4084 39.2614V39.2334C47.4084 39.2334 47.4084 39.2334 47.4376 39.2334V39.2054C47.4668 39.1774 47.4961 39.1493 47.5253 39.1493L47.5838 39.0933H47.613C47.6422 39.0653 47.7007 39.0373 47.7494 39.0653C47.7494 39.0373 47.7494 39.0373 47.7787 39.0373H47.8664C47.9833 39.0373 48.1197 39.0653 48.2659 39.1493C48.2951 39.1493 48.3244 39.1493 48.3828 39.1774C48.7824 39.4202 49.1429 39.8498 49.3476 40.3167C49.4645 40.5596 49.5132 40.8024 49.5132 41.0452C49.5132 41.0732 49.5132 41.1292 49.484 41.1573V41.288C49.4548 41.344 49.4548 41.3721 49.4255 41.4001C49.4255 41.4281 49.4255 41.4281 49.4255 41.4561C49.3963 41.4841 49.3671 41.5402 49.3378 41.5682H49.3671L49.3378 41.5962C49.3086 41.6242 49.2794 41.6522 49.2501 41.6522C49.2501 41.6522 49.2501 41.6802 49.2209 41.6802C49.2209 41.7083 49.2209 41.7083 49.2209 41.7083L49.182 41.7268H49.1528L49.1235 41.7548H49.0943C49.0943 41.7548 49.0943 41.7548 49.0651 41.7548C49.0358 41.7828 49.0066 41.7828 48.9481 41.7828L48.9189 41.8108H48.8604C48.6948 41.8108 48.5194 41.7548 48.3537 41.652C48.2173 41.596 48.0711 41.4933 47.9542 41.3812C47.8957 41.3252 47.8372 41.2505 47.7885 41.1944C47.6228 41.0076 47.4767 40.7648 47.389 40.522C47.3305 40.438 47.3013 40.3632 47.3013 40.2512C47.2428 40.1204 47.2136 39.9523 47.2136 39.8216C47.2136 39.7095 47.2428 39.6348 47.2428 39.5788C47.2915 39.5041 47.2914 39.4482 47.3206 39.4295Z" fill="#BABABA"/>
<path d="M59.4043 43.3985L60.8757 42.586L62.8832 41.4746C62.9709 41.4186 63.0781 41.3626 63.1658 41.3159L63.3022 41.2598L73.8656 35.4136V36.4409L59.7746 44.2017L56.3541 43.688L55.4186 43.3331V41.8762L56.9681 42.4739L59.4043 43.3985Z" fill="#BABABA"/>
<path d="M23.6315 16.0163L43.4522 26.9711L43.4525 26.943L23.6315 16.0163Z" fill="#BABABA"/>
<path d="M46.814 26.4948V31.3044L54.0642 34.8813L52.6511 29.5487L46.814 26.4948Z" fill="#333366"/>
<path d="M70.6693 32.9576L71.9069 32.2571C72.2187 32.0984 72.589 32.3132 72.589 32.64V32.8548C72.589 33.1817 72.4234 33.4525 72.1408 33.6113L70.9032 34.2837C70.5913 34.4425 70.221 34.2557 70.221 33.9008V33.686C70.2113 33.3965 70.3867 33.0977 70.6693 32.9576Z" fill="white"/>
<path d="M59.8238 38.9346L61.0614 38.2342C61.344 38.0754 61.7143 38.2622 61.7143 38.6171V38.8319C61.7143 39.1307 61.5487 39.4296 61.2953 39.5884L60.0285 40.2608C59.7459 40.4195 59.3756 40.2047 59.3756 39.8778V39.6724C59.3756 39.3736 59.5412 39.0747 59.8238 38.9346Z" fill="white"/>
<path d="M57.7382 19.1825L54.6881 20.8635V20.4059L57.7382 18.7248V19.1825Z" fill="white"/>
<path d="M55.5652 16.6981L56.6664 17.2958L57.0562 17.5386L54.0937 19.1823L53.6747 18.9395L53.3044 18.7527L52.6028 18.3511L55.5652 16.6981Z" fill="white"/>
<path d="M53.3335 35.9087C53.811 36.3103 54.2105 36.7492 54.4931 37.2068C54.6101 37.3656 54.688 37.5337 54.7757 37.6925C55.0875 38.2902 55.2532 38.8785 55.3409 39.3455C55.3409 39.3735 55.3702 39.4295 55.3409 39.4576C55.3409 39.5136 55.3702 39.5696 55.3409 39.5976C55.3409 39.6257 55.3409 39.6257 55.3409 39.6257C55.3702 39.6537 55.3409 39.6817 55.3409 39.6817L55.3702 39.7097L59.1804 41.1666L59.999 40.737L60.0574 40.681L60.2328 40.5969L61.753 39.7564L61.8115 39.7284L72.8524 33.6393V30.931L72.258 29.4928L58.6542 36.992L56.1985 30.2586L56.0036 29.6609L55.7502 28.9884L45.7033 23.413H45.674L45.6156 23.469V31.7715C46.746 32.3131 50.1079 33.9382 52.3882 35.2643C52.739 35.4791 53.0509 35.6939 53.3335 35.9087ZM70.2116 33.6861C70.2116 33.3872 70.3775 33.0883 70.6601 32.9576L71.8977 32.2571C72.2095 32.0984 72.5798 32.3132 72.5798 32.64V32.8548C72.5798 33.1817 72.4142 33.4525 72.1316 33.6113L70.894 34.2837C70.5821 34.4425 70.2118 34.2557 70.2118 33.9008L70.2116 33.6861ZM59.3753 39.8872L59.3756 39.6724C59.3756 39.3736 59.5409 39.0746 59.8235 38.9439L61.0611 38.2435C61.3437 38.0847 61.714 38.2715 61.714 38.6264V38.8412C61.714 39.14 61.5484 39.4389 61.295 39.5976L60.0282 40.2701C59.7456 40.4288 59.3753 40.214 59.3753 39.8872ZM54.0642 34.8813L46.8044 31.3139V26.4949L52.6511 29.5487L54.0642 34.8813Z" fill="#3751A0"/>
<path d="M48.8118 35.6658C48.8995 35.6938 48.9482 35.7219 49.0359 35.7779C49.1236 35.8339 49.2016 35.862 49.2893 35.918C49.3478 35.946 50.79 36.6465 52.0568 37.487C53.3236 38.3275 53.4991 39.9992 53.4991 41.4374V42.5488C53.4991 42.0351 53.0995 41.3627 52.8169 40.8957C52.281 39.9245 51.4624 39.0559 50.4976 38.4302C49.9909 38.1034 49.4842 37.8045 48.9482 37.5057C48.4707 37.2348 47.9055 36.964 47.3111 36.936C46.8921 36.908 46.4925 37.1228 46.1514 37.3936C46.1514 37.3936 46.093 37.4776 46.0637 37.4776L45.5862 37.1788V34.0408C45.8104 34.1529 46.093 34.2837 46.3756 34.4424C47.1259 34.7973 47.964 35.2362 48.8118 35.6658Z" fill="#3751A0"/>
<path d="M11.4016 17.2865V19.1544L14.3348 20.8074C14.6174 20.7513 14.9585 20.7513 15.3483 20.7513C16.9269 20.7794 18.6225 22.6192 19.4411 23.6184L43.5011 36.9266V35.0588L11.4016 17.2865Z" fill="#3751A0"/>
</svg>
