<svg width="80" height="51" viewBox="0 0 80 51" fill="none" xmlns="http://www.w3.org/2000/svg">
<g clip-path="url(#clip0_2152_3454)">
<path d="M15.5332 9.23745L40.6332 23.3425V23.375H40.6666V25.2925L13.8666 10.1799L15.5332 9.23745ZM40.6332 23.3425L40.6666 23.375V13.4299H40.6332V16.5499L21.5666 5.82495L19.9332 6.73495L19.8999 6.76745L40.6332 18.4349V23.3425ZM44.6999 38.91C44.7332 38.78 44.7332 38.6825 44.7999 38.6175C44.7999 38.585 44.7999 38.5525 44.8332 38.52C44.8666 38.39 44.9332 38.2924 44.9999 38.195L45.0332 38.1624C45.0332 38.13 45.0666 38.0975 45.0999 38.13V38.0975C45.1666 38 45.1999 37.9675 45.2666 37.9675V37.935H45.2999L45.3999 37.8375L45.4999 37.805C45.5666 37.74 45.6999 37.7075 45.7999 37.74C45.8332 37.7075 45.8332 37.7075 45.8666 37.7075L45.9332 37.675H46.0666C46.3332 37.675 46.6666 37.74 46.9999 37.935C47.0999 37.935 47.1666 37.9675 47.2666 38.0325C48.2332 38.585 49.0999 39.625 49.5666 40.7625C49.7999 41.315 49.9332 41.9324 49.9332 42.485C49.9332 42.5825 49.9332 42.68 49.8999 42.7449V42.7775C49.8999 42.9075 49.8999 43.005 49.8666 43.1025C49.8332 43.2 49.8332 43.2975 49.7666 43.3624C49.7666 43.395 49.7332 43.4275 49.7332 43.46C49.6999 43.5575 49.6332 43.655 49.5666 43.72V43.7525H49.5999L49.5666 43.785H49.5332C49.4999 43.8825 49.4332 43.915 49.3666 43.9475C49.3666 43.9475 49.3332 44.0125 49.2999 44.0125C49.2999 44.045 49.2999 44.0775 49.2666 44.0775L49.2332 44.11L49.1666 44.1425C49.1332 44.1425 49.0999 44.1749 49.0666 44.1749C49.0666 44.2075 49.0332 44.2075 48.9999 44.2075C48.9999 44.2075 48.9999 44.2075 48.9666 44.2075H48.9332C48.8666 44.24 48.7999 44.2725 48.6999 44.2725C48.6666 44.2725 48.6332 44.305 48.5999 44.305H48.4666C48.0999 44.305 47.6999 44.2075 47.2666 43.9475C46.9332 43.785 46.6332 43.525 46.3666 43.265C46.2332 43.135 46.0666 42.9725 45.9666 42.81H45.9332C45.5332 42.3549 45.2332 41.77 44.9999 41.185C44.8999 40.99 44.8332 40.795 44.7999 40.5675C44.6999 40.21 44.6332 39.8525 44.6332 39.4949C44.6332 39.2674 44.6666 39.0725 44.6999 38.91ZM45.1999 39.2999C45.1999 39.43 45.2332 39.5275 45.2999 39.625C45.3999 39.9175 45.5666 40.21 45.7666 40.4375C45.8332 40.5025 45.8999 40.6 45.9666 40.665C46.0999 40.795 46.2666 40.925 46.4332 40.99C46.6332 41.12 46.8332 41.185 47.0332 41.185H47.0999L47.1332 41.1525C47.1999 41.1525 47.2332 41.1525 47.2666 41.1199C47.2999 41.1199 47.2999 41.1199 47.2999 41.1199H47.3332L47.3666 41.0875H47.3999L47.4332 41.055C47.4332 41.055 47.4332 41.055 47.4332 41.0225C47.4666 41.0225 47.4666 40.99 47.4666 40.99C47.4999 40.99 47.5332 40.9575 47.5666 40.9249L47.5999 40.8925H47.5666C47.5999 40.86 47.6332 40.795 47.6666 40.7625C47.6666 40.73 47.6666 40.73 47.6666 40.6975C47.6999 40.665 47.6999 40.6325 47.7332 40.5675V40.405C47.7666 40.3725 47.7666 40.3075 47.7666 40.275C47.7666 39.9825 47.6999 39.69 47.5666 39.3975C47.3332 38.845 46.8999 38.325 46.4332 38.0325C46.3666 38 46.3332 38 46.2999 38C46.1332 37.9025 45.9666 37.8699 45.8332 37.8699H45.7332C45.6999 37.8699 45.6999 37.8699 45.6999 37.9025C45.6332 37.8699 45.5666 37.9025 45.5332 37.935H45.4999L45.4332 38C45.3999 38 45.3666 38.0325 45.3332 38.065V38.0975C45.2999 38.0975 45.2999 38.0975 45.2999 38.0975V38.13C45.2666 38.1625 45.2332 38.2275 45.1999 38.2925V38.325C45.1666 38.3575 45.1666 38.4225 45.1332 38.4874C45.1332 38.5525 45.0999 38.65 45.0999 38.78C45.0999 38.9425 45.1332 39.1375 45.1999 39.2999ZM0.966553 23.245L18.6332 33.2225L43.7332 47.3925L50.1332 51H58.9332L79.0332 39.69V37.9025L77.6999 37.155L77.4666 37.025L60.3999 46.645L55.1999 45.8L52.4999 44.76L50.6999 46.06L50.6666 46.0925H50.5999L50.3666 46.255C50.2666 46.32 50.1332 46.385 49.9999 46.4175C49.9332 46.45 49.8332 46.4825 49.7332 46.4825C49.6666 46.515 49.5666 46.515 49.4666 46.515H49.1999C49.0999 46.515 48.9999 46.515 48.8999 46.4825C48.6999 46.4825 48.4999 46.45 48.2999 46.3525C47.9666 46.2875 47.5999 46.125 47.2332 45.93C46.8332 45.7025 46.4332 45.41 46.0666 45.085C45.6999 44.76 45.3666 44.4025 45.0332 44.0125H44.9999C44.9666 43.98 44.9332 43.915 44.9332 43.8825C44.6332 43.525 44.3666 43.1025 44.0999 42.7125C43.8332 42.29 43.6332 41.835 43.4666 41.3475L43.4332 41.315H43.3999C43.1332 40.665 42.9332 39.9825 42.8666 39.2999L26.1332 29.875L25.9332 29.7774L25.7999 29.7125V29.68H25.7666C25.7666 29.8425 25.7332 30.005 25.6999 30.1675C25.6332 30.46 25.5666 30.72 25.4332 30.9475V30.98V31.0125L25.3999 31.045C25.3332 31.175 25.2666 31.3049 25.1666 31.4024V31.4349H25.1332C25.1332 31.4675 25.1332 31.4675 25.1332 31.5L25.0999 31.5325L25.0666 31.5975H25.0332C24.8666 31.76 24.6999 31.9225 24.4999 32.02C24.4666 32.0525 24.4332 32.0525 24.3666 32.085C24.3332 32.1175 24.2999 32.1175 24.2332 32.15C24.2666 32.15 24.2666 32.15 24.2999 32.15L21.8332 33.4825H21.7999V33.515C21.7999 33.515 21.7999 33.515 21.7666 33.515C21.6999 33.5475 21.6332 33.58 21.5666 33.58C21.5332 33.6124 21.4999 33.6125 21.4666 33.6125C21.3666 33.6775 21.2666 33.71 21.1332 33.71C21.0999 33.7425 20.9999 33.7425 20.9332 33.7425C20.2666 33.84 19.4666 33.645 18.6332 33.19C18.2332 32.9625 17.8332 32.67 17.4666 32.345C17.0999 32.02 16.7666 31.6625 16.4332 31.24H16.3999C15.7666 30.46 15.1999 29.5175 14.8666 28.575H14.8332C14.4666 27.6325 14.2332 26.6249 14.2332 25.7149C14.2332 25.4224 14.2666 25.1625 14.3332 24.9025C14.2999 24.87 14.3332 24.805 14.3332 24.7725C14.3666 24.545 14.4332 24.3175 14.5332 24.155C14.5332 24.09 14.5666 24.025 14.5666 23.9925C14.5999 23.9599 14.5999 23.9275 14.6332 23.895C14.6999 23.765 14.7666 23.6675 14.8666 23.57V23.5375L14.6999 23.44L7.63322 19.475L6.99989 19.8325L5.33322 20.775L0.966553 23.245ZM20.8666 31.1099C20.8666 31.1099 20.8666 31.1099 20.8332 31.1099C20.8332 31.1099 20.8332 31.1425 20.7999 31.1425C20.7666 31.2074 20.7332 31.2075 20.6666 31.2725L20.5999 31.305L20.4999 31.4024C20.4332 31.4349 20.3666 31.435 20.2999 31.4675C20.1999 31.5 20.0999 31.565 19.9999 31.565H19.9666C19.9332 31.5975 19.8666 31.5975 19.8332 31.5975C19.4999 31.5975 19.1666 31.4675 18.7666 31.2725C18.7332 31.2725 18.6666 31.24 18.6332 31.2075C18.3999 31.0775 18.1666 30.915 17.9666 30.7525C17.9332 30.7525 17.8999 30.6875 17.8666 30.6224C17.8332 30.6224 17.8332 30.5899 17.8332 30.5899C17.7999 30.5899 17.7666 30.5575 17.7332 30.4925H17.6999C17.5332 30.395 17.3999 30.1999 17.2999 30.0374H17.2666C17.2332 30.0049 17.1999 30.005 17.1999 29.94C17.0999 29.8425 17.0332 29.7775 16.9999 29.6475C16.9332 29.5825 16.8999 29.485 16.8332 29.3875C16.6999 29.1925 16.5666 28.9649 16.4666 28.6724C16.3999 28.6074 16.3666 28.5424 16.3332 28.445C16.2332 28.25 16.1666 28.0225 16.1332 27.795C16.0332 27.4375 15.9666 27.1125 15.9666 26.755C15.9666 26.5275 15.9999 26.3325 16.0332 26.1375C16.0666 26.0075 16.0999 25.9425 16.1332 25.8125C16.1666 25.715 16.2332 25.5525 16.3332 25.4874C16.3332 25.4225 16.3332 25.4224 16.3332 25.4224H16.3666C16.3999 25.3899 16.4666 25.325 16.4999 25.325L16.5332 25.2925C16.5332 25.2275 16.5666 25.2274 16.5666 25.2274C16.6332 25.1625 16.6999 25.13 16.7666 25.0975L16.8999 25H16.9332C16.9666 24.9675 16.9666 24.9675 16.9999 24.9675C17.0332 24.9675 17.0332 24.9675 17.0666 24.9675L17.1332 24.9349H17.1999V24.9025H17.2999C17.2999 24.9025 17.2999 24.9025 17.3332 24.9025C17.3332 24.9025 17.3332 24.9025 17.3666 24.9025C17.3666 24.9025 17.3666 24.9025 17.3999 24.9025L17.4332 24.87H17.4999C17.5332 24.87 17.5999 24.87 17.6332 24.9025C17.7332 24.935 17.8332 24.9349 17.8999 24.9349C17.9666 24.9349 18.0666 24.9675 18.1332 25C18.1666 25 18.1999 25.0325 18.2666 25.065C18.3999 25.13 18.5332 25.195 18.6666 25.2274H18.6999V25.26C18.7332 25.2275 18.7332 25.26 18.7666 25.2925C18.7999 25.2925 18.8332 25.3575 18.8332 25.3575C18.8666 25.3575 18.8666 25.39 18.8666 25.39C18.9332 25.39 18.9999 25.4225 19.0332 25.4874C19.0999 25.52 19.1332 25.5525 19.1999 25.6175H19.2332C19.3666 25.715 19.4666 25.78 19.5666 25.91C19.5999 25.91 19.5999 25.9424 19.6332 25.9749L19.7332 26.0725V26.105C19.8332 26.2025 19.8999 26.3 19.9999 26.3975C20.1999 26.625 20.3666 26.885 20.5332 27.145C20.6666 27.405 20.7999 27.6975 20.9332 27.99C20.9666 28.055 20.9999 28.12 20.9999 28.2175C21.1999 28.705 21.2999 29.1925 21.2999 29.68V29.7125C21.2999 29.8425 21.2999 29.9725 21.2332 30.1025C21.2666 30.2 21.2332 30.2975 21.1999 30.395C21.1999 30.4275 21.1999 30.46 21.1666 30.4925V30.525C21.1666 30.5575 21.1666 30.59 21.1332 30.6224C21.0999 30.6875 21.0666 30.7849 21.0332 30.8499V30.8825C21.0332 30.9149 21.0332 30.915 20.9999 30.9475C20.9999 30.9475 20.9666 30.9475 20.9666 30.98C20.9666 30.98 20.9666 30.98 20.9332 30.98V31.0125H20.8999L20.8666 31.1099C20.8999 31.0774 20.8666 31.0774 20.8666 31.1099ZM18.8666 26.7225C18.8666 26.6575 18.8666 26.625 18.8332 26.5925C18.7666 26.4625 18.7332 26.3325 18.6666 26.2025C18.5666 26.0725 18.4999 25.9425 18.3999 25.845C18.3666 25.8125 18.3332 25.7474 18.2666 25.7149V25.6824C18.2332 25.6499 18.2332 25.65 18.1999 25.6175C18.1666 25.5525 18.0999 25.52 18.0332 25.4874C17.9999 25.455 17.9666 25.4224 17.9332 25.4224C17.8999 25.3574 17.8666 25.3575 17.8332 25.325C17.7999 25.325 17.7999 25.2925 17.7999 25.2925C17.6666 25.2275 17.5332 25.1624 17.4332 25.1624C17.3666 25.1299 17.2666 25.13 17.2332 25.13H17.1999C17.1666 25.13 17.1666 25.13 17.1666 25.13C17.1332 25.13 17.1332 25.13 17.1332 25.13H17.0666V25.1624H17.0332C16.9999 25.1624 16.9999 25.1624 16.9999 25.1624C16.9666 25.1624 16.9666 25.1624 16.9666 25.195L16.8999 25.2274C16.8666 25.2274 16.8332 25.26 16.7999 25.2925C16.7999 25.2925 16.7666 25.2925 16.7666 25.325C16.7332 25.3575 16.6999 25.3575 16.6999 25.39H16.6666C16.6332 25.455 16.5999 25.52 16.5999 25.585C16.5666 25.6175 16.5666 25.65 16.5332 25.7149C16.5332 25.8124 16.4999 25.91 16.4999 26.0075C16.4999 26.17 16.5332 26.3324 16.5999 26.5274C16.5999 26.6249 16.6332 26.7225 16.6666 26.82C16.6999 26.8524 16.6999 26.885 16.7332 26.9175C16.7999 27.0475 16.8666 27.145 16.9332 27.275C16.9666 27.3075 16.9666 27.3724 16.9999 27.3724C16.9999 27.4375 17.0332 27.47 17.0999 27.5025C17.0999 27.535 17.0999 27.5675 17.1332 27.5675C17.1999 27.665 17.2666 27.73 17.3332 27.795C17.3666 27.8275 17.3666 27.8599 17.3999 27.8599C17.4332 27.8924 17.4332 27.8925 17.4666 27.8925C17.5666 27.99 17.6666 28.0549 17.7666 28.1199C17.7999 28.1524 17.8332 28.1524 17.8332 28.1524C18.0332 28.2499 18.1666 28.2825 18.3332 28.2825C18.3666 28.2825 18.3999 28.2825 18.3999 28.2825H18.4332C18.4666 28.2825 18.4999 28.25 18.5666 28.25C18.5999 28.25 18.6332 28.2175 18.6666 28.2175L18.7332 28.1524C18.7666 28.1199 18.7666 28.12 18.7999 28.0875C18.7999 28.055 18.8332 28.055 18.8332 28.055V28.0225H18.8666V27.99C18.8999 27.99 18.8999 27.99 18.8999 27.9575C18.8999 27.925 18.9332 27.8924 18.9332 27.8599C18.9666 27.8274 18.9666 27.8275 18.9666 27.795C18.9666 27.7625 18.9666 27.7625 18.9666 27.73C18.9999 27.665 19.0332 27.535 19.0332 27.405C19.0332 27.1775 18.9666 26.95 18.8666 26.7225Z" fill="#898989"/>
<path d="M38.7 29.095L40.6333 30.2V30.1675L38.7 29.095ZM38.7 29.095L40.6333 30.2V30.1675L38.7 29.095ZM38.7 29.095L40.6333 30.2V30.1675L38.7 29.095ZM62.1 10.895L62.3333 10.765V10.7325L62.1 10.895ZM53.9 15.4775V15.51L57.5 13.495V13.4625L53.9 15.4775ZM58.3 13.0075V13.56H58.3333V13.0075H58.3ZM38.7 29.095L40.6333 30.2V30.1675L38.7 29.095ZM62.1 10.895L62.3333 10.765V10.7325L62.1 10.895ZM58.3 13.0075V13.56H58.3333V13.0075H58.3ZM38.7 29.095L40.6333 30.2V30.1675L38.7 29.095ZM62.1 10.895L62.3333 10.765V10.7325L62.1 10.895ZM58.3 13.0075V13.56H58.3333V13.0075H58.3ZM38.7 29.095L40.6333 30.2V30.1675L38.7 29.095ZM62.1 10.895L62.3333 10.765V10.7325L62.1 10.895ZM58.3 13.0075V13.56H58.3333V13.0075H58.3ZM1 10.8625V15.705L7.63333 19.475L14.7 23.44L14.8667 23.5375H14.9V23.57C14.8 23.6675 14.7333 23.765 14.6667 23.895C14.6333 23.9275 14.6333 23.96 14.6 23.9925C14.6 24.025 14.5667 24.09 14.5667 24.155C14.4667 24.3175 14.4 24.545 14.3667 24.7725C14.3667 24.805 14.3333 24.8375 14.3333 24.87V24.9025C14.3333 25 14.3 25.065 14.3 25.1625V25.26C14.2667 25.39 14.2667 25.5525 14.2667 25.715C14.2667 26.625 14.5 27.6325 14.8667 28.575H14.9C15.2333 29.5175 15.8 30.46 16.4333 31.24H16.4667C16.7667 31.63 17.1 31.9875 17.4667 32.345C17.8333 32.67 18.2333 32.9625 18.6333 33.19C19.4667 33.645 20.2667 33.84 20.9333 33.7425C21 33.7425 21.1 33.7425 21.1333 33.71C21.2667 33.71 21.3667 33.6775 21.4667 33.6125C21.5 33.6125 21.5333 33.6125 21.5667 33.58C21.6333 33.58 21.7 33.5475 21.7667 33.515C21.8 33.515 21.8 33.515 21.8 33.515C21.8 33.4825 21.8333 33.4825 21.8333 33.4825L24.3 32.15C24.3333 32.1175 24.3667 32.085 24.3667 32.085C24.4333 32.0525 24.4667 32.0525 24.5 32.02C24.7 31.9225 24.8667 31.76 25.0333 31.5975H25.0667C25.1 31.565 25.1 31.565 25.1333 31.5325V31.5C25.1667 31.4675 25.1667 31.4675 25.1667 31.435C25.1667 31.435 25.2 31.435 25.2 31.4025C25.3 31.305 25.3667 31.175 25.4333 31.045V30.98L25.4667 30.9475C25.6 30.72 25.6667 30.46 25.7333 30.1675C25.7667 30.005 25.8 29.875 25.8 29.7125L25.9333 29.7775L26.1333 29.875L42.8667 39.3H42.9C42.9667 39.9825 43.1667 40.665 43.4333 41.315H43.4667V41.3475C43.6333 41.835 43.8667 42.29 44.1 42.7125C44.3667 43.1025 44.6333 43.525 44.9333 43.8825C44.9667 43.915 45 43.98 45.0333 44.0125H45.0667C45.3667 44.4025 45.7 44.76 46.0667 45.085C46.4333 45.41 46.8333 45.7025 47.2333 45.93C47.6 46.125 47.9667 46.2875 48.3 46.3525C48.5 46.45 48.7 46.4825 48.9 46.4825C49 46.515 49.1 46.515 49.2 46.515H49.4667C49.5667 46.515 49.6667 46.515 49.7333 46.4825C49.8333 46.4825 49.9333 46.45 50 46.4175C50.1333 46.385 50.2667 46.32 50.3667 46.255L50.6 46.0925H50.6667L50.7 46.06L52.5 44.76L55.2 45.8L60.4 46.645L77.4667 37.025L79.0333 36.1475V32.3775L77.7667 31.305L77.7333 27.4375L72.7 15.055L64.0333 10.18V8.8475L61.4333 7.385L60.6667 6.93L59.3667 6.1825V5.6625L56.9333 4.265L56.9 4.2975L44.4 11.3175L40.4 9.075L25.4 0.625H19.1667L14 3.55L6.6 7.71L1 10.8625ZM50.5333 13.495L51.8333 14.2425L52.3333 14.535L48.1667 16.875L47.6667 16.5825L47.4667 16.485L46.4333 15.8675L50.5333 13.495ZM52.0667 12.65L54.9333 11.0575L56.2333 11.7725L56.7 12.0325L56.7333 12.065L53.2 14.0475L52.7 13.755L52.2667 13.495L51.4 13.04L51.4333 13.0075L52.0667 12.65ZM57.5 13.495V14.0475L53.9 16.0625V15.51L57.5 13.495ZM61.5333 9.3025L61.0333 9.595L59.5 10.44L59.3667 10.5375L57.5333 11.5775L57.0333 11.285L55.8 10.57L59.7667 8.295L61.5333 9.3025ZM62.3667 11.285L61.6667 11.675L58.5333 13.43L58.3333 13.56V13.0075L61.0333 11.48L61.2 11.3825H61.2333L62.1 10.895L62.3333 10.765V10.7325H62.3667V11.285ZM54.7667 41.2825L56.6 41.9975L59.4667 43.1025L61.2 42.1275L63.5667 40.795C63.6667 40.73 63.8 40.665 63.9 40.6L64.0667 40.535L76.5333 33.515V34.75L59.9 44.0775L55.8667 43.46L54.7667 43.0375V41.2825ZM44.6333 39.495C44.6333 39.2675 44.6667 39.0725 44.7 38.91C44.7333 38.78 44.7333 38.6825 44.8 38.6175C44.8 38.585 44.8 38.5525 44.8333 38.52C44.8667 38.39 44.9333 38.2925 45 38.195L45.0333 38.1625C45.0333 38.13 45.0667 38.0975 45.1 38.13V38.0975C45.1667 38 45.2 37.9675 45.2667 37.9675V37.935H45.3L45.4 37.8375L45.5 37.805C45.5667 37.74 45.7 37.7075 45.8 37.74C45.8333 37.7075 45.8333 37.7075 45.8667 37.7075L45.9333 37.675H46.0667C46.3333 37.675 46.6667 37.74 47 37.935C47.1 37.935 47.1667 37.9675 47.2667 38.0325C48.2333 38.585 49.1 39.625 49.5667 40.7625C49.8 41.315 49.9333 41.9325 49.9333 42.485C49.9333 42.5825 49.9333 42.68 49.9 42.745V42.7775C49.9 42.9075 49.9 43.005 49.8667 43.1025C49.8333 43.2 49.8333 43.2975 49.7667 43.3625C49.7667 43.395 49.7333 43.4275 49.7333 43.46C49.7 43.5575 49.6333 43.655 49.5667 43.72V43.7525H49.6L49.5667 43.785H49.5333C49.5 43.8825 49.4333 43.915 49.3667 43.9475C49.3667 43.9475 49.3333 44.0125 49.3 44.0125C49.3 44.045 49.3 44.0775 49.2667 44.0775L49.2333 44.11L49.1667 44.1425C49.1333 44.1425 49.1 44.175 49.0667 44.175C49.0667 44.2075 49.0333 44.2075 49 44.2075C49 44.2075 49 44.2075 48.9667 44.2075H48.9333C48.8667 44.24 48.8 44.2725 48.7 44.2725C48.6667 44.2725 48.6333 44.305 48.6 44.305H48.4667C48.1 44.305 47.7 44.2075 47.2667 43.9475C46.9333 43.785 46.6333 43.525 46.3667 43.265C46.2333 43.135 46.0667 42.9725 45.9667 42.81H45.9333C45.5333 42.355 45.2333 41.77 45 41.185C44.9 40.99 44.8333 40.795 44.8 40.5675C44.7 40.21 44.6333 39.8525 44.6333 39.495ZM43.1667 31.8575C43.4333 31.9875 43.7667 32.15 44.1 32.345C44.9667 32.7675 45.9667 33.2875 46.9667 33.8075C47.0667 33.84 47.1333 33.8725 47.2333 33.9375C47.3333 34.0025 47.4333 34.035 47.5333 34.1C47.6 34.1325 49.3 34.9775 50.8 35.985C52.3 36.9925 52.5 39.0075 52.5 40.73V42.0625C52.5 41.445 52.0333 40.6325 51.7 40.08C51.0667 38.91 50.1 37.87 48.9667 37.1225C48.3667 36.7325 47.7667 36.375 47.1333 36.0175C46.5667 35.6925 45.9 35.3675 45.2 35.335C44.7 35.3025 44.2333 35.5625 43.8333 35.8875C43.8333 35.8875 43.7667 35.985 43.7333 35.985L43.1667 35.6275V31.8575ZM43.1667 19.15L43.2333 19.085H43.2667L43.9 18.7275L44.5 19.085L48.2 21.1975L49.5 20.4825L50 20.19L62.3667 13.2025L63.3667 12.6175H63.4L70.7 16.745L71.1333 17.7525V17.785L74.6333 26.3975L75.3333 28.12V31.37L62.3 38.6825L62.2333 38.715L60.4333 39.7225L60.3667 39.755L60.2333 39.82L60.1667 39.885L59.2 40.405L54.7 38.65L54.6667 38.6175C54.6667 38.6175 54.7 38.585 54.6667 38.5525C54.6667 38.5525 54.6667 38.5525 54.6667 38.52C54.7 38.4875 54.6667 38.4225 54.6667 38.3575C54.7 38.325 54.6667 38.26 54.6667 38.2275C54.5667 37.675 54.3667 36.96 54 36.245C53.9 36.05 53.8 35.855 53.6667 35.66C53.3333 35.1075 52.8667 34.5875 52.3 34.1C51.9667 33.84 51.6 33.58 51.1667 33.32C48.4667 31.7275 44.5 29.7775 43.1667 29.1275C43.1667 29.1275 43.1667 19.15 43.1667 19.15ZM16.1333 27.73C16.0667 27.405 16 27.0475 16 26.7225C16 26.495 16.0333 26.3 16.0667 26.1375C16.1 26.0725 16.1 26.0075 16.1 25.975C16.1 25.9425 16.1 25.9425 16.1333 25.91C16.1333 25.8775 16.1667 25.845 16.1667 25.8125C16.2 25.715 16.2333 25.65 16.2667 25.585C16.3 25.5525 16.3 25.52 16.3333 25.4875L16.3667 25.455C16.3667 25.4225 16.3667 25.4225 16.3667 25.4225H16.4C16.4333 25.39 16.4333 25.39 16.4333 25.39L16.5333 25.2925C16.5333 25.26 16.5333 25.2275 16.5667 25.26C16.5667 25.2275 16.6 25.2275 16.6 25.2275C16.6667 25.1625 16.7 25.13 16.7667 25.0975L16.9 25H16.9333C16.9667 24.9675 16.9667 24.9675 17 24.9675C17.0333 24.9675 17.0333 24.9675 17.0667 24.9675L17.1333 24.935H17.2V24.9025H17.3C17.3 24.9025 17.3 24.9025 17.3333 24.9025C17.3333 24.9025 17.3333 24.9025 17.3667 24.9025C17.3667 24.9025 17.3667 24.9025 17.4 24.9025H17.4333V24.87H17.5C17.5333 24.87 17.6 24.87 17.6333 24.9025C17.7333 24.935 17.8333 24.935 17.9 24.935C17.9667 24.935 18.0667 24.9675 18.1333 25C18.1667 25 18.2333 25.0325 18.2667 25.065C18.3 25.0325 18.3333 25.065 18.3667 25.0975C18.4667 25.13 18.5667 25.1625 18.6667 25.2275H18.7V25.26C18.7333 25.2275 18.7333 25.26 18.7667 25.2925C18.7667 25.2925 18.8 25.2925 18.8 25.325C18.8333 25.3575 18.8333 25.3575 18.8333 25.3575C18.8667 25.3575 18.8667 25.39 18.8667 25.39C18.9 25.39 18.9333 25.4225 18.9333 25.4225C18.9667 25.4225 19 25.455 19.0333 25.4875C19.1 25.52 19.1333 25.5525 19.1667 25.585L19.2 25.6175H19.2333C19.3667 25.715 19.4667 25.78 19.5667 25.91V25.9425C19.6 25.91 19.6 25.9425 19.6333 25.975L19.7333 26.0725V26.105C19.8333 26.2025 19.9 26.3 20 26.3975C20.2 26.625 20.3667 26.885 20.5333 27.145C20.6667 27.405 20.8 27.6975 20.9333 27.99C20.9667 28.055 21 28.12 21 28.2175C21.2 28.705 21.3 29.1925 21.3 29.68V29.7125C21.3 29.7775 21.3 29.8425 21.2667 29.9075C21.3 29.9725 21.2667 30.0375 21.2333 30.1025C21.2667 30.2 21.2333 30.2975 21.2 30.395C21.2 30.4275 21.2 30.46 21.1667 30.4925V30.525C21.1667 30.5575 21.1667 30.59 21.1333 30.6225C21.1 30.6875 21.0667 30.785 21.0333 30.85V30.8825C21.0333 30.915 21.0333 30.915 21 30.9475C21 30.9475 20.9667 30.9475 20.9667 30.98C20.9667 30.98 20.9667 30.98 20.9333 30.98V31.0125H20.9V31.0775C20.9 31.0775 20.8667 31.0775 20.8667 31.11C20.8667 31.11 20.8667 31.11 20.8333 31.11C20.8333 31.11 20.8333 31.1425 20.8 31.1425C20.7667 31.2075 20.7333 31.2075 20.6667 31.2725L20.6 31.305L20.5 31.4025C20.4333 31.435 20.3667 31.435 20.3 31.4675H20.2667C20.2 31.5 20.1 31.5325 20.0333 31.5325H20C19.9667 31.565 19.9 31.565 19.8667 31.565C19.7 31.565 19.5333 31.5325 19.3667 31.5C19.1667 31.4675 18.9667 31.37 18.7667 31.2725C18.7333 31.2725 18.6667 31.24 18.6333 31.2075C18.5 31.1425 18.4 31.045 18.3 30.98C18.2 30.8825 18.1 30.8175 18 30.72C17.9667 30.72 17.9333 30.6875 17.9 30.6225H17.8667C17.8333 30.6225 17.8333 30.59 17.8333 30.59C17.8 30.5575 17.7667 30.525 17.7667 30.4925H17.7333C17.5667 30.3625 17.4333 30.2 17.3333 30.0375H17.3C17.2667 30.005 17.2333 29.9725 17.2333 29.9075C17.1333 29.8425 17.0667 29.745 17.0333 29.6475C16.9667 29.5825 16.9333 29.485 16.8667 29.3875C16.7333 29.16 16.6 28.9325 16.5 28.6725C16.4333 28.6075 16.4 28.51 16.3667 28.445C16.3333 28.38 16.3 28.315 16.2667 28.2175C16.2333 28.12 16.2 27.99 16.1667 27.86C16.1667 27.8275 16.1667 27.8275 16.1667 27.795C16.1667 27.7625 16.1667 27.7625 16.1333 27.73ZM3.8 14.535L7.86667 14.6975H8.1L8.7 15.0225H8.73333V15.055L10.3333 15.965L11.3 16.485H11.3333L12.1333 16.94H12.1667L13.0333 17.46L17.8667 20.19L18.2 20.385L19.7 21.23H19.7333L20.2333 21.49L20.3 21.555L22.9333 23.0175L23.0333 23.0825L23.0667 23.115H23.1V23.1475H23.1333L23.8333 23.5375L36.3333 30.59L40.6333 33.0275H40.6667V35.205H40.6333V35.1725L27 27.5675L25.3 26.5925H25.2667L24.3 26.04C23.9667 25.52 23.6333 25 23.2667 24.545H23.2C22.9667 24.285 22.7333 23.9925 22.5 23.7325H22.4667V23.7C22.2667 23.505 22.1 23.31 21.9 23.1475C21.5333 22.79 21.1333 22.4975 20.7667 22.205C20.5333 22.075 20.3333 21.945 20.1 21.815C19.2667 21.3925 18.5333 21.1 17.7667 21.0675H17.7333C17.4667 21.0025 17.1667 21.0025 16.9 21.0675C16.8 21.0675 16.7 21.0675 16.6333 21.1C16.4333 21.1 16.3 21.165 16.1667 21.23C16.1 21.23 16.0667 21.23 16 21.295C15.9667 21.295 15.9333 21.3275 15.9 21.3275L11.0667 18.5975V18.565H11.0333L6.96667 16.29L5.3 15.3475H5.26667L4.06667 14.6975L3.8 14.535ZM3.5 12.6175V12.26L7.83333 9.79L13.4333 6.67L16.7 4.8175L18.1 4.0375L19.8 3.0625H24.7333V3.095H24.8L25.5667 3.55L41.8667 12.7475L40.6667 13.43V30.2H40.6333V30.1675L38.7 29.095L37.6 28.4775L21 19.15L15.6667 16.1275L12.5333 14.3725L9.83333 12.845L9.5 12.65H9.46667V12.6175H3.5ZM62.1 10.895L62.3333 10.765V10.7325L62.1 10.895ZM38.7 29.095L40.6333 30.2V30.1675L38.7 29.095ZM58.3 13.0075V13.56H58.3333V13.0075H58.3ZM62.1 10.895L62.3333 10.765V10.7325L62.1 10.895ZM38.7 29.095L40.6333 30.2V30.1675L38.7 29.095ZM58.3 13.0075V13.56H58.3333V13.0075H58.3ZM53.9 15.4775V15.51L57.5 13.495V13.4625L53.9 15.4775ZM62.1 10.895L62.3333 10.765V10.7325L62.1 10.895ZM38.7 29.095L40.6333 30.2V30.1675L38.7 29.095ZM58.3 13.0075V13.56H58.3333V13.0075H58.3ZM53.9 15.4775V15.51L57.5 13.495V13.4625L53.9 15.4775ZM62.1 10.895L62.3333 10.765V10.7325L62.1 10.895ZM38.7 29.095L40.6333 30.2V30.1675L38.7 29.095ZM38.7 29.095L40.6333 30.2V30.1675L38.7 29.095Z" fill="black"/>
<path d="M61.0332 11.4799L61.1998 11.3824L62.3332 10.7324V11.2849L61.6665 11.6749L58.2998 13.5599V13.0074L61.0332 11.4799ZM45.6665 17.3299V17.9149L47.3332 18.8249V18.2724L45.9998 17.5249L45.7998 17.3949L45.6665 17.3299ZM48.9998 18.2724V18.8249L53.0332 16.5499V15.9974L48.9998 18.2724ZM46.3998 15.8674L47.4665 16.4849L47.6665 16.5824L48.1665 16.8749L52.3332 14.5349L51.8332 14.2424L50.5332 13.4949H50.4998L46.3998 15.8674ZM55.7665 10.5699L57.0332 11.2849L57.5332 11.5774L59.3665 10.5374L59.4998 10.4399L61.0332 9.59492L61.5332 9.30242L59.7665 8.29492L55.7665 10.5699Z" fill="#F7941D"/>
<path d="M55.4331 26.5924L55.6664 27.3074L58.5664 35.3999L74.6331 26.3974L71.1331 17.7849H71.0998L55.4331 26.5924Z" fill="#E6E7E8"/>
<path d="M43.2666 19.0849L55.1333 25.7799L55.4333 26.5924L71.0999 17.7849H71.1333V17.7524L70.6999 16.7449L63.3999 12.6174H63.3666L62.3666 13.2024L49.9999 20.1899L49.4999 20.4824L48.1999 21.1974L44.4999 19.0849L43.8999 18.7274L43.2666 19.0849Z" fill="#6D6E71"/>
<path d="M16.4999 26.0075C16.4999 26.17 16.5332 26.3325 16.5999 26.5275C16.5999 26.625 16.6332 26.7225 16.6666 26.82C16.6999 26.8525 16.6999 26.885 16.7332 26.9175C16.7999 27.0475 16.8666 27.145 16.9332 27.275C16.9666 27.3075 16.9666 27.3725 16.9999 27.3725C16.9999 27.4375 17.0332 27.47 17.0999 27.5025C17.0999 27.535 17.0999 27.5675 17.1332 27.5675C17.1999 27.665 17.2666 27.73 17.3332 27.795C17.3666 27.8275 17.3666 27.86 17.3999 27.86C17.4332 27.8925 17.4332 27.8925 17.4666 27.8925C17.5666 27.99 17.6666 28.055 17.7666 28.12C17.7999 28.1525 17.8332 28.1525 17.8332 28.1525C18.0332 28.25 18.1666 28.2825 18.3332 28.2825C18.3666 28.2825 18.3999 28.2825 18.3999 28.2825H18.4332C18.4666 28.2825 18.4999 28.25 18.5666 28.25C18.5999 28.25 18.6332 28.2175 18.6666 28.2175L18.7332 28.1525C18.7666 28.12 18.7666 28.12 18.7999 28.0875C18.7999 28.055 18.8332 28.055 18.8332 28.055V28.0225H18.8666V27.99C18.8999 27.99 18.8999 27.99 18.8999 27.9575C18.8999 27.925 18.9332 27.8925 18.9332 27.86C18.9666 27.8275 18.9666 27.8275 18.9666 27.795C18.9666 27.7625 18.9666 27.7625 18.9666 27.73C18.9999 27.665 19.0332 27.535 19.0332 27.405C19.0332 27.1775 18.9666 26.95 18.8666 26.7225C18.8666 26.6575 18.8666 26.625 18.8332 26.5925C18.7666 26.4625 18.7332 26.3325 18.6666 26.2025C18.5666 26.0725 18.4999 25.9425 18.3999 25.845C18.3666 25.8125 18.3332 25.7475 18.2666 25.715V25.6825C18.2332 25.65 18.2332 25.65 18.1999 25.6175C18.1666 25.5525 18.0999 25.52 18.0332 25.4875C17.9999 25.455 17.9666 25.4225 17.9332 25.4225C17.8999 25.3575 17.8666 25.3575 17.8332 25.325C17.7999 25.325 17.7999 25.2925 17.7999 25.2925C17.6666 25.2275 17.5332 25.1625 17.4332 25.1625C17.3666 25.13 17.2666 25.13 17.2332 25.13H17.1999C17.1666 25.13 17.1666 25.13 17.1666 25.13C17.1332 25.13 17.1332 25.13 17.1332 25.13H17.0666V25.1625H17.0332C16.9999 25.1625 16.9999 25.1625 16.9999 25.1625C16.9666 25.1625 16.9666 25.1625 16.9666 25.195L16.8999 25.2275C16.8666 25.2275 16.8332 25.26 16.7999 25.2925C16.7999 25.2925 16.7666 25.2925 16.7666 25.325C16.7332 25.3575 16.6999 25.3575 16.6999 25.39H16.6666C16.6332 25.455 16.5999 25.52 16.5999 25.585C16.5666 25.6175 16.5666 25.65 16.5332 25.715C16.5332 25.8125 16.4999 25.91 16.4999 26.0075ZM40.6332 16.55V13.43H40.6666L41.8666 12.7475L25.5666 3.55L21.5999 5.7925L21.5666 5.825L40.6332 16.55ZM15.5332 9.205V9.2375L40.6332 23.375V18.435L19.8999 6.7675L15.5332 9.205ZM9.49989 12.65L9.83322 12.845L12.5332 14.3725L15.6666 16.1275L20.9999 19.15L37.5999 28.4775L38.6999 29.095L40.6332 30.1675V25.2925L13.8666 10.18H13.8332L9.49989 12.65ZM9.49989 12.65L9.83322 12.845L12.5332 14.3725L15.6666 16.1275L20.9999 19.15L37.5999 28.4775L38.6999 29.095L40.6332 30.1675V25.2925L13.8666 10.18H13.8332L9.49989 12.65ZM19.8999 6.7675L15.5332 9.205V9.2375L40.6332 23.3425V18.435L19.8999 6.7675ZM3.46655 12.26V12.6175H7.79989L7.83322 12.585H7.86655L9.06655 11.9025L14.6666 8.7825L14.6999 8.75L19.3332 6.15L19.3666 6.1175L20.7666 5.305L24.7332 3.095L24.6999 3.0625H19.7999L18.0999 4.0375L16.6999 4.8175L13.4332 6.67L7.83322 9.79L3.49989 12.26H3.46655ZM9.49989 12.65L9.83322 12.845L12.5332 14.3725L15.6666 16.1275L20.9999 19.15L37.5999 28.4775L38.6999 29.095L40.6332 30.1675V25.2925L13.8666 10.18H13.8332L9.49989 12.65ZM9.49989 12.65L9.83322 12.845L12.5332 14.3725L15.6666 16.1275L20.9999 19.15L37.5999 28.4775L38.6999 29.095L40.6332 30.1675V25.2925L13.8666 10.18H13.8332L9.49989 12.65ZM9.49989 12.65L9.83322 12.845L12.5332 14.3725L15.6666 16.1275L20.9999 19.15L37.5999 28.4775L38.6999 29.095L40.6332 30.2V25.2925L13.8666 10.18H13.8332L9.49989 12.65ZM15.5332 9.205V9.2375L40.6332 23.375V18.435L19.8999 6.7675L15.5332 9.205ZM54.7666 41.2825V43.0375L55.8666 43.46L59.8999 44.0775L76.5332 34.75V33.515L64.0666 40.535L63.8999 40.6C63.7999 40.665 63.6665 40.73 63.5666 40.795L61.1999 42.1275L59.4666 43.1025L56.5999 41.9975L54.7666 41.2825ZM45.1332 38.4875C45.1666 38.4225 45.1666 38.3575 45.1999 38.325V38.2925C45.2332 38.2275 45.2666 38.1625 45.2999 38.13V38.0975C45.2999 38.0975 45.2999 38.0975 45.3332 38.0975V38.065C45.3666 38.0325 45.3999 38 45.4332 38L45.4999 37.935H45.5332C45.5666 37.9025 45.6332 37.87 45.6999 37.9025C45.6999 37.87 45.6999 37.87 45.7332 37.87H45.8332C45.9666 37.87 46.1332 37.9025 46.2999 38C46.3332 38 46.3666 38 46.4332 38.0325C46.8999 38.325 47.3332 38.845 47.5666 39.3975C47.6999 39.69 47.7666 39.9825 47.7666 40.275C47.7666 40.3075 47.7666 40.3725 47.7332 40.405V40.5675C47.6999 40.6325 47.6999 40.665 47.6666 40.6975C47.6666 40.73 47.6666 40.73 47.6666 40.7625C47.6332 40.795 47.5999 40.86 47.5666 40.8925H47.5999L47.5666 40.925C47.5332 40.9575 47.4999 40.99 47.4666 40.99C47.4666 40.99 47.4666 41.0225 47.4332 41.0225C47.4332 41.055 47.4332 41.055 47.4332 41.055L47.3999 41.0875H47.3666L47.3332 41.12H47.2999C47.2999 41.12 47.2999 41.12 47.2666 41.12C47.2332 41.1525 47.1999 41.1525 47.1332 41.1525L47.0999 41.185H47.0332C46.8332 41.185 46.6332 41.12 46.4332 40.99C46.2666 40.925 46.0999 40.795 45.9666 40.665C45.8999 40.6 45.8332 40.5025 45.7666 40.4375C45.5666 40.21 45.3999 39.9175 45.2999 39.625C45.2332 39.5275 45.1999 39.43 45.1999 39.3C45.1332 39.1375 45.0999 38.9425 45.0999 38.78C45.0999 38.65 45.1332 38.5525 45.1332 38.4875Z" fill="#BBBBBB"/>
<path d="M44.5999 22.79V28.575L53.1665 32.865L51.4999 26.4625L44.5999 22.79Z" fill="black"/>
<path d="M51.4331 13.0075L52.2665 13.495L52.6998 13.7225L53.1998 14.015L56.6998 12.0325L56.2331 11.74L54.9331 11.025L52.0665 12.65L51.4331 13.0075ZM53.8998 15.4775V16.03L57.4998 14.015V13.4625L53.8998 15.4775ZM7.86646 12.585H9.46646V12.6175H9.49979L13.8331 10.18L13.8665 10.1475L15.4998 9.2375L15.5331 9.205L19.8998 6.7675L19.9331 6.735L21.5665 5.825L21.5998 5.7925L25.5665 3.55V3.5175L24.7998 3.0625H24.7331V3.095L20.7665 5.305L19.3665 6.1175L19.3331 6.15L14.6998 8.75L14.6665 8.7825L9.06646 11.9025L7.86646 12.585ZM72.2331 31.435V31.695C72.2331 32.1175 72.6665 32.345 73.0331 32.15L74.4998 31.3375C74.8331 31.1425 75.0331 30.8175 75.0331 30.4275V30.1675C75.0331 29.7775 74.5998 29.5175 74.2331 29.7125L72.7664 30.5575C72.4331 30.72 72.2331 31.0775 72.2331 31.435ZM59.4331 38.6175V38.8775C59.4331 39.2675 59.8665 39.5275 60.1998 39.3325L61.6998 38.52C61.9998 38.325 62.1998 37.9675 62.1998 37.61V37.35C62.1998 36.9275 61.7665 36.7 61.4331 36.895L59.9665 37.74C59.6331 37.9025 59.4331 38.26 59.4331 38.6175Z" fill="white"/>
<path d="M43.1665 19.1499V29.1274C44.4998 29.7774 48.4665 31.7274 51.1665 33.3199C51.5998 33.5799 51.9665 33.8399 52.2998 34.0999C52.8665 34.5874 53.3331 35.1074 53.6665 35.6599C53.7998 35.8549 53.8998 36.0499 53.9998 36.2449C54.3665 36.9599 54.5665 37.6749 54.6665 38.2274C54.6665 38.2599 54.6998 38.3249 54.6665 38.3574C54.6665 38.4224 54.6998 38.4874 54.6665 38.5199C54.6665 38.5524 54.6665 38.5524 54.6665 38.5524C54.6998 38.5849 54.6665 38.6174 54.6665 38.6174L54.6998 38.6499L59.1998 40.4049L60.1665 39.8849L60.2332 39.8199L60.3665 39.7549L60.4331 39.7224L62.2332 38.7149L62.2998 38.6824L75.3332 31.3699V28.1199L74.6331 26.3974L58.5665 35.3999L55.6665 27.3074L55.4331 26.5924L55.1331 25.7799L43.2665 19.0849H43.2331L43.1665 19.1499ZM72.2332 31.4349C72.2332 31.0774 72.4332 30.7199 72.7665 30.5574L74.2332 29.7124C74.5998 29.5174 75.0332 29.7774 75.0332 30.1674V30.4274C75.0332 30.8174 74.8332 31.1424 74.4998 31.3374L73.0331 32.1499C72.6665 32.3449 72.2332 32.1174 72.2332 31.6949V31.4349ZM59.4332 38.6174C59.4332 38.2599 59.6331 37.9024 59.9665 37.7399L61.4332 36.8949C61.7665 36.6999 62.1998 36.9274 62.1998 37.3499V37.6099C62.1998 37.9674 61.9998 38.3249 61.6998 38.5199L60.1998 39.3324C59.8665 39.5274 59.4332 39.2674 59.4332 38.8774V38.6174ZM44.5998 22.7899L51.4998 26.4624L53.1665 32.8649L44.5998 28.5749V22.7899ZM3.7998 14.5349L4.06647 14.6974L5.26647 15.3474H5.29981L6.96647 16.2899L11.0331 18.5649H11.0665V18.5974L15.8998 21.3274C15.9331 21.3274 15.9665 21.2949 15.9998 21.2949C16.0665 21.2299 16.0998 21.2299 16.1665 21.2299C16.2998 21.1649 16.4331 21.0999 16.6331 21.0999C16.6998 21.0674 16.7998 21.0674 16.8998 21.0674C17.1665 21.0024 17.4665 21.0024 17.7331 21.0674H17.7665C18.5331 21.0999 19.2665 21.3924 20.0998 21.8149C20.3331 21.9449 20.5331 22.0749 20.7665 22.2049C21.1331 22.4974 21.5331 22.7899 21.8998 23.1474C22.0998 23.3099 22.2665 23.5049 22.4665 23.6999V23.7324H22.4998C22.7331 23.9924 22.9665 24.2849 23.1998 24.5449H23.2665C23.6331 24.9999 23.9665 25.5199 24.2998 26.0399L25.2665 26.5924H25.2998L26.9998 27.5674L40.6331 35.1724V35.2049H40.6665V33.0274H40.6331L36.3331 30.5899L23.8331 23.5374L23.1331 23.1474H23.0998V23.1149H23.0665L23.0331 23.0824L22.9331 23.0174L20.2998 21.5549L20.2331 21.4899L19.7331 21.2299H19.6998L18.1998 20.3849L17.8665 20.1899L13.0331 17.4599L12.1665 16.9399H12.1331L11.3331 16.4849H11.2998L10.3331 15.9649L8.73314 15.0549V15.0224H8.69981L8.09981 14.6974H7.86647L3.7998 14.5349ZM44.0998 32.3449C44.9665 32.7674 45.9665 33.2874 46.9665 33.8074C47.0665 33.8399 47.1331 33.8724 47.2331 33.9374C47.3331 34.0024 47.4331 34.0349 47.5331 34.0999C47.5998 34.1324 49.2998 34.9774 50.7998 35.9849C52.2998 36.9924 52.4998 39.0074 52.4998 40.7299V42.0624C52.4998 41.4449 52.0331 40.6324 51.6998 40.0799C51.0665 38.9099 50.0998 37.8699 48.9665 37.1224C48.3665 36.7324 47.7665 36.3749 47.1331 36.0174C46.5665 35.6924 45.8998 35.3674 45.1998 35.3349C44.6998 35.3024 44.2331 35.5624 43.8331 35.8874C43.8331 35.8874 43.7665 35.9849 43.7331 35.9849L43.1665 35.6274V31.8574C43.4331 31.9874 43.7665 32.1499 44.0998 32.3449Z" fill="#414042"/>
</g>
<defs>
<clipPath id="clip0_2152_3454">
<rect width="80" height="51" fill="white"/>
</clipPath>
</defs>
</svg>
