<svg width="76" height="52" viewBox="0 0 76 52" fill="none" xmlns="http://www.w3.org/2000/svg">
<path d="M14.181 8.89024L38.6164 23.4502V23.4837H38.6489V25.4631L12.5584 9.86314L14.181 8.89024ZM38.6164 23.4502L38.6489 23.4837V13.218H38.6164V16.4386L20.0546 5.36768L18.4645 6.30703L18.432 6.34058L38.6164 18.3844V23.4502ZM42.5754 39.5198C42.6079 39.3856 42.6079 39.285 42.6728 39.2179C42.6728 39.1843 42.6728 39.1508 42.7052 39.1172C42.7377 38.9831 42.8026 38.8824 42.8675 38.7818L42.8999 38.7482C42.8999 38.7147 42.9324 38.6811 42.9648 38.7147V38.6811C43.0297 38.5805 43.0622 38.5469 43.1271 38.5469V38.5134H43.1595L43.2569 38.4127L43.3542 38.3792C43.4191 38.3121 43.5489 38.2785 43.6463 38.3121C43.6787 38.2785 43.6787 38.2785 43.7112 38.2785L43.7761 38.245H43.9059C44.1655 38.245 44.49 38.3121 44.8145 38.5134C44.9119 38.5134 44.9768 38.5469 45.0741 38.614C46.0152 39.1843 46.8589 40.2579 47.3132 41.4321C47.5404 42.0024 47.6702 42.6398 47.6702 43.2101C47.6702 43.3108 47.6702 43.4114 47.6377 43.4785V43.5121C47.6377 43.6463 47.6377 43.7469 47.6053 43.8476C47.5728 43.9482 47.5728 44.0488 47.5079 44.1159C47.5079 44.1495 47.4755 44.183 47.4755 44.2166C47.443 44.3172 47.3781 44.4179 47.3132 44.485V44.5185H47.3457L47.3132 44.5521H47.2808C47.2483 44.6527 47.1834 44.6863 47.1185 44.7198C47.1185 44.7198 47.0861 44.7869 47.0536 44.7869C47.0536 44.8205 47.0536 44.854 47.0212 44.854L46.9887 44.8876L46.9238 44.9211C46.8914 44.9211 46.8589 44.9546 46.8265 44.9546C46.8265 44.9882 46.794 44.9882 46.7616 44.9882C46.7616 44.9882 46.7616 44.9882 46.7291 44.9882H46.6967C46.6318 45.0217 46.5669 45.0553 46.4695 45.0553C46.437 45.0553 46.4046 45.0888 46.3722 45.0888H46.2423C45.8854 45.0888 45.496 44.9882 45.0741 44.7198C44.7496 44.5521 44.4576 44.2837 44.1979 44.0153C44.0681 43.8811 43.9059 43.7134 43.8085 43.5456H43.7761C43.3867 43.0759 43.0946 42.4721 42.8675 41.8682C42.7701 41.6669 42.7052 41.4656 42.6728 41.2308C42.5754 40.8618 42.5105 40.4927 42.5105 40.1237C42.5105 39.8889 42.543 39.6876 42.5754 39.5198ZM43.0622 39.9224C43.0622 40.0566 43.0946 40.1572 43.1595 40.2579C43.2569 40.5598 43.4191 40.8618 43.6138 41.0966C43.6787 41.1637 43.7436 41.2643 43.8085 41.3314C43.9383 41.4656 44.1006 41.5998 44.2629 41.6669C44.4576 41.8011 44.6523 41.8682 44.847 41.8682H44.9119L44.9443 41.8347C45.0092 41.8347 45.0417 41.8347 45.0741 41.8011C45.1066 41.8011 45.1066 41.8011 45.1066 41.8011H45.139L45.1715 41.7676H45.2039L45.2364 41.734C45.2364 41.734 45.2364 41.734 45.2364 41.7005C45.2688 41.7005 45.2688 41.6669 45.2688 41.6669C45.3013 41.6669 45.3337 41.6334 45.3662 41.5998L45.3986 41.5663H45.3662C45.3986 41.5327 45.4311 41.4656 45.4635 41.4321C45.4635 41.3985 45.4635 41.3985 45.4635 41.365C45.496 41.3314 45.496 41.2979 45.5284 41.2308V41.063C45.5609 41.0295 45.5609 40.9624 45.5609 40.9289C45.5609 40.6269 45.496 40.325 45.3662 40.0231C45.139 39.4527 44.7172 38.916 44.2629 38.614C44.1979 38.5805 44.1655 38.5805 44.133 38.5805C43.9708 38.4798 43.8085 38.4463 43.6787 38.4463H43.5814C43.5489 38.4463 43.5489 38.4463 43.5489 38.4798C43.484 38.4463 43.4191 38.4798 43.3867 38.5134H43.3542L43.2893 38.5805C43.2569 38.5805 43.2244 38.614 43.192 38.6476V38.6811C43.1595 38.6811 43.1595 38.6811 43.1595 38.6811V38.7147C43.1271 38.7482 43.0946 38.8153 43.0622 38.8824V38.916C43.0297 38.9495 43.0297 39.0166 42.9973 39.0837C42.9973 39.1508 42.9648 39.2514 42.9648 39.3856C42.9648 39.5534 42.9973 39.7547 43.0622 39.9224ZM0 23.3496L17.1989 33.6489L41.6343 48.2759L47.8649 51.9998H56.4319L75.9997 40.325V38.4798L74.7017 37.7082L74.4745 37.574L57.8597 47.5043L52.7974 46.6321L50.1689 45.5585L48.4165 46.9004L48.3841 46.934H48.3192L48.092 47.1017C47.9947 47.1688 47.8649 47.2359 47.7351 47.2695C47.6702 47.303 47.5728 47.3366 47.4755 47.3366C47.4106 47.3701 47.3132 47.3701 47.2159 47.3701H46.9563C46.8589 47.3701 46.7616 47.3701 46.6642 47.3366C46.4695 47.3366 46.2748 47.303 46.0801 47.2024C45.7556 47.1353 45.3986 46.9675 45.0417 46.7663C44.6523 46.5314 44.2628 46.2295 43.9059 45.894C43.5489 45.5585 43.2244 45.1895 42.8999 44.7869H42.8675C42.835 44.7534 42.8026 44.6863 42.8026 44.6527C42.5105 44.2837 42.2509 43.8476 41.9913 43.445C41.7317 43.0089 41.537 42.5392 41.3747 42.0359L41.3423 42.0024H41.3098C41.0502 41.3314 40.8555 40.6269 40.7906 39.9224L24.5003 30.1934L24.3056 30.0928L24.1758 30.0257V29.9921H24.1434C24.1434 30.1599 24.1109 30.3276 24.0785 30.4953C24.0136 30.7973 23.9487 31.0657 23.8189 31.3005V31.334V31.3676L23.7864 31.4011C23.7215 31.5353 23.6566 31.6695 23.5593 31.7702V31.8037H23.5268C23.5268 31.8373 23.5268 31.8373 23.5268 31.8708L23.4944 31.9044L23.4619 31.9715H23.4295C23.2672 32.1392 23.1049 32.3069 22.9102 32.4076C22.8778 32.4411 22.8453 32.4411 22.7804 32.4747C22.748 32.5082 22.7155 32.5082 22.6506 32.5418C22.6831 32.5418 22.6831 32.5418 22.7155 32.5418L20.3142 33.9173H20.2817V33.9508C20.2817 33.9508 20.2817 33.9508 20.2493 33.9508C20.1844 33.9844 20.1195 34.0179 20.0546 34.0179C20.0221 34.0515 19.9897 34.0515 19.9572 34.0515C19.8599 34.1186 19.7625 34.1521 19.6327 34.1521C19.6003 34.1857 19.5029 34.1857 19.438 34.1857C18.789 34.2863 18.0102 34.085 17.1989 33.6153C16.8095 33.3805 16.4201 33.0786 16.0631 32.7431C15.7062 32.4076 15.3817 32.0386 15.0572 31.6024H15.0247C14.4081 30.7973 13.8565 29.8244 13.532 28.8515H13.4995C13.1426 27.8786 12.9154 26.8386 12.9154 25.8992C12.9154 25.5973 12.9479 25.3289 13.0128 25.0605C12.9803 25.027 13.0128 24.9599 13.0128 24.9263C13.0452 24.6915 13.1101 24.4566 13.2075 24.2889C13.2075 24.2218 13.2399 24.1547 13.2399 24.1212C13.2724 24.0876 13.2724 24.0541 13.3048 24.0205C13.3697 23.8863 13.4346 23.7857 13.532 23.685V23.6515L13.3697 23.5508L6.49015 19.458L5.87359 19.827L4.25105 20.7999L0 23.3496ZM19.3731 31.4682C19.3731 31.4682 19.3731 31.4682 19.3407 31.4682C19.3407 31.4682 19.3407 31.5018 19.3082 31.5018C19.2758 31.5689 19.2433 31.5689 19.1784 31.636L19.1135 31.6695L19.0162 31.7702C18.9513 31.8037 18.8863 31.8037 18.8214 31.8373C18.7241 31.8708 18.6267 31.9379 18.5294 31.9379H18.4969C18.4645 31.9715 18.3996 31.9715 18.3671 31.9715C18.0426 31.9715 17.7181 31.8373 17.3287 31.636C17.2963 31.636 17.2314 31.6024 17.1989 31.5689C16.9718 31.4347 16.7446 31.267 16.5499 31.0992C16.5174 31.0992 16.485 31.0321 16.4525 30.965C16.4201 30.965 16.4201 30.9315 16.4201 30.9315C16.3876 30.9315 16.3552 30.8979 16.3227 30.8308H16.2903C16.128 30.7302 15.9982 30.5289 15.9009 30.3611H15.8684C15.836 30.3276 15.8035 30.3276 15.8035 30.2605C15.7062 30.1599 15.6413 30.0928 15.6088 29.9586C15.5439 29.8915 15.5115 29.7908 15.4466 29.6902C15.3168 29.4889 15.187 29.254 15.0896 28.9521C15.0247 28.885 14.9923 28.8179 14.9598 28.7173C14.8625 28.516 14.7976 28.2812 14.7651 28.0463C14.6677 27.6773 14.6028 27.3418 14.6028 26.9728C14.6028 26.7379 14.6353 26.5366 14.6677 26.3354C14.7002 26.2012 14.7326 26.1341 14.7651 25.9999C14.7976 25.8992 14.8625 25.7315 14.9598 25.6644C14.9598 25.5973 14.9598 25.5973 14.9598 25.5973H14.9923C15.0247 25.5637 15.0896 25.4966 15.1221 25.4966L15.1545 25.4631C15.1545 25.396 15.187 25.396 15.187 25.396C15.2519 25.3289 15.3168 25.2954 15.3817 25.2618L15.5115 25.1612H15.5439C15.5764 25.1276 15.5764 25.1276 15.6088 25.1276C15.6413 25.1276 15.6413 25.1276 15.6737 25.1276L15.7386 25.0941H15.8035V25.0605H15.9009C15.9009 25.0605 15.9009 25.0605 15.9333 25.0605C15.9333 25.0605 15.9333 25.0605 15.9658 25.0605C15.9658 25.0605 15.9658 25.0605 15.9982 25.0605L16.0307 25.027H16.0956C16.128 25.027 16.1929 25.027 16.2254 25.0605C16.3227 25.0941 16.4201 25.0941 16.485 25.0941C16.5499 25.0941 16.6472 25.1276 16.7121 25.1612C16.7446 25.1612 16.777 25.1947 16.8419 25.2283C16.9718 25.2954 17.1016 25.3624 17.2314 25.396H17.2638V25.4295C17.2963 25.396 17.2963 25.4295 17.3287 25.4631C17.3612 25.4631 17.3936 25.5302 17.3936 25.5302C17.4261 25.5302 17.4261 25.5637 17.4261 25.5637C17.491 25.5637 17.5559 25.5973 17.5883 25.6644C17.6532 25.6979 17.6857 25.7315 17.7506 25.7986H17.783C17.9128 25.8992 18.0102 25.9663 18.1075 26.1005C18.14 26.1005 18.14 26.1341 18.1724 26.1676L18.2698 26.2683V26.3018C18.3671 26.4024 18.432 26.5031 18.5294 26.6037C18.7241 26.8386 18.8863 27.107 19.0486 27.3753C19.1784 27.6437 19.3082 27.9457 19.438 28.2476C19.4705 28.3147 19.5029 28.3818 19.5029 28.4824C19.6976 28.9857 19.795 29.4889 19.795 29.9921V30.0257C19.795 30.1599 19.795 30.294 19.7301 30.4282C19.7625 30.5289 19.7301 30.6295 19.6976 30.7302C19.6976 30.7637 19.6976 30.7973 19.6652 30.8308V30.8644C19.6652 30.8979 19.6652 30.9315 19.6327 30.965C19.6003 31.0321 19.5678 31.1328 19.5354 31.1999V31.2334C19.5354 31.2669 19.5354 31.2669 19.5029 31.3005C19.5029 31.3005 19.4705 31.3005 19.4705 31.334C19.4705 31.334 19.4705 31.334 19.438 31.334V31.3676H19.4056L19.3731 31.4682C19.4056 31.4347 19.3731 31.4347 19.3731 31.4682ZM17.4261 26.9392C17.4261 26.8721 17.4261 26.8386 17.3936 26.805C17.3287 26.6708 17.2963 26.5366 17.2314 26.4025C17.134 26.2683 17.0691 26.1341 16.9718 26.0334C16.9393 25.9999 16.9069 25.9328 16.8419 25.8992V25.8657C16.8095 25.8321 16.8095 25.8321 16.777 25.7986C16.7446 25.7315 16.6797 25.6979 16.6148 25.6644C16.5823 25.6308 16.5499 25.5973 16.5174 25.5973C16.485 25.5302 16.4525 25.5302 16.4201 25.4966C16.3876 25.4966 16.3876 25.4631 16.3876 25.4631C16.2578 25.396 16.128 25.3289 16.0307 25.3289C15.9658 25.2954 15.8684 25.2954 15.836 25.2954H15.8035C15.7711 25.2954 15.7711 25.2954 15.7711 25.2954C15.7386 25.2954 15.7386 25.2954 15.7386 25.2954H15.6737V25.3289H15.6413C15.6088 25.3289 15.6088 25.3289 15.6088 25.3289C15.5764 25.3289 15.5764 25.3289 15.5764 25.3624L15.5115 25.396C15.479 25.396 15.4466 25.4295 15.4141 25.4631C15.4141 25.4631 15.3817 25.4631 15.3817 25.4966C15.3492 25.5302 15.3168 25.5302 15.3168 25.5637H15.2843C15.2519 25.6308 15.2194 25.6979 15.2194 25.765C15.187 25.7986 15.187 25.8321 15.1545 25.8992C15.1545 25.9999 15.1221 26.1005 15.1221 26.2012C15.1221 26.3689 15.1545 26.5366 15.2194 26.7379C15.2194 26.8386 15.2519 26.9392 15.2843 27.0399C15.3168 27.0734 15.3168 27.107 15.3492 27.1405C15.4141 27.2747 15.479 27.3754 15.5439 27.5095C15.5764 27.5431 15.5764 27.6102 15.6088 27.6102C15.6088 27.6773 15.6413 27.7108 15.7062 27.7444C15.7062 27.7779 15.7062 27.8115 15.7386 27.8115C15.8035 27.9121 15.8684 27.9792 15.9333 28.0463C15.9658 28.0799 15.9658 28.1134 15.9982 28.1134C16.0307 28.147 16.0307 28.147 16.0631 28.147C16.1605 28.2476 16.2578 28.3147 16.3552 28.3818C16.3876 28.4153 16.4201 28.4153 16.4201 28.4153C16.6148 28.516 16.7446 28.5495 16.9069 28.5495C16.9393 28.5495 16.9718 28.5495 16.9718 28.5495H17.0042C17.0367 28.5495 17.0691 28.516 17.134 28.516C17.1665 28.516 17.1989 28.4824 17.2314 28.4824L17.2963 28.4153C17.3287 28.3818 17.3287 28.3818 17.3612 28.3483C17.3612 28.3147 17.3936 28.3147 17.3936 28.3147V28.2812H17.4261V28.2476C17.4585 28.2476 17.4585 28.2476 17.4585 28.2141C17.4585 28.1805 17.491 28.147 17.491 28.1134C17.5234 28.0799 17.5234 28.0799 17.5234 28.0463C17.5234 28.0128 17.5234 28.0128 17.5234 27.9792C17.5559 27.9121 17.5883 27.7779 17.5883 27.6437C17.5883 27.4089 17.5234 27.1741 17.4261 26.9392Z" fill="#898989"/>
<path d="M36.7347 29.3883L38.6168 30.5289V30.4954L36.7347 29.3883ZM36.7347 29.3883L38.6168 30.5289V30.4954L36.7347 29.3883ZM36.7347 29.3883L38.6168 30.5289V30.4954L36.7347 29.3883ZM59.5151 10.6013L59.7423 10.4671V10.4335L59.5151 10.6013ZM51.5322 15.3316V15.3651L55.0369 13.2851V13.2516L51.5322 15.3316ZM55.8157 12.7819V13.3522H55.8482V12.7819H55.8157ZM36.7347 29.3883L38.6168 30.5289V30.4954L36.7347 29.3883ZM59.5151 10.6013L59.7423 10.4671V10.4335L59.5151 10.6013ZM55.8157 12.7819V13.3522H55.8482V12.7819H55.8157ZM36.7347 29.3883L38.6168 30.5289V30.4954L36.7347 29.3883ZM59.5151 10.6013L59.7423 10.4671V10.4335L59.5151 10.6013ZM55.8157 12.7819V13.3522H55.8482V12.7819H55.8157ZM36.7347 29.3883L38.6168 30.5289V30.4954L36.7347 29.3883ZM59.5151 10.6013L59.7423 10.4671V10.4335L59.5151 10.6013ZM55.8157 12.7819V13.3522H55.8482V12.7819H55.8157ZM0.0328369 10.5677V15.5664L6.49054 19.458L13.3701 23.5509L13.5324 23.6515H13.5648V23.6851C13.4675 23.7857 13.4026 23.8864 13.3377 24.0206C13.3052 24.0541 13.3052 24.0877 13.2728 24.1212C13.2728 24.1548 13.2403 24.2219 13.2403 24.289C13.1429 24.4567 13.078 24.6915 13.0456 24.9264C13.0456 24.9599 13.0131 24.9935 13.0131 25.027V25.0606C13.0131 25.1612 12.9807 25.2283 12.9807 25.329V25.4296C12.9482 25.5638 12.9482 25.7315 12.9482 25.8993C12.9482 26.8386 13.1754 27.8786 13.5324 28.8515H13.5648C13.8893 29.8244 14.441 30.7973 15.0575 31.6025H15.09C15.3821 32.0051 15.7066 32.3741 16.0635 32.7431C16.4205 33.0786 16.8099 33.3805 17.1993 33.6154C18.0106 34.0851 18.7894 34.2864 19.4384 34.1857C19.5033 34.1857 19.6007 34.1857 19.6331 34.1522C19.7629 34.1522 19.8603 34.1186 19.9576 34.0515C19.9901 34.0515 20.0225 34.0515 20.055 34.018C20.1199 34.018 20.1848 33.9844 20.2497 33.9509C20.2821 33.9509 20.2821 33.9509 20.2821 33.9509C20.2821 33.9173 20.3146 33.9173 20.3146 33.9173L22.7159 32.5418C22.7484 32.5083 22.7808 32.4747 22.7808 32.4747C22.8457 32.4412 22.8782 32.4412 22.9106 32.4076C23.1053 32.307 23.2676 32.1393 23.4298 31.9715H23.4623C23.4947 31.938 23.4947 31.938 23.5272 31.9044V31.8709C23.5596 31.8373 23.5596 31.8373 23.5596 31.8038C23.5596 31.8038 23.5921 31.8038 23.5921 31.7702C23.6894 31.6696 23.7544 31.5354 23.8193 31.4012V31.3341L23.8517 31.3006C23.9815 31.0657 24.0464 30.7973 24.1113 30.4954C24.1438 30.3277 24.1762 30.1935 24.1762 30.0257L24.306 30.0928L24.5007 30.1935L40.791 39.9225H40.8235C40.8884 40.627 41.0831 41.3315 41.3427 42.0025H41.3751V42.036C41.5374 42.5392 41.7645 43.0089 41.9917 43.445C42.2513 43.8476 42.5109 44.2837 42.803 44.6528C42.8354 44.6863 42.8679 44.7534 42.9003 44.787H42.9328C43.2248 45.1895 43.5493 45.5586 43.9063 45.8941C44.2632 46.2295 44.6526 46.5315 45.0421 46.7663C45.399 46.9676 45.756 47.1353 46.0805 47.2024C46.2752 47.3031 46.4699 47.3366 46.6646 47.3366C46.762 47.3702 46.8593 47.3702 46.9567 47.3702H47.2163C47.3136 47.3702 47.411 47.3702 47.4759 47.3366C47.5732 47.3366 47.6706 47.3031 47.7355 47.2695C47.8653 47.236 47.9951 47.1689 48.0924 47.1018L48.3196 46.9341H48.3845L48.4169 46.9005L50.1693 45.5586L52.7978 46.6321L57.8601 47.5044L74.4749 37.5741L76.0001 36.6683V32.7767L74.767 31.6696L74.7345 27.6773L69.8344 14.8954L61.3973 9.8632V8.48772L58.8661 6.97804L58.1197 6.50837L56.8541 5.73676V5.19999L54.4852 3.75741L54.4528 3.79096L42.2837 11.0374L38.3897 8.72256L23.7868 0H17.7185L12.6886 3.01934L5.48457 7.31353L0.0328369 10.5677ZM48.2547 13.2851L49.5203 14.0567L50.007 14.3587L45.9507 16.7741L45.4639 16.4722L45.2692 16.3716L44.2632 15.7341L48.2547 13.2851ZM49.7474 12.4129L52.5382 10.769L53.8038 11.5071L54.2581 11.7754L54.2905 11.809L50.8507 13.8554L50.364 13.5535L49.9421 13.2851L49.0984 12.8154L49.1309 12.7819L49.7474 12.4129ZM55.0369 13.2851V13.8554L51.5322 15.9354V15.3651L55.0369 13.2851ZM58.9634 8.95739L58.4767 9.25933L56.9839 10.1316L56.8541 10.2322L55.0694 11.3058L54.5826 11.0038L53.3819 10.2658L57.2436 7.9174L58.9634 8.95739ZM59.7747 11.0038L59.0932 11.4064L56.0429 13.218L55.8482 13.3522V12.7819L58.4767 11.2051L58.6389 11.1045H58.6714L59.5151 10.6013L59.7423 10.4671V10.4335H59.7747V11.0038ZM52.3759 41.9689L54.1607 42.707L56.9515 43.8476L58.6389 42.8412L60.9429 41.4657C61.0403 41.3986 61.1701 41.3315 61.2674 41.2644L61.4297 41.1973L73.5663 33.9509V35.2257L57.3734 44.8541L53.4468 44.2166L52.3759 43.7805V41.9689ZM42.5109 40.1237C42.5109 39.8889 42.5434 39.6876 42.5758 39.5199C42.6082 39.3857 42.6082 39.285 42.6732 39.218C42.6732 39.1844 42.6732 39.1509 42.7056 39.1173C42.7381 38.9831 42.803 38.8825 42.8679 38.7818L42.9003 38.7483C42.9003 38.7147 42.9328 38.6812 42.9652 38.7147V38.6812C43.0301 38.5805 43.0626 38.547 43.1275 38.547V38.5134H43.1599L43.2573 38.4128L43.3546 38.3792C43.4195 38.3121 43.5493 38.2786 43.6467 38.3121C43.6791 38.2786 43.6791 38.2786 43.7116 38.2786L43.7765 38.245H43.9063C44.1659 38.245 44.4904 38.3121 44.8149 38.5134C44.9123 38.5134 44.9772 38.547 45.0745 38.6141C46.0156 39.1844 46.8593 40.2579 47.3136 41.4321C47.5408 42.0025 47.6706 42.6399 47.6706 43.2102C47.6706 43.3108 47.6706 43.4115 47.6381 43.4786V43.5121C47.6381 43.6463 47.6381 43.747 47.6057 43.8476C47.5732 43.9483 47.5732 44.0489 47.5083 44.116C47.5083 44.1495 47.4759 44.1831 47.4759 44.2166C47.4434 44.3173 47.3785 44.4179 47.3136 44.485V44.5186H47.3461L47.3136 44.5521H47.2812C47.2487 44.6528 47.1838 44.6863 47.1189 44.7199C47.1189 44.7199 47.0865 44.787 47.054 44.787C47.054 44.8205 47.054 44.8541 47.0216 44.8541L46.9891 44.8876L46.9242 44.9212C46.8918 44.9212 46.8593 44.9547 46.8269 44.9547C46.8269 44.9883 46.7944 44.9883 46.762 44.9883C46.762 44.9883 46.7619 44.9883 46.7295 44.9883H46.697C46.6321 45.0218 46.5672 45.0554 46.4699 45.0554C46.4374 45.0554 46.405 45.0889 46.3725 45.0889H46.2427C45.8858 45.0889 45.4964 44.9883 45.0745 44.7199C44.75 44.5521 44.4579 44.2837 44.1983 44.0154C44.0685 43.8812 43.9063 43.7134 43.8089 43.5457H43.7765C43.3871 43.076 43.095 42.4721 42.8679 41.8683C42.7705 41.667 42.7056 41.4657 42.6732 41.2309C42.5758 40.8618 42.5109 40.4928 42.5109 40.1237ZM41.0831 32.2399C41.3427 32.3741 41.6672 32.5418 41.9917 32.7431C42.8354 33.1793 43.8089 33.716 44.7825 34.2528C44.8798 34.2863 44.9447 34.3199 45.0421 34.387C45.1394 34.4541 45.2368 34.4876 45.3341 34.5547C45.399 34.5883 47.054 35.4605 48.5143 36.5005C49.9746 37.5405 50.1693 39.6205 50.1693 41.3986V42.7741C50.1693 42.1367 49.715 41.2979 49.3905 40.7276C48.7739 39.5199 47.8328 38.4463 46.7295 37.6747C46.1454 37.2721 45.5613 36.9031 44.9447 36.5341C44.393 36.1986 43.744 35.8631 43.0626 35.8296C42.5758 35.796 42.1215 36.0644 41.7321 36.3999C41.7321 36.3999 41.6672 36.5005 41.6347 36.5005L41.0831 36.1315V32.2399ZM41.0831 19.1225L41.148 19.0554H41.1804L41.797 18.6864L42.3811 19.0554L45.9831 21.2361L47.2487 20.498L47.7355 20.1961L59.7747 12.9832L60.7482 12.3793H60.7807L67.8874 16.64L68.3093 17.6799V17.7135L71.7166 26.6038L72.3981 28.3818V31.7367L59.7098 39.285L59.6449 39.3186L57.8926 40.3586L57.8277 40.3921L57.6979 40.4592L57.633 40.5263L56.6919 41.0631L52.311 39.2515L52.2786 39.218C52.2786 39.218 52.311 39.1844 52.2786 39.1509C52.2786 39.1509 52.2786 39.1509 52.2786 39.1173C52.311 39.0838 52.2786 39.0167 52.2786 38.9496C52.311 38.916 52.2786 38.8489 52.2786 38.8154C52.1812 38.245 51.9865 37.507 51.6296 36.7689C51.5322 36.5676 51.4349 36.3663 51.3051 36.1651C50.9806 35.5947 50.5262 35.058 49.9746 34.5547C49.6501 34.2863 49.2931 34.018 48.8713 33.7496C46.2427 32.1057 42.3811 30.0928 41.0831 29.4219V19.1225ZM14.7655 27.9793C14.7006 27.6438 14.6357 27.2748 14.6357 26.9393C14.6357 26.7044 14.6681 26.5031 14.7006 26.3354C14.733 26.2683 14.733 26.2012 14.733 26.1677C14.733 26.1341 14.733 26.1341 14.7655 26.1006C14.7655 26.067 14.7979 26.0335 14.7979 25.9999C14.8304 25.8993 14.8628 25.8322 14.8953 25.7651C14.9277 25.7315 14.9277 25.698 14.9602 25.6644L14.9926 25.6309C14.9926 25.5973 14.9926 25.5973 14.9926 25.5973H15.0251C15.0575 25.5638 15.0575 25.5638 15.0575 25.5638L15.1549 25.4632C15.1549 25.4296 15.1549 25.3961 15.1873 25.4296C15.1873 25.3961 15.2198 25.3961 15.2198 25.3961C15.2847 25.329 15.3172 25.2954 15.3821 25.2619L15.5119 25.1612H15.5443C15.5768 25.1277 15.5768 25.1277 15.6092 25.1277C15.6417 25.1277 15.6417 25.1277 15.6741 25.1277L15.739 25.0941H15.8039V25.0606H15.9013C15.9013 25.0606 15.9013 25.0606 15.9337 25.0606C15.9337 25.0606 15.9337 25.0606 15.9662 25.0606C15.9662 25.0606 15.9662 25.0606 15.9986 25.0606H16.0311V25.027H16.096C16.1284 25.027 16.1933 25.027 16.2258 25.0606C16.3231 25.0941 16.4205 25.0941 16.4854 25.0941C16.5503 25.0941 16.6476 25.1277 16.7125 25.1612C16.745 25.1612 16.8099 25.1948 16.8423 25.2283C16.8748 25.1948 16.9072 25.2283 16.9397 25.2619C17.037 25.2954 17.1344 25.329 17.2317 25.3961H17.2642V25.4296C17.2966 25.3961 17.2966 25.4296 17.3291 25.4632C17.3291 25.4632 17.3615 25.4632 17.3615 25.4967C17.394 25.5302 17.394 25.5302 17.394 25.5302C17.4265 25.5302 17.4265 25.5638 17.4265 25.5638C17.4589 25.5638 17.4914 25.5973 17.4914 25.5973C17.5238 25.5973 17.5563 25.6309 17.5887 25.6644C17.6536 25.698 17.6861 25.7315 17.7185 25.7651L17.751 25.7986H17.7834C17.9132 25.8993 18.0106 25.9664 18.1079 26.1006V26.1341C18.1404 26.1006 18.1404 26.1341 18.1728 26.1677L18.2702 26.2683V26.3019C18.3675 26.4025 18.4324 26.5031 18.5298 26.6038C18.7245 26.8386 18.8867 27.107 19.049 27.3754C19.1788 27.6438 19.3086 27.9457 19.4384 28.2477C19.4708 28.3148 19.5033 28.3819 19.5033 28.4825C19.698 28.9857 19.7954 29.4889 19.7954 29.9922V30.0257C19.7954 30.0928 19.7954 30.1599 19.7629 30.227C19.7954 30.2941 19.7629 30.3612 19.7305 30.4283C19.7629 30.5289 19.7305 30.6296 19.698 30.7302C19.698 30.7638 19.698 30.7973 19.6656 30.8309V30.8644C19.6656 30.898 19.6656 30.9315 19.6331 30.9651C19.6007 31.0322 19.5682 31.1328 19.5358 31.1999V31.2335C19.5358 31.267 19.5358 31.267 19.5033 31.3006C19.5033 31.3006 19.4708 31.3006 19.4708 31.3341C19.4708 31.3341 19.4708 31.3341 19.4384 31.3341V31.3677H19.4059V31.4347C19.4059 31.4347 19.3735 31.4347 19.3735 31.4683C19.3735 31.4683 19.3735 31.4683 19.341 31.4683C19.341 31.4683 19.341 31.5018 19.3086 31.5018C19.2761 31.5689 19.2437 31.5689 19.1788 31.636L19.1139 31.6696L19.0165 31.7702C18.9516 31.8038 18.8867 31.8038 18.8218 31.8373H18.7894C18.7245 31.8709 18.6271 31.9044 18.5622 31.9044H18.5298C18.4973 31.938 18.4324 31.938 18.4 31.938C18.2377 31.938 18.0755 31.9044 17.9132 31.8709C17.7185 31.8373 17.5238 31.7367 17.3291 31.636C17.2966 31.636 17.2317 31.6025 17.1993 31.5689C17.0695 31.5018 16.9721 31.4012 16.8748 31.3341C16.7774 31.2335 16.6801 31.1664 16.5827 31.0657C16.5503 31.0657 16.5178 31.0322 16.4854 30.9651H16.4529C16.4205 30.9651 16.4205 30.9315 16.4205 30.9315C16.388 30.898 16.3556 30.8644 16.3556 30.8309H16.3231C16.1609 30.6967 16.0311 30.5289 15.9337 30.3612H15.9013C15.8688 30.3277 15.8364 30.2941 15.8364 30.227C15.739 30.1599 15.6741 30.0593 15.6417 29.9586C15.5768 29.8915 15.5443 29.7909 15.4794 29.6902C15.3496 29.4554 15.2198 29.2206 15.1224 28.9522C15.0575 28.8851 15.0251 28.7844 14.9926 28.7173C14.9602 28.6502 14.9277 28.5831 14.8953 28.4825C14.8628 28.3819 14.8304 28.2477 14.7979 28.1135C14.7979 28.0799 14.7979 28.0799 14.7979 28.0464C14.7979 28.0128 14.7979 28.0128 14.7655 27.9793ZM2.7587 14.3587L6.7177 14.5264H6.94485L7.52897 14.8619H7.56142V14.8954L9.11905 15.8348L10.0601 16.3716H10.0926L10.8714 16.8412H10.9038L11.7476 17.378L16.4529 20.1961L16.7774 20.3974L18.2377 21.2696H18.2702L18.7569 21.538L18.8218 21.6051L21.3854 23.1148L21.4828 23.1819L21.5152 23.2154H21.5477V23.249H21.5802L22.2616 23.6515L34.4307 30.9315L38.6168 33.4476H38.6493V35.6954H38.6168V35.6618L25.3444 27.8115L23.6895 26.8051H23.657L22.7159 26.2348C22.3914 25.698 22.0669 25.1612 21.71 24.6915H21.6451C21.4179 24.4232 21.1907 24.1212 20.9636 23.8528H20.9311V23.8193C20.7364 23.618 20.5742 23.4167 20.3795 23.249C20.0225 22.8799 19.6331 22.578 19.2761 22.2761C19.049 22.1419 18.8543 22.0077 18.6271 21.8735C17.8159 21.4374 17.1019 21.1354 16.3556 21.1019H16.3231C16.0635 21.0348 15.7715 21.0348 15.5119 21.1019C15.4145 21.1019 15.3172 21.1019 15.2522 21.1354C15.0575 21.1354 14.9277 21.2025 14.7979 21.2696C14.733 21.2696 14.7006 21.2696 14.6357 21.3367C14.6032 21.3367 14.5708 21.3703 14.5383 21.3703L9.83297 18.5522V18.5187H9.80052L5.84153 16.1703L4.21899 15.1974H4.18654L3.01831 14.5264L2.7587 14.3587ZM2.46664 12.3793V12.0103L6.68525 9.46062L12.137 6.23998L15.3172 4.32773L16.6801 3.52257L18.3351 2.51612H23.1378V2.54967H23.2027L23.9491 3.01934L39.8175 12.5135L38.6493 13.218V30.5289H38.6168V30.4954L36.7347 29.3883L35.6638 28.7509L19.5033 19.1225L14.3112 16.0025L11.2608 14.1909L8.63229 12.6142L8.30778 12.4129H8.27533V12.3793H2.46664ZM59.5151 10.6013L59.7423 10.4671V10.4335L59.5151 10.6013ZM36.7347 29.3883L38.6168 30.5289V30.4954L36.7347 29.3883ZM55.8157 12.7819V13.3522H55.8482V12.7819H55.8157ZM59.5151 10.6013L59.7423 10.4671V10.4335L59.5151 10.6013ZM36.7347 29.3883L38.6168 30.5289V30.4954L36.7347 29.3883ZM55.8157 12.7819V13.3522H55.8482V12.7819H55.8157ZM51.5322 15.3316V15.3651L55.0369 13.2851V13.2516L51.5322 15.3316ZM59.5151 10.6013L59.7423 10.4671V10.4335L59.5151 10.6013ZM36.7347 29.3883L38.6168 30.5289V30.4954L36.7347 29.3883ZM55.8157 12.7819V13.3522H55.8482V12.7819H55.8157ZM51.5322 15.3316V15.3651L55.0369 13.2851V13.2516L51.5322 15.3316ZM59.5151 10.6013L59.7423 10.4671V10.4335L59.5151 10.6013ZM36.7347 29.3883L38.6168 30.5289V30.4954L36.7347 29.3883ZM36.7347 29.3883L38.6168 30.5289V30.4954L36.7347 29.3883Z" fill="black"/>
<path d="M58.4765 11.2055L58.6388 11.1048L59.7421 10.4338V11.0042L59.0931 11.4067L55.8156 13.3525V12.7822L58.4765 11.2055ZM43.5167 17.2442V17.848L45.1393 18.7874V18.2171L43.8412 17.4454L43.6465 17.3112L43.5167 17.2442ZM46.7618 18.2171V18.7874L50.6883 16.439V15.8687L46.7618 18.2171ZM44.2306 15.7345L45.2691 16.3719L45.4638 16.4725L45.9505 16.7745L50.0069 14.359L49.5201 14.0571L48.2545 13.2855H48.2221L44.2306 15.7345ZM53.3493 10.2661L54.5824 11.0042L55.0692 11.3061L56.854 10.2326L56.9838 10.1319L58.4765 9.25966L58.9633 8.95772L57.2434 7.91772L53.3493 10.2661Z" fill="#F7941D"/>
<path d="M53.0243 26.805L53.2515 27.543L56.0747 35.8966L71.7159 26.6037L68.3086 17.7134H68.2762L53.0243 26.805Z" fill="#C9CCB6"/>
<path d="M41.1798 19.0555L52.7323 25.9665L53.0243 26.8052L68.2762 17.7136H68.3087V17.68L67.8868 16.64L60.7801 12.3794H60.7476L59.7741 12.9833L47.7349 20.1961L47.2481 20.4981L45.9825 21.2361L42.3805 19.0555L41.7964 18.6865L41.1798 19.0555Z" fill="#FF3B3B"/>
<path d="M15.1227 26.2014C15.1227 26.3692 15.1552 26.5369 15.2201 26.7382C15.2201 26.8389 15.2525 26.9395 15.285 27.0402C15.3174 27.0737 15.3174 27.1073 15.3499 27.1408C15.4148 27.275 15.4797 27.3756 15.5446 27.5098C15.577 27.5434 15.577 27.6105 15.6095 27.6105C15.6095 27.6776 15.6419 27.7111 15.7068 27.7447C15.7068 27.7782 15.7068 27.8118 15.7393 27.8118C15.8042 27.9124 15.8691 27.9795 15.934 28.0466C15.9664 28.0802 15.9664 28.1137 15.9989 28.1137C16.0313 28.1472 16.0313 28.1472 16.0638 28.1472C16.1611 28.2479 16.2585 28.315 16.3558 28.3821C16.3883 28.4156 16.4207 28.4156 16.4207 28.4156C16.6154 28.5163 16.7452 28.5498 16.9075 28.5498C16.9399 28.5498 16.9724 28.5498 16.9724 28.5498H17.0048C17.0373 28.5498 17.0697 28.5163 17.1346 28.5163C17.1671 28.5163 17.1995 28.4827 17.232 28.4827L17.2969 28.4156C17.3294 28.3821 17.3294 28.3821 17.3618 28.3485C17.3618 28.315 17.3943 28.315 17.3943 28.315V28.2814H17.4267V28.2479C17.4592 28.2479 17.4592 28.2479 17.4592 28.2143C17.4592 28.1808 17.4916 28.1472 17.4916 28.1137C17.5241 28.0801 17.5241 28.0802 17.5241 28.0466C17.5241 28.0131 17.5241 28.0131 17.5241 27.9795C17.5565 27.9124 17.589 27.7782 17.589 27.644C17.589 27.4092 17.5241 27.1743 17.4267 26.9395C17.4267 26.8724 17.4267 26.8389 17.3943 26.8053C17.3294 26.6711 17.2969 26.5369 17.232 26.4027C17.1346 26.2685 17.0697 26.1343 16.9724 26.0337C16.9399 26.0002 16.9075 25.9331 16.8426 25.8995V25.866C16.8101 25.8324 16.8101 25.8324 16.7777 25.7989C16.7452 25.7318 16.6803 25.6982 16.6154 25.6647C16.583 25.6311 16.5505 25.5976 16.5181 25.5976C16.4856 25.5305 16.4532 25.5305 16.4207 25.4969C16.3883 25.4969 16.3883 25.4634 16.3883 25.4634C16.2585 25.3963 16.1287 25.3292 16.0313 25.3292C15.9664 25.2956 15.8691 25.2956 15.8366 25.2956H15.8042C15.7717 25.2956 15.7717 25.2956 15.7717 25.2956C15.7393 25.2956 15.7393 25.2956 15.7393 25.2956H15.6744V25.3292H15.6419C15.6095 25.3292 15.6095 25.3292 15.6095 25.3292C15.577 25.3292 15.577 25.3292 15.577 25.3627L15.5121 25.3963C15.4797 25.3963 15.4472 25.4298 15.4148 25.4634C15.4148 25.4634 15.3823 25.4634 15.3823 25.4969C15.3499 25.5305 15.3174 25.5305 15.3174 25.564H15.285C15.2525 25.6311 15.2201 25.6982 15.2201 25.7653C15.1876 25.7989 15.1876 25.8324 15.1552 25.8995C15.1552 26.0002 15.1227 26.1008 15.1227 26.2014ZM38.6171 16.4389V13.2183H38.6495L39.8177 12.5137L23.9493 3.01958L20.0877 5.33441L20.0552 5.36796L38.6171 16.4389ZM14.1816 8.85698V8.89053L38.6171 23.484V18.3847L18.4327 6.34086L14.1816 8.85698ZM8.30804 12.4131L8.63255 12.6144L11.2611 14.1912L14.3114 16.0028L19.5036 19.1228L35.664 28.7511L36.7349 29.3885L38.6171 30.4956V25.4634L12.5591 9.86343H12.5266L8.30804 12.4131ZM8.30804 12.4131L8.63255 12.6144L11.2611 14.1912L14.3114 16.0028L19.5036 19.1228L35.664 28.7511L36.7349 29.3885L38.6171 30.4956V25.4634L12.5591 9.86343H12.5266L8.30804 12.4131ZM18.4327 6.34086L14.1816 8.85698V8.89053L38.6171 23.4505V18.3847L18.4327 6.34086ZM2.43445 12.0105V12.3796H6.65305L6.6855 12.346H6.71795L7.88618 11.6415L13.3379 8.42086L13.3704 8.38731L17.881 5.70344L17.9135 5.66989L19.2764 4.83119L23.138 2.54991L23.1056 2.51636H18.3353L16.6803 3.52281L15.3174 4.32796L12.1372 6.24022L6.6855 9.46085L2.4669 12.0105H2.43445ZM8.30804 12.4131L8.63255 12.6144L11.2611 14.1912L14.3114 16.0028L19.5036 19.1228L35.664 28.7511L36.7349 29.3885L38.6171 30.4956V25.4634L12.5591 9.86343H12.5266L8.30804 12.4131ZM8.30804 12.4131L8.63255 12.6144L11.2611 14.1912L14.3114 16.0028L19.5036 19.1228L35.664 28.7511L36.7349 29.3885L38.6171 30.4956V25.4634L12.5591 9.86343H12.5266L8.30804 12.4131ZM8.30804 12.4131L8.63255 12.6144L11.2611 14.1912L14.3114 16.0028L19.5036 19.1228L35.664 28.7511L36.7349 29.3885L38.6171 30.5292V25.4634L12.5591 9.86343H12.5266L8.30804 12.4131ZM14.1816 8.85698V8.89053L38.6171 23.484V18.3847L18.4327 6.34086L14.1816 8.85698ZM52.3762 41.9691V43.7807L53.4471 44.2169L57.3736 44.8543L73.5665 35.2259V33.9511L61.43 41.1975L61.2677 41.2646C61.1704 41.3317 61.0405 41.3988 60.9432 41.4659L58.6392 42.8414L56.9517 43.8478L54.161 42.7072L52.3762 41.9691ZM42.9979 39.084C43.0304 39.0169 43.0304 38.9498 43.0628 38.9162V38.8827C43.0953 38.8156 43.1277 38.7485 43.1602 38.715V38.6814C43.1602 38.6814 43.1602 38.6814 43.1926 38.6814V38.6479C43.2251 38.6143 43.2575 38.5808 43.29 38.5808L43.3549 38.5137H43.3873C43.4198 38.4801 43.4847 38.4466 43.5496 38.4801C43.5496 38.4466 43.5496 38.4466 43.582 38.4466H43.6794C43.8092 38.4466 43.9714 38.4801 44.1337 38.5808C44.1661 38.5808 44.1986 38.5808 44.2635 38.6143C44.7178 38.9162 45.1397 39.453 45.3668 40.0233C45.4966 40.3253 45.5615 40.6272 45.5615 40.9291C45.5615 40.9627 45.5615 41.0298 45.5291 41.0633V41.2311C45.4966 41.2982 45.4966 41.3317 45.4642 41.3653C45.4642 41.3988 45.4642 41.3988 45.4642 41.4324C45.4317 41.4659 45.3993 41.533 45.3668 41.5666H45.3993L45.3668 41.6001C45.3344 41.6337 45.3019 41.6672 45.2695 41.6672C45.2695 41.6672 45.2695 41.7008 45.237 41.7008C45.237 41.7343 45.237 41.7343 45.237 41.7343L45.2046 41.7679H45.1721L45.1397 41.8014H45.1072C45.1072 41.8014 45.1072 41.8014 45.0748 41.8014C45.0423 41.8349 45.0099 41.8349 44.945 41.8349L44.9125 41.8685H44.8476C44.6529 41.8685 44.4582 41.8014 44.2635 41.6672C44.1012 41.6001 43.939 41.4659 43.8092 41.3317C43.7443 41.2646 43.6794 41.164 43.6145 41.0969C43.4198 40.862 43.2575 40.5601 43.1602 40.2582C43.0953 40.1575 43.0628 40.0569 43.0628 39.9227C42.9979 39.755 42.9655 39.5537 42.9655 39.3859C42.9655 39.2517 42.9979 39.1511 42.9979 39.084Z" fill="#BBBBBB"/>
<path d="M42.4786 22.8801V28.8517L50.8185 33.2801L49.1959 26.6711L42.4786 22.8801Z" fill="#9A8430"/>
<path d="M49.1309 12.7821L49.9422 13.2854L50.3641 13.5202L50.8508 13.8221L54.2582 11.7757L53.8038 11.4738L52.5383 10.7357L49.7475 12.4131L49.1309 12.7821ZM51.5323 15.3318V15.9021L55.037 13.8221V13.2518L51.5323 15.3318ZM6.71777 12.346H8.27541V12.3796H8.30786L12.5265 9.86343L12.5589 9.82989L14.149 8.89053L14.1815 8.85699L18.4325 6.34086L18.465 6.30731L20.055 5.36796L20.0875 5.33441L23.9491 3.01958V2.98603L23.2028 2.51636H23.1379V2.54991L19.2762 4.83119L17.9133 5.6699L17.8808 5.70344L13.3702 8.38731L13.3377 8.42086L7.886 11.6415L6.71777 12.346ZM69.3802 31.804V32.0724C69.3802 32.5085 69.8021 32.7434 70.159 32.5421L71.5869 31.7034C71.9114 31.5021 72.1061 31.1666 72.1061 30.764V30.4956C72.1061 30.0931 71.6842 29.8247 71.3273 30.026L69.8994 30.8982C69.5749 31.066 69.3802 31.435 69.3802 31.804ZM56.9191 39.2182V39.4866C56.9191 39.8892 57.341 40.1575 57.6655 39.9562L59.1258 39.1175C59.4178 38.9163 59.6125 38.5472 59.6125 38.1782V37.9098C59.6125 37.4737 59.1907 37.2388 58.8662 37.4401L57.4383 38.3124C57.1138 38.4801 56.9191 38.8492 56.9191 39.2182Z" fill="white"/>
<path d="M41.0828 19.1225V29.4218C42.3808 30.0928 46.2425 32.1057 48.871 33.7496C49.2928 34.0179 49.6498 34.2863 49.9743 34.5547C50.526 35.0579 50.9803 35.5947 51.3048 36.165C51.4346 36.3663 51.5319 36.5676 51.6293 36.7689C51.9862 37.507 52.1809 38.245 52.2783 38.8153C52.2783 38.8489 52.3107 38.916 52.2783 38.9495C52.2783 39.0166 52.3107 39.0837 52.2783 39.1173C52.2783 39.1508 52.2783 39.1508 52.2783 39.1508C52.3107 39.1844 52.2783 39.2179 52.2783 39.2179L52.3107 39.2515L56.6916 41.0631L57.6327 40.5263L57.6976 40.4592L57.8274 40.3921L57.8923 40.3586L59.6446 39.3186L59.7095 39.285L72.3978 31.7367V28.3818L71.7163 26.6038L56.075 35.8966L53.2518 27.5431L53.0247 26.8051L52.7326 25.9663L41.1801 19.0554H41.1477L41.0828 19.1225ZM69.3799 31.8038C69.3799 31.4347 69.5746 31.0657 69.8991 30.8979L71.3269 30.0257C71.6839 29.8244 72.1057 30.0928 72.1057 30.4954V30.7638C72.1057 31.1663 71.911 31.5018 71.5865 31.7031L70.1587 32.5418C69.8017 32.7431 69.3799 32.5083 69.3799 32.0721V31.8038ZM56.9188 39.2179C56.9188 38.8489 57.1135 38.4799 57.438 38.3121L58.8658 37.4399C59.1903 37.2386 59.6122 37.4734 59.6122 37.9095V38.1779C59.6122 38.547 59.4175 38.916 59.1254 39.1173L57.6651 39.956C57.3406 40.1573 56.9188 39.8889 56.9188 39.4863V39.2179ZM42.4782 22.8799L49.1955 26.6709L50.818 33.2799L42.4782 28.8515V22.8799ZM2.75842 14.3586L3.01803 14.5264L4.18626 15.1973H4.21871L5.84125 16.1702L9.80024 18.5186H9.83269V18.5522L14.5381 21.3702C14.5705 21.3702 14.603 21.3367 14.6354 21.3367C14.7003 21.2696 14.7328 21.2696 14.7977 21.2696C14.9275 21.2025 15.0573 21.1354 15.252 21.1354C15.3169 21.1018 15.4142 21.1018 15.5116 21.1018C15.7712 21.0348 16.0632 21.0348 16.3228 21.1018H16.3553C17.1017 21.1354 17.8156 21.4373 18.6269 21.8735C18.854 22.0077 19.0487 22.1418 19.2759 22.276C19.6328 22.578 20.0222 22.8799 20.3792 23.2489C20.5739 23.4167 20.7362 23.618 20.9309 23.8193V23.8528H20.9633C21.1905 24.1212 21.4176 24.4231 21.6448 24.6915H21.7097C22.0666 25.1612 22.3911 25.698 22.7156 26.2347L23.6567 26.8051H23.6892L25.3442 27.8115L38.6165 35.6618V35.6954H38.649V33.4476H38.6165L34.4304 30.9315L22.2613 23.6515L21.5799 23.2489H21.5474V23.2154H21.515L21.4825 23.1818L21.3852 23.1147L18.8216 21.6051L18.7567 21.538L18.2699 21.2696H18.2374L16.7772 20.3973L16.4526 20.196L11.7473 17.378L10.9036 16.8412H10.8711L10.0923 16.3715H10.0598L9.11877 15.8348L7.56114 14.8954V14.8619H7.52869L6.94457 14.5264H6.71742L2.75842 14.3586ZM41.9914 32.7431C42.8351 33.1792 43.8086 33.716 44.7822 34.2528C44.8795 34.2863 44.9444 34.3199 45.0418 34.387C45.1391 34.4541 45.2365 34.4876 45.3338 34.5547C45.3987 34.5883 47.0537 35.4605 48.514 36.5005C49.9743 37.5405 50.169 39.6205 50.169 41.3986V42.774C50.169 42.1366 49.7147 41.2979 49.3902 40.7276C48.7736 39.5199 47.8325 38.4463 46.7292 37.6747C46.1451 37.2721 45.561 36.9031 44.9444 36.5341C44.3928 36.1986 43.7437 35.8631 43.0623 35.8295C42.5755 35.796 42.1212 36.0644 41.7318 36.3999C41.7318 36.3999 41.6669 36.5005 41.6344 36.5005L41.0828 36.1315V32.2399C41.3424 32.3741 41.6669 32.5418 41.9914 32.7431Z" fill="#842020"/>
</svg>
