<svg width="58" height="54" viewBox="0 0 58 54" fill="none" xmlns="http://www.w3.org/2000/svg">
<path d="M56.8707 44.7862L44.4991 53.5463C43.8768 53.9869 43.1389 54.1128 42.442 53.8972L38.6095 52.7113L14.1551 35.4026L0.279184 25.5798C0.0312437 25.4043 0.0312988 24.9658 0.279282 24.7904L13.7465 15.8114C13.8616 15.73 21.0917 17.5957 21.2068 17.6771L55.3267 41.8164L56.9717 43.6902C57.2473 44.0042 57.1965 44.5554 56.8707 44.7862Z" fill="#888888"/>
<path d="M42.5344 17.1881L30.5109 25.6939L20.7083 18.7576L32.7317 10.252L42.5344 17.1881Z" fill="white"/>
<path d="M46.7076 25.3649L34.1986 34.2123L30.511 25.694L42.5345 17.1882L42.8134 17.3908L46.0052 23.9092L46.6559 25.2509C46.6663 25.3016 46.6869 25.3269 46.7076 25.3649Z" fill="#CCCCCC"/>
<path d="M31.2004 25.9356L42.4862 17.9531L45.9986 25.1347L34.4042 33.3359L31.2004 25.9356Z" fill="#808080"/>
<path d="M55.6858 35.2783L43.1871 44.1258C42.9185 43.3916 42.5157 42.7208 41.9992 42.1892L39.5098 39.6451L34.2004 34.2151L46.7095 25.3677L46.7198 25.3803C46.7508 25.4689 46.8024 25.5448 46.8747 25.6208C46.8747 25.6334 46.885 25.6461 46.8954 25.6588C46.9057 25.6841 46.9263 25.6968 46.9367 25.7094L51.9568 30.8356L54.7354 33.6835C55.1589 34.1138 55.4895 34.6707 55.6858 35.2783Z" fill="white"/>
<path d="M43.0838 43.8728L2.06543 14.8568V12.9329L19.1608 25.0387C19.481 25.2539 19.8735 25.2539 20.1937 25.0387C20.5139 24.8109 20.7102 24.3932 20.7102 23.9376V18.7607L30.5129 25.6969L34.2004 34.2153L41.9992 42.1893C42.4537 42.6577 42.8256 43.2399 43.0838 43.8728Z" fill="#B3B3B3"/>
<path d="M43.528 45.6194L41.0283 43.86C40.8733 43.7461 40.677 43.7461 40.5118 43.86C40.3568 43.9739 40.2536 44.1891 40.2536 44.4043V45.3409C39.6544 42.9867 38.3013 40.7084 36.6899 39.5692C35.4607 38.7085 34.2004 38.5945 33.2398 39.2781C32.5684 39.7591 32.0933 40.5692 31.8763 41.607L10.9591 26.8052C10.9281 23.742 9.23407 20.1727 7.06491 18.6412C5.81503 17.7678 4.59616 17.6539 3.62519 18.35C2.95375 18.8184 2.48891 19.6284 2.26169 20.6537L2.06543 20.5145V14.8567L43.0838 43.8727C43.3214 44.4169 43.466 45.0118 43.528 45.6194Z" fill="#999999"/>
<path d="M55.9343 38.3606V39.6517L43.4253 48.5118L41.2871 47.803V45.4993L43.3117 46.9296C43.353 46.9676 43.4047 46.9802 43.446 46.9929C43.4873 47.0055 43.5286 47.0182 43.5699 47.0182C43.6629 47.0182 43.7455 46.9929 43.8282 46.9296L55.9343 38.3606Z" fill="#4D4D4D"/>
<path d="M47.4128 42.9359L43.5702 45.6571L43.5289 45.6192C43.4772 45.1002 43.3636 44.594 43.188 44.1256L47.0306 41.4043C47.2062 41.8726 47.3198 42.3789 47.3714 42.8978L47.4128 42.9359Z" fill="#CCCCCC"/>
<path d="M19.7186 16.5457L19.2745 16.8621C19.2331 16.8875 19.2022 16.9001 19.1608 16.9381C19.0782 16.9888 19.0059 17.0647 18.9439 17.1406C18.8923 17.2039 18.8406 17.2798 18.7993 17.3558C18.7786 17.3937 18.758 17.4444 18.7477 17.4823C18.7373 17.5203 18.7167 17.5457 18.7167 17.5836C18.696 17.6342 18.6754 17.6976 18.665 17.7608C18.6547 17.8494 18.6443 17.938 18.6443 18.0266V21.7478L9.96753 15.5909L14.1716 12.6165L19.7186 16.5457Z" fill="#808080"/>
<path d="M26.8363 11.508L20.7523 15.8114L14.6887 11.5278V2.9082L26.8363 11.508Z" fill="#4D4D4D"/>
<path d="M13.6555 3.27515V11.5277L8.93496 14.8692L3.10913 10.743L13.6555 3.27515Z" fill="#4D4D4D"/>
<path d="M55.9341 36.8225V36.8985L52.3705 39.4299L52.3292 39.3919C52.2775 38.873 52.1639 38.3667 51.9883 37.8984L55.6862 35.2783C55.8515 35.7593 55.9341 36.291 55.9341 36.8225Z" fill="#CCCCCC"/>
<path d="M25.4177 28.0255L33.2402 33.5568L29.8728 25.8105L25.4177 22.6531V28.0255Z" fill="#4D4D4D"/>
<path d="M24.385 21.9208L21.1755 19.6462V25.0256L24.385 27.295V21.9208Z" fill="#4D4D4D"/>
<path d="M6.79866 25.3846C6.57446 25.2259 6.39694 24.8492 6.39767 24.5335C6.3984 24.2178 6.57707 24.0931 6.80128 24.2517C7.02553 24.4103 7.20301 24.787 7.20227 25.1027C7.20154 25.4185 7.02292 25.5432 6.79866 25.3846ZM6.20885 23.3489C5.39767 22.775 4.73605 23.2371 4.73341 24.3792C4.73076 25.5214 5.38809 26.9165 6.19927 27.4904C7.01045 28.0643 7.67212 27.6023 7.67476 26.4601C7.6774 25.318 7.02003 23.9228 6.20885 23.3489Z" fill="#888888"/>
<path d="M6.80108 24.2516C6.57687 24.093 6.3982 24.2177 6.39746 24.5335C6.39674 24.8492 6.57425 25.2259 6.79846 25.3845C7.02271 25.5432 7.20134 25.4184 7.20207 25.1027C7.2028 24.787 7.02533 24.4103 6.80108 24.2516Z" fill="#CCCCCC"/>
<path d="M35.8441 45.9395C35.6199 45.7809 35.4423 45.4042 35.4431 45.0884C35.4438 44.7727 35.6225 44.648 35.8467 44.8066C36.0709 44.9653 36.2484 45.3419 36.2477 45.6577C36.247 45.9734 36.0683 46.0981 35.8441 45.9395ZM35.2543 43.9038C34.4431 43.3299 33.7815 43.792 33.7788 44.9342C33.7762 46.0763 34.4335 47.4715 35.2447 48.0454C36.0559 48.6192 36.7175 48.1572 36.7202 47.0151C36.7228 45.8729 36.0654 44.4777 35.2543 43.9038Z" fill="#888888"/>
<path d="M35.8465 44.8068C35.6223 44.6482 35.4436 44.7729 35.4429 45.0886C35.4421 45.4043 35.6197 45.7811 35.8439 45.9397C36.0681 46.0983 36.2467 45.9736 36.2475 45.6579C36.2482 45.3421 36.0707 44.9655 35.8465 44.8068Z" fill="#CCCCCC"/>
<path d="M56.0581 31.7342L48.3936 23.8993L44.4581 15.8113C44.3651 15.6215 44.2412 15.4696 44.0862 15.3683L33.2506 7.69798C32.9405 7.47735 32.5637 7.47511 32.2493 7.68184C32.215 7.68918 32.1798 7.69142 32.1484 7.71065L28.8769 10.0219L14.9467 0.161364C14.6265 -0.0537881 14.2339 -0.0537881 13.9137 0.161364L0.516473 9.64174C0.433819 9.70501 0.361506 9.76828 0.299531 9.85689C0.227218 9.93283 0.175583 10.0214 0.134288 10.1226C0.0929928 10.1986 0.0619742 10.2872 0.0412951 10.3885C0.0309555 10.4138 0.0309556 10.4391 0.0309556 10.4771C0.0103395 10.5657 0 10.6543 0 10.7429V21.2484C0 21.7041 0.196262 22.1218 0.516473 22.3496L2.65468 23.8685C2.81292 23.9801 2.98693 24.0287 3.16081 24.0296C3.41022 26.2526 4.66912 28.7008 6.19773 29.7728C6.69359 30.1272 7.1687 30.2917 7.58191 30.2917C7.8298 30.2917 8.06736 30.2284 8.27396 30.1145L8.5322 29.9373L9.88769 28.975L32.2302 44.7921C32.5325 46.958 33.7622 49.2894 35.2431 50.3279C35.739 50.6823 36.2141 50.8469 36.6273 50.8469C36.8752 50.8469 37.1127 50.7836 37.3193 50.6696L37.5776 50.4924L38.9384 49.5264C38.9584 49.5427 38.9727 49.5663 38.9938 49.581L39.1384 49.6822C39.2211 49.7329 39.3037 49.7708 39.3863 49.8088L40.4399 50.1505L40.5329 50.1758L40.6259 50.2012V50.2138L43.3012 51.0998C43.3941 51.1251 43.4768 51.1378 43.5697 51.1378C43.7454 51.1378 43.9313 51.0745 44.0862 50.9732L57.4835 41.493C57.8037 41.2651 58 40.8474 58 40.3918V36.8224C58 34.8479 57.2873 32.9999 56.0581 31.7342ZM30.2505 12.0674L26.9482 14.393L26.9164 14.3703L30.2112 12.0396L30.2505 12.0674ZM30.5669 12.734V14.1449L27.2645 16.4705V15.0751L30.5669 12.734ZM26.3156 14.8426L23.2283 17.0286L23.1936 17.0039L26.2823 14.8189L26.3156 14.8426ZM26.6319 15.5092V16.9201L23.5446 19.1062V17.7108L26.6319 15.5092ZM22.912 17.7108V19.1062L21.5714 18.1515L22.5544 17.4562L22.912 17.7108ZM32.7341 10.2548L32.7786 10.2862L30.8832 11.6177L30.8453 11.591L32.7341 10.2548ZM31.1995 12.2998L33.4117 10.7342L34.1349 11.2459V11.6332L31.1995 13.6953V12.2998ZM14.6884 2.90805L26.8062 11.4867L24.6707 12.9976L20.9508 15.6333C20.9381 15.6488 20.9255 15.6798 20.9128 15.6953C20.9062 15.7036 20.8994 15.7077 20.8927 15.7118L20.752 15.8113L14.6884 11.5277V2.90805ZM14.172 12.6162L19.7191 16.5454L19.2749 16.8618C19.2335 16.8872 19.2026 16.8999 19.1612 16.9378C19.0786 16.9885 19.0063 17.0644 18.9443 17.1403C18.8927 17.2036 18.841 17.2796 18.7997 17.3555C18.779 17.3934 18.7584 17.4441 18.7481 17.482C18.7377 17.52 18.7171 17.5454 18.7171 17.5833C18.6965 17.6339 18.6758 17.6973 18.6654 17.7605C18.6551 17.8491 18.6448 17.9378 18.6448 18.0263V21.7475L9.96795 15.5906L14.172 12.6162ZM13.6555 3.27508V11.5277L8.935 14.8691L3.10917 10.7429L13.6555 3.27508ZM6.96217 27.7222C6.74522 27.7603 6.47665 27.6843 6.19773 27.4944C5.39207 26.9122 4.73097 25.5199 4.73097 24.3808C4.73097 24.0137 4.80328 23.7099 4.93757 23.4948C5.18547 23.0517 5.66064 22.9632 6.20807 23.3429C7.02414 23.9251 7.6749 25.3174 7.6749 26.4565C7.6749 27.216 7.38565 27.6716 6.96217 27.7222ZM36.0075 48.2774C35.7906 48.3154 35.522 48.2395 35.2431 48.0496C34.4375 47.4674 33.7764 46.075 33.7764 44.9359C33.7764 44.5688 33.8487 44.2651 33.983 44.0499C34.2309 43.6068 34.706 43.5183 35.2535 43.898C36.0695 44.4802 36.7203 45.8726 36.7203 47.0117C36.7203 47.7711 36.431 48.2268 36.0075 48.2774ZM55.9341 39.6576L43.4252 48.5177L41.287 47.8089V45.5053L43.3115 46.9356C43.3528 46.9736 43.4045 46.9862 43.4458 46.9988C43.4871 47.0115 43.5284 47.0242 43.5697 47.0242C43.6627 47.0242 43.7454 46.9988 43.828 46.9356L55.9341 38.3666V39.6576ZM55.9341 36.8983L53.9509 38.3033L53.6513 38.5184H53.6409L52.3601 39.4171L52.3291 39.3918C52.2774 38.8729 52.1638 38.3666 51.9883 37.8982L47.0301 41.4043C47.2057 41.8727 47.3193 42.379 47.371 42.8979L47.4123 42.9359L43.5697 45.6572L43.5284 45.6192L41.0287 43.8599C40.8738 43.7459 40.6775 43.7459 40.5122 43.8599C40.3573 43.9737 40.254 44.189 40.254 44.4041V45.3407C39.6549 42.9865 38.3017 40.7082 36.6903 39.569C35.4611 38.7083 34.2009 38.5944 33.2403 39.2779C32.5689 39.7589 32.0937 40.569 31.8768 41.6068L10.9595 26.805C10.9286 23.7419 9.23453 20.1725 7.06537 18.641C5.81549 17.7677 4.59662 17.6537 3.62565 18.3499C2.95421 18.8183 2.48937 19.6283 2.26215 20.6535L2.06589 20.5143V12.9326L19.1612 25.0385C19.4814 25.2536 19.874 25.2536 20.1942 25.0385C20.5144 24.8107 20.7106 24.3929 20.7106 23.9373V18.7604L20.9413 18.5973C20.9451 18.6008 20.9469 18.6067 20.9508 18.6101L23.0638 20.1139C23.1145 20.145 23.1777 20.1605 23.2283 20.1605C23.2789 20.1605 23.3295 20.145 23.3801 20.1139L34.6031 12.1913C34.7043 12.1138 34.7676 11.9897 34.7676 11.8503V11.6936L42.5368 17.1909L42.8157 17.3934L46.6583 25.2536C46.6686 25.3042 46.6892 25.3296 46.7099 25.3676L46.7203 25.3802C46.7616 25.4688 46.8132 25.5574 46.8752 25.6207C46.8752 25.6333 46.8855 25.646 46.8958 25.6587C46.9062 25.684 46.9268 25.6967 46.9371 25.7093L54.7359 33.6834C54.9631 33.9112 55.1594 34.1643 55.3143 34.4555C55.3866 34.5694 55.4589 34.696 55.5106 34.8352C55.5829 34.9744 55.6345 35.1263 55.6862 35.2782C55.7172 35.3668 55.7482 35.4681 55.7688 35.5567C55.7998 35.6453 55.8205 35.7339 55.8308 35.8351C55.8721 35.9997 55.8927 36.1769 55.9134 36.3668C55.9238 36.5186 55.9341 36.6705 55.9341 36.8224V36.8983Z" fill="black"/>
<path d="M26.3154 14.8424L23.2281 17.0284L21.7478 15.9741L24.8351 13.7881L26.3154 14.8424Z" fill="#F79420"/>
<path d="M30.2505 12.0675L26.9481 14.3932L25.7714 13.5559L25.4678 13.3388L28.7574 11.0132L30.2505 12.0675Z" fill="#F79420"/>
<path d="M33.8186 9.55573L30.8831 11.6178L29.3901 10.5635L32.3129 8.50146L33.8186 9.55573Z" fill="#F79420"/>
<path d="M34.1352 10.2224V11.6332L31.1997 13.6953V12.2999L34.1352 10.2224Z" fill="#F79420"/>
<path d="M30.5665 12.7339V14.1447L27.2642 16.4703V15.0749L30.5665 12.7339Z" fill="#F79420"/>
<path d="M26.6319 15.5093V16.9201L23.5447 19.1062V17.7108L26.6319 15.5093Z" fill="#F79420"/>
<path d="M22.9115 17.7108V19.1062L21.4312 18.0519V16.6565L22.9115 17.7108Z" fill="#F79420"/>
<path d="M22.1715 15.5094C22.1571 15.4556 22.1514 15.4017 22.1355 15.3481C21.619 13.5001 20.5344 11.6902 19.2639 10.7915C18.3755 10.1586 17.5698 10.0953 16.9707 10.513L16.8984 10.5763L16.1443 11.1079L15.6072 11.4876L15.5969 11.5003L15.3696 11.6521C14.9461 12.0192 14.657 12.652 14.564 13.5128L19.9543 17.3294C20.6968 16.729 21.4279 16.1075 22.1715 15.5094Z" fill="black"/>
<path d="M19.5186 20.0801C19.5398 19.7056 19.5679 19.3255 19.619 18.9516L11.7106 13.3582L10.8223 13.991L19.5138 20.1383C19.515 20.1189 19.5174 20.0996 19.5186 20.0801Z" fill="black"/>
</svg>
