<svg width="78" height="53" viewBox="0 0 78 53" fill="none" xmlns="http://www.w3.org/2000/svg">
<path opacity="0.97" d="M1.25658 10.8811L5.98847 4.7981L31.4079 19.4562L31.7428 21.8117L28.8149 24.0738L35.0514 28.0356C34.8291 28.3909 34.6077 28.7469 34.3657 29.0893L27.6423 24.8182L27.2826 25.0465C24.5146 25.7999 21.4221 25.7054 18.8146 24.3598C17.834 23.8538 16.9093 23.2317 15.9707 22.6358C14.6736 21.8123 13.3765 20.9888 12.0794 20.1654C10.4623 19.1387 8.84521 18.1121 7.22809 17.0854C5.87816 16.2284 4.52822 15.3713 3.17828 14.5143C2.67703 14.1961 2.17577 13.8778 1.67452 13.5596C0.803715 13.0068 0.603113 11.7211 1.25658 10.8811Z" fill="#888888"/>
<path d="M25.8931 20.4005V21.82C25.8931 21.9263 25.9552 22.0325 26.045 22.0781L30.3004 24.1277L30.6665 24.3099C30.7011 24.3251 30.7356 24.3327 30.7701 24.3327C30.8738 24.3327 30.9635 24.2643 31.0119 24.1581C31.0672 24.0139 31.005 23.8468 30.8738 23.7861L29.9895 23.361L26.4112 21.6302V20.8407L29.6994 22.4273L30.1415 22.6398C30.2727 22.7006 30.4247 22.6398 30.48 22.4956C30.5421 22.3514 30.48 22.1844 30.3487 22.1161L30.252 22.0705L26.7704 20.3929H26.7635L26.2523 20.1423C26.197 20.112 26.1348 20.112 26.0796 20.1271L26.0381 20.1499C25.9483 20.1955 25.8931 20.2942 25.8931 20.4005Z" fill="black"/>
<path d="M25.8931 20.3999C25.8931 20.4455 25.9 20.4834 25.9207 20.529C25.976 20.6656 26.1348 20.7263 26.2661 20.658L26.7635 20.3923H26.7704L26.9224 20.3088L30.4178 21.994L30.8738 22.2142C30.9083 22.2294 30.9428 22.237 30.9774 22.237C31.081 22.237 31.1708 22.1762 31.2192 22.0699C31.2744 21.9258 31.2122 21.7587 31.081 21.698L31.0533 21.6828L27.0191 19.7319C26.95 19.7015 26.874 19.7015 26.8049 19.7395L26.0796 20.1266L26.0381 20.1494C25.9483 20.1949 25.8931 20.2936 25.8931 20.3999Z" fill="black"/>
<path d="M26.4111 20.8408V21.6303L29.9895 23.3611L29.6994 22.4274L26.4111 20.8408Z" fill="#8797C6"/>
<path d="M26.7705 20.3928L30.2521 22.0704L30.4179 21.9945L26.9225 20.3093L26.7705 20.3928Z" fill="#8797C6"/>
<path d="M29.6782 22.3511L29.699 22.427L29.9891 23.3607L30.2032 24.0591L30.3 24.1274L30.7835 24.507L31.3431 24.3475V26.8527C31.3431 27.0121 31.3914 27.1563 31.4743 27.2854C31.5227 27.3765 31.5987 27.4524 31.6885 27.5055L33.4915 28.6518L34.203 29.1072C34.279 29.1528 34.3688 29.1832 34.4586 29.1907C34.2652 29.5551 34.1477 30.0106 34.1477 30.5799C34.1408 32.5537 35.3981 34.9449 36.9593 35.9317C37.7261 36.4176 38.4169 36.4707 38.9281 36.1746C38.9281 36.1746 38.9281 36.1746 38.9281 36.1822C38.9419 36.1746 38.9488 36.167 38.9557 36.167C38.9626 36.1595 38.9695 36.1595 38.9695 36.1519C39.4531 35.8482 39.9435 35.537 40.4271 35.2333C40.7173 35.0512 41.035 34.8993 41.2284 34.5805C41.3804 34.33 41.4564 34.0188 41.4702 33.7151L44.8552 35.8634C44.8621 35.8634 44.8621 35.8634 44.8621 35.871L49.5319 38.8316C49.5526 38.8468 49.5802 38.8771 49.6079 38.8923L54.2639 41.8529C54.4435 41.9591 54.6507 41.9819 54.8372 41.906C54.9547 41.868 55.0445 41.7845 55.1205 41.6859L55.6869 41.3291L56.0599 41.5644L55.7215 41.7769C55.231 42.111 54.9339 42.7866 54.927 43.7507C54.9201 45.7244 56.1774 48.1156 57.7386 49.1025C58.4708 49.5731 59.1409 49.6414 59.6452 49.3909C59.6936 49.3605 59.735 49.3378 59.7834 49.3074L62.0354 47.8803V48.9658C62.0285 49.0114 62.0216 49.0569 62.0216 49.0949C62.0216 49.2998 62.0975 49.4896 62.2357 49.6414C62.2772 49.6794 62.3117 49.725 62.36 49.7629L64.9436 51.395C65.4549 51.7214 66.0351 51.8808 66.6085 51.8808C67.1819 51.8808 67.7621 51.7214 68.2733 51.395L76.9981 45.861L77.1847 45.7396C77.5577 45.5042 77.8133 45.1322 77.9238 44.6996C77.9238 44.692 77.9238 44.6844 77.9307 44.6768V44.6692C77.9584 44.5857 77.9791 44.4946 77.9791 44.3959V42.1945C77.9791 42.1717 77.9722 42.1489 77.9722 42.1262C77.9791 42.0351 77.9998 41.9515 77.9998 41.8604C77.9998 41.2304 77.7028 40.6686 77.2054 40.3498L76.0103 39.5983V38.323C76.0103 37.9131 75.9412 37.5183 75.7961 37.1387C75.6096 36.5921 75.2642 36.0987 74.8083 35.7419L68.9918 31.0885L65.6483 23.5353C65.593 23.3986 65.4963 23.2848 65.372 23.2089L59.8524 19.7169C59.3136 19.3602 58.6367 19.3677 58.084 19.7245L58.0356 19.7549C58.0356 19.7397 58.0425 19.7321 58.0425 19.7169V18.4872C58.0425 18.4416 58.0287 18.3961 58.008 18.3581C58.008 18.3429 58.0011 18.3353 57.9942 18.3277C57.9735 18.305 57.9596 18.2822 57.932 18.2594L57.9113 18.2366L56.4882 17.3333C56.4053 17.2801 56.3086 17.2801 56.2257 17.3333L53.3796 19.14C53.3727 19.14 53.3727 19.14 53.3727 19.14L52.8339 19.4816C52.7925 19.4285 52.7372 19.3753 52.675 19.3298L50.2848 17.8115C50.0707 17.6825 49.8082 17.6825 49.594 17.8115L47.646 19.0413C47.6322 19.0565 47.6184 19.0717 47.6045 19.0793C47.5838 19.0944 47.57 19.1096 47.5562 19.1248C47.4249 19.2387 47.342 19.3981 47.3144 19.5727C47.3144 19.5955 47.3075 19.6182 47.3075 19.641C47.3075 19.6638 47.3006 19.679 47.3006 19.7017C47.3006 19.7701 47.3075 19.8308 47.3213 19.8915L42.838 15.352C42.9624 15.2154 43.0245 15.018 42.9762 14.8206C42.914 14.5094 42.6308 14.3272 42.3545 14.4031L41.9883 14.4942L37.9402 10.4025C37.8573 10.319 37.733 10.3038 37.6363 10.3646L37.3599 10.5392C37.353 10.5316 37.3599 10.5164 37.3461 10.5088L36.8902 10.0609C36.9247 10.0154 36.9455 9.96985 36.9524 9.91671C36.9593 9.82562 36.9247 9.73448 36.8626 9.67379L35.3152 8.14795C35.1079 7.94297 34.804 7.91262 34.5622 8.06445L33.8507 8.51991C33.6987 8.6186 33.6089 8.77043 33.5674 8.95261C33.5536 8.97536 33.5467 9.00576 33.5398 9.0437C33.5398 9.0437 33.5329 9.0513 33.5329 9.0589V10.7214C33.5329 10.7897 33.5536 10.858 33.5951 10.9036L34.4655 12.0346C34.6451 12.27 34.9007 12.3914 35.1563 12.3914H35.1632C35.3359 12.3611 35.5639 12.2396 35.5639 12.2396L35.6813 12.3459L35.8471 12.5053C35.8125 12.6116 35.8402 12.733 35.9162 12.809L37.5603 14.479L40.4409 17.3864L41.4564 18.4188L40.8485 18.0317C40.6482 17.9026 40.3995 17.9026 40.1992 18.0241L39.5981 18.4037C39.4876 18.3581 39.3771 18.3353 39.2804 18.3353C39.1353 18.3353 39.004 18.3809 38.8935 18.4568L38.2649 18.8515L37.8849 18.6466C37.8228 18.6086 37.7468 18.601 37.6777 18.6314L35.1356 19.6942C35.1356 19.7017 35.1356 19.7017 35.1287 19.7017C35.1287 19.7017 35.1287 19.7017 35.1217 19.7017L31.0529 21.6831L30.4174 21.9943L30.2516 22.0702L29.6782 22.3511Z" fill="black"/>
<path d="M38.2836 32.7487C38.2904 32.7563 38.2904 32.7563 38.2904 32.7639C38.2904 32.7563 38.2904 32.7563 38.2904 32.7487C38.2836 32.7335 38.2836 32.726 38.2836 32.7108C38.2836 32.7032 38.2769 32.6956 38.2769 32.688C38.2769 32.7108 38.2769 32.726 38.2836 32.7487Z" fill="#888888"/>
<path d="M38.2137 32.445C38.2205 32.4526 38.2272 32.4678 38.2272 32.4754C38.2272 32.4678 38.2272 32.4526 38.2205 32.445C38.207 32.3995 38.1935 32.3539 38.1733 32.3083C38.1868 32.3539 38.2003 32.3995 38.2137 32.445Z" fill="#888888"/>
<path d="M30.3318 28.3078L33.1987 30.1221L31.1539 31.4202C30.8499 31.6175 30.8499 32.0882 31.1539 32.2856L36.9428 35.9597L57.7152 49.1304V49.138L62.6545 52.2656C64.195 53.2449 66.1016 53.2449 67.642 52.2656L76.5396 46.6178C76.8159 46.4507 76.9679 46.1623 76.9955 45.8586L68.2707 51.3926C67.7595 51.719 67.1792 51.8785 66.6058 51.8785C66.0325 51.8785 65.4522 51.719 64.941 51.3926L62.3574 49.7605C62.3091 49.7225 62.2745 49.677 62.2331 49.639C62.0949 49.4872 62.0189 49.2974 62.0189 49.0925C62.0189 49.0545 62.0258 49.009 62.0327 48.9634V47.8779L59.7807 49.305C59.7324 49.3354 59.6909 49.3582 59.6425 49.3885C59.1383 49.639 58.4682 49.5708 57.736 49.1001C56.1748 48.1132 54.9175 45.722 54.9244 43.7483C54.9313 42.7842 55.2284 42.1086 55.7188 41.7746L56.0573 41.562L55.6843 41.3267L55.1178 41.6835C55.0418 41.7822 54.952 41.8657 54.8346 41.9036C54.6481 41.9796 54.4408 41.9568 54.2612 41.8505L49.6052 38.8899C49.5776 38.8747 49.5499 38.8444 49.5292 38.8292L44.8594 35.8686C44.8594 35.861 44.8594 35.861 44.8525 35.861L41.4676 33.7127C41.4538 34.0163 41.3778 34.3276 41.2258 34.5781C41.0324 34.897 40.7146 35.0488 40.4245 35.231C39.9409 35.5346 39.4504 35.8459 38.9669 36.1495C38.9669 36.1571 38.9599 36.1571 38.9531 36.1647C38.9462 36.1647 38.9392 36.1723 38.9254 36.1799C38.9254 36.1723 38.9254 36.1723 38.9254 36.1723C38.4142 36.4683 37.7234 36.4152 36.9566 35.9293C35.3954 34.9425 34.1382 32.5513 34.1451 30.5776C34.1451 30.0082 34.2625 29.5528 34.4559 29.1884C34.3661 29.1808 34.2763 29.1504 34.2004 29.1049L33.4888 28.6494L31.6858 27.5031C31.596 27.45 31.52 27.374 31.4717 27.283C31.4233 27.2678 31.368 27.2754 31.3266 27.3058L30.3318 27.9358C30.2006 28.0193 30.2006 28.2243 30.3318 28.3078Z" fill="#888888"/>
<path d="M34.1885 27.3368L34.6375 27.6253C34.7411 27.4735 34.824 27.4127 34.9553 27.3292C35.1487 27.2078 35.349 27.147 35.5563 27.147C35.7566 27.147 35.9569 27.2078 36.1435 27.3292L38.7823 28.9993C39.5284 29.4775 40.0741 30.2898 40.2744 31.2083L40.8616 31.5727C40.7304 30.2974 40.0603 29.1587 39.0448 28.5059L36.406 26.8358C35.874 26.4942 35.2385 26.4942 34.7066 26.8358C34.4993 26.9648 34.3266 27.1395 34.1885 27.3368Z" fill="#3751A0"/>
<path d="M32.731 25.0898V26.4107L34.1885 27.3368C34.3267 27.1395 34.4994 26.9648 34.7066 26.8358C35.2386 26.4942 35.8741 26.4942 36.406 26.8358L39.0449 28.5059C40.0604 29.1587 40.7305 30.2974 40.8617 31.5727L44.516 33.888V31.6259L36.33 26.4335L32.731 25.0898Z" fill="#CCCCCC"/>
<path d="M32.731 25.0898V26.4107L34.1885 27.3368C34.3267 27.1395 34.4994 26.9648 34.7066 26.8358C35.2386 26.4942 35.8741 26.4942 36.406 26.8358L39.0449 28.5059C40.0604 29.1587 40.7305 30.2974 40.8617 31.5727L44.516 33.888V31.6259L36.33 26.4335L32.731 25.0898Z" fill="#1D7070"/>
<path d="M45.894 30.6306V31.1772C45.894 31.1848 45.9009 31.1848 45.9009 31.1924V34.7678L49.2651 36.901V32.7637L45.894 30.6306Z" fill="#1D7070"/>
<path d="M50.6465 26.1973V37.7966L54.3285 40.1271C54.5979 39.7172 54.9847 39.3984 55.4338 39.2238C56.0693 38.9733 56.7739 39.0492 57.3611 39.4212L61.2918 41.9187C62.1553 42.4652 62.7977 43.0725 63.1155 44.196L66.2932 46.2077L66.3001 46.2001V44.2871C66.3001 43.9075 66.2172 43.5356 66.0583 43.2092C65.9063 42.86 65.6783 42.5639 65.3882 42.3286L59.4197 37.5537L56.9052 31.8603L56.3456 30.5926L56.0071 29.8335L50.6465 26.1973ZM51.6758 28.7251L54.8949 30.7596L57.3611 36.8553L51.6758 33.2495V28.7251Z" fill="#1D7070"/>
<path d="M50.6465 26.167V26.1974L56.0071 29.8336L56.3456 30.5927L56.9052 31.8604L59.4197 37.5538L65.3882 42.3287C65.6783 42.564 65.9063 42.8601 66.0583 43.2093L74.5552 37.8195C74.5483 37.7815 74.5275 37.736 74.5137 37.6981C74.417 37.4096 74.2374 37.1515 74.0025 36.9693L68.0409 32.202C67.9511 32.1261 67.8751 32.035 67.8268 31.9212L64.8563 25.2029L64.504 24.4059L59.1572 21.0202C59.0467 20.9519 58.9085 20.9519 58.7841 21.0354L50.6465 26.167ZM56.691 30.4105L64.5938 25.3472L67.5919 32.1337L59.6753 37.1515L56.691 30.4105Z" fill="#35FFFF"/>
<path d="M35.8608 20.0013L36.0059 20.0848L36.6829 19.6521L35.8608 20.0013Z" fill="#8797C6"/>
<path d="M33.6504 23.8275L36.835 25.0193C36.8765 25.0345 36.9179 25.0572 36.9524 25.08L44.5098 29.8777V29.5133L42.1335 27.995C41.8709 27.8356 41.7397 27.5016 41.8018 27.1752L42.0436 25.9758C42.0229 25.9682 42.0022 25.9758 41.9884 25.9606L41.8779 25.8999L41.3598 26.2263L41.2147 26.3174C40.9591 26.4464 40.6206 26.4085 40.2545 26.1732C39.6535 25.7936 39.1423 25.0193 38.9281 24.2298L38.2097 23.8199L37.8436 24.0552L37.6985 24.1463C37.4429 24.2754 37.1044 24.2374 36.7383 24.0021C36.2686 23.7136 35.8679 23.1746 35.6054 22.5901L33.6504 23.8275Z" fill="#3751A0"/>
<path d="M36.9663 19.5386C37.1943 19.5007 37.4568 19.5614 37.74 19.7435C38.3687 20.1459 38.9006 20.9961 39.094 21.8311L39.6743 22.1576L40.2891 21.7704C40.5447 21.6413 40.8832 21.6717 41.2562 21.9071C41.795 22.2562 42.2648 22.9318 42.5066 23.653L42.7552 22.4308V22.4233C42.776 22.317 42.8243 22.2259 42.8796 22.1424C42.8865 22.1272 42.9003 22.112 42.9072 22.1044C42.9279 22.074 42.9487 22.0513 42.9763 22.0285L37.7538 19.2046L36.9663 19.5386Z" fill="#8797C6"/>
<path d="M40.854 19.6843C40.9645 19.8817 41.0474 20.0942 41.1027 20.3068L41.4688 20.079L40.854 19.6843Z" fill="#3751A0"/>
<path d="M30.479 22.5293L30.783 23.463L30.9211 23.4174L35.211 21.588C35.2455 21.5728 35.287 21.5728 35.3215 21.5728C35.3146 21.4741 35.3008 21.3754 35.3008 21.2767C35.3008 20.9199 35.3837 20.6391 35.5218 20.4493L35.2179 20.2747L30.479 22.5293Z" fill="#8797C6"/>
<path d="M34.0508 9.95044V10.1098L34.8867 10.9525L34.9212 10.8082L34.0508 9.95044Z" fill="#8797C6"/>
<path d="M34.0502 9.11586C34.0433 9.13866 34.0502 9.1842 34.0916 9.22975L35.1209 10.2394C35.1278 10.2318 35.1417 10.2242 35.1555 10.2166L36.0535 9.63966L34.969 8.56932C34.9275 8.53137 34.8722 8.52377 34.8239 8.55412L34.1124 9.00962C34.064 9.03997 34.0502 9.08551 34.0502 9.11586Z" fill="#8797C6"/>
<path d="M35.3496 11.2485L36.0266 11.9165L36.1095 11.6661L35.4463 11.0132L35.4118 11.0284C35.4118 11.0284 35.4049 11.0284 35.4049 11.036L35.3496 11.2485Z" fill="#8797C6"/>
<path d="M35.916 10.7098L36.3788 11.1577L36.5792 11.0287L36.0887 10.5959L35.916 10.7098Z" fill="#8797C6"/>
<path d="M37.5049 11.1044L40.199 13.4501L37.7329 10.9602L37.5049 11.1044Z" fill="#8797C6"/>
<path d="M36.8906 11.4917L40.7177 15.3632L41.1183 14.9837L37.0219 11.4082L36.8906 11.4917Z" fill="#8797C6"/>
<path d="M36.3862 12.509L40.1856 16.3502L40.3998 15.8188L36.5728 11.9397L36.3862 12.509Z" fill="#8797C6"/>
<path d="M40.9795 17.1547L44.696 20.9123L45.0552 20.6846C45.0898 20.6618 45.1243 20.6542 45.1589 20.639L41.2075 16.6309L41.0279 17.0712C41.0141 17.1015 40.9933 17.1243 40.9795 17.1547Z" fill="#8797C6"/>
<path d="M44.4819 17.7922L48.1018 21.7852L48.309 21.6561L44.4819 17.7922Z" fill="#8797C6"/>
<path d="M41.4844 16.1376L46.3545 21.0719L47.2318 21.6261L41.8988 15.7429L41.4844 16.1376Z" fill="#8797C6"/>
<path d="M48.0259 20.6008L48.7789 21.3599L48.9999 21.2157L48.0259 20.6008Z" fill="#003366"/>
<path d="M49.3726 19.6978L50.3811 20.3355L50.9407 19.9863L49.939 19.3411L49.3726 19.6978Z" fill="#8797C6"/>
<path d="M44.8066 22.5976L45.8152 23.2352L46.3163 22.9227L45.2902 22.2939L44.8066 22.5976Z" fill="#8797C6"/>
<path d="M43.2593 26.9622L45.1244 28.1465V24.5482L43.8948 23.7739L43.2593 26.9622Z" fill="#8797C6"/>
<path d="M46.5059 24.5562V26.8183L47.4592 24.7535L47.3417 24.6852C47.2658 24.6321 47.2174 24.541 47.2174 24.4347V24.2373L47.1345 24.1538L46.5059 24.5562Z" fill="#8797C6"/>
<path d="M46.5483 29.2932L49.2632 31.0088V29.1869L48.1993 29.8625C48.1579 29.8853 48.1164 29.9004 48.0681 29.9004C48.0612 29.9004 48.0612 29.8928 48.0543 29.8928C48.0474 29.8928 48.0405 29.9004 48.0335 29.9004C47.9852 29.9004 47.9437 29.8853 47.9023 29.8625L46.7694 29.1489L46.5483 29.2932Z" fill="#3751A0"/>
<path d="M48.4609 29.0346L49.2623 28.5259V26.1423L48.4609 29.0346Z" fill="#3751A0"/>
<path d="M46.5059 28.0782V28.3212L47.8737 29.1941L48.8615 25.6187C48.8339 25.6187 48.8062 25.6111 48.7855 25.5959C48.7855 25.5959 48.7786 25.5959 48.7717 25.5959L47.9082 25.0417L46.5059 28.0782Z" fill="#3751A0"/>
<path d="M55.1895 20.4571V21.0264L57.5244 19.5461V18.9768L55.1895 20.4571Z" fill="#F79420"/>
<path d="M51.9629 22.5064V23.0758L54.6708 21.3601V20.7832L51.9629 22.5064Z" fill="#F79420"/>
<path d="M47.7354 23.7058V24.2752L48.6472 24.8521V24.2827L47.7354 23.7058Z" fill="#F79420"/>
<path d="M49.1655 24.2832V24.8525L51.4452 23.4102V22.8333L49.1655 24.2832Z" fill="#F79420"/>
<path d="M47.9917 23.2126L48.9036 23.7895L51.1832 22.3396L50.2783 21.7627L47.9917 23.2126Z" fill="#F79420"/>
<path d="M50.7964 21.4361L51.7013 22.013L54.4162 20.2898L53.5043 19.7129L50.7964 21.4361Z" fill="#F79420"/>
<path d="M54.022 19.3868L54.1601 19.4703L54.9338 19.9637L57.2687 18.4834L56.3569 17.9065L54.022 19.3868Z" fill="#F79420"/>
<path d="M63.417 48.0505V48.673L65.6344 50.0774C66.2355 50.4569 66.9815 50.4569 67.5825 50.0774L76.4939 44.4219C76.5906 44.3612 76.5975 44.2701 76.5975 44.2246V43.7539L68.2941 49.0298C67.776 49.3562 67.2026 49.5156 66.6292 49.5156C66.0489 49.5156 65.4756 49.3562 64.9644 49.0298L63.417 48.0505Z" fill="#BABABA"/>
<path d="M64.1143 46.7301L65.6547 47.717C66.2557 48.0965 67.0018 48.0965 67.6028 47.7094L76.5141 42.0539C76.6039 42.0008 76.6178 41.9097 76.6178 41.8565C76.6178 41.811 76.6039 41.7199 76.5141 41.6592L75.9822 41.3252C75.9408 41.515 75.8302 41.6744 75.6783 41.7806L66.6495 47.7397C66.6495 47.7397 66.6495 47.7397 66.6426 47.7473C66.608 47.7701 66.5735 47.7777 66.5321 47.7929C66.5113 47.8005 66.4975 47.8157 66.4768 47.8233C66.4284 47.8384 66.387 47.8384 66.3386 47.8384C66.3248 47.846 66.311 47.846 66.2972 47.846C66.2696 47.846 66.2488 47.8384 66.2212 47.8384C66.1867 47.8308 66.1521 47.8308 66.1245 47.8233C66.1038 47.8157 66.0899 47.8081 66.0761 47.8005C66.0347 47.7853 65.9932 47.7701 65.9587 47.7473C65.9518 47.7473 65.9518 47.7473 65.9518 47.7473L64.2317 46.6542L64.1143 46.7301Z" fill="#BABABA"/>
<path d="M66.0581 43.2094C66.217 43.5358 66.2999 43.9077 66.2999 44.2873V46.2003L74.6309 40.6967V38.3206C74.6309 38.1536 74.6102 37.9866 74.555 37.8196L66.0581 43.2094Z" fill="#CCCCCC"/>
<path d="M51.6758 28.7251V33.2495L57.3611 36.8553L54.8949 30.7595L51.6758 28.7251Z" fill="#797979"/>
<path d="M56.6919 30.4105L59.6762 37.1515L67.5928 32.1337L64.5947 25.3472L56.6919 30.4105Z" fill="#B3B3B3"/>
<path d="M57.7584 43.8155C58.5126 44.294 59.1237 45.4571 59.1212 46.4094C59.1188 47.3617 58.5037 47.7469 57.7495 47.2684C56.9953 46.7899 56.3843 45.6268 56.3867 44.6745C56.3892 43.7222 57.0042 43.337 57.7584 43.8155Z" fill="#999999"/>
<path d="M57.2251 43.8338C57.5183 44.0198 57.7558 44.472 57.7549 44.8422C57.7539 45.2123 57.5148 45.3621 57.2216 45.1761C56.9285 44.9901 56.6909 44.5379 56.6919 44.1678C56.6929 43.7976 56.9319 43.6478 57.2251 43.8338Z" fill="#BABABA"/>
<path d="M36.9782 30.6431C37.7324 31.1216 38.3434 32.2847 38.341 33.2371C38.3385 34.1894 37.7235 34.5746 36.9693 34.0961C36.2151 33.6176 35.604 32.4545 35.6065 31.5021C35.6089 30.5498 36.224 30.1646 36.9782 30.6431Z" fill="#999999"/>
<path d="M36.7411 21.3125C37.1252 21.5562 37.4364 22.1485 37.4352 22.6336C37.4339 23.1186 37.1207 23.3148 36.7366 23.0711C36.3524 22.8274 36.0412 22.235 36.0425 21.75C36.0437 21.265 36.357 21.0688 36.7411 21.3125Z" fill="#999999"/>
<path d="M40.2596 23.4827C40.6438 23.7264 40.955 24.3187 40.9537 24.8037C40.9525 25.2888 40.6392 25.4849 40.2551 25.2412C39.871 24.9975 39.5598 24.4052 39.561 23.9202C39.5623 23.4351 39.8755 23.239 40.2596 23.4827Z" fill="#999999"/>
<path d="M73.5302 38.8658C73.0401 39.1768 72.6429 39.9327 72.6445 40.5516C72.6461 41.1706 73.0459 41.4209 73.536 41.1099C74.0262 40.7989 74.4233 40.043 74.4217 39.4241C74.4201 38.8052 74.0204 38.5548 73.5302 38.8658Z" fill="white"/>
<path d="M67.518 42.8639C67.0279 43.1748 66.6307 43.9307 66.6323 44.5497C66.6339 45.1686 67.0337 45.4189 67.5238 45.1079C68.014 44.797 68.4111 44.0411 68.4095 43.4221C68.4079 42.8032 68.0082 42.5529 67.518 42.8639Z" fill="white"/>
<path d="M36.4434 30.6534C36.7365 30.8394 36.9741 31.2915 36.9731 31.6617C36.9722 32.0319 36.7331 32.1817 36.4399 31.9956C36.1467 31.8096 35.9092 31.3575 35.9102 30.9873C35.9111 30.6171 36.1502 30.4674 36.4434 30.6534Z" fill="#BABABA"/>
<path d="M29.72 21.8425C34.6146 21.5698 34.9432 14.4195 35.0511 12.0694L34.7064 12.0496C34.5256 15.9766 33.8108 21.2239 29.7031 21.4525L29.72 21.8425Z" fill="black"/>
<path d="M0.00520077 7.63044C0.0058609 7.64562 0.318467 9.11042 0.37545 9.78459C0.413617 10.3453 0.509079 10.7908 0.684761 11.1735C0.738724 11.3012 0.866036 11.3664 0.989064 11.3329L1.34436 11.233C1.34172 11.1723 1.3325 11.1194 1.3302 11.0663L1.3269 10.9905C1.30022 10.3763 1.46007 9.91684 1.76041 9.66642C1.80055 9.63507 1.84068 9.60372 1.89459 9.57198L2.31764 9.28054C2.47755 9.29934 2.64499 9.33309 2.82824 9.412C2.91311 9.45542 3.00523 9.50626 3.09768 9.56468C4.25434 10.2417 5.27331 11.8862 5.46976 13.3843C5.49347 13.6114 5.50237 13.8161 5.49678 14.006C5.49056 14.0214 5.50501 14.0362 5.50567 14.0514C5.50764 14.0968 5.50337 14.1577 5.4988 14.2109C5.49255 14.3857 5.48103 14.5985 5.46856 14.7886C5.46 14.9103 5.52022 15.0226 5.61925 15.0732C5.6903 15.117 7.38918 16.0158 8.43565 16.3843C9.42618 16.7391 12.0159 17.9269 12.1715 18.0065C13.2249 18.6936 14.5416 19.5488 15.8295 20.382C15.9147 20.433 16.0252 20.4302 16.1058 20.3751C16.193 20.3122 16.2295 20.1974 16.2111 20.0916L16.193 19.9934L16.191 19.9479C16.1835 19.9329 16.1828 19.9177 16.1825 19.9101C16.1486 19.6073 16.1574 19.3338 16.189 19.1053L16.1887 19.0978C16.1946 19.0748 16.1936 19.0521 16.1999 19.0367C16.2278 18.8842 16.2771 18.7463 16.3344 18.6311C16.3916 18.5158 16.4636 18.4229 16.5505 18.3524C16.8173 18.1256 17.2245 18.1078 17.6828 18.3089C17.7677 18.3523 17.8526 18.3957 17.9378 18.4468C19.0096 19.0803 19.9614 20.6127 20.1464 22.0048C20.1892 22.3528 20.1816 22.6567 20.1234 22.9086C20.1175 22.9315 20.1119 22.962 20.1125 22.9772C20.1109 23.0987 20.1853 23.2183 20.2974 23.2534C20.8544 23.4976 22.6161 24.2506 22.9701 24.2797C23.0188 24.2861 23.1227 24.2911 23.254 24.2878C24.0623 24.2676 26.1305 24.1171 26.7552 24.0104L26.7967 24.0094C26.8309 24.0009 26.8585 24.0003 26.872 23.9923C27.4128 23.865 29.1784 22.9555 29.8892 22.4443L30.1168 22.2716C30.8409 21.7449 31.7458 21.0846 32.1455 20.4142C32.5961 19.6439 32.4526 17.932 32.4305 17.7427C32.4292 17.7124 32.421 17.6822 32.4127 17.6521C32.4891 17.4984 32.5315 17.3607 32.5328 17.2316C32.5555 16.7984 32.3959 15.9901 32.3531 15.8014C32.2909 15.4842 30.3847 12.8371 29.6207 11.9681C28.8055 11.032 27.5406 10.2514 26.4086 9.98373C25.493 9.76371 25.0058 9.53298 24.9986 9.52557C24.9986 9.52557 24.9841 9.51073 24.9627 9.49611C25.0048 9.19141 25.0794 8.68098 25.0889 8.26325C25.1027 7.78468 24.9372 7.15877 24.6671 6.99095C24.5605 6.92528 24.45 6.92805 24.3427 7.00667C24.0477 7.21897 23.7997 7.71859 23.828 8.05188C23.856 8.37757 23.9504 8.4815 24.1501 8.62073C24.2001 8.65742 24.2195 8.78597 24.2185 8.92262C23.3309 8.23128 21.8929 7.12862 21.1215 6.56345C19.9864 5.74922 17.124 4.33304 16.7355 4.14539C16.4969 3.90844 15.1027 2.53903 13.8874 1.62812C12.3708 0.466738 9.36361 0.0181721 9.32907 0.0190365C8.69643 -0.0562285 7.22956 0.08669 6.21175 0.537226C5.22852 0.986897 1.97645 3.33791 1.83568 3.44012C0.350484 5.23073 0.434765 6.37479 0.465067 6.75358C0.464412 6.89782 0.275575 7.16825 0.0831539 7.35523C0.0170522 7.42522 -0.0129123 7.53221 0.00520077 7.63044ZM24.2399 8.45906C24.076 8.34928 24.0185 8.29758 24.0003 8.03997C23.975 7.77494 24.1984 7.34423 24.4464 7.16345C24.4931 7.12434 24.5345 7.1233 24.5842 7.1524C24.7691 7.26926 24.9307 7.80414 24.9156 8.25239C24.9107 8.61686 24.8472 9.06632 24.8051 9.37098C24.6979 9.29017 24.5617 9.17975 24.3902 9.05496C24.4097 8.8647 24.4037 8.56884 24.2399 8.45906Z" fill="black"/>
<path d="M16.1552 19.6072L16.1585 19.6831C16.1618 19.7589 16.172 19.8345 16.1822 19.9102C16.1825 19.9178 16.1832 19.9329 16.1908 19.9479C16.3714 21.2415 17.2551 22.6388 18.2418 23.2214C18.3197 23.265 18.3974 23.301 18.4754 23.3446C18.8912 23.524 19.2511 23.5302 19.528 23.379C19.6024 23.3392 19.6698 23.2996 19.7228 23.2451L20.1123 22.9773C20.1116 22.9621 20.1172 22.9316 20.1231 22.9087C20.1813 22.6567 20.1889 22.3529 20.1461 22.0048C19.9611 20.6127 19.0093 19.0804 17.9375 18.4468C17.8523 18.3958 17.7674 18.3524 17.6825 18.309C17.2242 18.1079 16.817 18.1257 16.5502 18.3524C16.3768 18.501 16.2555 18.7318 16.1996 19.0368C16.1585 19.2049 16.146 19.3949 16.1552 19.6072Z" fill="#1A1A1A"/>
<path d="M18.2157 22.3685C18.0564 22.2741 17.9011 22.1437 17.7545 21.9927L18.2066 21.2749L18.9139 22.5087C18.7549 22.5501 18.5696 22.5372 18.3595 22.443C18.3113 22.4217 18.2633 22.3967 18.2157 22.3685ZM17.6795 21.914C17.6058 21.8315 17.5357 21.7435 17.4694 21.6511L17.7782 21.0591C17.8315 20.9612 17.9139 20.9226 17.979 20.9611C17.9921 20.9689 18.0045 20.9798 18.0159 20.994C18.0851 21.0806 18.0832 21.2416 18.0168 21.356L17.6795 21.914ZM18.9749 22.4898L18.4385 21.5403C18.3343 21.3534 18.2842 21.1691 18.3386 21.1387C18.3534 21.1302 18.3737 21.1341 18.3974 21.1481C18.4607 21.1857 18.5487 21.2955 18.6235 21.4336L19.1394 22.3928C19.0894 22.4343 19.0351 22.4676 18.9749 22.4898ZM18.072 20.9862C18.0616 20.98 18.0512 20.9713 18.0415 20.9599C18.022 20.936 18.0117 20.91 18.0084 20.8872C18.0015 20.8688 18.0006 20.8465 18.0086 20.8351C18.0194 20.818 18.0404 20.8151 18.0627 20.8283C18.0719 20.8338 18.0814 20.842 18.0905 20.8533L18.0961 20.8585L18.0986 20.8628C18.1295 20.9011 18.1409 20.9524 18.1258 20.9795C18.1178 20.9908 18.1071 20.995 18.0923 20.9919L18.0932 20.9953C18.0862 20.9934 18.0791 20.9904 18.072 20.9862ZM18.2623 21.0698C18.2595 21.0681 18.2566 21.0661 18.2537 21.0637C18.2386 21.0539 18.2247 21.0352 18.2122 21.0145C18.1905 20.9742 18.1895 20.9309 18.208 20.9115L18.2116 20.9041L18.2138 20.9026L18.2162 20.9031C18.2263 20.8988 18.2385 20.9012 18.2511 20.9087C18.2689 20.9192 18.2876 20.9399 18.3022 20.9664C18.3139 20.9865 18.3208 21.0049 18.3208 21.0229C18.324 21.0466 18.317 21.0643 18.3043 21.0738C18.2915 21.079 18.2774 21.0787 18.2623 21.0698ZM17.3999 21.5587C17.1284 21.1541 16.9302 20.6744 16.8689 20.2141C16.8575 20.1238 16.8556 20.0402 16.8546 19.957L17.7967 20.7741L17.3999 21.5587ZM17.9817 20.7237C17.9767 20.7208 17.9716 20.7171 17.9665 20.7125C17.9505 20.6992 17.9366 20.6805 17.9275 20.6647C17.9149 20.6401 17.9091 20.613 17.9138 20.594C17.9152 20.573 17.9279 20.5606 17.9416 20.5573C17.9525 20.5579 17.9639 20.5599 17.9756 20.5668C17.9789 20.5688 17.9822 20.5711 17.9856 20.5739C18.0176 20.6004 18.0405 20.651 18.0382 20.6895L18.0391 20.6929L18.0394 20.6987L18.0403 20.7021C18.0342 20.7308 18.01 20.7405 17.9817 20.7237ZM18.2864 20.8566C18.2644 20.8435 18.2426 20.8156 18.2283 20.7831L18.2257 20.7759C18.2099 20.7295 18.2238 20.6922 18.2539 20.6911C18.2617 20.6909 18.2698 20.6939 18.2783 20.699C18.2849 20.7029 18.2918 20.7081 18.2989 20.7139C18.315 20.7301 18.3298 20.7522 18.3401 20.7782C18.349 20.8062 18.3492 20.8311 18.3421 20.8468C18.3372 20.859 18.3282 20.8641 18.3143 20.8644C18.3053 20.865 18.2958 20.8622 18.2864 20.8566ZM18.1132 20.6429C18.0793 20.6229 18.0522 20.5806 18.0467 20.537C18.0434 20.5143 18.0482 20.4981 18.0562 20.4867C18.0667 20.4787 18.0805 20.4755 18.0978 20.4839C18.1005 20.485 18.1032 20.4864 18.1059 20.488C18.1207 20.4968 18.1359 20.5123 18.1484 20.5309C18.1609 20.5516 18.1701 20.5703 18.1734 20.5941C18.179 20.6363 18.1582 20.6572 18.1261 20.6457L18.127 20.6491L18.1168 20.645L18.1132 20.6429ZM19.1889 22.3558L18.5222 21.0919L19.3503 21.0674C19.3735 21.1608 19.3951 21.2542 19.4073 21.3469C19.4678 21.8058 19.3794 22.1575 19.1889 22.3558ZM17.6815 20.5496C17.6487 20.5302 17.6135 20.505 17.5774 20.4744L16.8553 19.8607C16.8592 19.7691 16.8697 19.6833 16.8881 19.6051L17.6166 20.1865C17.7604 20.302 17.8761 20.4673 17.8633 20.5498C17.856 20.6132 17.7801 20.6081 17.6815 20.5496ZM18.5021 20.915C18.4468 20.8822 18.4029 20.8359 18.3851 20.7831C18.3484 20.6778 18.4318 20.6021 18.5611 20.6075L19.2139 20.6413C19.2569 20.7465 19.2929 20.8532 19.3236 20.9605L18.6831 20.9653C18.6209 20.9659 18.556 20.9469 18.5021 20.915ZM17.8597 20.2736L16.9145 19.5315C17.0348 19.1494 17.3318 18.9649 17.7299 19.0641L17.8597 20.2736ZM18.0191 19.1811C18.0254 19.1849 18.0317 19.1884 18.0381 19.1916L18.1753 20.1295C18.2024 20.3191 18.1661 20.4532 18.0921 20.4198C18.0891 20.4185 18.0862 20.4169 18.0832 20.4151C18.009 20.3712 17.9355 20.1931 17.914 20.0126L17.8051 19.0878C17.8442 19.1005 17.8816 19.1075 17.9218 19.1256C17.9396 19.1336 17.9568 19.1434 17.9741 19.1536C17.9827 19.1587 17.9913 19.164 18 19.1691C18.0064 19.1734 18.0127 19.1774 18.0191 19.1811ZM18.3091 20.4734L18.1164 19.2361C18.5344 19.4999 18.9206 19.9886 19.1647 20.5344L18.3091 20.4734ZM18.0664 18.9487C18.0066 18.9133 17.9464 18.8819 17.886 18.8549C17.069 18.4905 16.5219 19.059 16.6627 20.1223C16.7932 21.1114 17.4658 22.1764 18.2128 22.6189C18.2732 22.6547 18.3342 22.6864 18.3953 22.7137C19.2083 23.0758 19.7546 22.5078 19.6136 21.4387C19.4839 20.4548 18.8107 19.3896 18.0664 18.9487Z" fill="#CCCCCC"/>
<path d="M1.32661 10.9905L1.3299 11.0663C1.33221 11.1194 1.34143 11.1723 1.34407 11.2329L1.34637 11.286C1.5208 12.5949 2.41208 14.0072 3.40592 14.5972C3.48392 14.6408 3.56879 14.6843 3.64642 14.7203C4.0626 14.9072 4.42246 14.9134 4.69914 14.7547C4.76689 14.7226 4.83398 14.6754 4.89387 14.6207L5.49851 14.2109C5.50308 14.1577 5.50735 14.0968 5.50538 14.0513C5.50472 14.0361 5.49027 14.0214 5.49648 14.006C5.50208 13.8161 5.49318 13.6114 5.46947 13.3842C5.27302 11.8862 4.25405 10.2417 3.09739 9.56466C3.00494 9.50623 2.91282 9.4554 2.82795 9.41198C2.6447 9.33307 2.47726 9.29931 2.31734 9.28052L1.8943 9.57195C1.84039 9.60369 1.80025 9.63504 1.76012 9.66639C1.45978 9.91681 1.29993 10.3763 1.32661 10.9905Z" fill="#1A1A1A"/>
<path d="M3.38216 13.7471C3.22293 13.6528 3.06759 13.5224 2.92105 13.3713L3.37315 12.6536L4.0804 13.8874C3.92136 13.9288 3.73614 13.9158 3.52597 13.8217C3.47777 13.8003 3.4298 13.7753 3.38216 13.7471ZM2.84597 13.2927C2.77228 13.2102 2.70222 13.1222 2.63586 13.0297L2.94472 12.4377C2.99795 12.3398 3.08036 12.3012 3.14549 12.3398C3.15861 12.3476 3.17105 12.3585 3.18239 12.3727C3.25161 12.4592 3.24969 12.6203 3.18327 12.7346L2.84597 13.2927ZM4.14145 13.8685L3.605 12.919C3.50077 12.732 3.45073 12.5478 3.50513 12.5174C3.51994 12.5089 3.54019 12.5128 3.5639 12.5268C3.62721 12.5643 3.71516 12.6741 3.78996 12.8123L4.30595 13.7715C4.25587 13.813 4.20159 13.8463 4.14145 13.8685ZM3.23851 12.3649C3.22807 12.3587 3.2177 12.3499 3.20804 12.3386C3.18852 12.3147 3.17818 12.2886 3.17493 12.2658C3.168 12.2475 3.16708 12.2251 3.17512 12.2138C3.18589 12.1967 3.20688 12.1937 3.22917 12.2069C3.23843 12.2124 3.24793 12.2207 3.257 12.2319L3.26263 12.2372L3.26512 12.2415C3.29605 12.2797 3.30742 12.331 3.2923 12.3581C3.28426 12.3695 3.27361 12.3736 3.2588 12.3705L3.25972 12.3739C3.25275 12.3721 3.24562 12.3691 3.23851 12.3649ZM3.42885 12.4485C3.42599 12.4468 3.42309 12.4447 3.42015 12.4424C3.40507 12.4325 3.39117 12.4138 3.37873 12.3932C3.35699 12.3528 3.356 12.3095 3.37452 12.2902L3.37809 12.2828L3.38034 12.2813L3.38268 12.2817C3.39276 12.2775 3.40498 12.2798 3.41761 12.2873C3.43543 12.2979 3.45408 12.3186 3.46872 12.345C3.48036 12.3652 3.4873 12.3835 3.48726 12.4015C3.49055 12.4253 3.48354 12.443 3.4708 12.4525C3.45802 12.4577 3.44393 12.4574 3.42885 12.4485ZM2.5664 12.9374C2.29485 12.5327 2.09675 12.053 2.03543 11.5927C2.02402 11.5025 2.02215 11.4189 2.02107 11.3357L2.96321 12.1528L2.5664 12.9374ZM3.14817 12.1024C3.14322 12.0995 3.13814 12.0957 3.13302 12.0911C3.11702 12.0779 3.10312 12.0592 3.09397 12.0433C3.08138 12.0188 3.07563 11.9917 3.08026 11.9726C3.08173 11.9517 3.09435 11.9392 3.10813 11.936C3.11901 11.9365 3.13043 11.9385 3.14215 11.9455C3.14544 11.9474 3.14875 11.9498 3.15208 11.9526C3.18408 11.9791 3.20701 12.0297 3.20472 12.0682L3.20563 12.0715L3.20587 12.0774L3.20678 12.0808C3.20071 12.1095 3.17652 12.1192 3.14817 12.1024ZM3.45295 12.2353C3.43087 12.2222 3.40911 12.1942 3.39478 12.1618L3.39216 12.1545C3.37636 12.1082 3.39029 12.0709 3.42038 12.0698C3.42816 12.0696 3.43631 12.0726 3.44478 12.0776C3.45145 12.0816 3.45832 12.0868 3.46536 12.0926C3.48148 12.1088 3.49629 12.1308 3.50663 12.1569C3.5155 12.1849 3.51574 12.2097 3.50865 12.2254C3.50375 12.2377 3.49468 12.2428 3.48079 12.2431C3.47181 12.2437 3.46235 12.2408 3.45295 12.2353ZM3.2797 12.0216C3.24579 12.0015 3.21869 11.9593 3.21317 11.9157C3.20992 11.8929 3.21467 11.8768 3.2227 11.8654C3.2332 11.8574 3.24697 11.8542 3.26432 11.8625C3.26697 11.8637 3.26966 11.865 3.27235 11.8666C3.28721 11.8754 3.30239 11.8909 3.31492 11.9096C3.32736 11.9302 3.33663 11.949 3.33992 11.9728C3.3455 12.015 3.32472 12.0359 3.29257 12.0244L3.29348 12.0278L3.28326 12.0236L3.2797 12.0216ZM4.35543 13.7344L3.68868 12.4706L4.51684 12.4461C4.53997 12.5395 4.56156 12.6329 4.57385 12.7255C4.63433 13.1844 4.54593 13.5361 4.35543 13.7344ZM2.84797 11.9283C2.81523 11.9089 2.77997 11.8836 2.74387 11.853L2.02177 11.2394C2.02575 11.1478 2.03615 11.062 2.05459 10.9837L2.7831 11.5651C2.92692 11.6807 3.04263 11.846 3.02978 11.9285C3.0225 11.9918 2.94665 11.9868 2.84797 11.9283ZM3.66857 12.2936C3.61329 12.2609 3.56944 12.2145 3.55164 12.1617C3.51489 12.0565 3.59834 11.9807 3.72761 11.9862L4.38042 12.02C4.42336 12.1251 4.4594 12.2318 4.49006 12.3392L3.84964 12.344C3.78744 12.3446 3.72255 12.3256 3.66857 12.2936ZM3.02622 11.6522L2.08095 10.9102C2.20134 10.5281 2.49827 10.3435 2.89643 10.4428L3.02622 11.6522ZM3.18558 10.5598C3.19192 10.5635 3.19824 10.567 3.20456 10.5703L3.34179 11.5081C3.36886 11.6978 3.33261 11.8318 3.25861 11.7984C3.25563 11.7971 3.25266 11.7956 3.24968 11.7938C3.1755 11.7499 3.10196 11.5718 3.08046 11.3913L2.97158 10.4664C3.01074 10.4792 3.04812 10.4862 3.08826 10.5043C3.10611 10.5123 3.12333 10.5221 3.14058 10.5323C3.1492 10.5374 3.15783 10.5426 3.16655 10.5478C3.1729 10.552 3.17925 10.556 3.18558 10.5598ZM3.47562 11.8521L3.28288 10.6148C3.7009 10.8785 4.08715 11.3673 4.33124 11.9131L3.47562 11.8521ZM3.23287 10.3273C3.17315 10.292 3.11287 10.2606 3.05247 10.2336C2.23546 9.86912 1.6884 10.4376 1.82922 11.5009C1.95973 12.4901 2.63235 13.5551 3.37934 13.9976C3.4397 14.0333 3.50067 14.0651 3.56176 14.0923C4.37481 14.4545 4.92112 13.8864 4.78007 12.8173C4.65044 11.8335 3.97722 10.7683 3.23287 10.3273Z" fill="#CCCCCC"/>
<path d="M24.4468 7.16339C24.4935 7.12427 24.5349 7.12324 24.5846 7.15234C24.7695 7.26919 24.9311 7.80407 24.9159 8.25233C24.9133 8.45125 24.8929 8.674 24.8683 8.88626C24.6836 8.39102 24.4271 7.92819 24.1299 7.5566C24.213 7.39861 24.3264 7.25114 24.4468 7.16339Z" fill="#FF0000"/>
<path d="M24.3899 9.05494C24.4093 8.86468 24.4034 8.56882 24.2395 8.45904C24.0757 8.34926 24.0181 8.29756 24 8.03995C23.987 7.90355 24.041 7.72415 24.1291 7.55664C24.4263 7.92824 24.6828 8.39106 24.8675 8.8863C24.8471 9.06287 24.8238 9.2326 24.8047 9.37096C24.6975 9.29015 24.5613 9.17973 24.3899 9.05494Z" fill="#BF0000"/>
<path d="M29.5933 12.7737L29.6038 13.0163C29.7703 13.1867 30.5671 14.017 30.778 14.5735C30.9823 15.1377 31.1074 16.1061 31.1285 16.2726L31.5999 17.0958C31.6766 16.7902 31.7821 16.1955 31.7275 15.7339C31.3708 15.1659 30.3605 13.7185 29.5933 12.7737Z" fill="#CCCCCC"/>
<path d="M5.99463 14.6542C6.45419 14.8856 7.75566 15.5514 8.58468 15.8494C8.80213 15.9199 9.09096 16.0417 9.41469 16.1703C8.38496 15.5508 6.94239 14.8202 6.01269 14.4336C6.00907 14.5096 5.99854 14.5857 5.99463 14.6542Z" fill="#4D4D4D"/>
<path d="M9.26758 2.27516C10.3026 2.37831 11.5266 2.53747 12.4833 2.7489C13.7052 3.01435 14.8668 3.48632 15.6142 3.81678C15.052 3.29192 14.2894 2.61261 13.6028 2.09086C12.6586 1.37054 10.9723 0.919338 9.97415 0.708984C10.0412 0.821141 10.1021 0.948695 10.115 1.085C10.1363 1.41847 9.57319 1.98666 9.26758 2.27516Z" fill="#BF0000"/>
<path d="M3.38944 5.29905C3.39871 5.67076 3.47601 5.8586 3.51383 5.93354C3.57504 5.90927 3.62275 5.89287 3.67012 5.8689C4.09773 5.68363 4.74678 5.341 4.88858 5.26156C4.34377 4.81971 3.94438 4.54125 3.85918 4.49023C3.72562 4.59986 3.59897 4.70931 3.47265 4.8263L3.47298 4.83389C3.42363 4.97175 3.38252 5.1398 3.38944 5.29905Z" fill="#BF0000"/>
<path d="M9.28461 0.581961C9.382 0.594722 9.53532 0.621234 9.72347 0.654474C9.82547 0.773402 9.92911 0.930187 9.94328 1.09685C9.9597 1.31656 9.42451 1.89166 9.02485 2.24325C8.94854 2.23756 8.87222 2.23187 8.79554 2.21863C8.8893 2.14795 9.17088 1.94354 9.26464 1.71348C9.33963 1.52944 9.30739 1.42396 9.27051 1.37174C9.44158 1.32952 9.60675 1.31019 9.77913 1.29833C9.46134 1.22668 9.14247 1.246 8.82478 1.31182C8.53906 1.07786 8.18664 0.85928 7.80029 0.673149C8.4203 0.569291 8.99614 0.546042 9.28461 0.581961Z" fill="#BF0000"/>
<path d="M2.17971 3.87179C2.19354 3.87145 5.48571 1.48913 6.41469 1.06356C6.83351 0.876154 7.32925 0.752007 7.80028 0.673096C8.18662 0.859227 8.53904 1.0778 8.82476 1.31176C7.71811 1.54102 6.62787 2.43856 5.66607 2.93444C5.0825 3.35137 1.95612 5.25132 2.62364 6.13033C2.50788 6.14745 2.39292 6.16455 2.28285 6.18148C1.94565 5.84688 1.60834 5.55051 1.26367 5.29861C1.44159 4.89919 1.72203 4.42586 2.17971 3.87179Z" fill="#FF0000"/>
<path d="M2.28343 6.1817C2.27588 6.18286 2.26758 6.18404 2.26007 6.1852C1.97845 6.23023 1.71066 6.27488 1.5189 6.31762C1.28597 6.36898 1.10734 6.39625 0.976074 6.39953C0.987686 6.14701 1.05137 5.77668 1.26425 5.29883C1.60892 5.55073 1.94623 5.8471 2.28343 6.1817Z" fill="#BF0000"/>
<path d="M4.00586 4.36543C4.17725 4.49018 4.66975 4.84225 5.29383 5.35796C6.01893 5.96988 7.32963 7.16681 7.50268 7.3295C7.64876 7.3486 8.37973 7.45935 8.68666 7.52001C9.69102 7.71501 9.88152 7.64196 9.91506 7.61832C10.1358 7.44583 11.1934 6.63751 12.2802 5.86644C13.2332 5.19741 14.5201 4.4137 14.9178 4.17604C14.7112 4.03698 14.1796 3.73907 13.1038 3.49271C11.6787 3.16396 6.65957 2.88719 6.1954 2.86841C6.05393 2.95548 5.91251 3.0425 5.77071 3.12194C5.172 3.50885 4.56707 3.91112 4.00586 4.36543Z" fill="#333333"/>
<path d="M8.3418 8.65186C8.53625 8.98859 9.07156 9.84816 9.871 10.739C9.88516 10.5869 9.92261 10.3354 9.99035 9.98456C10.0805 9.51168 10.3114 9.09602 10.4341 8.89558C9.49322 8.72934 8.6675 8.66651 8.3418 8.65186Z" fill="#333333"/>
<path d="M6.94489 9.6128C6.91347 9.60585 6.88298 9.60555 6.85156 9.60031C7.28 10.0723 7.65979 10.5828 7.96413 11.1064C8.3022 11.2191 8.64765 11.3072 8.71351 11.322C8.65992 11.3613 8.38423 11.3834 8.20262 11.3424C8.20262 11.3424 8.24375 11.4932 8.28492 11.8034C8.33592 12.1817 8.31753 12.3946 8.27542 12.5399C8.36886 12.6211 8.45604 12.7176 8.54948 12.7988C8.6113 12.6302 8.70044 12.4534 8.81688 12.2683C8.86854 12.1835 8.92476 12.0455 8.96752 11.9154C8.99942 11.8538 9.0172 11.7851 9.04284 11.7389C9.06194 11.7005 9.07408 11.6622 9.08626 11.6239C9.1366 11.5088 9.19414 11.4011 9.26555 11.293C8.74704 10.6608 8.22951 10.0513 7.89858 9.75593C7.75612 9.66081 7.60707 9.57345 7.45215 9.50903C7.63111 9.64879 7.7979 9.82678 7.87882 9.9386C7.87882 9.9386 7.37123 9.71598 6.94489 9.6128ZM7.96897 10.1034C8.04961 10.2076 8.37202 10.6246 8.49275 10.8569C8.56088 10.9919 8.58389 11.0444 8.59179 11.067C8.54046 11 8.2753 10.6271 8.1621 10.4097C8.06471 10.2376 7.99136 10.1407 7.96897 10.1034Z" fill="#BF0000"/>
<path d="M7.59841 10.9705C6.97861 10.7127 6.64306 10.63 6.47031 10.4749C6.29463 10.2516 6.11171 10.0209 5.94954 9.78959C5.94064 9.74427 5.93801 9.6836 5.98505 9.65203C6.05948 9.59388 6.44984 9.53357 6.85135 9.60039C7.27978 10.0723 7.65958 10.5829 7.96392 11.1064C7.83581 11.0637 7.70878 11.0177 7.59841 10.9705Z" fill="#FF0000"/>
<path d="M9.04248 12.2092C9.97515 12.9829 10.8618 13.8109 11.7422 14.6543C11.9876 14.891 12.2192 15.1282 12.4577 15.3651C12.4939 15.4022 12.5439 15.4388 12.5801 15.4759C12.2254 14.794 11.2884 13.7623 10.6966 13.0332C10.384 12.6843 9.8866 12.0591 9.38257 11.4417C9.33059 11.5188 9.28618 11.611 9.24868 11.7031C9.22963 11.7415 9.21744 11.7798 9.19839 11.8182C9.17995 11.8718 9.15497 11.9332 9.12994 11.9945C9.10529 12.0634 9.07405 12.1401 9.04248 12.2092Z" fill="#BF0000"/>
<path d="M8.62457 13.4119C9.91876 14.2297 11.2716 14.9626 12.6339 15.5965L12.6335 15.5889C12.6181 15.5514 12.6026 15.5138 12.5802 15.4764C12.544 15.4393 12.494 15.4026 12.4579 15.3656C12.2193 15.1286 11.9877 14.8915 11.7423 14.6548C10.8619 13.8114 9.97528 12.9834 9.04261 12.2097C9.01758 12.2711 8.9926 12.3324 8.96004 12.3788C8.73371 12.7412 8.62156 13.0249 8.62457 13.4119Z" fill="#FF0000"/>
<path d="M13.0332 14.9337C13.2286 14.815 13.4875 14.725 13.7016 14.7197C13.7845 14.7176 13.8612 14.7309 13.9247 14.7597C14.0807 14.8468 14.2494 15.2298 14.3215 15.4557C14.3373 15.5008 14.3728 15.5227 14.4074 15.5218C14.4143 15.5216 14.891 15.5097 15.1337 15.6858C15.2006 15.7329 15.2422 15.7937 15.2691 15.8558C14.4965 15.8709 13.7037 15.4179 12.9131 15.0197C12.9501 14.9915 12.9819 14.9639 13.0332 14.9337Z" fill="#FF0000"/>
<path d="M12.9135 15.0193C13.7041 15.4175 14.4969 15.8704 15.2696 15.8553C15.2972 15.919 15.3096 15.984 15.3154 16.0377C15.0986 15.9823 14.5742 15.8512 14.2374 15.7382C14.0762 15.6891 13.8673 15.6564 13.658 15.6161C13.3377 15.5633 12.9333 15.49 12.8382 15.3709C12.7866 15.2963 12.7636 15.2437 12.7681 15.1905C12.7753 15.1384 12.8337 15.0802 12.9135 15.0193Z" fill="#BF0000"/>
<path d="M10.0234 10.9175C10.2192 11.1252 10.4218 11.3327 10.6449 11.532C12.1503 12.9138 14.4121 14.6715 15.9518 15.4072C15.6244 14.5577 14.3872 11.3929 13.8645 10.6621C13.2315 9.78217 11.7938 9.16533 10.622 8.93652C10.5309 9.06783 10.2599 9.51489 10.1576 10.026C10.055 10.5296 10.0329 10.8186 10.0234 10.9175Z" fill="#333333"/>
<path d="M9.44727 11.3414C10.0013 11.9956 10.5994 12.7093 10.7958 12.9321C10.9301 13.1565 12.1477 14.4392 12.6023 15.1946C12.6017 15.1794 12.5944 15.172 12.6007 15.1567C12.6221 15.0119 12.7277 14.8954 12.9504 14.7684C13.2537 14.5862 13.7103 14.4306 14.0008 14.5903C14.2274 14.7136 14.4058 15.1571 14.4686 15.3301C14.614 15.334 14.9887 15.3626 15.224 15.5237C15.5378 15.7436 15.4865 16.1548 15.4803 16.1701C15.4743 16.1931 15.4615 16.2161 15.4415 16.2318C15.428 16.2398 15.4145 16.2477 15.4007 16.248L15.3799 16.2485C15.3727 16.2411 14.6318 16.0623 14.1969 15.9214C14.0427 15.8721 13.8337 15.8394 13.6317 15.8065C13.2623 15.7398 12.9136 15.6726 12.755 15.5247C12.7633 15.5549 12.7642 15.5776 12.7656 15.608C12.8649 15.6662 13.1912 15.8554 13.3913 16.0022C13.8558 16.3474 14.9408 16.9655 15.5784 17.3139C15.6093 17.2296 15.6474 17.1527 15.6984 17.0528C15.7748 16.8991 15.877 16.7068 15.9701 16.4615C16.1066 16.1013 16.0566 15.7458 16.0385 15.6476C14.4798 14.9502 12.1038 13.112 10.5408 11.6784C10.3177 11.4791 10.1151 11.2716 9.91933 11.064C9.73514 11.1217 9.59301 11.1936 9.48674 11.2949C9.47361 11.3104 9.46044 11.3259 9.44727 11.3414Z" fill="#FF0000"/>
<path d="M8.63037 13.5332C8.63955 13.5861 8.63498 13.6394 8.64449 13.6999C8.67446 13.9116 8.81199 14.2119 8.95708 14.527C9.10185 14.8347 9.25453 15.1648 9.34467 15.489C9.7776 15.7438 10.1616 15.9847 10.454 16.1899C10.5254 16.2413 10.6254 16.3147 10.7609 16.41C10.7751 16.4172 10.782 16.417 10.7892 16.4245C10.7961 16.4243 10.7961 16.4243 10.7961 16.4243C11.3857 16.6221 11.9755 16.8275 12.5588 17.0406C13.5004 17.3814 14.4238 17.7834 15.3291 18.2466C15.3972 17.9033 15.4683 17.6282 15.5107 17.4905C14.8728 17.1346 13.774 16.5168 13.3019 16.1566C13.0733 15.9878 12.6482 15.7555 12.641 15.7481C12.6271 15.7484 12.6206 15.7562 12.6068 15.7565C11.2257 15.1686 9.91768 14.3512 8.63037 13.5332Z" fill="#BF0000"/>
<path d="M15.498 18.333C15.604 18.3835 15.7103 18.4416 15.8096 18.4999C15.9027 18.2546 16.0461 18.0537 16.2195 17.9051C16.6395 17.5454 17.2255 17.5004 17.8742 17.7878C17.966 17.8311 18.0653 17.8893 18.1716 17.9474C19.3711 18.6537 20.4262 20.3353 20.645 21.8707C21.0415 22.2403 21.4313 22.6177 21.8593 22.9182C22.2301 23.1746 22.6068 23.4081 23.0029 23.6107C22.8391 23.501 22.7015 23.3602 22.6252 23.1951C22.5561 23.0375 22.5489 22.8706 22.6113 22.7172C22.6805 22.5561 22.8597 22.3846 23.0887 22.2423C22.7722 22.1212 22.3284 21.9349 21.8902 21.7181C21.0917 21.3282 20.6706 21.0275 20.6496 21.0204C20.6351 21.0056 20.6203 20.9832 20.6124 20.9606C20.6114 20.9379 20.1547 19.0212 18.5512 17.9303C17.5396 17.2496 16.6648 17.3323 16.2132 17.6016C16.0652 17.6965 15.8994 17.7006 15.7434 17.6134C15.7224 17.6063 15.6937 17.5843 15.6658 17.5774C15.624 17.7302 15.553 18.0053 15.498 18.333Z" fill="#BF0000"/>
<path d="M26.4442 23.0769C26.4714 23.0687 26.4988 23.0604 26.5264 23.0597C26.9507 22.958 28.663 22.0954 29.3535 21.5923L29.5814 21.4272C30.2314 20.9479 31.1233 20.3032 31.4643 19.7177C31.5611 19.5559 31.6196 19.3115 31.6561 19.0373C31.663 19.0372 31.6627 19.0296 31.6623 19.022C31.6864 18.9379 31.7038 18.8616 31.7212 18.7852C31.7498 18.6478 31.7784 18.5105 31.8238 18.4411C31.8564 18.3947 31.8959 18.3481 31.9485 18.2861C31.9604 18.8779 31.9276 19.7137 31.7019 20.0913C31.3608 20.6768 30.469 21.3215 29.819 21.8008L29.591 21.9659C28.9006 22.469 27.1883 23.3316 26.7639 23.4333C26.7363 23.434 26.709 23.4423 26.6817 23.4505C26.5188 23.4684 25.1983 23.6049 23.9224 23.341L24.1066 23.0445C25.2334 23.2057 26.2998 23.0957 26.4442 23.0769Z" fill="#BF0000"/>
<path d="M24.3156 22.4547C24.4821 22.4658 24.635 22.4847 24.7669 22.4966C24.5336 22.653 24.2688 22.855 24.1105 23.0399C24.1092 23.0414 24.1074 23.043 24.1061 23.0445C24.1066 23.0446 24.107 23.0445 24.1075 23.0446L23.9233 23.3412C23.7977 23.3152 23.6718 23.2901 23.5481 23.2557C23.3034 23.1936 23.102 23.0164 23.085 22.9409C23.1494 22.8331 23.7537 22.4156 24.3156 22.4547Z" fill="#FF0000"/>
<path d="M20.3027 18.7668C20.6893 19.0684 21.3996 19.6579 21.7812 20.1645C22.2507 20.7828 22.7873 21.1945 22.8873 21.2679C23.0613 21.2939 24.3618 21.4587 25.2875 21.4356L25.3496 21.434C25.1062 21.2428 24.6989 20.9417 24.5571 20.8618C24.4933 20.8254 24.2765 20.7701 24.0314 20.7003C23.457 20.5325 22.6727 20.3092 22.3289 20.037C21.8845 19.6761 20.8554 18.9124 20.6985 18.8025L20.3027 18.7668Z" fill="#CCCCCC"/>
<path d="M0.546387 7.67008C0.617437 8.03264 0.794819 8.93151 0.86954 9.53695C0.97083 9.32185 1.10801 9.13625 1.28171 8.99527C1.72907 8.6273 2.34294 8.58919 3.02687 8.89089C3.12623 8.94915 3.23218 8.99964 3.33875 9.06526C4.63034 9.82244 5.76114 11.6539 5.97872 13.3184C5.99876 13.4621 6.00469 13.5986 6.0103 13.7276C6.0182 13.7501 6.02018 13.7956 6.02182 13.8335C6.19783 13.905 6.38799 13.9838 6.59985 14.0848C7.35453 14.4226 8.30198 14.9 9.11721 15.3578C9.03036 15.1094 8.91518 14.8466 8.80824 14.614C8.65528 14.2763 8.51051 13.9686 8.47231 13.7267C8.45358 13.6133 8.45621 13.5146 8.45193 13.416C8.36635 13.3574 8.28115 13.3064 8.1887 13.2479C7.43994 12.7278 6.66356 12.2082 6.01906 11.5412C5.21072 10.4455 4.28919 9.13258 3.0374 8.65531C2.67881 8.52006 2.2814 8.44651 1.90343 8.5015L1.31584 7.71157C1.31584 7.71157 2.31586 7.01097 2.37081 6.84262C2.40666 6.71265 2.3757 6.47811 2.35692 6.36475C2.33622 6.36526 2.30893 6.3735 2.28819 6.37402C2.00661 6.41905 1.74541 6.45593 1.56051 6.4985C1.30063 6.56574 1.11475 6.58558 0.976613 6.58903L0.985838 6.80132C0.999016 7.10464 0.730903 7.4605 0.546387 7.67008Z" fill="#BF0000"/>
<path d="M30.7402 16.5704C30.6503 15.935 30.3163 14.615 29.1165 12.9446C28.263 11.7666 27.2346 11.0181 26.4688 10.5818C27.2599 10.8049 28.3982 11.3761 29.25 12.3568C29.301 12.4163 29.3592 12.4831 29.4105 12.5501L29.4329 13.0658C29.4339 13.0885 29.4487 13.1109 29.4635 13.1333C29.4708 13.1407 30.4034 14.0738 30.6147 14.6379C30.8266 15.2171 30.9566 16.2993 30.9569 16.3069C30.9576 16.3221 30.9652 16.337 30.9727 16.352L31.5636 17.3772C31.5784 17.3996 31.6071 17.4216 31.6416 17.4208C31.6416 17.4208 31.6416 17.4208 31.6485 17.4206C31.6758 17.4123 31.7093 17.3887 31.7149 17.3582C31.7271 17.32 31.8702 16.7926 31.9156 16.245C31.9629 16.5398 32.0294 16.9556 32.0186 17.1836C32.0133 17.2217 31.9969 17.3208 31.8739 17.5136C31.7952 17.6143 31.71 17.7227 31.6242 17.8159C31.5381 17.9249 31.4599 18.019 31.4075 18.1005C31.2332 17.821 31.021 17.5424 30.7799 17.2646C30.7959 17.088 30.7832 16.8726 30.7402 16.5704Z" fill="#BF0000"/>
<path d="M1.31592 7.71139L1.9035 8.50132C2.28148 8.44632 2.67888 8.51987 3.03748 8.65513C4.28926 9.1324 5.21079 10.4453 6.01913 11.541C6.78699 12.1822 7.60713 12.7537 8.44673 13.2945C8.45261 13.1121 8.49439 12.9593 8.54966 12.7985C7.74068 12.3253 6.36119 10.5001 5.68445 9.56814C5.62489 9.47094 5.57652 9.31277 5.63966 9.17457C5.71629 9.02842 5.86896 9.03975 5.9798 9.04458C6.8697 9.1514 7.8678 9.36175 8.46329 10.1742C8.58731 10.323 8.93739 10.7393 9.33085 11.2001L9.37033 11.1535C9.47656 11.0522 9.61835 10.9728 9.78151 10.9079C8.73498 9.74236 8.11187 8.61172 8.10429 8.59676C8.08915 8.56675 8.0875 8.52884 8.10725 8.50555C8.11972 8.4749 8.1464 8.45148 8.18126 8.45816C8.18817 8.45799 9.29613 8.49102 10.5999 8.73167C12.0783 9.01355 13.4093 9.72415 13.9982 10.5444C14.6171 11.4171 16.124 15.3797 16.1935 15.545L16.1938 15.5526C16.1938 15.5526 16.1938 15.5526 16.1941 15.5602C16.2017 15.5751 16.3126 16.0582 16.1261 16.5411C16.0334 16.7939 15.9314 16.9938 15.8481 17.1477C15.7971 17.2476 15.7659 17.3244 15.7347 17.401C15.7629 17.4155 15.7913 17.43 15.8195 17.4444C15.9189 17.5027 16.0294 17.4999 16.1304 17.4367C16.6153 17.1361 17.5657 17.044 18.6346 17.7688C20.1953 18.8304 20.7003 20.5864 20.7685 20.8808C20.8823 20.9538 21.2879 21.217 21.9594 21.5493C22.468 21.7947 22.996 22.0092 23.2983 22.1231C23.576 21.9871 23.8901 21.8958 24.1941 21.8882C24.2425 21.887 24.2908 21.8858 24.3326 21.8923C24.7418 21.92 25.0689 21.965 25.2429 21.991C25.3123 21.9968 25.3741 21.9877 25.4219 21.9714C25.4353 21.9634 26.5406 21.4576 26.789 21.4437C26.837 21.4349 26.9061 21.4332 26.9963 21.4386C27.2729 21.4392 27.7295 21.443 28.1687 21.2043C28.7697 20.8704 30.9046 19.2306 31.0891 19.021C31.1484 18.9512 31.1829 18.791 31.2174 18.6307C31.2582 18.4551 31.2983 18.2643 31.3957 18.1177C31.3989 18.1124 31.4045 18.1058 31.408 18.1004C31.2337 17.8209 31.0214 17.5423 30.7804 17.2645C30.7482 17.6182 30.5915 17.8036 30.269 18.1306C29.792 18.6132 27.5443 20.2028 26.6149 20.4613C26.3139 20.5371 26.0116 20.5826 25.7145 20.5901C25.1342 20.6046 24.5753 20.4744 24.1213 20.2124C23.816 20.0303 22.9623 19.4823 22.0589 18.9053C21.0489 18.2625 19.9103 17.5243 19.4066 17.2333C18.4838 16.6871 17.4409 16.0831 17.3841 16.0466C17.1544 16.0143 16.9942 15.988 16.9449 15.9665C16.6698 15.8443 16.5524 15.5284 16.4507 15.2577C16.4343 15.1974 16.4112 15.1448 16.3954 15.0997C16.2793 14.8141 14.6546 11.0062 14.6322 10.9688C14.6164 10.9237 14.6279 10.8702 14.6684 10.8465C15.0789 10.5857 15.4891 10.3173 15.8997 10.0566C17.0092 9.33047 18.1991 8.54164 19.3645 7.66992L19.5787 7.50519C19.7666 7.37142 19.9471 7.23027 20.135 7.09654C20.2623 7.00227 20.3899 6.91559 20.5172 6.82128C19.1937 5.96626 16.5227 4.65913 16.4944 4.64464C16.4661 4.6302 16.4448 4.61553 16.423 4.59333C16.4158 4.58591 16.2641 4.43788 16.0401 4.21577C15.4187 3.92006 13.9797 3.2729 12.4503 2.93161C10.4531 2.48813 7.25612 2.28722 7.15214 2.28223C6.92288 2.41699 6.7005 2.55163 6.47844 2.69381C7.68449 2.75474 11.8308 3.00024 13.1372 3.30157C14.6534 3.65834 15.115 4.09467 15.1368 4.11688C15.1584 4.13913 15.1667 4.16927 15.168 4.19963C15.1624 4.23012 15.1496 4.25319 15.1226 4.26906C15.1094 4.28458 13.5048 5.23562 12.3771 6.0229C11.2902 6.79396 10.2392 7.59452 10.0185 7.76701C9.97181 7.80613 9.89711 7.83839 9.73131 7.84254C9.5379 7.84737 9.21121 7.81 8.66052 7.70989C8.32563 7.64237 7.46929 7.51197 7.46237 7.51214C7.44167 7.51266 7.42751 7.50541 7.41306 7.49058C7.39857 7.47579 5.95825 6.16062 5.19006 5.51184C5.13247 5.46014 5.08246 5.42345 5.03216 5.37916C5.02591 5.39451 5.01965 5.40982 4.99923 5.41793C4.99236 5.4181 4.22193 5.8321 3.74032 6.04911C3.42812 6.18595 2.86529 6.28351 2.357 6.36456C2.37577 6.47793 2.40673 6.71247 2.37088 6.84244C2.31594 7.01079 1.31592 7.71139 1.31592 7.71139ZM19.916 18.6097C19.9281 18.5714 19.9613 18.5402 20.0031 18.5468L20.7325 18.6196C20.7463 18.6193 20.7604 18.6265 20.7746 18.6337C20.7887 18.641 21.9464 19.5001 22.4264 19.8829C22.7416 20.1331 23.5469 20.3634 24.0723 20.5173C24.3523 20.5938 24.5483 20.6496 24.6263 20.6932C24.853 20.8166 25.6188 21.4123 25.6547 21.4418C25.6833 21.4638 25.6988 21.5014 25.6866 21.5396C25.6814 21.5777 25.6481 21.6089 25.6136 21.6098C25.5103 21.6199 25.4067 21.6225 25.2892 21.6255C24.2875 21.6505 22.9101 21.4649 22.8473 21.4512C22.8335 21.4516 22.8193 21.4443 22.8121 21.4369C22.7838 21.4224 22.184 20.9896 21.6484 20.2819C21.1349 19.604 19.9627 18.73 19.9485 18.7227C19.9127 18.6933 19.9038 18.6479 19.916 18.6097Z" fill="#FF0000"/>
<path d="M19.8491 16.0993C20.4317 16.1379 20.9442 16.1554 21.1577 16.1349C21.6953 16.0911 22.8509 15.6295 24.222 14.7147C25.5457 13.8238 25.9546 13.2063 26.1569 12.7686C26.195 12.6918 26.1612 12.5484 26.1286 12.4353L26.1115 12.3599C26.043 12.0579 25.9374 11.6962 25.7837 11.3433C25.8805 11.9785 25.7766 12.7705 24.9625 13.4513C23.4611 14.711 22.2568 15.485 21.3841 15.7725C20.8929 15.929 20.3235 16.0343 19.8491 16.0993Z" fill="#1A1A1A"/>
<path d="M14.8252 10.9718C15.0641 11.5352 16.4489 14.757 16.5506 15.0277C16.5736 15.0803 16.5897 15.133 16.6127 15.1856C16.7069 15.4413 16.8013 15.7046 16.9987 15.7908C17.1112 15.8335 17.8899 15.9279 18.758 16.0125C18.7922 16.004 20.242 15.945 21.3332 15.5913C22.1786 15.3121 23.3695 14.546 24.8507 13.302C25.9119 12.4177 25.678 11.3305 25.4305 10.7294C25.3792 10.6624 25.3417 10.595 25.2907 10.5355C25.1232 10.3424 24.943 10.1722 24.7633 10.0174C24.7564 10.0175 24.7564 10.0175 24.7495 10.0177C24.7278 9.99546 22.008 7.88492 20.8441 7.04111C20.7941 7.00437 20.7372 6.96785 20.6872 6.93115C20.5326 7.0337 20.3783 7.14384 20.2309 7.25376C20.05 7.38737 19.8625 7.52868 19.6816 7.66224L19.4605 7.82719C18.295 8.6989 17.0986 9.4955 15.9887 10.214C15.5985 10.4667 15.2153 10.7192 14.8252 10.9718Z" fill="#333333"/>
<path d="M17.8506 16.1031C18.2483 16.3437 18.8938 16.7147 19.483 17.0643C19.9939 17.3628 21.0894 18.0641 22.1425 18.7437C23.0459 19.3208 23.8927 19.8689 24.1977 20.0435C24.8504 20.4218 25.7185 20.5064 26.5728 20.2725C27.4614 20.0301 29.6956 18.4485 30.146 17.9894C30.6164 17.5146 30.6881 17.4141 30.5696 16.5973C30.4804 15.9771 30.155 14.6948 28.9775 13.0618C27.7039 11.2871 26.0245 10.5169 25.4899 10.3101C25.3915 10.2746 25.3004 10.2465 25.2158 10.2107C25.281 10.2774 25.3527 10.3363 25.4179 10.403C25.4544 10.4476 25.4843 10.5 25.5212 10.5522C25.5353 10.5595 25.5567 10.5741 25.5646 10.5967C25.5722 10.6117 25.5728 10.6269 25.58 10.6342C25.9561 11.1714 26.1713 11.8264 26.2825 12.317L26.2993 12.3849C26.3332 12.5283 26.3756 12.7094 26.3128 12.8552C26.0977 13.316 25.6763 13.9642 24.3118 14.8713C23.1092 15.6832 21.8482 16.2689 21.1798 16.3235C21.1456 16.332 21.111 16.3328 21.0696 16.3339C20.662 16.3441 19.677 16.2776 18.7678 16.2017L18.7609 16.2018L18.7605 16.1943C18.4345 16.172 18.1217 16.1343 17.8506 16.1031Z" fill="#FF0000"/>
<path d="M19.9158 18.6096C19.9036 18.6479 19.9125 18.6933 19.9484 18.7227C19.9625 18.73 21.1347 19.604 21.6482 20.2818C22.1838 20.9896 22.7836 21.4224 22.8119 21.4369C22.8191 21.4443 22.8333 21.4516 22.8471 21.4512C22.9099 21.4649 24.2873 21.6505 25.289 21.6255C25.4065 21.6225 25.5101 21.6199 25.6134 21.6098C25.648 21.6089 25.6812 21.5777 25.6864 21.5396C25.6986 21.5014 25.6831 21.4638 25.6545 21.4418C25.6186 21.4123 24.8528 20.8166 24.6261 20.6932C24.5481 20.6496 24.3521 20.5938 24.0721 20.5173C23.5467 20.3634 22.7414 20.1331 22.4262 19.8829C21.9462 19.5001 20.7885 18.641 20.7744 18.6337C20.7602 18.6265 20.7461 18.6193 20.7323 18.6196L20.0029 18.5468C19.9612 18.5402 19.9279 18.5714 19.9158 18.6096ZM20.303 18.767L20.6988 18.8026C20.8557 18.9125 21.8847 19.6763 22.3292 20.0371C22.673 20.3094 23.4573 20.5327 24.0316 20.7005C24.2768 20.7702 24.4935 20.8255 24.5573 20.8619C24.6992 20.9419 25.1064 21.2429 25.3499 21.4342L25.2877 21.4357C24.362 21.4589 23.0615 21.294 22.8875 21.268C22.7875 21.1946 22.251 20.7829 21.7815 20.1647C21.3998 19.658 20.6895 19.0685 20.303 18.767Z" fill="black"/>
<path d="M7.96875 10.103C7.99114 10.1404 8.06449 10.2373 8.16188 10.4094C8.27508 10.6267 8.54024 10.9996 8.59157 11.0666C8.58367 11.0441 8.56066 10.9915 8.49254 10.8566C8.37181 10.6243 8.04939 10.2073 7.96875 10.103Z" fill="black"/>
<path d="M20.6725 22.8114C21.7085 23.2561 22.8204 23.699 23.001 23.7172C23.0356 23.7164 23.0981 23.7224 23.1948 23.72C23.1382 23.691 23.0816 23.6621 23.0248 23.6256C22.6214 23.4155 22.2378 23.1822 21.8598 22.9184C21.4318 22.6179 21.0419 22.2405 20.6455 21.8708C20.6465 21.8936 20.6541 21.9086 20.6551 21.9314C20.6968 22.2567 20.7028 22.5526 20.6725 22.8114Z" fill="#FF0000"/>
<path d="M10.7881 16.424C11.5721 16.9585 13.3374 18.1137 15.1804 19.3049C15.206 18.94 15.2655 18.5589 15.328 18.2461C14.4227 17.783 13.4992 17.381 12.5577 17.0401C11.9744 16.827 11.3845 16.6216 10.795 16.4238C10.795 16.4238 10.795 16.4238 10.7881 16.424Z" fill="#FF0000"/>
<path d="M15.3516 19.4148C15.4443 19.4808 15.5437 19.5391 15.6365 19.6051C15.6252 19.1878 15.6779 18.807 15.8097 18.5001C15.7104 18.4418 15.6041 18.3837 15.4982 18.3333C15.4295 18.6614 15.3703 19.05 15.3516 19.4148Z" fill="#FF0000"/>
<path d="M16.2489 16.791L16.3042 16.8214C16.394 16.8214 16.5805 16.7227 16.7463 16.252L16.5667 16.0167L16.3214 15.9241C16.2731 15.962 16.1039 16.4874 16.2489 16.791Z" fill="black"/>
<path d="M16.5348 16.2042L16.5531 16.2161L16.5579 16.2373L16.5406 16.2664L16.5032 16.2338L16.5045 16.3389L16.5165 16.3439L16.5299 16.3345L16.5488 16.3231L16.5421 16.4036L16.5258 16.4737L16.4887 16.5052L16.5185 16.4258L16.4859 16.4144L16.4646 16.4312L16.4053 16.4707L16.385 16.5284L16.3614 16.5506L16.3409 16.5763L16.3352 16.6977L16.3182 16.6395L16.3046 16.6168L16.3092 16.5738L16.3167 16.5023L16.3085 16.4455L16.2991 16.3157L16.3384 16.2466L16.323 16.3256L16.3273 16.4021L16.3872 16.3394L16.4331 16.3093L16.4455 16.259L16.442 16.1914L16.4418 16.1593L16.5004 16.143L16.5348 16.2042ZM16.5395 16.0418L16.3378 15.9668C16.2987 16.068 16.1543 16.5096 16.2769 16.7781C16.315 16.7875 16.5061 16.8112 16.7007 16.2644L16.5395 16.0418Z" fill="#FFFF00"/>
</svg>
