<svg width="77" height="52" viewBox="0 0 77 52" fill="none" xmlns="http://www.w3.org/2000/svg">
<path opacity="0.97" d="M1.2334 10.676L5.87861 4.70776L30.8324 19.0894L31.1612 21.4004L28.2869 23.6199L34.4091 27.507C34.1909 27.8556 33.9736 28.2049 33.736 28.5408L27.1358 24.3502L26.7827 24.5743C24.0654 25.3134 21.0295 25.2208 18.4698 23.9005C17.5071 23.404 16.5994 22.7937 15.678 22.209C14.4047 21.4011 13.1313 20.5931 11.858 19.7852C10.2705 18.7779 8.68302 17.7706 7.09552 16.7633C5.77032 15.9224 4.44511 15.0816 3.11989 14.2407C2.62783 13.9285 2.13575 13.6162 1.64368 13.304C0.788827 12.7616 0.5919 11.5002 1.2334 10.676Z" fill="#888888"/>
<path d="M25.4189 20.0155V21.4082C25.4189 21.5125 25.48 21.6168 25.5681 21.6615L29.7455 23.6724L30.1049 23.8512C30.1389 23.8661 30.1728 23.8735 30.2067 23.8735C30.3084 23.8735 30.3965 23.8065 30.444 23.7022C30.4983 23.5607 30.4373 23.3969 30.3084 23.3373L29.4404 22.9202L25.9276 21.222V20.4474L29.1555 22.0041L29.5896 22.2126C29.7184 22.2722 29.8676 22.2126 29.9219 22.0711C29.9829 21.9296 29.9219 21.7657 29.793 21.6987L29.6981 21.654L26.2802 20.008H26.2734L25.7716 19.7622C25.7173 19.7324 25.6563 19.7324 25.6021 19.7473L25.5614 19.7697C25.4732 19.8144 25.4189 19.9112 25.4189 20.0155Z" fill="black"/>
<path d="M25.4189 20.0151C25.4189 20.0598 25.4257 20.097 25.4461 20.1417C25.5003 20.2757 25.6563 20.3353 25.7851 20.2683L26.2734 20.0076H26.2802L26.4294 19.9257L29.8608 21.5791L30.3084 21.7951C30.3423 21.81 30.3762 21.8175 30.4101 21.8175C30.5118 21.8175 30.6 21.7579 30.6475 21.6536C30.7017 21.5121 30.6407 21.3483 30.5118 21.2887L30.4847 21.2738L26.5243 19.3596C26.4565 19.3298 26.3819 19.3298 26.3141 19.3671L25.6021 19.7469L25.5614 19.7693C25.4732 19.814 25.4189 19.9108 25.4189 20.0151Z" fill="black"/>
<path d="M25.9272 20.4473V21.2219L29.44 22.92L29.1552 22.0039L25.9272 20.4473Z" fill="#8797C6"/>
<path d="M26.2808 20.0077L29.6986 21.6537L29.8614 21.5792L26.4299 19.9258L26.2808 20.0077Z" fill="#8797C6"/>
<path d="M29.1355 21.9294L29.1559 22.0039L29.4407 22.92L29.6509 23.6052L29.7458 23.6723L30.2206 24.0447L30.7699 23.8882V26.3461C30.7699 26.5025 30.8173 26.644 30.8987 26.7707C30.9462 26.86 31.0208 26.9345 31.1089 26.9866L32.8789 28.1113L33.5774 28.5582C33.652 28.6028 33.7401 28.6327 33.8283 28.6401C33.6384 28.9976 33.5231 29.4445 33.5231 30.0031C33.5163 31.9396 34.7506 34.2857 36.2832 35.2539C37.0359 35.7306 37.7141 35.7827 38.2159 35.4923C38.2159 35.4923 38.2159 35.4923 38.2159 35.4997C38.2295 35.4923 38.2363 35.4848 38.243 35.4848C38.2498 35.4774 38.2566 35.4774 38.2566 35.4699C38.7313 35.172 39.2128 34.8666 39.6875 34.5687C39.9723 34.39 40.2842 34.241 40.4741 33.9282C40.6233 33.6824 40.6979 33.377 40.7115 33.0791L44.0344 35.1869C44.0412 35.1869 44.0412 35.1869 44.0412 35.1944L48.6255 38.0991C48.6458 38.114 48.6729 38.1438 48.7001 38.1587L53.2708 41.0634C53.4471 41.1676 53.6506 41.19 53.8337 41.1155C53.9489 41.0783 54.0371 40.9964 54.1117 40.8995L54.6678 40.5495L55.034 40.7804L54.7017 40.9889C54.2202 41.3166 53.9286 41.9795 53.9218 42.9254C53.915 44.8619 55.1492 47.208 56.6819 48.1763C57.4007 48.638 58.0585 48.705 58.5535 48.4593C58.601 48.4295 58.6417 48.4071 58.6892 48.3773L60.9 46.9771V48.0422C60.8932 48.0869 60.8864 48.1316 60.8864 48.1688C60.8864 48.3699 60.961 48.5561 61.0966 48.705C61.1373 48.7423 61.1712 48.787 61.2187 48.8242L63.7549 50.4255C64.2568 50.7458 64.8264 50.9022 65.3893 50.9022C65.9522 50.9022 66.5218 50.7458 67.0236 50.4255L75.5886 44.9959L75.7717 44.8768C76.1379 44.6459 76.3888 44.2809 76.4973 43.8564C76.4973 43.849 76.4973 43.8415 76.5041 43.834V43.8266C76.5312 43.7447 76.5516 43.6553 76.5516 43.5585V41.3985C76.5516 41.3762 76.5448 41.3538 76.5448 41.3315C76.5516 41.2422 76.5719 41.1602 76.5719 41.0708C76.5719 40.4527 76.2803 39.9015 75.792 39.5887L74.6189 38.8513V37.6001C74.6189 37.1979 74.5511 36.8106 74.4086 36.4382C74.2255 35.9019 73.8865 35.4178 73.4389 35.0677L67.7289 30.5021L64.4467 23.0913C64.3924 22.9572 64.2975 22.8455 64.1754 22.771L58.757 19.345C58.2281 18.9949 57.5635 19.0023 57.0209 19.3524L56.9735 19.3822C56.9735 19.3673 56.9802 19.3599 56.9802 19.345V18.1384C56.9802 18.0937 56.9667 18.049 56.9463 18.0118C56.9463 17.9969 56.9396 17.9894 56.9328 17.982C56.9124 17.9596 56.8989 17.9373 56.8718 17.9149L56.8514 17.8926L55.4544 17.0063C55.373 16.9541 55.2781 16.9541 55.1967 17.0063L52.4027 18.7789C52.396 18.7789 52.396 18.7789 52.396 18.7789L51.867 19.1141C51.8263 19.0619 51.7721 19.0098 51.7111 18.9651L49.3647 17.4755C49.1544 17.3489 48.8967 17.3489 48.6865 17.4755L46.7741 18.6821C46.7605 18.697 46.747 18.7119 46.7334 18.7193C46.7131 18.7342 46.6995 18.7491 46.686 18.764C46.5571 18.8757 46.4757 19.0322 46.4486 19.2034C46.4486 19.2258 46.4418 19.2481 46.4418 19.2705C46.4418 19.2928 46.4351 19.3077 46.4351 19.33C46.4351 19.3971 46.4418 19.4567 46.4554 19.5162L42.0542 15.0623C42.1763 14.9283 42.2373 14.7346 42.1898 14.541C42.1288 14.2356 41.8508 14.0569 41.5795 14.1313L41.2201 14.2207L37.2462 10.2062C37.1648 10.1243 37.0427 10.1094 36.9478 10.169L36.6765 10.3403C36.6697 10.3329 36.6765 10.318 36.663 10.3105L36.2154 9.8711C36.2493 9.82641 36.2696 9.78172 36.2764 9.72958C36.2832 9.64021 36.2493 9.55079 36.1883 9.49124L34.6692 7.99418C34.4657 7.79307 34.1674 7.76329 33.93 7.91226L33.2315 8.35913C33.0823 8.45595 32.9942 8.60492 32.9535 8.78367C32.9399 8.80599 32.9331 8.83581 32.9264 8.87304C32.9264 8.87304 32.9196 8.8805 32.9196 8.88795V10.5191C32.9196 10.5861 32.9399 10.6531 32.9806 10.6978L33.8351 11.8076C34.0114 12.0385 34.2623 12.1576 34.5132 12.1576H34.52C34.6895 12.1278 34.9133 12.0087 34.9133 12.0087L35.0286 12.1129L35.1914 12.2693C35.1575 12.3736 35.1846 12.4928 35.2592 12.5673L36.8732 14.2058L39.7011 17.0584L40.6979 18.0713L40.1012 17.6915C39.9045 17.5649 39.6604 17.5649 39.4637 17.6841L38.8737 18.0565C38.7652 18.0118 38.6567 17.9894 38.5618 17.9894C38.4193 17.9894 38.2905 18.0341 38.182 18.1086L37.5649 18.4959L37.1919 18.2948C37.1309 18.2575 37.0563 18.2501 36.9885 18.2799L34.4929 19.3226C34.4929 19.33 34.4929 19.33 34.4861 19.33C34.4861 19.33 34.4861 19.33 34.4793 19.33L30.485 21.274L29.8611 21.5794L29.6984 21.6538L29.1355 21.9294Z" fill="black"/>
<path d="M37.583 32.1309C37.5897 32.1383 37.5897 32.1383 37.5897 32.1458C37.5897 32.1383 37.5897 32.1383 37.5897 32.1309C37.583 32.116 37.583 32.1086 37.583 32.0937C37.583 32.0862 37.5762 32.0787 37.5762 32.0713C37.5762 32.0937 37.5762 32.1086 37.583 32.1309Z" fill="#888888"/>
<path d="M37.5148 31.8331C37.5216 31.8405 37.5283 31.8554 37.5283 31.8629C37.5283 31.8554 37.5283 31.8405 37.5216 31.8331C37.508 31.7884 37.4944 31.7437 37.4741 31.699C37.4877 31.7437 37.5012 31.7884 37.5148 31.8331Z" fill="#888888"/>
<path d="M29.7773 27.7737L32.5916 29.5538L30.5843 30.8273C30.2859 31.021 30.2859 31.4828 30.5843 31.6764L36.2672 35.2812L56.6591 48.2036V48.211L61.5079 51.2796C63.0201 52.2404 64.8918 52.2404 66.4041 51.2796L75.1386 45.7383C75.4099 45.5744 75.5591 45.2914 75.5862 44.9935L67.0212 50.4231C66.5193 50.7433 65.9497 50.8998 65.3868 50.8998C64.824 50.8998 64.2543 50.7433 63.7525 50.4231L61.2163 48.8218C61.1688 48.7845 61.1348 48.7398 61.0942 48.7026C60.9586 48.5536 60.8839 48.3674 60.8839 48.1664C60.8839 48.1291 60.8907 48.0844 60.8975 48.0397V46.9746L58.6867 48.3749C58.6393 48.4047 58.5986 48.427 58.5511 48.4568C58.0561 48.7026 57.3983 48.6356 56.6794 48.1738C55.1468 47.2055 53.9126 44.8594 53.9194 42.9229C53.9262 41.9771 54.2178 41.3142 54.6992 40.9865L55.0315 40.7779L54.6653 40.547L54.1092 40.8971C54.0347 40.9939 53.9465 41.0758 53.8312 41.1131C53.6481 41.1876 53.4447 41.1652 53.2683 41.0609L48.6976 38.1562C48.6705 38.1413 48.6434 38.1115 48.6231 38.0966L44.0388 35.1919C44.0388 35.1845 44.0388 35.1845 44.032 35.1845L40.709 33.0767C40.6955 33.3746 40.6209 33.68 40.4717 33.9257C40.2818 34.2386 39.9699 34.3875 39.6851 34.5663C39.2104 34.8642 38.7289 35.1696 38.2541 35.4674C38.2541 35.4749 38.2474 35.4749 38.2406 35.4824C38.2338 35.4824 38.227 35.4898 38.2135 35.4973C38.2135 35.4898 38.2135 35.4898 38.2135 35.4898C37.7116 35.7803 37.0335 35.7282 36.2808 35.2515C34.7481 34.2832 33.5139 31.9371 33.5207 30.0006C33.5207 29.442 33.636 28.9952 33.8259 28.6376C33.7377 28.6302 33.6495 28.6004 33.575 28.5557L32.8764 28.1088L31.1065 26.9842C31.0183 26.932 30.9437 26.8575 30.8963 26.7682C30.8488 26.7533 30.7945 26.7608 30.7538 26.7905L29.7773 27.4087C29.6485 27.4906 29.6485 27.6918 29.7773 27.7737Z" fill="#888888"/>
<path d="M33.5625 26.8213L34.0033 27.1043C34.105 26.9554 34.1864 26.8958 34.3152 26.8139C34.5051 26.6947 34.7018 26.6351 34.9052 26.6351C35.1019 26.6351 35.2986 26.6947 35.4817 26.8139L38.0722 28.4524C38.8046 28.9216 39.3403 29.7186 39.537 30.6198L40.1134 30.9773C39.9846 29.726 39.3268 28.6088 38.3299 27.9683L35.7394 26.3297C35.2172 25.9946 34.5933 25.9946 34.0711 26.3297C33.8677 26.4564 33.6981 26.6277 33.5625 26.8213Z" fill="#3751A0"/>
<path d="M32.1313 24.6165V25.9124L33.5622 26.821C33.6979 26.6274 33.8674 26.4561 34.0708 26.3295C34.593 25.9943 35.2169 25.9943 35.7391 26.3295L38.3296 27.9681C39.3265 28.6086 39.9843 29.7258 40.1132 30.977L43.7005 33.2487V31.0292L35.6645 25.9348L32.1313 24.6165Z" fill="#CCCCCC"/>
<path d="M32.1313 24.6165V25.9124L33.5622 26.821C33.6979 26.6274 33.8674 26.4561 34.0708 26.3295C34.593 25.9943 35.2169 25.9943 35.7391 26.3295L38.3296 27.9681C39.3265 28.6086 39.9843 29.7258 40.1132 30.977L43.7005 33.2487V31.0292L35.6645 25.9348L32.1313 24.6165Z" fill="#A7A22B"/>
<path d="M45.0537 30.0527V30.589C45.0537 30.5964 45.0605 30.5964 45.0605 30.6039V34.1119L48.363 36.2048V32.1456L45.0537 30.0527Z" fill="#A7A22B"/>
<path d="M49.7188 25.7026V37.0832L53.3333 39.3698C53.5978 38.9676 53.9775 38.6548 54.4183 38.4835C55.0422 38.2377 55.734 38.3121 56.3104 38.6771L60.169 41.1275C61.0167 41.6637 61.6474 42.2596 61.9593 43.3619L65.0788 45.3356L65.0856 45.3282V43.4513C65.0856 43.0789 65.0042 42.7139 64.8483 42.3937C64.699 42.051 64.4753 41.7606 64.1904 41.5297L58.3312 36.8449L55.8628 31.2589L55.3135 30.0151L54.9812 29.2703L49.7188 25.7026ZM50.7292 28.1828L53.8894 30.1789L56.3104 36.1597L50.7292 32.6219V28.1828Z" fill="#A7A22B"/>
<path d="M49.7188 25.673V25.7028L54.9812 29.2704L55.3135 30.0152L55.8628 31.259L58.3312 36.845L64.1904 41.5298C64.4753 41.7607 64.699 42.0512 64.8483 42.3938L73.1895 37.1057C73.1827 37.0685 73.1623 37.0238 73.1488 36.9866C73.0538 36.7035 72.8775 36.4503 72.647 36.2715L66.7945 31.5942C66.7064 31.5197 66.6318 31.4303 66.5843 31.3186L63.6683 24.7271L63.3224 23.9451L58.0735 20.6232C57.965 20.5562 57.8294 20.5562 57.7073 20.6381L49.7188 25.673ZM55.6525 29.8365L63.4106 24.8686L66.3537 31.5272L58.5821 36.4503L55.6525 29.8365Z" fill="#FDF64D"/>
<path d="M35.2041 19.6239L35.3465 19.7058L36.0111 19.2812L35.2041 19.6239Z" fill="#8797C6"/>
<path d="M33.0342 23.3778L36.1604 24.5472C36.2012 24.5621 36.2418 24.5844 36.2757 24.6068L43.6947 29.3139V28.9564L41.3619 27.4668C41.1042 27.3104 40.9753 26.9827 41.0363 26.6625L41.2737 25.4857C41.2533 25.4782 41.233 25.4857 41.2194 25.4707L41.1109 25.4112L40.6023 25.7314L40.4599 25.8208C40.209 25.9474 39.8767 25.9102 39.5173 25.6793C38.9273 25.3069 38.4255 24.5472 38.2152 23.7726L37.51 23.3704L37.1505 23.6013L37.0081 23.6907C36.7572 23.8173 36.4249 23.7801 36.0655 23.5492C35.6044 23.2662 35.211 22.7373 34.9533 22.1638L33.0342 23.3778Z" fill="#3751A0"/>
<path d="M36.2896 19.1698C36.5134 19.1325 36.7711 19.1921 37.0491 19.3708C37.6662 19.7656 38.1884 20.5998 38.3783 21.419L38.9479 21.7393L39.5514 21.3595C39.8024 21.2328 40.1347 21.2626 40.5009 21.4935C41.0298 21.8361 41.491 22.499 41.7283 23.2066L41.9724 22.0074V22C41.9928 21.8957 42.0403 21.8063 42.0945 21.7244C42.1013 21.7095 42.1149 21.6946 42.1216 21.6872C42.142 21.6574 42.1623 21.635 42.1894 21.6127L37.0626 18.842L36.2896 19.1698Z" fill="#8797C6"/>
<path d="M40.106 19.313C40.2144 19.5066 40.2958 19.7152 40.3501 19.9237L40.7095 19.7003L40.106 19.313Z" fill="#3751A0"/>
<path d="M29.9219 22.1042L30.2203 23.0203L30.3559 22.9756L34.5672 21.1806C34.6011 21.1657 34.6418 21.1657 34.6757 21.1657C34.6689 21.0689 34.6553 20.9721 34.6553 20.8752C34.6553 20.5252 34.7367 20.2496 34.8723 20.0634L34.574 19.8921L29.9219 22.1042Z" fill="#8797C6"/>
<path d="M33.4272 9.7627V9.91907L34.2478 10.7458L34.2817 10.6043L33.4272 9.7627Z" fill="#8797C6"/>
<path d="M33.4271 8.94354C33.4203 8.9659 33.4271 9.01059 33.4678 9.05528L34.4782 10.0459C34.485 10.0384 34.4986 10.031 34.5121 10.0235L35.3937 9.45745L34.329 8.4073C34.2884 8.37007 34.2341 8.36262 34.1866 8.39239L33.4881 8.8393C33.4407 8.86908 33.4271 8.91376 33.4271 8.94354Z" fill="#8797C6"/>
<path d="M34.7026 11.0366L35.3672 11.692L35.4486 11.4462L34.7976 10.8057L34.7636 10.8206C34.7636 10.8206 34.7569 10.8206 34.7569 10.828L34.7026 11.0366Z" fill="#8797C6"/>
<path d="M35.2588 10.5075L35.7131 10.9469L35.9098 10.8203L35.4283 10.3958L35.2588 10.5075Z" fill="#8797C6"/>
<path d="M36.8179 10.8946L39.4627 13.1961L37.0417 10.7532L36.8179 10.8946Z" fill="#8797C6"/>
<path d="M36.2148 11.2745L39.9718 15.0731L40.3651 14.7007L36.3437 11.1926L36.2148 11.2745Z" fill="#8797C6"/>
<path d="M35.7197 12.273L39.4495 16.0417L39.6598 15.5203L35.9028 11.7144L35.7197 12.273Z" fill="#8797C6"/>
<path d="M40.2295 16.8308L43.8779 20.5176L44.2306 20.2942C44.2645 20.2718 44.2984 20.2643 44.3323 20.2495L40.4533 16.3169L40.277 16.7489C40.2634 16.7787 40.2431 16.801 40.2295 16.8308Z" fill="#8797C6"/>
<path d="M43.667 17.4563L47.2205 21.3739L47.424 21.2473L43.667 17.4563Z" fill="#8797C6"/>
<path d="M40.7241 15.8331L45.5051 20.6743L46.3663 21.218L41.131 15.4458L40.7241 15.8331Z" fill="#8797C6"/>
<path d="M47.146 20.2122L47.8852 20.957L48.1022 20.8154L47.146 20.2122Z" fill="#003366"/>
<path d="M48.4692 19.3261L49.4593 19.9518L50.0086 19.6091L49.0253 18.9761L48.4692 19.3261Z" fill="#8797C6"/>
<path d="M43.9863 22.1712L44.9764 22.7968L45.4683 22.4902L44.461 21.8733L43.9863 22.1712Z" fill="#8797C6"/>
<path d="M42.4673 26.4536L44.2983 27.6155V24.0852L43.0912 23.3254L42.4673 26.4536Z" fill="#8797C6"/>
<path d="M45.6543 24.0925V26.312L46.5901 24.2862L46.4749 24.2191C46.4003 24.167 46.3528 24.0776 46.3528 23.9734V23.7797L46.2714 23.6978L45.6543 24.0925Z" fill="#8797C6"/>
<path d="M45.6953 28.7406L48.3604 30.4239V28.6364L47.3161 29.2992C47.2754 29.3216 47.2347 29.3365 47.1872 29.3365C47.1804 29.3365 47.1804 29.329 47.1737 29.329C47.1669 29.329 47.1601 29.3365 47.1533 29.3365C47.1058 29.3365 47.0651 29.3216 47.0245 29.2992L45.9123 28.5991L45.6953 28.7406Z" fill="#3751A0"/>
<path d="M47.5737 28.4874L48.3604 27.9883V25.6497L47.5737 28.4874Z" fill="#3751A0"/>
<path d="M45.6543 27.5488V27.7871L46.9971 28.6436L47.9668 25.1356C47.9397 25.1356 47.9125 25.1282 47.8922 25.1133C47.8922 25.1133 47.8854 25.1133 47.8786 25.1133L47.031 24.5696L45.6543 27.5488Z" fill="#3751A0"/>
<path d="M54.1787 20.071V20.6296L56.4709 19.1773V18.6187L54.1787 20.071Z" fill="#F79420"/>
<path d="M51.0122 22.0818V22.6404L53.6705 20.9572V20.3911L51.0122 22.0818Z" fill="#F79420"/>
<path d="M46.8613 23.2588V23.8174L47.7565 24.3834V23.8248L46.8613 23.2588Z" fill="#F79420"/>
<path d="M48.2656 23.8247V24.3833L50.5035 22.9682V22.4021L48.2656 23.8247Z" fill="#F79420"/>
<path d="M47.1123 22.7746L48.0075 23.3407L50.2453 21.9181L49.357 21.3521L47.1123 22.7746Z" fill="#F79420"/>
<path d="M49.8662 21.032L50.7546 21.5981L53.4197 19.9074L52.5245 19.3413L49.8662 21.032Z" fill="#F79420"/>
<path d="M53.0332 19.0205L53.1688 19.1024L53.9284 19.5865L56.2205 18.1342L55.3253 17.5681L53.0332 19.0205Z" fill="#F79420"/>
<path d="M62.2559 47.1443V47.7551L64.4327 49.1329C65.0227 49.5053 65.7551 49.5053 66.3451 49.1329L75.0932 43.5841C75.1881 43.5246 75.1949 43.4352 75.1949 43.3905V42.9287L67.0436 48.1051C66.535 48.4254 65.9721 48.5818 65.4092 48.5818C64.8396 48.5818 64.2767 48.4254 63.7749 48.1051L62.2559 47.1443Z" fill="#BABABA"/>
<path d="M62.9409 45.8484L64.4532 46.8166C65.0432 47.189 65.7756 47.189 66.3656 46.8092L75.1136 41.2604C75.2018 41.2082 75.2154 41.1189 75.2154 41.0667C75.2154 41.022 75.2018 40.9327 75.1136 40.8731L74.5915 40.5454C74.5508 40.7316 74.4423 40.888 74.2931 40.9923L65.4297 46.839C65.4297 46.839 65.4297 46.839 65.4229 46.8464C65.389 46.8688 65.3551 46.8762 65.3144 46.8911C65.2941 46.8985 65.2805 46.9135 65.2602 46.9209C65.2127 46.9358 65.172 46.9358 65.1245 46.9358C65.111 46.9432 65.0974 46.9432 65.0838 46.9432C65.0567 46.9432 65.0364 46.9358 65.0093 46.9358C64.9754 46.9283 64.9414 46.9283 64.9143 46.9209C64.894 46.9135 64.8804 46.906 64.8668 46.8985C64.8261 46.8836 64.7855 46.8688 64.7516 46.8464C64.7448 46.8464 64.7448 46.8464 64.7448 46.8464L63.0562 45.7739L62.9409 45.8484Z" fill="#BABABA"/>
<path d="M64.8486 42.3941C65.0046 42.7143 65.086 43.0793 65.086 43.4517V45.3286L73.2644 39.9288V37.5976C73.2644 37.4337 73.2441 37.2698 73.1898 37.106L64.8486 42.3941Z" fill="#CCCCCC"/>
<path d="M50.73 28.1833V32.6224L56.3111 36.1602L53.8901 30.1794L50.73 28.1833Z" fill="#797979"/>
<path d="M55.6528 29.8365L58.5824 36.4503L66.354 31.5272L63.4108 24.8687L55.6528 29.8365Z" fill="#B3B3B3"/>
<path d="M56.7006 42.9891C57.441 43.4586 58.0408 44.5997 58.0384 45.5341C58.036 46.4685 57.4322 46.8464 56.6919 46.3769C55.9515 45.9074 55.3516 44.7663 55.354 43.8319C55.3564 42.8975 55.9602 42.5196 56.7006 42.9891Z" fill="#999999"/>
<path d="M56.1763 43.0071C56.4641 43.1896 56.6973 43.6332 56.6963 43.9964C56.6954 44.3596 56.4607 44.5065 56.1729 44.3241C55.8851 44.1416 55.6519 43.698 55.6528 43.3348C55.6538 42.9715 55.8885 42.8246 56.1763 43.0071Z" fill="#BABABA"/>
<path d="M36.3007 30.0655C37.0411 30.535 37.6409 31.6761 37.6385 32.6105C37.6361 33.5449 37.0323 33.9228 36.2919 33.4533C35.5516 32.9838 34.9517 31.8427 34.9541 30.9083C34.9565 29.974 35.5603 29.596 36.3007 30.0655Z" fill="#999999"/>
<path d="M36.0691 20.9104C36.4462 21.1495 36.7517 21.7307 36.7505 22.2065C36.7492 22.6824 36.4417 22.8749 36.0647 22.6358C35.6876 22.3967 35.3821 21.8155 35.3833 21.3396C35.3845 20.8637 35.692 20.6713 36.0691 20.9104Z" fill="#999999"/>
<path d="M39.5218 23.0393C39.8988 23.2784 40.2043 23.8596 40.2031 24.3354C40.2019 24.8113 39.8944 25.0038 39.5173 24.7647C39.1402 24.5256 38.8347 23.9444 38.8359 23.4685C38.8372 22.9926 39.1447 22.8002 39.5218 23.0393Z" fill="#999999"/>
<path d="M72.1834 38.1331C71.7023 38.4382 71.3124 39.1798 71.314 39.7871C71.3155 40.3943 71.7079 40.6399 72.1891 40.3348C72.6703 40.0297 73.0602 39.2881 73.0586 38.6808C73.057 38.0736 72.6646 37.828 72.1834 38.1331Z" fill="white"/>
<path d="M66.2816 42.0554C65.8004 42.3606 65.4105 43.1022 65.4121 43.7095C65.4137 44.3167 65.8061 44.5623 66.2873 44.2572C66.7685 43.9521 67.1583 43.2104 67.1567 42.6032C67.1552 41.9959 66.7628 41.7503 66.2816 42.0554Z" fill="white"/>
<path d="M35.7764 30.0748C36.0642 30.2573 36.2974 30.7008 36.2964 31.0641C36.2955 31.4273 36.0608 31.5742 35.773 31.3917C35.4852 31.2092 35.252 30.7656 35.2529 30.4024C35.2539 30.0392 35.4886 29.8923 35.7764 30.0748Z" fill="#BABABA"/>
<path d="M29.1757 21.4305C33.9807 21.1629 34.3032 14.1475 34.4092 11.8417L34.0708 11.8223C33.8933 15.6753 33.1916 20.8236 29.1592 21.0478L29.1757 21.4305Z" fill="black"/>
<path d="M0.0051055 7.48652C0.00575354 7.50141 0.312633 8.93859 0.368573 9.60004C0.406041 10.1502 0.499753 10.5873 0.672217 10.9628C0.725192 11.0881 0.850172 11.152 0.970947 11.1192L1.31973 11.0211C1.31715 10.9616 1.30809 10.9097 1.30583 10.8576L1.3026 10.7832C1.2764 10.1806 1.43333 9.7298 1.72817 9.4841C1.76756 9.45334 1.80696 9.42258 1.85989 9.39144L2.27518 9.1055C2.43216 9.12394 2.59654 9.15706 2.77643 9.23448C2.85975 9.27708 2.95018 9.32696 3.04094 9.38428C4.17641 10.0485 5.17671 11.662 5.36957 13.1318C5.39285 13.3546 5.40158 13.5555 5.39609 13.7419C5.38999 13.7569 5.40417 13.7714 5.40482 13.7863C5.40676 13.831 5.40256 13.8907 5.39807 13.9429C5.39194 14.1143 5.38063 14.3231 5.36839 14.5096C5.35998 14.629 5.4191 14.7392 5.51632 14.7889C5.58606 14.8319 7.25382 15.7138 8.28113 16.0753C9.25352 16.4234 11.7958 17.5887 11.9486 17.6668C12.9827 18.3411 14.2752 19.1801 15.5396 19.9976C15.6232 20.0476 15.7317 20.0449 15.8108 19.9908C15.8964 19.929 15.9322 19.8165 15.9142 19.7126L15.8964 19.6163L15.8944 19.5716C15.887 19.5569 15.8864 19.542 15.886 19.5346C15.8528 19.2375 15.8615 18.9692 15.8924 18.745L15.8921 18.7375C15.8979 18.715 15.897 18.6927 15.9031 18.6777C15.9305 18.528 15.979 18.3928 16.0352 18.2797C16.0914 18.1665 16.1621 18.0754 16.2473 18.0062C16.5092 17.7837 16.909 17.7663 17.3589 17.9636C17.4422 18.0062 17.5255 18.0488 17.6092 18.0988C18.6614 18.7205 19.5957 20.2239 19.7774 21.5897C19.8193 21.9312 19.8119 22.2293 19.7548 22.4766C19.749 22.499 19.7435 22.5289 19.7441 22.5438C19.7426 22.663 19.8155 22.7804 19.9256 22.8148C20.4724 23.0544 22.2018 23.7932 22.5493 23.8217C22.5971 23.828 22.6992 23.8329 22.828 23.8297C23.6215 23.8098 25.6518 23.6623 26.2651 23.5576L26.3058 23.5566C26.3394 23.5483 26.3665 23.5476 26.3798 23.5398C26.9107 23.4148 28.6439 22.5225 29.3417 22.0209L29.5652 21.8515C30.2759 21.3347 31.1643 20.687 31.5566 20.0292C31.999 19.2734 31.8581 17.5937 31.8365 17.4081C31.8352 17.3783 31.8271 17.3487 31.819 17.3192C31.894 17.1683 31.9356 17.0332 31.9369 16.9066C31.9591 16.4815 31.8024 15.6885 31.7605 15.5034C31.6994 15.1921 29.8281 12.595 29.0781 11.7423C28.2778 10.8239 27.0361 10.0581 25.9248 9.79542C25.0261 9.57956 24.5478 9.35318 24.5406 9.3459C24.5406 9.3459 24.5264 9.33135 24.5054 9.31701C24.5467 9.01805 24.62 8.51724 24.6293 8.1074C24.6429 7.63786 24.4804 7.02375 24.2153 6.8591C24.1106 6.79466 24.0021 6.79738 23.8968 6.87451C23.6072 7.08281 23.3637 7.57301 23.3915 7.90001C23.419 8.21956 23.5117 8.32153 23.7077 8.45813C23.7568 8.49413 23.7759 8.62026 23.7749 8.75433C22.9035 8.07603 21.4919 6.99417 20.7346 6.43966C19.6203 5.64079 16.8103 4.25132 16.4289 4.0672C16.1947 3.83473 14.826 2.49114 13.633 1.59742C12.1442 0.457935 9.19209 0.0178294 9.15819 0.0186775C8.53714 -0.055168 7.09713 0.0850549 6.09797 0.527094C5.13275 0.968283 1.94024 3.27496 1.80205 3.37523C0.344064 5.13207 0.426801 6.25456 0.456548 6.6262C0.455905 6.76772 0.270527 7.03305 0.0816307 7.21651C0.0167398 7.28518 -0.0126757 7.39014 0.0051055 7.48652ZM23.7958 8.29951C23.635 8.1918 23.5785 8.14107 23.5607 7.88832C23.5359 7.6283 23.7551 7.20571 23.9986 7.02834C24.0444 6.98996 24.0851 6.98895 24.1339 7.0175C24.3154 7.13215 24.474 7.65694 24.4592 8.09674C24.4544 8.45434 24.3921 8.89532 24.3507 9.19423C24.2455 9.11495 24.1118 9.00661 23.9435 8.88417C23.9625 8.6975 23.9567 8.40722 23.7958 8.29951Z" fill="black"/>
<path d="M15.8593 19.2373L15.8625 19.3118C15.8657 19.3861 15.8757 19.4603 15.8857 19.5346C15.8861 19.542 15.8867 19.5569 15.8941 19.5716C16.0715 20.8407 16.939 22.2118 17.9076 22.7834C17.9841 22.8261 18.0603 22.8615 18.1369 22.9042C18.5451 23.0802 18.8984 23.0863 19.1703 22.938C19.2433 22.8989 19.3095 22.8601 19.3615 22.8066L19.7438 22.5438C19.7432 22.5289 19.7487 22.499 19.7545 22.4765C19.8116 22.2293 19.8191 21.9312 19.7771 21.5897C19.5954 20.2239 18.6611 18.7205 17.6089 18.0988C17.5252 18.0488 17.4419 18.0062 17.3586 17.9636C16.9087 17.7663 16.5089 17.7837 16.247 18.0062C16.0768 18.152 15.9577 18.3784 15.9028 18.6777C15.8625 18.8426 15.8502 19.0291 15.8593 19.2373Z" fill="#1A1A1A"/>
<path d="M17.8821 21.9464C17.7258 21.8538 17.5733 21.7259 17.4295 21.5776L17.8733 20.8734L18.5676 22.0839C18.4114 22.1246 18.2296 22.1119 18.0233 22.0195C17.976 21.9986 17.9289 21.974 17.8821 21.9464ZM17.3558 21.5005C17.2834 21.4195 17.2146 21.3332 17.1495 21.2425L17.4527 20.6617C17.5049 20.5656 17.5859 20.5277 17.6498 20.5656C17.6627 20.5732 17.6749 20.5839 17.686 20.5978C17.754 20.6828 17.7521 20.8408 17.6869 20.9529L17.3558 21.5005ZM18.6275 22.0654L18.1009 21.1338C17.9986 20.9504 17.9494 20.7696 18.0028 20.7398C18.0174 20.7314 18.0373 20.7353 18.0605 20.7491C18.1227 20.7859 18.209 20.8936 18.2825 21.0291L18.789 21.9703C18.7398 22.011 18.6865 22.0436 18.6275 22.0654ZM17.7411 20.5902C17.7309 20.5841 17.7207 20.5755 17.7112 20.5644C17.692 20.5409 17.6819 20.5154 17.6787 20.493C17.6719 20.475 17.671 20.4531 17.6789 20.4419C17.6894 20.4252 17.71 20.4223 17.7319 20.4352C17.741 20.4406 17.7503 20.4487 17.7593 20.4597L17.7648 20.4649L17.7672 20.4691C17.7976 20.5066 17.8087 20.557 17.7939 20.5836C17.786 20.5947 17.7756 20.5987 17.761 20.5957L17.7619 20.599C17.7551 20.5973 17.7481 20.5943 17.7411 20.5902ZM17.928 20.6722C17.9251 20.6705 17.9223 20.6685 17.9194 20.6662C17.9046 20.6565 17.891 20.6382 17.8788 20.618C17.8574 20.5783 17.8564 20.5359 17.8746 20.5169L17.8781 20.5096L17.8803 20.5082L17.8826 20.5086C17.8925 20.5044 17.9045 20.5068 17.9169 20.5141C17.9344 20.5244 17.9527 20.5447 17.9671 20.5707C17.9785 20.5905 17.9853 20.6085 17.9853 20.6261C17.9885 20.6495 17.9816 20.6668 17.9691 20.6761C17.9566 20.6812 17.9428 20.6809 17.928 20.6722ZM17.0813 21.1519C16.8147 20.7549 16.6202 20.2842 16.5601 19.8326C16.5489 19.7441 16.547 19.662 16.546 19.5804L17.4708 20.3821L17.0813 21.1519ZM17.6524 20.3326C17.6476 20.3298 17.6426 20.3261 17.6375 20.3216C17.6218 20.3086 17.6082 20.2903 17.5992 20.2747C17.5868 20.2506 17.5812 20.224 17.5858 20.2053C17.5872 20.1848 17.5996 20.1726 17.6131 20.1694C17.6238 20.1699 17.635 20.1719 17.6465 20.1787C17.6497 20.1806 17.653 20.1829 17.6563 20.1856C17.6877 20.2117 17.7102 20.2613 17.7079 20.2991L17.7088 20.3024L17.7091 20.3081L17.7099 20.3114C17.704 20.3396 17.6802 20.3491 17.6524 20.3326ZM17.9516 20.463C17.9299 20.4502 17.9086 20.4227 17.8945 20.3909L17.8919 20.3838C17.8764 20.3383 17.8901 20.3017 17.9196 20.3006C17.9273 20.3005 17.9353 20.3034 17.9436 20.3083C17.9501 20.3122 17.9569 20.3173 17.9638 20.323C17.9796 20.3389 17.9942 20.3606 18.0043 20.3861C18.013 20.4136 18.0133 20.4379 18.0063 20.4534C18.0015 20.4654 17.9926 20.4704 17.9789 20.4707C17.9701 20.4713 17.9608 20.4685 17.9516 20.463ZM17.7815 20.2534C17.7482 20.2337 17.7216 20.1923 17.7162 20.1495C17.713 20.1271 17.7177 20.1113 17.7256 20.1001C17.7359 20.0922 17.7494 20.0891 17.7664 20.0973C17.769 20.0984 17.7717 20.0998 17.7743 20.1013C17.7889 20.11 17.8038 20.1252 17.8161 20.1435C17.8283 20.1637 17.8374 20.1821 17.8406 20.2055C17.8461 20.2469 17.8257 20.2674 17.7942 20.2561L17.7951 20.2594L17.785 20.2554L17.7815 20.2534ZM18.8376 21.9339L18.183 20.6939L18.996 20.6699C19.0187 20.7615 19.0399 20.8531 19.052 20.944C19.1114 21.3943 19.0246 21.7393 18.8376 21.9339ZM17.3577 20.1618C17.3256 20.1428 17.291 20.118 17.2555 20.088L16.5466 19.4859C16.5506 19.3961 16.5608 19.3118 16.5789 19.2351L17.294 19.8055C17.4352 19.9189 17.5488 20.0811 17.5362 20.162C17.529 20.2242 17.4546 20.2192 17.3577 20.1618ZM18.1633 20.5203C18.109 20.4881 18.066 20.4426 18.0485 20.3909C18.0124 20.2876 18.0943 20.2133 18.2212 20.2186L18.8621 20.2518C18.9042 20.3549 18.9396 20.4596 18.9697 20.5649L18.341 20.5697C18.28 20.5703 18.2163 20.5516 18.1633 20.5203ZM17.5327 19.891L16.6047 19.1629C16.7229 18.788 17.0144 18.6069 17.4053 18.7043L17.5327 19.891ZM17.6891 18.8191C17.6954 18.8228 17.7016 18.8262 17.7078 18.8294L17.8425 19.7496C17.8691 19.9356 17.8335 20.0672 17.7608 20.0344C17.7579 20.0331 17.755 20.0316 17.7521 20.0299C17.6792 19.9868 17.607 19.8121 17.5859 19.6349L17.4791 18.7275C17.5175 18.7401 17.5542 18.7469 17.5936 18.7646C17.6111 18.7725 17.628 18.7821 17.645 18.7922C17.6534 18.7972 17.6619 18.8023 17.6705 18.8074C17.6767 18.8115 17.6829 18.8154 17.6891 18.8191ZM17.9739 20.087L17.7847 18.8731C18.195 19.1319 18.5742 19.6114 18.8138 20.1469L17.9739 20.087ZM17.7356 18.5911C17.6769 18.5564 17.6178 18.5255 17.5585 18.4991C16.7564 18.1415 16.2194 18.6993 16.3576 19.7425C16.4857 20.713 17.146 21.7579 17.8793 22.1921C17.9386 22.2272 17.9985 22.2583 18.0584 22.2851C18.8566 22.6403 19.3929 22.083 19.2544 21.0341C19.1272 20.0688 18.4663 19.0237 17.7356 18.5911Z" fill="#CCCCCC"/>
<path d="M1.30214 10.7834L1.30538 10.8578C1.30764 10.9099 1.31669 10.9618 1.31928 11.0213L1.32154 11.0734C1.49278 12.3575 2.36773 13.7433 3.34336 14.3222C3.41993 14.3649 3.50325 14.4075 3.57946 14.4429C3.98802 14.6263 4.34129 14.6323 4.6129 14.4766C4.67941 14.4451 4.74527 14.3988 4.80406 14.3452L5.39762 13.9431C5.40211 13.8909 5.4063 13.8312 5.40436 13.7865C5.40372 13.7716 5.38954 13.7571 5.39564 13.7421C5.40113 13.5557 5.39239 13.3549 5.36911 13.132C5.17626 11.6622 4.17596 10.0487 3.04048 9.3845C2.94973 9.32717 2.85929 9.27729 2.77598 9.23469C2.59608 9.15727 2.43171 9.12416 2.27473 9.10571L1.85944 9.39165C1.80651 9.42279 1.76711 9.45355 1.72772 9.48431C1.43288 9.73001 1.27595 10.1808 1.30214 10.7834Z" fill="#1A1A1A"/>
<path d="M3.32059 13.4881C3.16428 13.3956 3.01179 13.2676 2.86793 13.1194L3.31174 12.4152L4.00605 13.6257C3.84992 13.6663 3.66809 13.6536 3.46177 13.5613C3.41445 13.5403 3.36736 13.5158 3.32059 13.4881ZM2.79423 13.0423C2.72188 12.9613 2.65311 12.8749 2.58796 12.7843L2.89117 12.2034C2.94343 12.1073 3.02433 12.0695 3.08826 12.1073C3.10114 12.115 3.11335 12.1257 3.12448 12.1396C3.19244 12.2245 3.19055 12.3825 3.12535 12.4947L2.79423 13.0423ZM4.06598 13.6072L3.53935 12.6756C3.43703 12.4922 3.38791 12.3114 3.44131 12.2816C3.45585 12.2732 3.47573 12.277 3.499 12.2908C3.56115 12.3276 3.6475 12.4353 3.72093 12.5709L4.22746 13.512C4.1783 13.5527 4.12502 13.5854 4.06598 13.6072ZM3.17957 12.1319C3.16933 12.1259 3.15914 12.1173 3.14966 12.1061C3.1305 12.0827 3.12035 12.0571 3.11716 12.0348C3.11036 12.0168 3.10946 11.9948 3.11735 11.9837C3.12792 11.9669 3.14852 11.964 3.17041 11.977C3.1795 11.9824 3.18882 11.9905 3.19773 12.0015L3.20325 12.0066L3.2057 12.0109C3.23606 12.0484 3.24722 12.0987 3.23238 12.1253C3.22449 12.1365 3.21403 12.1405 3.1995 12.1375L3.20039 12.1408C3.19356 12.139 3.18655 12.1361 3.17957 12.1319ZM3.36643 12.2139C3.36362 12.2123 3.36077 12.2103 3.35789 12.208C3.34308 12.1983 3.32944 12.18 3.31723 12.1597C3.29588 12.1201 3.29491 12.0776 3.3131 12.0586L3.3166 12.0514L3.31881 12.0499L3.3211 12.0503C3.331 12.0462 3.343 12.0485 3.35539 12.0558C3.37289 12.0662 3.39119 12.0865 3.40557 12.1124C3.417 12.1322 3.42381 12.1502 3.42377 12.1679C3.427 12.1912 3.42012 12.2085 3.40761 12.2179C3.39506 12.223 3.38123 12.2227 3.36643 12.2139ZM2.51978 12.6936C2.25321 12.2966 2.05873 11.826 1.99854 11.3743C1.98733 11.2858 1.98549 11.2037 1.98443 11.1222L2.90932 11.9238L2.51978 12.6936ZM3.09089 11.8744C3.08603 11.8715 3.08105 11.8678 3.07602 11.8633C3.06031 11.8503 3.04667 11.832 3.03769 11.8165C3.02532 11.7924 3.01968 11.7658 3.02423 11.7471C3.02566 11.7265 3.03806 11.7143 3.05159 11.7111C3.06227 11.7117 3.07347 11.7136 3.08498 11.7204C3.08821 11.7223 3.09146 11.7246 3.09473 11.7274C3.12614 11.7534 3.14865 11.803 3.1464 11.8408L3.1473 11.8441L3.14753 11.8498L3.14842 11.8532C3.14247 11.8813 3.11872 11.8909 3.09089 11.8744ZM3.39008 12.0048C3.36841 11.9919 3.34705 11.9645 3.33298 11.9327L3.33041 11.9256C3.3149 11.8801 3.32858 11.8435 3.35812 11.8424C3.36575 11.8422 3.37375 11.8452 3.38207 11.8501C3.38861 11.854 3.39535 11.8591 3.40227 11.8648C3.41809 11.8807 3.43263 11.9023 3.44278 11.9279C3.45149 11.9554 3.45173 11.9797 3.44477 11.9951C3.43995 12.0072 3.43105 12.0121 3.41741 12.0124C3.4086 12.013 3.39931 12.0102 3.39008 12.0048ZM3.22001 11.7951C3.18673 11.7754 3.16011 11.734 3.1547 11.6912C3.15151 11.6689 3.15617 11.653 3.16406 11.6419C3.17436 11.634 3.18789 11.6308 3.20491 11.6391C3.20752 11.6402 3.21015 11.6415 3.2128 11.6431C3.22739 11.6517 3.24228 11.6669 3.25459 11.6852C3.2668 11.7055 3.2759 11.7239 3.27912 11.7472C3.28461 11.7886 3.26421 11.8091 3.23264 11.7979L3.23354 11.8012L3.22351 11.7971L3.22001 11.7951ZM4.27604 13.4756L3.6215 12.2356L4.43449 12.2116C4.4572 12.3032 4.4784 12.3949 4.49046 12.4858C4.54983 12.936 4.46304 13.2811 4.27604 13.4756ZM2.79619 11.7036C2.76405 11.6845 2.72943 11.6597 2.69399 11.6297L1.98512 11.0276C1.98903 10.9378 1.99924 10.8536 2.01734 10.7768L2.73251 11.3473C2.87369 11.4606 2.98729 11.6228 2.97467 11.7038C2.96752 11.7659 2.89306 11.7609 2.79619 11.7036ZM3.60176 12.062C3.54749 12.0299 3.50444 11.9844 3.48697 11.9326C3.45089 11.8294 3.53281 11.755 3.65972 11.7603L4.30057 11.7936C4.34272 11.8967 4.3781 12.0014 4.4082 12.1067L3.77952 12.1114C3.71845 12.112 3.65475 12.0934 3.60176 12.062ZM2.97117 11.4327L2.04322 10.7047C2.16141 10.3298 2.45289 10.1487 2.84376 10.2461L2.97117 11.4327ZM3.12762 10.3609C3.13383 10.3645 3.14005 10.368 3.14624 10.3712L3.28097 11.2913C3.30754 11.4774 3.27195 11.609 3.1993 11.5762C3.19638 11.5749 3.19347 11.5734 3.19054 11.5716C3.11772 11.5285 3.04552 11.3538 3.02442 11.1767L2.91753 10.2693C2.95598 10.2818 2.99267 10.2886 3.03208 10.3064C3.0496 10.3143 3.06651 10.3239 3.08344 10.3339C3.09191 10.3389 3.10038 10.344 3.10893 10.3491C3.11517 10.3533 3.1214 10.3572 3.12762 10.3609ZM3.41235 11.6288L3.22313 10.4149C3.63349 10.6736 4.01267 11.1531 4.25228 11.6887L3.41235 11.6288ZM3.17404 10.1328C3.11541 10.0981 3.05624 10.0673 2.99695 10.0408C2.1949 9.68324 1.65786 10.241 1.7961 11.2843C1.92422 12.2548 2.58452 13.2997 3.31782 13.7338C3.37708 13.7689 3.43694 13.8001 3.4969 13.8268C4.29506 14.1821 4.83136 13.6248 4.69289 12.5759C4.56564 11.6106 3.90475 10.5654 3.17404 10.1328Z" fill="#CCCCCC"/>
<path d="M23.9986 7.02827C24.0444 6.9899 24.0851 6.98888 24.1339 7.01744C24.3154 7.13209 24.474 7.65688 24.4592 8.09668C24.4565 8.29184 24.4365 8.5104 24.4124 8.71865C24.231 8.23275 23.9792 7.77866 23.6875 7.41407C23.7691 7.25907 23.8804 7.11437 23.9986 7.02827Z" fill="#FF0000"/>
<path d="M23.9432 8.8841C23.9623 8.69743 23.9565 8.40715 23.7956 8.29944C23.6348 8.19173 23.5783 8.141 23.5605 7.88825C23.5477 7.75443 23.6007 7.57842 23.6873 7.41406C23.979 7.77865 24.2308 8.23274 24.4121 8.71865C24.3921 8.89188 24.3693 9.05841 24.3505 9.19416C24.2452 9.11488 24.1115 9.00654 23.9432 8.8841Z" fill="#BF0000"/>
<path d="M29.0513 12.5327L29.0616 12.7708C29.225 12.938 30.0072 13.7526 30.2143 14.2986C30.4149 14.8521 30.5377 15.8023 30.5584 15.9657L31.0212 16.7733C31.0964 16.4735 31.2 15.89 31.1464 15.4371C30.7963 14.8798 29.8044 13.4598 29.0513 12.5327Z" fill="#CCCCCC"/>
<path d="M5.88525 14.3778C6.3364 14.6048 7.61403 15.2581 8.42786 15.5505C8.64133 15.6197 8.92487 15.7392 9.24267 15.8653C8.2318 15.2575 6.81566 14.5407 5.90299 14.1614C5.89943 14.2359 5.88909 14.3106 5.88525 14.3778Z" fill="#4D4D4D"/>
<path d="M9.09814 2.23219C10.1142 2.3334 11.3158 2.48955 12.255 2.697C13.4544 2.95744 14.5948 3.42051 15.3285 3.74473C14.7766 3.22978 14.028 2.56327 13.3539 2.05137C12.427 1.34464 10.7716 0.901942 9.79177 0.695557C9.85763 0.805597 9.9174 0.930746 9.93001 1.06448C9.95099 1.39166 9.39816 1.94914 9.09814 2.23219Z" fill="#BF0000"/>
<path d="M3.32741 5.19908C3.33651 5.56378 3.4124 5.74807 3.44953 5.8216C3.50962 5.79778 3.55645 5.7817 3.60295 5.75818C4.02273 5.5764 4.65989 5.24023 4.79909 5.1623C4.26426 4.72878 3.87219 4.45557 3.78855 4.40552C3.65743 4.51307 3.5331 4.62046 3.4091 4.73525L3.40942 4.74269C3.36098 4.87795 3.32062 5.04283 3.32741 5.19908Z" fill="#BF0000"/>
<path d="M9.11436 0.570921C9.20996 0.583441 9.36048 0.609454 9.54517 0.642066C9.64531 0.758751 9.74705 0.912579 9.76095 1.0761C9.77708 1.29167 9.25169 1.85591 8.85935 2.20087C8.78444 2.19529 8.70952 2.18971 8.63424 2.17672C8.72629 2.10738 9.00271 1.90682 9.09475 1.6811C9.16836 1.50052 9.13672 1.39704 9.10051 1.3458C9.26845 1.30438 9.4306 1.28541 9.59982 1.27378C9.28784 1.20348 8.97482 1.22244 8.66294 1.28701C8.38246 1.05746 8.03649 0.84301 7.65723 0.660389C8.26587 0.55849 8.83117 0.535679 9.11436 0.570921Z" fill="#BF0000"/>
<path d="M2.13998 3.79877C2.15356 3.79843 5.38542 1.46104 6.29739 1.0435C6.70854 0.859629 7.1952 0.737823 7.65759 0.6604C8.03686 0.843021 8.38282 1.05748 8.66331 1.28702C7.57693 1.51196 6.50666 2.39257 5.56247 2.8791C4.9896 3.28816 1.92049 5.15227 2.57578 6.01471C2.46214 6.0315 2.34929 6.04828 2.24123 6.06489C1.91021 5.7366 1.57908 5.44582 1.24072 5.19867C1.41538 4.80679 1.69068 4.34239 2.13998 3.79877Z" fill="#FF0000"/>
<path d="M2.24093 6.06495C2.23352 6.06609 2.22537 6.06725 2.218 6.06839C1.94154 6.11257 1.67865 6.15637 1.4904 6.1983C1.26174 6.2487 1.08638 6.27545 0.95752 6.27867C0.968919 6.03092 1.03144 5.66757 1.24042 5.19873C1.57877 5.44588 1.9099 5.73666 2.24093 6.06495Z" fill="#BF0000"/>
<path d="M3.93262 4.283C4.10087 4.40539 4.58434 4.75082 5.197 5.25681C5.90882 5.85718 7.19551 7.03154 7.36538 7.19116C7.50878 7.2099 8.22636 7.31856 8.52768 7.37808C9.51364 7.5694 9.70064 7.49772 9.73357 7.47453C9.95027 7.30529 10.9885 6.51222 12.0554 5.7557C12.991 5.09928 14.2543 4.33035 14.6447 4.09718C14.4419 3.96074 13.92 3.66845 12.8639 3.42674C11.4649 3.10419 6.53771 2.83264 6.08205 2.81421C5.94318 2.89964 5.80434 2.98502 5.66514 3.06296C5.07739 3.44257 4.48355 3.83725 3.93262 4.283Z" fill="#333333"/>
<path d="M8.18896 8.48828C8.37985 8.81866 8.90536 9.66202 9.69015 10.5361C9.70405 10.3868 9.74082 10.1401 9.80732 9.79585C9.8958 9.33189 10.1225 8.92407 10.2429 8.72741C9.3193 8.56431 8.5087 8.50265 8.18896 8.48828Z" fill="#333333"/>
<path d="M6.81769 9.4314C6.78685 9.42458 6.75692 9.42429 6.72607 9.41915C7.14666 9.8822 7.5195 10.3831 7.81826 10.8968C8.15014 11.0074 8.48926 11.0938 8.55391 11.1084C8.5013 11.147 8.23066 11.1686 8.05239 11.1284C8.05239 11.1284 8.09276 11.2763 8.13317 11.5807C8.18324 11.9518 8.16518 12.1608 8.12385 12.3033C8.21558 12.383 8.30116 12.4777 8.39289 12.5573C8.45357 12.3919 8.54109 12.2184 8.65539 12.0368C8.7061 11.9536 8.76129 11.8182 8.80327 11.6905C8.83459 11.6301 8.85204 11.5627 8.87722 11.5174C8.89596 11.4797 8.90788 11.4421 8.91984 11.4046C8.96926 11.2917 9.02574 11.186 9.09584 11.08C8.58683 10.4596 8.07878 9.86163 7.75391 9.57183C7.61406 9.4785 7.46774 9.39279 7.31566 9.32959C7.49135 9.46671 7.65508 9.64135 7.73452 9.75105C7.73452 9.75105 7.23622 9.53263 6.81769 9.4314ZM7.82301 9.91271C7.90217 10.015 8.21869 10.4242 8.3372 10.6521C8.40408 10.7845 8.42667 10.836 8.43442 10.8582C8.38404 10.7924 8.12373 10.4265 8.01261 10.2133C7.917 10.0444 7.84499 9.94939 7.82301 9.91271Z" fill="#BF0000"/>
<path d="M7.45922 10.7634C6.85078 10.5105 6.52138 10.4293 6.35179 10.2772C6.17933 10.0581 5.99976 9.8317 5.84055 9.60481C5.83182 9.56034 5.82924 9.50081 5.87542 9.46984C5.94848 9.41278 6.3317 9.35361 6.72584 9.41917C7.14643 9.88223 7.51927 10.3832 7.81804 10.8968C7.69227 10.8549 7.56757 10.8098 7.45922 10.7634Z" fill="#FF0000"/>
<path d="M8.87695 11.9789C9.79254 12.738 10.6629 13.5504 11.5272 14.3779C11.7681 14.6102 11.9955 14.8428 12.2296 15.0753C12.2652 15.1116 12.3142 15.1476 12.3498 15.184C12.0016 14.515 11.0818 13.5027 10.5007 12.7874C10.1939 12.445 9.70561 11.8316 9.21082 11.2258C9.15978 11.3016 9.11619 11.392 9.07938 11.4823C9.06067 11.5201 9.04871 11.5576 9.03001 11.5953C9.0119 11.6479 8.98738 11.7081 8.96281 11.7682C8.93861 11.8359 8.90794 11.9111 8.87695 11.9789Z" fill="#BF0000"/>
<path d="M8.46637 13.1588C9.73685 13.9612 11.0649 14.6802 12.4022 15.3022L12.4019 15.2947C12.3867 15.2579 12.3715 15.221 12.3496 15.1843C12.314 15.1479 12.2649 15.1119 12.2294 15.0756C11.9953 14.8431 11.7679 14.6105 11.527 14.3782C10.6627 13.5507 9.79234 12.7384 8.87675 11.9792C8.85218 12.0395 8.82765 12.0996 8.7957 12.1451C8.57351 12.5007 8.46341 12.779 8.46637 13.1588Z" fill="#FF0000"/>
<path d="M12.7947 14.6516C12.9865 14.5351 13.2406 14.4469 13.4509 14.4416C13.5322 14.4396 13.6075 14.4526 13.6698 14.4808C13.8229 14.5664 13.9886 14.9421 14.0594 15.1637C14.0748 15.208 14.1098 15.2295 14.1437 15.2286C14.1504 15.2284 14.6184 15.2167 14.8567 15.3895C14.9224 15.4357 14.9632 15.4954 14.9896 15.5563C14.2312 15.5711 13.4528 15.1266 12.6768 14.736C12.7131 14.7082 12.7443 14.6812 12.7947 14.6516Z" fill="#FF0000"/>
<path d="M12.677 14.7358C13.453 15.1265 14.2314 15.5709 14.9898 15.5561C15.017 15.6186 15.0291 15.6823 15.0349 15.735C14.822 15.6807 14.3073 15.5521 13.9766 15.4412C13.8183 15.393 13.6132 15.3609 13.4078 15.3214C13.0933 15.2696 12.6964 15.1976 12.6031 15.0808C12.5524 15.0076 12.5298 14.956 12.5342 14.9038C12.5413 14.8527 12.5986 14.7956 12.677 14.7358Z" fill="#BF0000"/>
<path d="M9.83984 10.7115C10.032 10.9152 10.2309 11.1188 10.4499 11.3143C11.9278 12.6701 14.1482 14.3946 15.6596 15.1165C15.3382 14.2829 14.1237 11.1778 13.6105 10.4608C12.9891 9.59752 11.5778 8.99231 10.4275 8.76782C10.338 8.89666 10.0719 9.33528 9.97155 9.83677C9.87083 10.3309 9.84917 10.6144 9.83984 10.7115Z" fill="#333333"/>
<path d="M9.27441 11.1277C9.8183 11.7695 10.4055 12.4698 10.5983 12.6884C10.7301 12.9085 11.9254 14.1671 12.3717 14.9082C12.3711 14.8933 12.3639 14.886 12.3701 14.871C12.3911 14.7289 12.4947 14.6146 12.7134 14.49C13.0111 14.3113 13.4593 14.1586 13.7445 14.3153C13.967 14.4363 14.1421 14.8714 14.2038 15.0411C14.3465 15.045 14.7144 15.073 14.9453 15.2311C15.2534 15.4468 15.2031 15.8503 15.1969 15.8653C15.1911 15.8878 15.1785 15.9105 15.1588 15.9259C15.1456 15.9336 15.1323 15.9414 15.1188 15.9417L15.0984 15.9422C15.0913 15.935 14.364 15.7595 13.9371 15.6212C13.7856 15.5729 13.5805 15.5408 13.3822 15.5085C13.0196 15.4431 12.6773 15.3772 12.5216 15.2321C12.5297 15.2617 12.5306 15.284 12.5319 15.3138C12.6295 15.3709 12.9498 15.5566 13.1462 15.7006C13.6022 16.0392 14.6673 16.6457 15.2932 16.9875C15.3236 16.9048 15.361 16.8294 15.4111 16.7313C15.486 16.5805 15.5864 16.3918 15.6778 16.1512C15.8118 15.7978 15.7627 15.449 15.7449 15.3526C14.2148 14.6684 11.8823 12.8648 10.3479 11.4583C10.1289 11.2628 9.93001 11.0592 9.73783 10.8555C9.55701 10.9121 9.41749 10.9826 9.31316 11.082C9.30027 11.0973 9.28734 11.1125 9.27441 11.1277Z" fill="#FF0000"/>
<path d="M8.47168 13.2778C8.48069 13.3297 8.47621 13.382 8.48554 13.4414C8.51496 13.6491 8.64997 13.9437 8.79241 14.2529C8.93453 14.5547 9.0844 14.8787 9.1729 15.1967C9.5979 15.4467 9.97482 15.6831 10.2619 15.8844C10.332 15.9348 10.4302 16.0069 10.5632 16.1003C10.5771 16.1074 10.5839 16.1073 10.591 16.1145C10.5978 16.1144 10.5978 16.1144 10.5978 16.1144C11.1765 16.3085 11.7556 16.51 12.3282 16.7191C13.2525 17.0535 14.159 17.4479 15.0477 17.9023C15.1146 17.5655 15.1843 17.2956 15.226 17.1605C14.5998 16.8113 13.5211 16.2052 13.0576 15.8518C12.8332 15.6861 12.4159 15.4582 12.4088 15.4509C12.3952 15.4513 12.3888 15.4589 12.3752 15.4592C11.0195 14.8824 9.73541 14.0804 8.47168 13.2778Z" fill="#BF0000"/>
<path d="M15.2144 17.9874C15.3184 18.0369 15.4227 18.0939 15.5202 18.1511C15.6116 17.9105 15.7524 17.7133 15.9226 17.5675C16.3349 17.2146 16.9101 17.1705 17.547 17.4525C17.6371 17.4949 17.7346 17.552 17.8389 17.609C19.0164 18.302 20.0522 19.9518 20.2671 21.4583C20.6562 21.821 21.0389 22.1912 21.4591 22.4861C21.8231 22.7377 22.1929 22.9668 22.5817 23.1655C22.4209 23.0579 22.2859 22.9197 22.2109 22.7578C22.1431 22.6031 22.136 22.4394 22.1974 22.2889C22.2652 22.1308 22.4412 21.9625 22.6659 21.8229C22.3552 21.704 21.9196 21.5213 21.4894 21.3086C20.7056 20.926 20.2922 20.631 20.2715 20.6241C20.2573 20.6095 20.2428 20.5876 20.235 20.5654C20.2341 20.5431 19.7857 18.6626 18.2116 17.5922C17.2185 16.9244 16.3598 17.0055 15.9164 17.2698C15.7711 17.3628 15.6083 17.3669 15.4552 17.2813C15.4346 17.2744 15.4065 17.2527 15.379 17.246C15.338 17.3959 15.2683 17.6658 15.2144 17.9874Z" fill="#BF0000"/>
<path d="M25.96 22.6419C25.9868 22.6337 26.0136 22.6256 26.0407 22.6249C26.4573 22.5252 28.1382 21.6788 28.816 21.1852L29.0398 21.0232C29.6779 20.553 30.5534 19.9204 30.8882 19.346C30.9832 19.1872 31.0406 18.9474 31.0764 18.6784C31.0832 18.6783 31.0829 18.6708 31.0826 18.6634C31.1062 18.5809 31.1233 18.506 31.1404 18.4311C31.1685 18.2963 31.1966 18.1615 31.2411 18.0934C31.2731 18.0479 31.3118 18.0022 31.3635 17.9414C31.3752 18.522 31.3429 19.3421 31.1214 19.7125C30.7866 20.2869 29.9111 20.9195 29.273 21.3898L29.0492 21.5517C28.3714 22.0453 26.6905 22.8917 26.2739 22.9915C26.2468 22.9922 26.22 23.0003 26.1932 23.0084C26.0332 23.026 24.737 23.1598 23.4844 22.901L23.6652 22.61C24.7714 22.7682 25.8183 22.6603 25.96 22.6419Z" fill="#BF0000"/>
<path d="M23.8702 22.0313C24.0336 22.0422 24.1838 22.0607 24.3133 22.0724C24.0842 22.2259 23.8243 22.4241 23.6688 22.6055C23.6676 22.607 23.6658 22.6085 23.6645 22.61C23.665 22.61 23.6654 22.61 23.6659 22.6101L23.4851 22.901C23.3618 22.8756 23.2382 22.8509 23.1168 22.8172C22.8766 22.7562 22.6789 22.5825 22.6621 22.5084C22.7254 22.4026 23.3186 21.993 23.8702 22.0313Z" fill="#FF0000"/>
<path d="M19.9312 18.4131C20.3106 18.7089 21.0079 19.2873 21.3825 19.7844C21.8434 20.391 22.3702 20.7949 22.4683 20.867C22.6392 20.8925 23.9158 21.0542 24.8246 21.0315L24.8856 21.03C24.6466 20.8423 24.2468 20.547 24.1076 20.4685C24.0449 20.4328 23.8321 20.3785 23.5915 20.3101C23.0277 20.1455 22.2577 19.9264 21.9202 19.6593C21.4839 19.3052 20.4737 18.5559 20.3197 18.4481L19.9312 18.4131Z" fill="#CCCCCC"/>
<path d="M0.536621 7.52509C0.60637 7.88082 0.780502 8.76274 0.853855 9.35675C0.95329 9.14571 1.08796 8.96361 1.25847 8.8253C1.69764 8.46426 2.30027 8.42688 2.97167 8.72288C3.06921 8.78004 3.17322 8.82958 3.27783 8.89397C4.54577 9.63686 5.65585 11.4337 5.86944 13.0669C5.88912 13.2079 5.89494 13.3418 5.90044 13.4683C5.9082 13.4904 5.91014 13.5351 5.91176 13.5723C6.08454 13.6425 6.27122 13.7197 6.47919 13.8188C7.22006 14.1503 8.15014 14.6186 8.95045 15.0678C8.86518 14.8242 8.75212 14.5663 8.64713 14.338C8.49698 14.0067 8.35486 13.7049 8.31736 13.4675C8.29897 13.3562 8.30156 13.2593 8.29735 13.1626C8.21334 13.1051 8.1297 13.0551 8.03895 12.9978C7.3039 12.4874 6.54174 11.9776 5.90904 11.3232C5.11551 10.2482 4.21086 8.96002 2.98201 8.49175C2.62998 8.35904 2.23985 8.28688 1.8688 8.34084L1.29198 7.56581C1.29198 7.56581 2.27368 6.87842 2.32762 6.71325C2.36281 6.58573 2.33242 6.35561 2.31399 6.24438C2.29367 6.24489 2.26688 6.25297 2.24651 6.25348C1.9701 6.29766 1.71368 6.33385 1.53217 6.37561C1.27705 6.44158 1.09457 6.46105 0.958967 6.46444L0.968022 6.67273C0.98096 6.97033 0.717758 7.31947 0.536621 7.52509Z" fill="#BF0000"/>
<path d="M30.1775 16.258C30.0893 15.6346 29.7615 14.3394 28.5836 12.7006C27.7458 11.5448 26.7362 10.8104 25.9844 10.3823C26.7611 10.6012 27.8785 11.1617 28.7146 12.1239C28.7647 12.1822 28.8219 12.2478 28.8723 12.3136L28.8943 12.8194C28.8952 12.8418 28.9097 12.8637 28.9243 12.8857C28.9314 12.893 29.847 13.8085 30.0544 14.3619C30.2624 14.9302 30.39 15.992 30.3904 15.9994C30.391 16.0143 30.3984 16.029 30.4058 16.0437L30.9859 17.0496C31.0004 17.0716 31.0286 17.0932 31.0625 17.0923C31.0625 17.0923 31.0625 17.0923 31.0692 17.0922C31.096 17.084 31.129 17.0609 31.1345 17.0309C31.1464 16.9934 31.2869 16.476 31.3314 15.9387C31.3779 16.228 31.4432 16.636 31.4325 16.8597C31.4274 16.897 31.4112 16.9942 31.2905 17.1834C31.2133 17.2822 31.1297 17.3886 31.0454 17.48C30.9608 17.5869 30.8841 17.6793 30.8327 17.7592C30.6616 17.4849 30.4532 17.2116 30.2166 16.939C30.2323 16.7658 30.2198 16.5545 30.1775 16.258Z" fill="#BF0000"/>
<path d="M1.2915 7.56602L1.86833 8.34105C2.23938 8.28709 2.6295 8.35926 2.98153 8.49196C4.21038 8.96023 5.11503 10.2484 5.90856 11.3234C6.66236 11.9525 7.46747 12.5133 8.2917 13.0438C8.29747 12.8649 8.33848 12.7149 8.39274 12.5572C7.59858 12.0929 6.24436 10.3021 5.58001 9.38775C5.52154 9.29238 5.47406 9.1372 5.53604 9.0016C5.61127 8.85821 5.76114 8.86933 5.86996 8.87406C6.74355 8.97887 7.72337 9.18526 8.30795 9.98241C8.4297 10.1283 8.77337 10.5368 9.15962 10.9889L9.19837 10.9433C9.30266 10.8438 9.44186 10.7659 9.60203 10.7023C8.57466 9.55868 7.96296 8.44937 7.95553 8.43469C7.94066 8.40525 7.93904 8.36806 7.95844 8.34521C7.97068 8.31513 7.99686 8.29215 8.03109 8.29871C8.03787 8.29854 9.12554 8.33095 10.4054 8.56706C11.8567 8.84362 13.1634 9.54082 13.7415 10.3456C14.349 11.2018 15.8284 15.0897 15.8965 15.2519L15.8969 15.2593C15.8969 15.2593 15.8969 15.2593 15.8972 15.2668C15.9046 15.2814 16.0134 15.7554 15.8304 16.2292C15.7393 16.4772 15.6392 16.6733 15.5575 16.8243C15.5075 16.9224 15.4768 16.9977 15.4461 17.0729C15.4739 17.0871 15.5017 17.1013 15.5294 17.1155C15.627 17.1727 15.7355 17.1699 15.8346 17.1079C16.3106 16.813 17.2436 16.7226 18.2929 17.4337C19.825 18.4753 20.3208 20.1982 20.3877 20.487C20.4995 20.5587 20.8977 20.8169 21.5568 21.143C22.0561 21.3837 22.5745 21.5942 22.8713 21.7059C23.1438 21.5725 23.4522 21.4829 23.7506 21.4754C23.7981 21.4742 23.8456 21.473 23.8866 21.4795C24.2883 21.5067 24.6093 21.5508 24.7802 21.5763C24.8483 21.582 24.909 21.5731 24.9559 21.557C24.9691 21.5492 26.0541 21.0529 26.298 21.0394C26.3451 21.0307 26.413 21.029 26.5014 21.0343C26.773 21.035 27.2213 21.0386 27.6524 20.8044C28.2424 20.4769 30.3382 18.8679 30.5193 18.6623C30.5775 18.5938 30.6114 18.4366 30.6453 18.2794C30.6853 18.1071 30.7247 17.9199 30.8203 17.776C30.8234 17.7708 30.829 17.7643 30.8324 17.7591C30.6612 17.4848 30.4529 17.2115 30.2162 16.9389C30.1846 17.286 30.0309 17.4679 29.7142 17.7887C29.246 18.2622 27.0394 19.8218 26.1271 20.0755C25.8316 20.1498 25.5348 20.1945 25.2432 20.2018C24.6735 20.216 24.1248 20.0883 23.6791 19.8313C23.3794 19.6526 22.5414 19.1149 21.6545 18.5488C20.663 17.9181 19.5453 17.1939 19.0508 16.9083C18.1449 16.3724 17.1212 15.7798 17.0653 15.744C16.8399 15.7124 16.6826 15.6865 16.6342 15.6654C16.3642 15.5455 16.2488 15.2356 16.149 14.97C16.1329 14.9108 16.1103 14.8592 16.0948 14.8149C15.9808 14.5348 14.3858 10.7987 14.3639 10.762C14.3483 10.7177 14.3597 10.6653 14.3994 10.642C14.8024 10.3861 15.2051 10.1228 15.6081 9.867C16.6973 9.15456 17.8654 8.38061 19.0095 7.52534L19.2198 7.36371C19.4042 7.23246 19.5814 7.09398 19.7658 6.96277C19.8908 6.87028 20.0161 6.78523 20.1411 6.6927C18.8418 5.85381 16.2198 4.57133 16.192 4.55711C16.1642 4.54294 16.1432 4.52856 16.1219 4.50677C16.1148 4.49949 15.9659 4.35425 15.746 4.13633C15.1359 3.8462 13.7233 3.21125 12.2219 2.87639C10.2613 2.44128 7.12289 2.24416 7.02082 2.23926C6.79576 2.37148 6.57745 2.50358 6.35946 2.64308C7.54341 2.70286 11.6138 2.94373 12.8962 3.23937C14.3847 3.58942 14.8378 4.01752 14.8592 4.03931C14.8805 4.06114 14.8885 4.09071 14.8898 4.1205C14.8843 4.15041 14.8717 4.17304 14.8453 4.18862C14.8323 4.20385 13.2571 5.13694 12.1501 5.90938C11.0831 6.6659 10.0514 7.45136 9.8347 7.6206C9.78884 7.65897 9.7155 7.69063 9.55274 7.69469C9.36287 7.69944 9.04217 7.66277 8.50157 7.56455C8.17282 7.49831 7.33216 7.37036 7.32537 7.37053C7.30504 7.37104 7.29114 7.36393 7.27696 7.34937C7.26273 7.33486 5.8488 6.0445 5.09468 5.40796C5.03815 5.35723 4.98905 5.32123 4.93968 5.27778C4.93353 5.29284 4.92739 5.30786 4.90735 5.31582C4.9006 5.31599 4.14428 5.72218 3.67149 5.9351C3.36501 6.06936 2.81249 6.16508 2.31352 6.2446C2.33194 6.35582 2.36234 6.58594 2.32715 6.71346C2.27321 6.87863 1.2915 7.56602 1.2915 7.56602ZM19.5509 18.2587C19.5628 18.2212 19.5954 18.1906 19.6364 18.197L20.3524 18.2685C20.3659 18.2682 20.3798 18.2752 20.3937 18.2823C20.4076 18.2895 21.5441 19.1324 22.0153 19.5079C22.3247 19.7534 23.1153 19.9794 23.631 20.1304C23.9059 20.2054 24.0983 20.2602 24.1749 20.303C24.3974 20.424 25.1492 21.0085 25.1845 21.0374C25.2126 21.059 25.2278 21.0959 25.2158 21.1334C25.2106 21.1708 25.178 21.2014 25.1441 21.2023C25.0427 21.2123 24.941 21.2148 24.8257 21.2177C23.8423 21.2423 22.4901 21.0601 22.4285 21.0467C22.4149 21.0471 22.401 21.0399 22.3939 21.0327C22.3661 21.0185 21.7773 20.5938 21.2516 19.8994C20.7474 19.2343 19.5967 18.3768 19.5828 18.3697C19.5476 18.3408 19.5389 18.2963 19.5509 18.2587Z" fill="#FF0000"/>
<path d="M19.4854 15.7955C20.0573 15.8333 20.5604 15.8505 20.77 15.8304C21.2977 15.7874 22.4322 15.3346 23.7781 14.437C25.0776 13.5629 25.479 12.9571 25.6776 12.5276C25.715 12.4522 25.6818 12.3115 25.6498 12.2006L25.633 12.1266C25.5658 11.8303 25.4621 11.4754 25.3113 11.1292C25.4063 11.7524 25.3043 12.5295 24.505 13.1974C23.0312 14.4333 21.8489 15.1927 20.9922 15.4748C20.51 15.6284 19.951 15.7317 19.4854 15.7955Z" fill="#1A1A1A"/>
<path d="M14.5547 10.7648C14.7892 11.3175 16.1486 14.4785 16.2485 14.7442C16.271 14.7957 16.2869 14.8474 16.3095 14.899C16.4019 15.1499 16.4946 15.4083 16.6883 15.4928C16.7988 15.5347 17.5632 15.6273 18.4155 15.7103C18.4491 15.702 19.8723 15.6441 20.9435 15.2971C21.7734 15.0231 22.9424 14.2715 24.3966 13.051C25.4383 12.1834 25.2086 11.1166 24.9657 10.5269C24.9154 10.4611 24.8785 10.395 24.8285 10.3367C24.6641 10.1472 24.4871 9.98026 24.3108 9.82829C24.304 9.82846 24.304 9.82846 24.2972 9.82863C24.2759 9.8068 21.606 7.73607 20.4633 6.90818C20.4143 6.87213 20.3584 6.8363 20.3093 6.80029C20.1575 6.90091 20.006 7.00897 19.8614 7.11682C19.6838 7.2479 19.4997 7.38655 19.3221 7.51759L19.1051 7.67943C17.9609 8.5347 16.7865 9.31628 15.6969 10.0212C15.3139 10.2691 14.9377 10.5169 14.5547 10.7648Z" fill="#333333"/>
<path d="M17.5229 15.7996C17.9134 16.0356 18.547 16.3996 19.1255 16.7426C19.627 17.0355 20.7025 17.7236 21.7362 18.3903C22.6231 18.9566 23.4544 19.4944 23.7538 19.6656C24.3945 20.0368 25.2468 20.1198 26.0854 19.8904C26.9577 19.6525 29.151 18.1008 29.5931 17.6503C30.0549 17.1845 30.1253 17.0859 30.009 16.2844C29.9214 15.6759 29.602 14.4178 28.446 12.8157C27.1958 11.0744 25.5471 10.3187 25.0223 10.1158C24.9257 10.081 24.8363 10.0535 24.7533 10.0183C24.8173 10.0837 24.8876 10.1416 24.9516 10.207C24.9874 10.2507 25.0169 10.3021 25.053 10.3534C25.0669 10.3605 25.0879 10.3749 25.0957 10.397C25.1031 10.4117 25.1037 10.4266 25.1108 10.4338C25.48 10.9609 25.6912 11.6035 25.8004 12.0849L25.8169 12.1515C25.8502 12.2922 25.8918 12.4699 25.8302 12.6129C25.619 13.0651 25.2054 13.701 23.8658 14.591C22.6852 15.3876 21.4474 15.9622 20.7912 16.0158C20.7576 16.0241 20.7237 16.025 20.683 16.026C20.2828 16.036 19.316 15.9708 18.4233 15.8963L18.4165 15.8965L18.4162 15.889C18.0962 15.8672 17.7891 15.8302 17.5229 15.7996Z" fill="#FF0000"/>
<path d="M19.551 18.2588C19.539 18.2964 19.5477 18.3409 19.5829 18.3698C19.5968 18.3769 20.7475 19.2344 21.2517 19.8995C21.7774 20.5939 22.3662 21.0186 22.394 21.0328C22.4011 21.0401 22.415 21.0472 22.4286 21.0468C22.4902 21.0602 23.8424 21.2424 24.8258 21.2178C24.9411 21.2149 25.0428 21.2124 25.1442 21.2024C25.1781 21.2015 25.2107 21.1709 25.2159 21.1335C25.2279 21.096 25.2127 21.0592 25.1846 21.0375C25.1493 21.0086 24.3975 20.4241 24.175 20.3031C24.0984 20.2603 23.906 20.2055 23.6311 20.1305C23.1154 19.9795 22.3248 19.7535 22.0154 19.508C21.5442 19.1325 20.4077 18.2896 20.3938 18.2825C20.3799 18.2753 20.366 18.2683 20.3525 18.2686L19.6365 18.1971C19.5955 18.1907 19.5629 18.2213 19.551 18.2588ZM19.9311 18.4132L20.3196 18.4482C20.4736 18.556 21.4838 19.3053 21.9201 19.6594C22.2576 19.9265 23.0276 20.1456 23.5914 20.3102C23.832 20.3787 24.0449 20.4329 24.1075 20.4686C24.2467 20.5471 24.6465 20.8424 24.8855 21.0301L24.8245 21.0316C23.9157 21.0543 22.6391 20.8926 22.4682 20.8671C22.3701 20.795 21.8433 20.3911 21.3825 19.7845C21.0078 19.2874 20.3105 18.7091 19.9311 18.4132Z" fill="black"/>
<path d="M7.82275 9.9126C7.84474 9.94928 7.91674 10.0443 8.01235 10.2132C8.12347 10.4264 8.38378 10.7923 8.43417 10.858C8.42641 10.8359 8.40382 10.7843 8.33694 10.652C8.21843 10.424 7.90191 10.0149 7.82275 9.9126Z" fill="black"/>
<path d="M20.2936 22.3813C21.3106 22.8177 22.4022 23.2521 22.5795 23.2701C22.6134 23.2692 22.6748 23.2751 22.7697 23.2728C22.7141 23.2443 22.6586 23.2159 22.6027 23.1801C22.2068 22.974 21.8302 22.7451 21.4591 22.4863C21.039 22.1914 20.6563 21.8212 20.2671 21.4585C20.2681 21.4808 20.2755 21.4955 20.2765 21.5179C20.3175 21.8371 20.3233 22.1274 20.2936 22.3813Z" fill="#FF0000"/>
<path d="M10.5908 16.1144C11.3605 16.6389 13.0934 17.7723 14.9027 18.941C14.9278 18.5829 14.9863 18.2091 15.0476 17.9022C14.1588 17.4478 13.2523 17.0534 12.328 16.7189C11.7554 16.5098 11.1764 16.3083 10.5976 16.1143C10.5976 16.1143 10.5976 16.1143 10.5908 16.1144Z" fill="#FF0000"/>
<path d="M15.0703 19.0485C15.1614 19.1132 15.2589 19.1704 15.35 19.2352C15.339 18.8258 15.3906 18.4521 15.5201 18.151C15.4226 18.0938 15.3183 18.0368 15.2143 17.9873C15.1468 18.3093 15.0887 18.6905 15.0703 19.0485Z" fill="#FF0000"/>
<path d="M15.952 16.4741L16.0062 16.5039C16.0944 16.5039 16.2775 16.4071 16.4403 15.9453L16.2639 15.7144L16.0232 15.6235C15.9757 15.6608 15.8096 16.1762 15.952 16.4741Z" fill="black"/>
<path d="M16.2318 15.8985L16.2498 15.9101L16.2545 15.9309L16.2375 15.9595L16.2008 15.9275L16.2021 16.0306L16.2138 16.0355L16.227 16.0263L16.2456 16.0152L16.239 16.0941L16.223 16.1628L16.1866 16.1938L16.2158 16.1159L16.1838 16.1047L16.1629 16.1212L16.1047 16.1599L16.0848 16.2166L16.0616 16.2384L16.0415 16.2635L16.0358 16.3826L16.0192 16.3255L16.0059 16.3032L16.0103 16.2611L16.0178 16.1909L16.0097 16.1352L16.0005 16.0079L16.0391 15.9401L16.0239 16.0175L16.0281 16.0926L16.087 16.0311L16.1319 16.0016L16.1441 15.9522L16.1407 15.8859L16.1405 15.8544L16.198 15.8384L16.2318 15.8985ZM16.2364 15.7392L16.0384 15.6655C16 15.7648 15.8583 16.1981 15.9787 16.4616C16.016 16.4708 16.2037 16.494 16.3947 15.9575L16.2364 15.7392Z" fill="#FFFF00"/>
</svg>
