<svg width="78" height="54" viewBox="0 0 78 54" fill="none" xmlns="http://www.w3.org/2000/svg">
<path opacity="0.97" d="M1.25707 11.0864L5.98895 4.88867L31.4083 19.8233L31.7432 22.2232L28.8154 24.5281L35.0518 28.5646C34.8295 28.9266 34.6081 29.2893 34.3661 29.6382L27.6427 25.2865L27.283 25.5191C24.515 26.2867 21.4225 26.1905 18.815 24.8195C17.8344 24.3039 16.9097 23.67 15.9712 23.0629C14.6741 22.2239 13.377 21.3849 12.0799 20.5459C10.4628 19.4998 8.84568 18.4538 7.22857 17.4078C5.87863 16.5346 4.5287 15.6614 3.17876 14.7882C2.67751 14.4639 2.17625 14.1397 1.67501 13.8155C0.804204 13.2522 0.603602 11.9423 1.25707 11.0864Z" fill="#888888"/>
<path d="M25.8926 20.7849V22.2313C25.8926 22.3396 25.9547 22.4478 26.0445 22.4942L30.2999 24.5825L30.666 24.7681C30.7006 24.7836 30.7351 24.7914 30.7696 24.7914C30.8733 24.7914 30.963 24.7217 31.0114 24.6134C31.0667 24.4665 31.0045 24.2964 30.8733 24.2345L29.989 23.8013L26.4107 22.0379V21.2335L29.6989 22.85L30.141 23.0666C30.2722 23.1285 30.4242 23.0666 30.4795 22.9197C30.5416 22.7727 30.4795 22.6025 30.3482 22.5329L30.2515 22.4865L26.7699 20.7772H26.763L26.2518 20.522C26.1965 20.491 26.1343 20.491 26.0791 20.5065L26.0377 20.5297C25.9479 20.5761 25.8926 20.6767 25.8926 20.7849Z" fill="black"/>
<path d="M25.8926 20.7852C25.8926 20.8317 25.8995 20.8703 25.9202 20.9167C25.9755 21.0559 26.1343 21.1178 26.2656 21.0482L26.763 20.7775H26.7699L26.9219 20.6924L30.4173 22.4095L30.8733 22.6337C30.9078 22.6492 30.9423 22.657 30.9769 22.657C31.0805 22.657 31.1703 22.5951 31.2187 22.4868C31.2739 22.3399 31.2117 22.1697 31.0805 22.1078L31.0528 22.0924L27.0186 20.1046C26.9495 20.0736 26.8735 20.0736 26.8044 20.1124L26.0791 20.5068L26.0377 20.53C25.9479 20.5764 25.8926 20.677 25.8926 20.7852Z" fill="black"/>
<path d="M26.4106 21.2334V22.0378L29.989 23.8012L29.6989 22.8499L26.4106 21.2334Z" fill="#8797C6"/>
<path d="M26.77 20.777L30.2516 22.4862L30.4174 22.4089L26.922 20.6919L26.77 20.777Z" fill="#8797C6"/>
<path d="M29.6782 22.7728L29.699 22.8502L29.9891 23.8015L30.2032 24.5131L30.3 24.5827L30.7835 24.9694L31.3431 24.8069V27.3593C31.3431 27.5217 31.3914 27.6687 31.4743 27.8002C31.5227 27.893 31.5987 27.9703 31.6885 28.0245L33.4915 29.1924L34.203 29.6564C34.279 29.7028 34.3688 29.7338 34.4586 29.7415C34.2651 30.1128 34.1477 30.5768 34.1477 31.1569C34.1408 33.1679 35.3981 35.6042 36.9593 36.6097C37.7261 37.1047 38.4169 37.1588 38.928 36.8572C38.928 36.8572 38.928 36.8572 38.928 36.8649C38.9419 36.8572 38.9488 36.8494 38.9557 36.8494C38.9626 36.8417 38.9695 36.8417 38.9695 36.834C39.4531 36.5246 39.9435 36.2075 40.4271 35.8981C40.7172 35.7125 41.035 35.5578 41.2284 35.233C41.3804 34.9777 41.4564 34.6606 41.4702 34.3512L44.8551 36.5401C44.862 36.5401 44.862 36.5401 44.862 36.5478L49.5318 39.5642C49.5525 39.5797 49.5802 39.6106 49.6078 39.6261L54.2638 42.6426C54.4434 42.7508 54.6507 42.774 54.8372 42.6967C54.9546 42.658 55.0444 42.5729 55.1204 42.4724L55.6869 42.1089L56.0599 42.3486L55.7214 42.5652C55.2309 42.9055 54.9339 43.5939 54.9269 44.5762C54.9201 46.5871 56.1773 49.0235 57.7385 50.0289C58.4708 50.5084 59.1409 50.578 59.6451 50.3228C59.6935 50.2919 59.7349 50.2687 59.7833 50.2377L62.0353 48.7836V49.8897C62.0284 49.9361 62.0215 49.9825 62.0215 50.0212C62.0215 50.23 62.0975 50.4234 62.2356 50.578C62.2771 50.6167 62.3116 50.6631 62.36 50.7018L64.9435 52.3647C65.4548 52.6973 66.035 52.8597 66.6084 52.8597C67.1818 52.8597 67.762 52.6973 68.2732 52.3647L76.998 46.7263L77.1845 46.6026C77.5575 46.3628 77.8131 45.9838 77.9237 45.543C77.9237 45.5352 77.9237 45.5275 77.9306 45.5197V45.512C77.9582 45.4269 77.979 45.3341 77.979 45.2336V42.9906C77.979 42.9674 77.9721 42.9442 77.9721 42.921C77.979 42.8282 77.9997 42.7431 77.9997 42.6502C77.9997 42.0083 77.7026 41.4359 77.2052 41.1111L76.0102 40.3454V39.046C76.0102 38.6284 75.9411 38.2262 75.796 37.8395C75.6095 37.2826 75.2641 36.7799 74.8082 36.4163L68.9917 31.6751L65.6482 23.9794C65.5929 23.8401 65.4962 23.7241 65.3719 23.6468L59.8524 20.089C59.3135 19.7255 58.6366 19.7332 58.0839 20.0967L58.0355 20.1276C58.0355 20.1122 58.0425 20.1044 58.0425 20.089V18.836C58.0425 18.7896 58.0287 18.7432 58.0079 18.7045C58.0079 18.689 58.001 18.6813 57.9941 18.6735C57.9734 18.6504 57.9596 18.6271 57.9319 18.604L57.9112 18.5807L56.4882 17.6603C56.4053 17.6062 56.3085 17.6062 56.2257 17.6603L53.3796 19.5011C53.3726 19.5011 53.3726 19.5011 53.3726 19.5011L52.8338 19.8492C52.7924 19.795 52.7371 19.7409 52.675 19.6945L50.2848 18.1476C50.0706 18.0161 49.8081 18.0161 49.594 18.1476L47.6459 19.4006C47.6321 19.4161 47.6183 19.4316 47.6045 19.4393C47.5838 19.4547 47.57 19.4702 47.5561 19.4857C47.4249 19.6017 47.342 19.7641 47.3144 19.942C47.3144 19.9652 47.3074 19.9884 47.3074 20.0116C47.3074 20.0348 47.3005 20.0503 47.3005 20.0735C47.3005 20.1431 47.3074 20.205 47.3213 20.2668L42.8379 15.6417C42.9623 15.5025 43.0245 15.3014 42.9761 15.1003C42.914 14.7832 42.6307 14.5975 42.3544 14.6749L41.9883 14.7677L37.9402 10.5988C37.8573 10.5137 37.733 10.4983 37.6362 10.5602L37.3599 10.7381C37.353 10.7303 37.3599 10.7148 37.3461 10.7071L36.8902 10.2508C36.9247 10.2044 36.9454 10.158 36.9524 10.1038C36.9593 10.011 36.9247 9.91818 36.8626 9.85634L35.3152 8.30171C35.1079 8.09287 34.804 8.06195 34.5622 8.21664L33.8507 8.68069C33.6987 8.78124 33.6089 8.93594 33.5674 9.12156C33.5536 9.14474 33.5467 9.17571 33.5398 9.21437C33.5398 9.21437 33.5329 9.22211 33.5329 9.22985V10.9237C33.5329 10.9933 33.5536 11.0629 33.5951 11.1093L34.4655 12.2617C34.6451 12.5015 34.9007 12.6252 35.1563 12.6252H35.1632C35.3359 12.5943 35.5639 12.4706 35.5639 12.4706L35.6813 12.5788L35.8471 12.7413C35.8125 12.8496 35.8402 12.9733 35.9162 13.0507L37.5603 14.7522L40.4409 17.7145L41.4564 18.7664L40.8485 18.3719C40.6481 18.2404 40.3994 18.2404 40.1991 18.3642L39.5981 18.7509C39.4876 18.7045 39.3771 18.6813 39.2804 18.6813C39.1353 18.6813 39.004 18.7277 38.8935 18.8051L38.2649 19.2072L37.8849 18.9984C37.8228 18.9597 37.7468 18.952 37.6777 18.9829L35.1356 20.0658C35.1356 20.0735 35.1356 20.0735 35.1286 20.0735C35.1286 20.0735 35.1286 20.0735 35.1217 20.0735L31.0529 22.0922L30.4174 22.4093L30.2516 22.4866L29.6782 22.7728Z" fill="black"/>
<path d="M38.2836 33.3663C38.2903 33.3741 38.2903 33.3741 38.2903 33.3818C38.2903 33.3741 38.2903 33.3741 38.2903 33.3663C38.2836 33.3508 38.2836 33.3432 38.2836 33.3277C38.2836 33.3199 38.2769 33.3122 38.2769 33.3044C38.2769 33.3277 38.2769 33.3432 38.2836 33.3663Z" fill="#888888"/>
<path d="M38.2138 33.0572C38.2206 33.0649 38.2274 33.0804 38.2274 33.0882C38.2274 33.0804 38.2274 33.0649 38.2206 33.0572C38.2069 33.0108 38.1933 32.9644 38.1729 32.918C38.1865 32.9644 38.2001 33.0108 38.2138 33.0572Z" fill="#888888"/>
<path d="M30.3328 28.8419L33.1997 30.6905L31.1549 32.013C30.8509 32.2141 30.8509 32.6937 31.1549 32.8948L36.9438 36.6382L57.7161 50.0574V50.0652L62.6554 53.2518C64.1958 54.2495 66.1025 54.2495 67.6429 53.2518L76.5404 47.4973C76.8168 47.3272 76.9687 47.0333 76.9964 46.7239L68.2716 52.3623C67.7603 52.6949 67.1801 52.8573 66.6067 52.8573C66.0333 52.8573 65.4531 52.6949 64.9419 52.3623L62.3583 50.6994C62.31 50.6607 62.2754 50.6143 62.2339 50.5756C62.0958 50.4209 62.0198 50.2276 62.0198 50.0188C62.0198 49.9801 62.0267 49.9337 62.0336 49.8873V48.7812L59.7816 50.2353C59.7333 50.2663 59.6918 50.2895 59.6434 50.3204C59.1392 50.5756 58.4691 50.506 57.7369 50.0265C56.1757 49.021 54.9184 46.5847 54.9253 44.5737C54.9322 43.5915 55.2293 42.9031 55.7197 42.5628L56.0582 42.3462L55.6852 42.1064L55.1187 42.47C55.0427 42.5705 54.9529 42.6556 54.8355 42.6943C54.649 42.7716 54.4417 42.7484 54.2621 42.6401L49.6061 39.6237C49.5785 39.6082 49.5509 39.5773 49.5302 39.5618L44.8604 36.5454C44.8604 36.5377 44.8604 36.5377 44.8534 36.5377L41.4685 34.3488C41.4547 34.6582 41.3787 34.9753 41.2267 35.2306C41.0333 35.5554 40.7156 35.7101 40.4254 35.8957C39.9419 36.2051 39.4514 36.5222 38.9678 36.8315C38.9678 36.8393 38.9609 36.8393 38.954 36.847C38.9471 36.847 38.9402 36.8548 38.9264 36.8625C38.9264 36.8548 38.9264 36.8548 38.9264 36.8548C38.4152 37.1564 37.7244 37.1023 36.9576 36.6073C35.3964 35.6018 34.1391 33.1654 34.146 31.1545C34.146 30.5744 34.2635 30.1104 34.4569 29.7391C34.3671 29.7314 34.2773 29.7004 34.2013 29.654L33.4898 29.19L31.6868 28.0221C31.597 27.9679 31.521 27.8906 31.4727 27.7977C31.4243 27.7823 31.369 27.7901 31.3276 27.821L30.3328 28.4629C30.2016 28.548 30.2016 28.7569 30.3328 28.8419Z" fill="#888888"/>
<path d="M34.1875 27.8521L34.6365 28.146C34.7401 27.9913 34.823 27.9294 34.9543 27.8444C35.1477 27.7206 35.348 27.6587 35.5553 27.6587C35.7556 27.6587 35.9559 27.7206 36.1425 27.8444L38.7813 29.5459C39.5274 30.0332 40.0731 30.8608 40.2734 31.7966L40.8607 32.1679C40.7294 30.8685 40.0593 29.7083 39.0438 29.0432L36.405 27.3416C35.8731 26.9936 35.2375 26.9936 34.7056 27.3416C34.4984 27.4731 34.3257 27.651 34.1875 27.8521Z" fill="#3751A0"/>
<path d="M32.73 25.563V26.9088L34.1876 27.8523C34.3257 27.6513 34.4984 27.4734 34.7057 27.3419C35.2376 26.9938 35.8731 26.9938 36.405 27.3419L39.0439 29.0435C40.0594 29.7086 40.7295 30.8688 40.8607 32.1682L44.515 34.5272V32.2223L36.3291 26.932L32.73 25.563Z" fill="#CCCCCC"/>
<path d="M32.73 25.563V26.9088L34.1876 27.8523C34.3257 27.6513 34.4984 27.4734 34.7057 27.3419C35.2376 26.9938 35.8731 26.9938 36.405 27.3419L39.0439 29.0435C40.0594 29.7086 40.7295 30.8688 40.8607 32.1682L44.515 34.5272V32.2223L36.3291 26.932L32.73 25.563Z" fill="#A18159"/>
<path d="M45.8936 31.208V31.7649C45.8936 31.7726 45.9004 31.7726 45.9004 31.7803V35.4233L49.2646 37.5966V33.3814L45.8936 31.208Z" fill="#A18159"/>
<path d="M50.6465 26.6914V38.5096L54.3285 40.8841C54.5979 40.4664 54.9847 40.1416 55.4338 39.9637C56.0693 39.7084 56.7739 39.7858 57.3611 40.1648L61.2917 42.7094C62.1552 43.2663 62.7977 43.8851 63.1155 45.0297L66.2931 47.0794L66.3 47.0716V45.1225C66.3 44.7358 66.2171 44.3568 66.0583 44.0243C65.9063 43.6685 65.6783 43.3668 65.3882 43.1271L59.4197 38.2621L56.9052 32.4613L56.3456 31.1697L56.0071 30.3962L50.6465 26.6914ZM51.6758 29.267L54.8949 31.3398L57.3611 37.5506L51.6758 33.8767V29.267Z" fill="#A18159"/>
<path d="M50.6465 26.6603V26.6912L56.0071 30.3961L56.3456 31.1695L56.9052 32.4611L59.4197 38.262L65.3882 43.1269C65.6783 43.3667 65.9063 43.6683 66.0583 44.0241L74.5551 38.5326C74.5482 38.494 74.5274 38.4476 74.5137 38.4089C74.4169 38.115 74.2373 37.852 74.0025 37.6664L68.0409 32.8092C67.9511 32.7318 67.875 32.639 67.8267 32.523L64.8562 25.678L64.504 24.8659L59.1571 21.4164C59.0466 21.3468 58.9085 21.3468 58.7841 21.4318L50.6465 26.6603ZM56.691 30.9839L64.5937 25.825L67.5918 32.7396L59.6752 37.852L56.691 30.9839Z" fill="#F7BF7B"/>
<path d="M35.8608 20.3787L36.0059 20.4638L36.6829 20.0229L35.8608 20.3787Z" fill="#8797C6"/>
<path d="M33.6504 24.2768L36.835 25.4911C36.8765 25.5066 36.9179 25.5298 36.9524 25.553L44.5098 30.4412V30.0699L42.1334 28.523C41.8709 28.3606 41.7397 28.0203 41.8018 27.6877L42.0436 26.4657C42.0229 26.4579 42.0022 26.4657 41.9883 26.4502L41.8778 26.3884L41.3597 26.7209L41.2147 26.8137C40.9591 26.9452 40.6206 26.9065 40.2544 26.6668C39.6534 26.2801 39.1423 25.4911 38.9281 24.6868L38.2097 24.2691L37.8436 24.5089L37.6985 24.6017C37.4429 24.7332 37.1044 24.6945 36.7383 24.4548C36.2685 24.1608 35.8679 23.6117 35.6054 23.0161L33.6504 24.2768Z" fill="#3751A0"/>
<path d="M36.9658 19.9067C37.1938 19.8681 37.4563 19.9299 37.7396 20.1155C38.3682 20.5255 38.9001 21.3917 39.0935 22.2425L39.6738 22.5751L40.2886 22.1806C40.5442 22.0491 40.8827 22.0801 41.2557 22.3199C41.7945 22.6756 42.2643 23.364 42.506 24.0988L42.7547 22.8535V22.8458C42.7755 22.7375 42.8238 22.6447 42.8791 22.5596C42.886 22.5441 42.8998 22.5287 42.9067 22.521C42.9274 22.49 42.9482 22.4668 42.9758 22.4436L37.7533 19.5664L36.9658 19.9067Z" fill="#8797C6"/>
<path d="M40.854 20.0557C40.9645 20.2567 41.0474 20.4733 41.1027 20.6898L41.4688 20.4578L40.854 20.0557Z" fill="#3751A0"/>
<path d="M30.479 22.9544L30.783 23.9057L30.9211 23.8593L35.211 21.9953C35.2455 21.9798 35.2869 21.9798 35.3215 21.9798C35.3146 21.8793 35.3008 21.7787 35.3008 21.6782C35.3008 21.3147 35.3837 21.0285 35.5218 20.8352L35.2179 20.6572L30.479 22.9544Z" fill="#8797C6"/>
<path d="M34.0508 10.1384V10.3008L34.8867 11.1594L34.9212 11.0124L34.0508 10.1384Z" fill="#8797C6"/>
<path d="M34.0502 9.28746C34.0433 9.31068 34.0502 9.35709 34.0916 9.40349L35.1209 10.4322C35.1278 10.4244 35.1417 10.4167 35.1555 10.409L36.0535 9.82114L34.969 8.7306C34.9275 8.69194 34.8722 8.6842 34.8239 8.71512L34.1124 9.17921C34.064 9.21013 34.0502 9.25654 34.0502 9.28746Z" fill="#8797C6"/>
<path d="M35.3491 11.461L36.0261 12.1416L36.109 11.8864L35.4458 11.2212L35.4113 11.2367C35.4113 11.2367 35.4044 11.2367 35.4044 11.2444L35.3491 11.461Z" fill="#8797C6"/>
<path d="M35.9155 10.9119L36.3784 11.3682L36.5787 11.2368L36.0882 10.7959L35.9155 10.9119Z" fill="#8797C6"/>
<path d="M37.5049 11.3139L40.199 13.7039L37.7329 11.167L37.5049 11.3139Z" fill="#8797C6"/>
<path d="M36.8901 11.7084L40.7172 15.6529L41.1178 15.2662L37.0214 11.6233L36.8901 11.7084Z" fill="#8797C6"/>
<path d="M36.3857 12.7446L40.1851 16.6582L40.3993 16.1168L36.5723 12.1646L36.3857 12.7446Z" fill="#8797C6"/>
<path d="M40.9795 17.4783L44.696 21.3068L45.0552 21.0748C45.0898 21.0516 45.1243 21.0438 45.1589 21.0284L41.2075 16.9446L41.0279 17.3932C41.0141 17.4241 40.9933 17.4473 40.9795 17.4783Z" fill="#8797C6"/>
<path d="M44.481 18.1282L48.1008 22.1964L48.308 22.065L44.481 18.1282Z" fill="#8797C6"/>
<path d="M41.4834 16.4417L46.3535 21.4691L47.2309 22.0337L41.8979 16.0396L41.4834 16.4417Z" fill="#8797C6"/>
<path d="M48.0254 20.9895L48.7784 21.7629L48.9994 21.616L48.0254 20.9895Z" fill="#003366"/>
<path d="M49.3726 20.0691L50.3811 20.7188L50.9407 20.363L49.939 19.7056L49.3726 20.0691Z" fill="#8797C6"/>
<path d="M44.8062 23.0237L45.8147 23.6734L46.3158 23.355L45.2897 22.7144L44.8062 23.0237Z" fill="#8797C6"/>
<path d="M43.2588 27.4714L45.1239 28.6779V25.0118L43.8943 24.2229L43.2588 27.4714Z" fill="#8797C6"/>
<path d="M46.5059 25.0193V27.3242L47.4592 25.2204L47.3417 25.1508C47.2658 25.0966 47.2174 25.0038 47.2174 24.8956V24.6945L47.1345 24.6094L46.5059 25.0193Z" fill="#8797C6"/>
<path d="M46.5469 29.8454L49.2617 31.5934V29.7371L48.1979 30.4255C48.1564 30.4487 48.115 30.4642 48.0666 30.4642C48.0597 30.4642 48.0597 30.4564 48.0528 30.4564C48.0459 30.4564 48.039 30.4642 48.0321 30.4642C47.9837 30.4642 47.9423 30.4487 47.9008 30.4255L46.7679 29.6985L46.5469 29.8454Z" fill="#3751A0"/>
<path d="M48.4604 29.5828L49.2618 29.0646V26.636L48.4604 29.5828Z" fill="#3751A0"/>
<path d="M46.5059 28.6082V28.8557L47.8737 29.7451L48.8615 26.1022C48.8339 26.1022 48.8062 26.0945 48.7855 26.079C48.7855 26.079 48.7786 26.079 48.7717 26.079L47.9082 25.5144L46.5059 28.6082Z" fill="#3751A0"/>
<path d="M55.189 20.8426V21.4227L57.5239 19.9146V19.3345L55.189 20.8426Z" fill="#F79420"/>
<path d="M51.9629 22.9308V23.5109L54.6708 21.7629V21.175L51.9629 22.9308Z" fill="#F79420"/>
<path d="M47.7349 24.1531V24.7332L48.6467 25.321V24.7409L47.7349 24.1531Z" fill="#F79420"/>
<path d="M49.165 24.741V25.3211L51.4447 23.8515V23.2637L49.165 24.741Z" fill="#F79420"/>
<path d="M47.9907 23.6503L48.9026 24.2382L51.1822 22.7609L50.2773 22.1731L47.9907 23.6503Z" fill="#F79420"/>
<path d="M50.7954 21.8404L51.7004 22.4283L54.4152 20.6725L53.5033 20.0847L50.7954 21.8404Z" fill="#F79420"/>
<path d="M54.0215 19.7521L54.1597 19.8372L54.9333 20.3399L57.2683 18.8317L56.3564 18.2439L54.0215 19.7521Z" fill="#F79420"/>
<path d="M63.4165 48.9575V49.5918L65.6339 51.0226C66.235 51.4093 66.981 51.4093 67.582 51.0226L76.4933 45.2605C76.5901 45.1986 76.597 45.1058 76.597 45.0594V44.5798L68.2936 49.9553C67.7755 50.2878 67.2021 50.4503 66.6287 50.4503C66.0484 50.4503 65.4751 50.2878 64.9639 49.9553L63.4165 48.9575Z" fill="#BABABA"/>
<path d="M64.1143 47.6112L65.6547 48.6166C66.2557 49.0033 67.0018 49.0033 67.6028 48.6089L76.5141 42.8467C76.6039 42.7926 76.6177 42.6998 76.6177 42.6456C76.6177 42.5992 76.6039 42.5064 76.5141 42.4445L75.9822 42.1042C75.9408 42.2976 75.8302 42.46 75.6782 42.5683L66.6495 48.6398C66.6495 48.6398 66.6495 48.6398 66.6426 48.6475C66.608 48.6708 66.5735 48.6785 66.5321 48.6939C66.5113 48.7017 66.4975 48.7172 66.4768 48.7249C66.4284 48.7403 66.387 48.7403 66.3386 48.7403C66.3248 48.7481 66.311 48.7481 66.2972 48.7481C66.2696 48.7481 66.2488 48.7403 66.2212 48.7403C66.1867 48.7326 66.1521 48.7326 66.1245 48.7249C66.1038 48.7172 66.0899 48.7094 66.0761 48.7017C66.0347 48.6862 65.9932 48.6708 65.9587 48.6475C65.9518 48.6475 65.9518 48.6475 65.9518 48.6475L64.2317 47.5338L64.1143 47.6112Z" fill="#BABABA"/>
<path d="M66.0576 44.0244C66.2165 44.357 66.2994 44.736 66.2994 45.1227V47.0718L74.6304 41.4643V39.0435C74.6304 38.8733 74.6097 38.7031 74.5545 38.533L66.0576 44.0244Z" fill="#CCCCCC"/>
<path d="M51.6753 29.2671V33.8768L57.3606 37.5507L54.8944 31.3399L51.6753 29.2671Z" fill="#797979"/>
<path d="M56.6904 30.9841L59.6747 37.8522L67.5913 32.7398L64.5932 25.8252L56.6904 30.9841Z" fill="#B3B3B3"/>
<path d="M57.7589 44.6421C58.5131 45.1297 59.1242 46.3147 59.1217 47.285C59.1193 48.2553 58.5042 48.6477 57.75 48.1602C56.9958 47.6727 56.3848 46.4876 56.3872 45.5174C56.3897 44.547 57.0047 44.1546 57.7589 44.6421Z" fill="#999999"/>
<path d="M57.2236 44.6613C57.5168 44.8508 57.7543 45.3114 57.7534 45.6886C57.7524 46.0658 57.5134 46.2183 57.2202 46.0288C56.927 45.8393 56.6895 45.3787 56.6904 45.0015C56.6914 44.6243 56.9305 44.4718 57.2236 44.6613Z" fill="#BABABA"/>
<path d="M36.9777 31.2215C37.7319 31.709 38.3429 32.894 38.3405 33.8643C38.338 34.8346 37.723 35.2271 36.9688 34.7395C36.2146 34.252 35.6035 33.067 35.606 32.0967C35.6084 31.1264 36.2235 30.7339 36.9777 31.2215Z" fill="#999999"/>
<path d="M36.7411 21.7146C37.1252 21.9629 37.4364 22.5664 37.4352 23.0606C37.4339 23.5548 37.1207 23.7547 36.7366 23.5064C36.3524 23.2581 36.0412 22.6545 36.0425 22.1604C36.0437 21.6662 36.357 21.4663 36.7411 21.7146Z" fill="#999999"/>
<path d="M40.2592 23.9253C40.6433 24.1736 40.9545 24.7771 40.9532 25.2713C40.952 25.7655 40.6387 25.9654 40.2546 25.7171C39.8705 25.4688 39.5593 24.8652 39.5606 24.3711C39.5618 23.8769 39.875 23.677 40.2592 23.9253Z" fill="#999999"/>
<path d="M73.5302 39.5993C73.0401 39.9161 72.6429 40.6863 72.6445 41.3169C72.6461 41.9475 73.0459 42.2026 73.536 41.8857C74.0262 41.5689 74.4233 40.7987 74.4217 40.1681C74.4201 39.5375 74.0204 39.2824 73.5302 39.5993Z" fill="white"/>
<path d="M67.5185 43.673C67.0283 43.9899 66.6312 44.76 66.6328 45.3906C66.6344 46.0212 67.0341 46.2763 67.5243 45.9595C68.0145 45.6426 68.4116 44.8724 68.41 44.2418C68.4084 43.6112 68.0087 43.3562 67.5185 43.673Z" fill="white"/>
<path d="M36.4439 31.2313C36.737 31.4209 36.9746 31.8815 36.9736 32.2587C36.9727 32.6359 36.7336 32.7884 36.4404 32.5989C36.1472 32.4094 35.9097 31.9487 35.9106 31.5716C35.9116 31.1944 36.1507 31.0418 36.4439 31.2313Z" fill="#BABABA"/>
<path d="M29.721 22.2543C34.6156 21.9765 34.9441 14.6913 35.0521 12.2968L34.7073 12.2766C34.5265 16.2778 33.8118 21.6241 29.7041 21.8569L29.721 22.2543Z" fill="black"/>
<path d="M0.00520075 7.7744C0.00586088 7.78987 0.318466 9.2823 0.375449 9.96919C0.413616 10.5405 0.509077 10.9944 0.684759 11.3843C0.738722 11.5144 0.866034 11.5808 0.989062 11.5468L1.34436 11.4449C1.34172 11.3831 1.3325 11.3292 1.33019 11.2751L1.3269 11.1979C1.30021 10.5721 1.46007 10.1039 1.76041 9.84879C1.80054 9.81685 1.84067 9.78491 1.89459 9.75257L2.31763 9.45564C2.47754 9.47479 2.64498 9.50918 2.82823 9.58957C2.9131 9.63381 3.00522 9.68561 3.09767 9.74514C4.25433 10.4349 5.27329 12.1105 5.46975 13.6368C5.49346 13.8682 5.50236 14.0768 5.49676 14.2703C5.49055 14.2859 5.50499 14.301 5.50565 14.3165C5.50763 14.3628 5.50335 14.4248 5.49879 14.4791C5.49253 14.6571 5.48101 14.8739 5.46854 15.0676C5.45999 15.1916 5.5202 15.306 5.61924 15.3576C5.69028 15.4022 7.38916 16.318 8.43563 16.6935C9.42616 17.0549 12.0159 18.2651 12.1715 18.3462C13.2249 19.0463 14.5415 19.9177 15.8295 20.7665C15.9147 20.8185 16.0252 20.8157 16.1058 20.7595C16.193 20.6954 16.2295 20.5785 16.2111 20.4706L16.193 20.3706L16.191 20.3242C16.1834 20.3089 16.1828 20.2935 16.1824 20.2858C16.1485 19.9773 16.1574 19.6986 16.1889 19.4658L16.1886 19.4581C16.1945 19.4347 16.1936 19.4115 16.1998 19.3959C16.2278 19.2405 16.2771 19.1 16.3343 18.9826C16.3916 18.8651 16.4636 18.7705 16.5504 18.6986C16.8172 18.4676 17.2245 18.4494 17.6828 18.6543C17.7676 18.6986 17.8525 18.7428 17.9377 18.7948C19.0095 19.4403 19.9613 21.0015 20.1463 22.4199C20.1891 22.7746 20.1815 23.0841 20.1234 23.3408C20.1174 23.3642 20.1118 23.3952 20.1125 23.4107C20.1109 23.5345 20.1852 23.6563 20.2974 23.6921C20.8544 23.9409 22.6161 24.7081 22.97 24.7377C23.0187 24.7443 23.1227 24.7493 23.2539 24.746C24.0622 24.7254 26.1304 24.5722 26.7551 24.4634L26.7966 24.4624C26.8308 24.4538 26.8584 24.4531 26.8719 24.445C27.4127 24.3152 29.1783 23.3885 29.8891 22.8677L30.1168 22.6918C30.8408 22.1551 31.7457 21.4824 32.1454 20.7994C32.596 20.0145 32.4525 18.2703 32.4304 18.0775C32.4291 18.0466 32.4209 18.0158 32.4127 17.9851C32.489 17.8285 32.5314 17.6882 32.5327 17.5567C32.5554 17.1153 32.3958 16.2918 32.353 16.0995C32.2908 15.7763 30.3846 13.0793 29.6207 12.1939C28.8054 11.2401 27.5405 10.4448 26.4085 10.1721C25.493 9.94792 25.0057 9.71284 24.9985 9.70528C24.9985 9.70528 24.984 9.69017 24.9626 9.67528C25.0047 9.36483 25.0794 8.84476 25.0889 8.41916C25.1027 7.93156 24.9372 7.29384 24.6671 7.12285C24.5604 7.05594 24.4499 7.05876 24.3427 7.13886C24.0476 7.35516 23.7996 7.86421 23.8279 8.20379C23.8559 8.53563 23.9503 8.64151 24.15 8.78337C24.2 8.82076 24.2194 8.95173 24.2185 9.09096C23.3309 8.38658 21.8928 7.26312 21.1214 6.68729C19.9864 5.85769 17.1239 4.41479 16.7354 4.2236C16.4969 3.98218 15.1026 2.58693 13.8874 1.65884C12.3707 0.475544 9.36358 0.018515 9.32905 0.0193957C8.69641 -0.0572894 7.22954 0.0883256 6.21174 0.547362C5.22851 1.00552 1.97644 3.40089 1.83567 3.50502C0.350483 5.32942 0.434763 6.49507 0.465065 6.881C0.464411 7.02796 0.275574 7.30349 0.0831537 7.494C0.0170522 7.56531 -0.0129122 7.67432 0.00520075 7.7744ZM24.2398 8.61866C24.076 8.5068 24.0184 8.45412 24.0003 8.19166C23.975 7.92163 24.1983 7.48279 24.4463 7.2986C24.493 7.25875 24.5345 7.25769 24.5842 7.28735C24.7691 7.40641 24.9306 7.95138 24.9155 8.40809C24.9106 8.77943 24.8471 9.23738 24.805 9.54778C24.6978 9.46545 24.5616 9.35294 24.3902 9.22579C24.4096 9.03195 24.4037 8.73051 24.2398 8.61866Z" fill="black"/>
<path d="M16.1557 19.9771L16.159 20.0544C16.1623 20.1317 16.1725 20.2087 16.1827 20.2858C16.183 20.2936 16.1837 20.309 16.1912 20.3243C16.3719 21.6422 17.2556 23.0659 18.2423 23.6595C18.3202 23.7039 18.3978 23.7406 18.4758 23.785C18.8916 23.9678 19.2516 23.9741 19.5285 23.8201C19.6029 23.7795 19.6703 23.7391 19.7233 23.6837L20.1127 23.4108C20.1121 23.3953 20.1177 23.3642 20.1236 23.3409C20.1818 23.0842 20.1894 22.7746 20.1466 22.42C19.9616 21.0016 19.0098 19.4404 17.938 18.7948C17.8528 18.7429 17.7679 18.6986 17.683 18.6544C17.2247 18.4495 16.8175 18.4676 16.5507 18.6987C16.3773 18.85 16.256 19.0852 16.2001 19.3959C16.159 19.5672 16.1465 19.7608 16.1557 19.9771Z" fill="#1A1A1A"/>
<path d="M18.2161 22.7901C18.0569 22.694 17.9016 22.5611 17.755 22.4072L18.2071 21.6759L18.9144 22.933C18.7553 22.9752 18.5701 22.962 18.36 22.8661C18.3117 22.8443 18.2638 22.8189 18.2161 22.7901ZM17.68 22.3271C17.6063 22.243 17.5362 22.1534 17.4698 22.0592L17.7787 21.456C17.8319 21.3562 17.9143 21.3169 17.9795 21.3562C17.9926 21.3642 18.005 21.3753 18.0164 21.3897C18.0856 21.4779 18.0837 21.642 18.0173 21.7585L17.68 22.3271ZM18.9754 22.9138L18.439 21.9463C18.3347 21.7559 18.2847 21.5681 18.3391 21.5372C18.3539 21.5285 18.3742 21.5325 18.3979 21.5468C18.4612 21.585 18.5491 21.6969 18.6239 21.8376L19.1399 22.8149C19.0898 22.8572 19.0356 22.8911 18.9754 22.9138ZM18.0725 21.3818C18.0621 21.3755 18.0517 21.3665 18.042 21.355C18.0225 21.3306 18.0122 21.3041 18.0089 21.2809C18.002 21.2622 18.0011 21.2394 18.0091 21.2278C18.0199 21.2104 18.0409 21.2074 18.0632 21.2209C18.0724 21.2265 18.0819 21.2349 18.091 21.2463L18.0966 21.2516L18.0991 21.2561C18.13 21.295 18.1414 21.3473 18.1263 21.3749C18.1182 21.3865 18.1076 21.3907 18.0928 21.3875L18.0937 21.391C18.0867 21.3891 18.0796 21.3861 18.0725 21.3818ZM18.2628 21.4669C18.26 21.4652 18.2571 21.4632 18.2541 21.4608C18.239 21.4507 18.2252 21.4317 18.2127 21.4106C18.191 21.3695 18.19 21.3254 18.2085 21.3057L18.2121 21.2981L18.2143 21.2966L18.2167 21.297C18.2267 21.2927 18.239 21.2951 18.2516 21.3028C18.2694 21.3135 18.2881 21.3346 18.3027 21.3615C18.3143 21.3821 18.3213 21.4008 18.3212 21.4191C18.3245 21.4433 18.3175 21.4613 18.3048 21.471C18.292 21.4763 18.2779 21.476 18.2628 21.4669ZM17.4004 21.9651C17.1288 21.5528 16.9307 21.0641 16.8694 20.5951C16.858 20.5031 16.8561 20.4179 16.8551 20.3332L17.7972 21.1657L17.4004 21.9651ZM17.9821 21.1143C17.9772 21.1114 17.9721 21.1075 17.967 21.1029C17.951 21.0894 17.9371 21.0703 17.928 21.0542C17.9154 21.0292 17.9096 21.0016 17.9142 20.9821C17.9157 20.9608 17.9283 20.9481 17.9421 20.9448C17.953 20.9453 17.9644 20.9474 17.9761 20.9545C17.9794 20.9564 17.9827 20.9588 17.9861 20.9617C18.0181 20.9887 18.041 21.0403 18.0387 21.0795L18.0396 21.0829L18.0398 21.0889L18.0408 21.0923C18.0347 21.1216 18.0105 21.1314 17.9821 21.1143ZM18.2869 21.2497C18.2648 21.2364 18.2431 21.2079 18.2288 21.1748L18.2261 21.1675C18.2103 21.1202 18.2243 21.0823 18.2544 21.0811C18.2621 21.0809 18.2703 21.084 18.2788 21.0891C18.2854 21.0931 18.2923 21.0984 18.2993 21.1044C18.3155 21.1209 18.3303 21.1433 18.3406 21.1699C18.3495 21.1984 18.3497 21.2237 18.3426 21.2397C18.3377 21.2522 18.3287 21.2574 18.3148 21.2577C18.3058 21.2583 18.2963 21.2554 18.2869 21.2497ZM18.1137 21.032C18.0798 21.0116 18.0527 20.9686 18.0472 20.9241C18.0439 20.9009 18.0487 20.8844 18.0567 20.8729C18.0672 20.8647 18.081 20.8614 18.0983 20.87C18.101 20.8711 18.1036 20.8725 18.1063 20.8741C18.1212 20.8831 18.1364 20.8989 18.1489 20.9179C18.1613 20.9389 18.1706 20.9581 18.1739 20.9823C18.1795 21.0253 18.1587 21.0465 18.1266 21.0349L18.1275 21.0383L18.1172 21.0341L18.1137 21.032ZM19.1894 22.7772L18.5227 21.4895L19.3508 21.4645C19.374 21.5597 19.3955 21.6548 19.4078 21.7492C19.4683 22.2168 19.3799 22.5751 19.1894 22.7772ZM17.682 20.937C17.6492 20.9172 17.6139 20.8914 17.5779 20.8603L16.8557 20.235C16.8597 20.1417 16.8701 20.0543 16.8886 19.9746L17.6171 20.567C17.7609 20.6847 17.8766 20.8531 17.8638 20.9372C17.8565 21.0017 17.7806 20.9965 17.682 20.937ZM18.5025 21.3092C18.4473 21.2758 18.4034 21.2286 18.3856 21.1748C18.3489 21.0676 18.4323 20.9904 18.5616 20.9959L19.2144 21.0304C19.2573 21.1375 19.2934 21.2462 19.324 21.3556L18.6836 21.3605C18.6214 21.3611 18.5565 21.3418 18.5025 21.3092ZM17.8602 20.6557L16.9149 19.8996C17.0353 19.5103 17.3323 19.3223 17.7304 19.4234L17.8602 20.6557ZM18.0196 19.5426C18.0259 19.5464 18.0322 19.55 18.0385 19.5533L18.1758 20.5089C18.2028 20.7021 18.1666 20.8387 18.0926 20.8047C18.0896 20.8033 18.0866 20.8017 18.0837 20.7999C18.0095 20.7552 17.9359 20.5737 17.9144 20.3898L17.8056 19.4475C17.8447 19.4605 17.8821 19.4676 17.9222 19.486C17.9401 19.4942 17.9573 19.5042 17.9746 19.5146C17.9832 19.5198 17.9918 19.5251 18.0005 19.5304C18.0069 19.5347 18.0132 19.5388 18.0196 19.5426ZM18.3096 20.8593L18.1169 19.5987C18.5349 19.8674 18.9211 20.3653 19.1652 20.9215L18.3096 20.8593ZM18.0669 19.3058C18.0071 19.2698 17.9469 19.2378 17.8865 19.2103C17.0694 18.8389 16.5224 19.4182 16.6632 20.5015C16.7937 21.5094 17.4663 22.5944 18.2133 23.0453C18.2737 23.0817 18.3347 23.1141 18.3957 23.1418C19.2088 23.5108 19.7551 22.932 19.614 21.8428C19.4844 20.8404 18.8112 19.7551 18.0669 19.3058Z" fill="#CCCCCC"/>
<path d="M1.32661 11.1978L1.3299 11.275C1.33221 11.3291 1.34143 11.383 1.34407 11.4448L1.34637 11.4989C1.5208 12.8324 2.41208 14.2715 3.40591 14.8726C3.48391 14.917 3.56879 14.9613 3.64641 14.9979C4.06259 15.1884 4.42245 15.1947 4.69913 15.033C4.76688 15.0003 4.83397 14.9522 4.89386 14.8965L5.4985 14.479C5.50307 14.4247 5.50734 14.3627 5.50537 14.3164C5.50471 14.3009 5.49026 14.2858 5.49648 14.2702C5.50207 14.0767 5.49317 13.8681 5.46946 13.6367C5.27301 12.1104 4.25404 10.4349 3.09738 9.74507C3.00493 9.68554 2.91281 9.63374 2.82794 9.5895C2.64469 9.50911 2.47725 9.47472 2.31734 9.45557L1.8943 9.7525C1.84038 9.78484 1.80025 9.81678 1.76012 9.84872C1.45978 10.1039 1.29993 10.572 1.32661 11.1978Z" fill="#1A1A1A"/>
<path d="M3.38216 14.0067C3.22293 13.9106 3.06759 13.7777 2.92105 13.6238L3.37314 12.8925L4.0804 14.1495C3.92136 14.1918 3.73614 14.1785 3.52597 14.0826C3.47776 14.0609 3.42979 14.0354 3.38216 14.0067ZM2.84597 13.5437C2.77228 13.4596 2.70222 13.3699 2.63585 13.2757L2.94472 12.6726C2.99795 12.5728 3.08036 12.5335 3.14548 12.5728C3.15861 12.5807 3.17104 12.5918 3.18239 12.6063C3.25161 12.6945 3.24969 12.8586 3.18327 12.975L2.84597 13.5437ZM4.14145 14.1303L3.60499 13.1629C3.50076 12.9724 3.45073 12.7847 3.50513 12.7537C3.51994 12.745 3.54018 12.749 3.56389 12.7633C3.6272 12.8015 3.71516 12.9134 3.78996 13.0542L4.30594 14.0315C4.25586 14.0738 4.20159 14.1077 4.14145 14.1303ZM3.2385 12.5983C3.22807 12.592 3.21769 12.5831 3.20804 12.5715C3.18851 12.5472 3.17818 12.5206 3.17493 12.4974C3.16799 12.4787 3.16708 12.456 3.17512 12.4444C3.18589 12.427 3.20687 12.424 3.22917 12.4374C3.23843 12.443 3.24792 12.4514 3.257 12.4629L3.26262 12.4682L3.26512 12.4726C3.29604 12.5116 3.30742 12.5639 3.29229 12.5915C3.28426 12.603 3.27361 12.6072 3.2588 12.6041L3.25971 12.6075C3.25275 12.6057 3.24561 12.6026 3.2385 12.5983ZM3.42885 12.6835C3.42598 12.6818 3.42308 12.6797 3.42015 12.6773C3.40506 12.6672 3.39116 12.6482 3.37873 12.6272C3.35699 12.586 3.35599 12.542 3.37452 12.5222L3.37808 12.5147L3.38034 12.5132L3.38267 12.5136C3.39276 12.5093 3.40498 12.5117 3.4176 12.5193C3.43542 12.5301 3.45407 12.5512 3.46872 12.5781C3.48036 12.5987 3.48729 12.6173 3.48726 12.6357C3.49054 12.6599 3.48354 12.6779 3.47079 12.6876C3.45802 12.6929 3.44392 12.6926 3.42885 12.6835ZM2.5664 13.1816C2.29485 12.7694 2.09674 12.2806 2.03543 11.8116C2.02402 11.7197 2.02214 11.6345 2.02107 11.5497L2.96321 12.3822L2.5664 13.1816ZM3.14817 12.3309C3.14322 12.3279 3.13814 12.3241 3.13302 12.3194C3.11702 12.3059 3.10312 12.2869 3.09397 12.2707C3.08138 12.2457 3.07563 12.2181 3.08026 12.1987C3.08172 12.1773 3.09435 12.1647 3.10813 12.1614C3.11901 12.1619 3.13043 12.1639 3.14214 12.171C3.14543 12.173 3.14875 12.1754 3.15208 12.1782C3.18407 12.2053 3.20701 12.2568 3.20471 12.296L3.20563 12.2995L3.20586 12.3054L3.20677 12.3089C3.20071 12.3381 3.17651 12.348 3.14817 12.3309ZM3.45294 12.4663C3.43086 12.453 3.4091 12.4245 3.39477 12.3914L3.39216 12.384C3.37635 12.3368 3.39029 12.2988 3.42038 12.2976C3.42816 12.2975 3.4363 12.3005 3.44478 12.3057C3.45144 12.3097 3.45831 12.315 3.46536 12.3209C3.48147 12.3374 3.49628 12.3599 3.50662 12.3864C3.51549 12.415 3.51574 12.4402 3.50865 12.4563C3.50374 12.4688 3.49468 12.4739 3.48078 12.4742C3.47181 12.4749 3.46235 12.472 3.45294 12.4663ZM3.2797 12.2486C3.24579 12.2281 3.21868 12.1851 3.21317 12.1407C3.20992 12.1175 3.21466 12.101 3.2227 12.0894C3.23319 12.0813 3.24697 12.078 3.26431 12.0865C3.26697 12.0877 3.26966 12.0891 3.27235 12.0907C3.28721 12.0997 3.30238 12.1154 3.31492 12.1344C3.32736 12.1555 3.33662 12.1746 3.33991 12.1988C3.3455 12.2418 3.32472 12.2631 3.29257 12.2514L3.29348 12.2549L3.28326 12.2506L3.2797 12.2486ZM4.35543 13.9937L3.68867 12.706L4.51683 12.6811C4.53997 12.7762 4.56156 12.8714 4.57384 12.9658C4.63433 13.4333 4.54592 13.7917 4.35543 13.9937ZM2.84797 12.1535C2.81522 12.1338 2.77996 12.108 2.74386 12.0768L2.02177 11.4516C2.02575 11.3583 2.03615 11.2708 2.05459 11.1911L2.7831 11.7835C2.92692 11.9012 3.04263 12.0697 3.02978 12.1537C3.0225 12.2182 2.94665 12.2131 2.84797 12.1535ZM3.66856 12.5257C3.61328 12.4924 3.56943 12.4451 3.55164 12.3914C3.51488 12.2841 3.59834 12.2069 3.72761 12.2125L4.38042 12.247C4.42335 12.354 4.45939 12.4628 4.49006 12.5721L3.84964 12.577C3.78743 12.5777 3.72255 12.5583 3.66856 12.5257ZM3.02621 11.8723L2.08095 11.1162C2.20134 10.7269 2.49827 10.5388 2.89643 10.64L3.02621 11.8723ZM3.18558 10.7592C3.19191 10.763 3.19824 10.7666 3.20455 10.7699L3.34179 11.7254C3.36886 11.9186 3.33261 12.0552 3.2586 12.0212C3.25563 12.0199 3.25266 12.0183 3.24968 12.0165C3.17549 11.9717 3.10195 11.7903 3.08046 11.6064L2.97157 10.6641C3.01073 10.6771 3.04811 10.6842 3.08826 10.7026C3.1061 10.7108 3.12333 10.7208 3.14058 10.7312C3.1492 10.7364 3.15783 10.7417 3.16654 10.747C3.1729 10.7513 3.17924 10.7553 3.18558 10.7592ZM3.47562 12.0758L3.28288 10.8152C3.70089 11.084 4.08715 11.5819 4.33123 12.138L3.47562 12.0758ZM3.23287 10.5224C3.17314 10.4863 3.11287 10.4543 3.05247 10.4268C2.23546 10.0555 1.6884 10.6347 1.82922 11.7181C1.95973 12.7259 2.63235 13.811 3.37933 14.2618C3.4397 14.2983 3.50067 14.3306 3.56176 14.3584C4.37481 14.7273 4.92111 14.1486 4.78006 13.0593C4.65044 12.0569 3.97721 10.9716 3.23287 10.5224Z" fill="#CCCCCC"/>
<path d="M24.4468 7.2985C24.4935 7.25865 24.5349 7.25759 24.5846 7.28724C24.7695 7.4063 24.9311 7.95127 24.9159 8.40799C24.9133 8.61066 24.8929 8.83762 24.8683 9.05387C24.6836 8.54929 24.4271 8.07774 24.1299 7.69913C24.213 7.53816 24.3264 7.3879 24.4468 7.2985Z" fill="#FF0000"/>
<path d="M24.3904 9.22578C24.4098 9.03194 24.4038 8.7305 24.24 8.61864C24.0762 8.50679 24.0186 8.45411 24.0005 8.19164C23.9874 8.05267 24.0415 7.86989 24.1296 7.69922C24.4268 8.07783 24.6833 8.54938 24.868 9.05397C24.8476 9.23387 24.8243 9.4068 24.8052 9.54777C24.698 9.46544 24.5618 9.35293 24.3904 9.22578Z" fill="#BF0000"/>
<path d="M29.5938 13.0144L29.6043 13.2616C29.7708 13.4353 30.5676 14.2812 30.7785 14.8481C30.9828 15.423 31.1079 16.4097 31.1289 16.5794L31.6004 17.4181C31.6771 17.1067 31.7826 16.5008 31.7279 16.0305C31.3713 15.4517 30.361 13.9771 29.5938 13.0144Z" fill="#CCCCCC"/>
<path d="M5.99512 14.9305C6.45468 15.1663 7.75615 15.8447 8.58516 16.1484C8.80261 16.2202 9.09144 16.3443 9.41517 16.4753C8.38544 15.8441 6.94288 15.0997 6.01318 14.7058C6.00956 14.7832 5.99903 14.8608 5.99512 14.9305Z" fill="#4D4D4D"/>
<path d="M9.26807 2.31789C10.303 2.42299 11.5271 2.58515 12.4838 2.80057C13.7056 3.07103 14.8672 3.55191 15.6147 3.8886C15.0524 3.35384 14.2898 2.66171 13.6032 2.13011C12.659 1.39621 10.9727 0.93649 9.97463 0.722168C10.0417 0.83644 10.1026 0.966402 10.1155 1.10528C10.1368 1.44503 9.57368 2.02395 9.26807 2.31789Z" fill="#BF0000"/>
<path d="M3.38944 5.39879C3.39871 5.77751 3.47601 5.96889 3.51383 6.04525C3.57504 6.02051 3.62274 6.00381 3.67012 5.97938C4.09773 5.79062 4.74678 5.44152 4.88858 5.36059C4.34377 4.9104 3.94438 4.62668 3.85918 4.57471C3.72561 4.6864 3.59897 4.79791 3.47265 4.91711L3.47298 4.92485C3.42363 5.06531 3.38252 5.23653 3.38944 5.39879Z" fill="#BF0000"/>
<path d="M9.28461 0.593246C9.382 0.606247 9.53532 0.63326 9.72346 0.667127C9.82546 0.788298 9.92911 0.948042 9.94327 1.11785C9.9597 1.34171 9.4245 1.92765 9.02484 2.28587C8.94853 2.28008 8.87222 2.27428 8.79554 2.2608C8.8893 2.18878 9.17088 1.98052 9.26463 1.74612C9.33962 1.5586 9.30739 1.45113 9.27051 1.39793C9.44157 1.35491 9.60675 1.33521 9.77913 1.32313C9.46133 1.25013 9.14246 1.26982 8.82477 1.33687C8.53906 1.0985 8.18664 0.875797 7.80029 0.686154C8.4203 0.580336 8.99614 0.556649 9.28461 0.593246Z" fill="#BF0000"/>
<path d="M2.17971 3.94484C2.19354 3.94449 5.4857 1.51722 6.41468 1.08363C6.8335 0.892681 7.32924 0.766191 7.80026 0.685791C8.1866 0.875434 8.53902 1.09814 8.82474 1.33651C7.71809 1.57009 6.62786 2.48456 5.66605 2.9898C5.08249 3.4146 1.95612 5.35039 2.62364 6.24599C2.50788 6.26343 2.39292 6.28085 2.28285 6.2981C1.94565 5.95719 1.60834 5.65522 1.26367 5.39857C1.44159 4.99162 1.72203 4.50936 2.17971 3.94484Z" fill="#FF0000"/>
<path d="M2.28294 6.29796C2.27539 6.29915 2.26709 6.30035 2.25958 6.30153C1.97796 6.34742 1.71017 6.3929 1.51841 6.43645C1.28548 6.48878 1.10685 6.51656 0.975586 6.51991C0.987198 6.26263 1.05089 5.8853 1.26376 5.39844C1.60843 5.65509 1.94574 5.95705 2.28294 6.29796Z" fill="#BF0000"/>
<path d="M4.00586 4.44714C4.17725 4.57424 4.66975 4.93296 5.29383 5.4584C6.01893 6.08186 7.32962 7.30137 7.50267 7.46714C7.64875 7.48659 8.37971 7.59943 8.68665 7.66124C9.69101 7.85992 9.8815 7.78548 9.91504 7.7614C10.1358 7.58565 11.1933 6.76208 12.2802 5.97647C13.2332 5.29482 14.5201 4.49632 14.9178 4.25418C14.7112 4.11249 14.1795 3.80896 13.1038 3.55796C11.6787 3.22301 6.65956 2.94101 6.19539 2.92188C6.05393 3.01059 5.9125 3.09926 5.77071 3.18019C5.172 3.5744 4.56707 3.98426 4.00586 4.44714Z" fill="#333333"/>
<path d="M8.3418 8.81494C8.53625 9.15803 9.07156 10.0338 9.87099 10.9415C9.88515 10.7865 9.9226 10.5303 9.99034 10.1728C10.0805 9.69099 10.3114 9.26749 10.4341 9.06327C9.49322 8.89389 8.6675 8.82987 8.3418 8.81494Z" fill="#333333"/>
<path d="M6.94489 9.79396C6.91347 9.78688 6.88298 9.78657 6.85156 9.78123C7.28 10.2621 7.65979 10.7823 7.96413 11.3157C8.3022 11.4306 8.64764 11.5203 8.7135 11.5355C8.65991 11.5755 8.38422 11.598 8.20262 11.5562C8.20262 11.5562 8.24374 11.7098 8.28491 12.0259C8.33592 12.4113 8.31752 12.6283 8.27542 12.7763C8.36886 12.859 8.45604 12.9574 8.54947 13.04C8.61129 12.8683 8.70044 12.6881 8.81688 12.4996C8.86853 12.4132 8.92475 12.2725 8.96752 12.14C8.99942 12.0773 9.0172 12.0072 9.04284 11.9602C9.06194 11.921 9.07408 11.882 9.08626 11.843C9.1366 11.7258 9.19414 11.616 9.26555 11.5059C8.74704 10.8617 8.22951 10.2407 7.89857 9.93979C7.75611 9.84287 7.60707 9.75387 7.45214 9.68823C7.63111 9.83062 7.7979 10.012 7.87882 10.1259C7.87882 10.1259 7.37123 9.89908 6.94489 9.79396ZM7.96897 10.2938C8.0496 10.4 8.37202 10.8249 8.49275 11.0616C8.56087 11.199 8.58388 11.2526 8.59179 11.2756C8.54046 11.2073 8.27529 10.8274 8.1621 10.6059C8.06471 10.4305 7.99136 10.3319 7.96897 10.2938Z" fill="#BF0000"/>
<path d="M7.59889 11.1773C6.9791 10.9147 6.64355 10.8304 6.4708 10.6724C6.29512 10.4448 6.1122 10.2098 5.95002 9.97414C5.94113 9.92796 5.9385 9.86614 5.98554 9.83398C6.05996 9.77473 6.45033 9.71328 6.85183 9.78136C7.28027 10.2622 7.66006 10.7824 7.9644 11.3158C7.83629 11.2723 7.70926 11.2255 7.59889 11.1773Z" fill="#FF0000"/>
<path d="M9.04297 12.44C9.97564 13.2283 10.8623 14.0719 11.7427 14.9312C11.9881 15.1724 12.2197 15.414 12.4582 15.6554C12.4944 15.6932 12.5444 15.7306 12.5806 15.7683C12.2259 15.0736 11.2889 14.0224 10.6971 13.2796C10.3845 12.924 9.88708 12.2871 9.38306 11.658C9.33107 11.7366 9.28667 11.8305 9.24917 11.9243C9.23011 11.9635 9.21793 12.0025 9.19888 12.0416C9.18044 12.0962 9.15545 12.1587 9.13043 12.2212C9.10578 12.2915 9.07454 12.3696 9.04297 12.44Z" fill="#BF0000"/>
<path d="M8.62457 13.6646C9.91875 14.4978 11.2715 15.2445 12.6339 15.8904L12.6335 15.8827C12.618 15.8444 12.6026 15.8061 12.5802 15.768C12.544 15.7302 12.494 15.6929 12.4578 15.6551C12.2193 15.4137 11.9877 15.1721 11.7423 14.9309C10.8619 14.0716 9.97528 13.228 9.04261 12.4397C9.01758 12.5022 8.9926 12.5647 8.96004 12.6119C8.73371 12.9812 8.62156 13.2702 8.62457 13.6646Z" fill="#FF0000"/>
<path d="M13.0337 15.2154C13.2291 15.0944 13.488 15.0027 13.7021 14.9973C13.785 14.9952 13.8617 15.0087 13.9252 15.038C14.0811 15.1268 14.2499 15.517 14.322 15.7471C14.3377 15.7932 14.3733 15.8154 14.4078 15.8145C14.4148 15.8144 14.8914 15.8022 15.1342 15.9816C15.2011 16.0296 15.2426 16.0916 15.2696 16.1548C14.497 16.1702 13.7041 15.7087 12.9136 15.303C12.9506 15.2742 12.9824 15.2461 13.0337 15.2154Z" fill="#FF0000"/>
<path d="M12.914 15.3027C13.7046 15.7084 14.4974 16.1699 15.27 16.1546C15.2977 16.2194 15.3101 16.2856 15.3159 16.3403C15.0991 16.284 14.5747 16.1504 14.2379 16.0352C14.0767 15.9852 13.8678 15.9519 13.6585 15.9108C13.3381 15.8571 12.9338 15.7823 12.8387 15.661C12.7871 15.5849 12.7641 15.5314 12.7686 15.4771C12.7758 15.4241 12.8342 15.3648 12.914 15.3027Z" fill="#BF0000"/>
<path d="M10.0234 11.1231C10.2192 11.3347 10.4218 11.5461 10.6449 11.7492C12.1503 13.1571 14.4121 14.9479 15.9518 15.6975C15.6244 14.8319 14.3872 11.6074 13.8645 10.8628C13.2315 9.96634 11.7938 9.33786 10.622 9.10474C10.5309 9.23852 10.2599 9.69401 10.1576 10.2148C10.055 10.7279 10.0329 11.0223 10.0234 11.1231Z" fill="#333333"/>
<path d="M9.44775 11.5556C10.0018 12.2221 10.5999 12.9494 10.7963 13.1764C10.9306 13.405 12.1482 14.7119 12.6028 15.4815C12.6022 15.466 12.5949 15.4585 12.6012 15.4429C12.6226 15.2954 12.7282 15.1766 12.9509 15.0472C13.2542 14.8616 13.7108 14.7031 14.0012 14.8658C14.2279 14.9915 14.4063 15.4433 14.4691 15.6195C14.6145 15.6236 14.9892 15.6527 15.2244 15.8169C15.5383 16.0409 15.487 16.4598 15.4807 16.4754C15.4748 16.4988 15.462 16.5223 15.4419 16.5383C15.4284 16.5464 15.4149 16.5544 15.4011 16.5548L15.3804 16.5553C15.3732 16.5478 14.6323 16.3656 14.1974 16.222C14.0431 16.1718 13.8342 16.1384 13.6322 16.1049C13.2628 16.037 12.9141 15.9685 12.7555 15.8179C12.7637 15.8486 12.7647 15.8718 12.766 15.9027C12.8654 15.962 13.1917 16.1548 13.3918 16.3044C13.8563 16.656 14.9413 17.2858 15.5789 17.6408C15.6098 17.5549 15.6479 17.4766 15.6989 17.3747C15.7752 17.2182 15.8775 17.0222 15.9706 16.7723C16.1071 16.4053 16.0571 16.0431 16.0389 15.9431C14.4803 15.2325 12.1043 13.3596 10.5413 11.899C10.3182 11.6959 10.1156 11.4845 9.91982 11.2729C9.73562 11.3317 9.5935 11.405 9.48722 11.5082C9.4741 11.5241 9.46092 11.5398 9.44775 11.5556Z" fill="#FF0000"/>
<path d="M8.62988 13.7886C8.63906 13.8425 8.63449 13.8967 8.644 13.9584C8.67397 14.1742 8.8115 14.48 8.95659 14.8011C9.10136 15.1146 9.25404 15.451 9.34418 15.7812C9.77711 16.0409 10.1611 16.2863 10.4535 16.4954C10.5249 16.5477 10.6249 16.6226 10.7605 16.7196C10.7746 16.727 10.7815 16.7268 10.7887 16.7344C10.7956 16.7342 10.7956 16.7342 10.7956 16.7342C11.3852 16.9357 11.975 17.145 12.5583 17.3621C13.4999 17.7094 14.4233 18.119 15.3286 18.5909C15.3967 18.2411 15.4677 17.9609 15.5102 17.8206C14.8723 17.4579 13.7735 16.8285 13.3014 16.4615C13.0728 16.2895 12.6477 16.0528 12.6405 16.0453C12.6266 16.0456 12.6201 16.0535 12.6063 16.0539C11.2252 15.4549 9.91719 14.622 8.62988 13.7886Z" fill="#BF0000"/>
<path d="M15.498 18.6789C15.604 18.7304 15.7103 18.7896 15.8096 18.8489C15.9027 18.5991 16.0461 18.3943 16.2195 18.2429C16.6395 17.8765 17.2254 17.8306 17.8742 18.1235C17.966 18.1675 18.0653 18.2268 18.1716 18.286C19.371 19.0057 20.4261 20.7189 20.645 22.2833C21.0415 22.6599 21.4313 23.0445 21.8593 23.3506C22.2301 23.6119 22.6068 23.8498 23.0029 24.0562C22.839 23.9444 22.7015 23.801 22.6252 23.6327C22.5561 23.4721 22.5488 23.3021 22.6113 23.1459C22.6804 22.9817 22.8597 22.807 23.0887 22.6619C22.7722 22.5385 22.3284 22.3487 21.8902 22.1279C21.0917 21.7306 20.6706 21.4242 20.6496 21.417C20.6351 21.4019 20.6203 21.3791 20.6124 21.3561C20.6114 21.3329 20.1547 19.3801 18.5512 18.2686C17.5396 17.5751 16.6648 17.6593 16.2132 17.9337C16.0652 18.0303 15.8994 18.0346 15.7434 17.9457C15.7224 17.9385 15.6937 17.916 15.6658 17.909C15.624 18.0648 15.553 18.345 15.498 18.6789Z" fill="#BF0000"/>
<path d="M26.4451 23.5123C26.4724 23.5039 26.4997 23.4954 26.5274 23.4947C26.9517 23.3911 28.664 22.5122 29.3544 21.9996L29.5824 21.8314C30.2324 21.3431 31.1242 20.6862 31.4653 20.0897C31.562 19.9248 31.6205 19.6758 31.657 19.3965C31.664 19.3963 31.6636 19.3886 31.6633 19.3808C31.6873 19.2952 31.7047 19.2174 31.7222 19.1396C31.7508 18.9996 31.7794 18.8597 31.8248 18.789C31.8574 18.7417 31.8968 18.6943 31.9495 18.6311C31.9613 19.234 31.9285 20.0856 31.7028 20.4703C31.3618 21.0668 30.47 21.7237 29.82 22.2121L29.592 22.3803C28.9015 22.8928 27.1893 23.7718 26.7649 23.8754C26.7373 23.8761 26.71 23.8845 26.6827 23.893C26.5197 23.9112 25.1993 24.0502 23.9233 23.7814L24.1076 23.4792C25.2344 23.6435 26.3008 23.5314 26.4451 23.5123Z" fill="#BF0000"/>
<path d="M24.3151 22.8784C24.4816 22.8896 24.6345 22.9089 24.7664 22.921C24.5331 23.0804 24.2684 23.2862 24.11 23.4746C24.1087 23.4761 24.1069 23.4777 24.1056 23.4792C24.1061 23.4793 24.1065 23.4793 24.107 23.4794L23.9228 23.7815C23.7972 23.7551 23.6713 23.7295 23.5477 23.6945C23.3029 23.6311 23.1016 23.4507 23.0845 23.3737C23.1489 23.2639 23.7532 22.8385 24.3151 22.8784Z" fill="#FF0000"/>
<path d="M20.3022 19.1213C20.6888 19.4286 21.3991 20.0292 21.7807 20.5454C22.2502 21.1753 22.7868 21.5948 22.8868 21.6696C23.0608 21.6961 24.3613 21.864 25.287 21.8404L25.3491 21.8389C25.1057 21.644 24.6984 21.3373 24.5566 21.2558C24.4928 21.2187 24.276 21.1624 24.0309 21.0913C23.4565 20.9203 22.6722 20.6928 22.3284 20.4154C21.884 20.0478 20.8549 19.2696 20.698 19.1577L20.3022 19.1213Z" fill="#CCCCCC"/>
<path d="M0.546387 7.81482C0.617437 8.18423 0.794818 9.10006 0.869539 9.71691C0.970829 9.49776 1.10801 9.30865 1.28171 9.16502C1.72907 8.7901 2.34294 8.75128 3.02686 9.05867C3.12623 9.11802 3.23217 9.16947 3.33874 9.23633C4.63033 10.0078 5.76113 11.8738 5.9787 13.5697C5.99875 13.7162 6.00468 13.8552 6.01028 13.9866C6.01818 14.0096 6.02016 14.0559 6.02181 14.0945C6.19781 14.1674 6.38798 14.2476 6.59983 14.3505C7.35451 14.6948 8.30196 15.1811 9.11719 15.6476C9.03033 15.3946 8.91516 15.1268 8.80822 14.8897C8.65526 14.5456 8.51049 14.2322 8.47229 13.9857C8.45356 13.8702 8.45619 13.7696 8.45191 13.6691C8.36633 13.6094 8.28113 13.5575 8.18868 13.4979C7.43992 12.9679 6.66354 12.4386 6.01904 11.759C5.21071 10.6426 4.28918 9.30492 3.03739 8.81865C2.6788 8.68084 2.2814 8.6059 1.90342 8.66193L1.31584 7.8571C1.31584 7.8571 2.31586 7.14328 2.3708 6.97176C2.40665 6.83933 2.37569 6.60037 2.35692 6.48486C2.33622 6.48539 2.30893 6.49378 2.28818 6.49431C2.00661 6.54019 1.7454 6.57777 1.56051 6.62114C1.30062 6.68964 1.11475 6.70986 0.976612 6.71338L0.985837 6.92968C0.999015 7.23872 0.730903 7.60129 0.546387 7.81482Z" fill="#BF0000"/>
<path d="M30.7406 16.8833C30.6508 16.236 30.3168 14.891 29.1169 13.1892C28.2635 11.9889 27.2351 11.2262 26.4692 10.7817C27.2604 11.0091 28.3987 11.591 29.2504 12.5902C29.3014 12.6508 29.3597 12.7189 29.411 12.7872L29.4334 13.3126C29.4344 13.3358 29.4492 13.3586 29.464 13.3814C29.4712 13.389 30.4039 14.3397 30.6152 14.9143C30.8271 15.5045 30.9571 16.6071 30.9574 16.6148C30.9581 16.6303 30.9657 16.6455 30.9732 16.6608L31.5641 17.7053C31.5789 17.7282 31.6075 17.7506 31.6421 17.7498C31.6421 17.7498 31.6421 17.7498 31.649 17.7496C31.6763 17.7411 31.7098 17.7171 31.7154 17.686C31.7276 17.647 31.8706 17.1097 31.916 16.5518C31.9634 16.8522 32.0299 17.2759 32.019 17.5081C32.0138 17.5469 31.9974 17.6479 31.8743 17.8444C31.7957 17.9469 31.7105 18.0574 31.6247 18.1524C31.5386 18.2634 31.4603 18.3593 31.408 18.4423C31.2337 18.1575 31.0214 17.8737 30.7804 17.5906C30.7964 17.4107 30.7837 17.1912 30.7406 16.8833Z" fill="#BF0000"/>
<path d="M1.31592 7.85703L1.9035 8.66187C2.28147 8.60583 2.67888 8.68077 3.03747 8.81858C4.28925 9.30485 5.21078 10.6426 6.01912 11.7589C6.78698 12.4122 7.60711 12.9945 8.44671 13.5454C8.45259 13.3597 8.49437 13.2039 8.54965 13.0401C7.74067 12.558 6.36118 10.6983 5.68444 9.74881C5.62487 9.64978 5.57651 9.48863 5.63964 9.34782C5.71628 9.19892 5.86895 9.21046 5.97979 9.21538C6.86968 9.32421 7.86779 9.53854 8.46327 10.3663C8.58729 10.5179 8.93737 10.9421 9.33083 11.4115L9.37031 11.3641C9.47654 11.2609 9.61833 11.1799 9.78149 11.1139C8.73496 9.92632 8.11185 8.77435 8.10428 8.75911C8.08913 8.72853 8.08748 8.68991 8.10724 8.66618C8.11971 8.63495 8.14638 8.61109 8.18124 8.6179C8.18815 8.61772 9.29611 8.65137 10.5998 8.89657C12.0782 9.18376 13.4093 9.90777 13.9982 10.7435C14.6171 11.6326 16.124 15.67 16.1934 15.8384L16.1938 15.8462C16.1938 15.8462 16.1938 15.8462 16.1941 15.8539C16.2016 15.8691 16.3125 16.3613 16.126 16.8533C16.0333 17.1109 15.9313 17.3145 15.8481 17.4714C15.7971 17.5732 15.7659 17.6514 15.7346 17.7295C15.7629 17.7442 15.7912 17.759 15.8195 17.7737C15.9189 17.8331 16.0294 17.8303 16.1304 17.7658C16.6152 17.4595 17.5656 17.3658 18.6345 18.1042C20.1952 19.1858 20.7003 20.975 20.7684 21.2749C20.8823 21.3493 21.2879 21.6174 21.9593 21.956C22.468 22.2061 22.996 22.4246 23.2983 22.5406C23.5759 22.4021 23.8901 22.309 24.1941 22.3013C24.2424 22.3001 24.2908 22.2988 24.3326 22.3055C24.7418 22.3337 25.0688 22.3796 25.2428 22.406C25.3122 22.412 25.3741 22.4027 25.4218 22.386C25.4352 22.378 26.5406 21.8625 26.7889 21.8485C26.837 21.8395 26.9061 21.8378 26.9962 21.8432C27.2728 21.8439 27.7295 21.8477 28.1686 21.6045C28.7696 21.2644 30.9045 19.5935 31.0891 19.38C31.1483 19.3089 31.1828 19.1456 31.2173 18.9823C31.2581 18.8034 31.2983 18.6091 31.3956 18.4596C31.3988 18.4543 31.4045 18.4475 31.4079 18.442C31.2336 18.1573 31.0213 17.8734 30.7803 17.5904C30.7481 17.9508 30.5915 18.1396 30.2689 18.4729C29.7919 18.9645 27.5442 20.5841 26.6148 20.8475C26.3138 20.9247 26.0115 20.9711 25.7144 20.9787C25.1342 20.9935 24.5753 20.8608 24.1212 20.5939C23.816 20.4083 22.9622 19.85 22.0588 19.2621C21.0489 18.6072 19.9103 17.8551 19.4066 17.5586C18.4838 17.0021 17.4409 16.3867 17.384 16.3495C17.1544 16.3166 16.9941 16.2898 16.9448 16.2679C16.6698 16.1434 16.5523 15.8215 16.4506 15.5457C16.4342 15.4843 16.4112 15.4307 16.3954 15.3847C16.2792 15.0938 14.6546 11.214 14.6322 11.1759C14.6164 11.1299 14.6279 11.0755 14.6683 11.0513C15.0789 10.7856 15.4891 10.5121 15.8996 10.2465C17.0092 9.50666 18.199 8.70294 19.3645 7.81479L19.5787 7.64694C19.7665 7.51065 19.9471 7.36684 20.1349 7.23059C20.2622 7.13454 20.3899 7.04622 20.5172 6.95013C19.1937 6.07898 16.5227 4.74719 16.4944 4.73242C16.4661 4.71771 16.4447 4.70277 16.423 4.68015C16.4157 4.67259 16.2641 4.52176 16.0401 4.29546C15.4186 3.99417 13.9796 3.33481 12.4502 2.98707C10.453 2.53523 7.2561 2.33053 7.15213 2.32544C6.92287 2.46275 6.70048 2.59992 6.47843 2.74479C7.68447 2.80686 11.8308 3.057 13.1372 3.36401C14.6534 3.72752 15.115 4.17208 15.1367 4.19471C15.1584 4.21738 15.1666 4.24809 15.168 4.27902C15.1624 4.31008 15.1495 4.33359 15.1226 4.34976C15.1094 4.36557 13.5047 5.33455 12.3771 6.13669C11.2902 6.9223 10.2392 7.73796 10.0185 7.91371C9.97179 7.95356 9.89708 7.98643 9.73129 7.99065C9.53788 7.99558 9.21118 7.9575 8.6605 7.85551C8.32561 7.78672 7.46927 7.65385 7.46235 7.65402C7.44165 7.65455 7.42749 7.64717 7.41304 7.63205C7.39855 7.61699 5.95824 6.27701 5.19005 5.61599C5.13246 5.56331 5.08245 5.52592 5.03215 5.4808C5.0259 5.49645 5.01964 5.51204 4.99922 5.5203C4.99235 5.52048 4.22192 5.94229 3.74031 6.1634C3.42811 6.30282 2.86529 6.40222 2.357 6.4848C2.37577 6.6003 2.40673 6.83927 2.37088 6.97169C2.31594 7.14322 1.31592 7.85703 1.31592 7.85703ZM19.9159 18.9609C19.9281 18.9219 19.9613 18.8902 20.0031 18.8969L20.7324 18.9711C20.7462 18.9707 20.7604 18.9781 20.7745 18.9854C20.7887 18.9928 21.9464 19.8682 22.4264 20.2581C22.7415 20.5131 23.5469 20.7478 24.0722 20.9045C24.3522 20.9825 24.5483 21.0394 24.6263 21.0838C24.8529 21.2095 25.6188 21.8164 25.6547 21.8465C25.6833 21.8689 25.6987 21.9072 25.6866 21.9461C25.6813 21.985 25.6481 22.0168 25.6135 22.0176C25.5102 22.028 25.4066 22.0306 25.2892 22.0336C24.2874 22.0592 22.91 21.87 22.8472 21.8561C22.8334 21.8565 22.8192 21.8491 22.812 21.8415C22.7837 21.8268 22.184 21.3858 21.6484 20.6647C21.1348 19.974 19.9627 19.0835 19.9485 19.0761C19.9126 19.0461 19.9037 18.9999 19.9159 18.9609Z" fill="#FF0000"/>
<path d="M19.8481 16.4026C20.4307 16.4419 20.9433 16.4598 21.1568 16.4389C21.6943 16.3943 22.85 15.924 24.221 14.9919C25.5447 14.0842 25.9536 13.4551 26.1559 13.0091C26.1941 12.9308 26.1602 12.7847 26.1276 12.6695L26.1105 12.5927C26.042 12.285 25.9364 11.9165 25.7827 11.5569C25.8795 12.2041 25.7756 13.0111 24.9615 13.7047C23.4601 14.9881 22.2558 15.7767 21.3831 16.0696C20.8919 16.2291 20.3225 16.3364 19.8481 16.4026Z" fill="#1A1A1A"/>
<path d="M14.8257 11.1784C15.0646 11.7524 16.4494 15.035 16.5511 15.3109C16.5741 15.3644 16.5902 15.4181 16.6132 15.4717C16.7074 15.7322 16.8018 16.0005 16.9991 16.0883C17.1117 16.1318 17.8904 16.228 18.7585 16.3142C18.7927 16.3056 20.2425 16.2454 21.3337 15.885C22.1791 15.6006 23.3699 14.82 24.8512 13.5526C25.9124 12.6516 25.6784 11.5439 25.431 10.9314C25.3797 10.8631 25.3422 10.7945 25.2912 10.7339C25.1237 10.5371 24.9434 10.3638 24.7638 10.206C24.7569 10.2061 24.7569 10.2061 24.75 10.2063C24.7283 10.1836 22.0085 8.03328 20.8446 7.17355C20.7946 7.13612 20.7377 7.09891 20.6877 7.06152C20.5331 7.16601 20.3788 7.27823 20.2314 7.39022C20.0505 7.52634 19.863 7.67033 19.682 7.8064L19.461 7.97447C18.2955 8.86263 17.0991 9.67426 15.9892 10.4063C15.599 10.6637 15.2158 10.921 14.8257 11.1784Z" fill="#333333"/>
<path d="M17.8501 16.4069C18.2478 16.652 18.8933 17.03 19.4825 17.3862C19.9934 17.6903 21.0889 18.4049 22.142 19.0973C23.0454 19.6853 23.8922 20.2438 24.1972 20.4216C24.8499 20.8071 25.718 20.8933 26.5723 20.655C27.4609 20.408 29.6951 18.7966 30.1455 18.3288C30.6159 17.845 30.6876 17.7427 30.5691 16.9104C30.4799 16.2785 30.1545 14.972 28.977 13.3082C27.7034 11.5 26.024 10.7153 25.4894 10.5046C25.391 10.4684 25.2999 10.4398 25.2153 10.4033C25.2805 10.4712 25.3522 10.5313 25.4173 10.5992C25.4539 10.6447 25.4838 10.6981 25.5207 10.7513C25.5348 10.7587 25.5562 10.7736 25.5641 10.7966C25.5717 10.8119 25.5723 10.8273 25.5795 10.8348C25.9556 11.3821 26.1708 12.0495 26.282 12.5494L26.2988 12.6186C26.3327 12.7646 26.3751 12.9492 26.3123 13.0977C26.0972 13.5673 25.6758 14.2276 24.3113 15.1518C23.1087 15.979 21.8477 16.5758 21.1793 16.6315C21.1451 16.6401 21.1105 16.641 21.0691 16.642C20.6615 16.6524 19.6766 16.5847 18.7673 16.5073L18.7604 16.5075L18.76 16.4998C18.434 16.4771 18.1212 16.4387 17.8501 16.4069Z" fill="#FF0000"/>
<path d="M19.9158 18.9609C19.9036 18.9999 19.9125 19.0461 19.9484 19.0761C19.9625 19.0835 21.1347 19.974 21.6482 20.6647C22.1838 21.3858 22.7836 21.8268 22.8119 21.8416C22.8191 21.8491 22.8333 21.8565 22.8471 21.8561C22.9099 21.87 24.2873 22.0592 25.289 22.0337C25.4065 22.0307 25.5101 22.028 25.6134 22.0177C25.6479 22.0168 25.6812 21.985 25.6864 21.9462C25.6986 21.9072 25.6831 21.8689 25.6545 21.8465C25.6186 21.8164 24.8528 21.2095 24.6261 21.0838C24.5481 21.0394 24.3521 20.9825 24.0721 20.9046C23.5467 20.7478 22.7414 20.5131 22.4262 20.2582C21.9462 19.8682 20.7885 18.9929 20.7744 18.9855C20.7602 18.9781 20.7461 18.9708 20.7323 18.9711L20.0029 18.8969C19.9612 18.8902 19.9279 18.922 19.9158 18.9609ZM20.303 19.1213L20.6988 19.1576C20.8557 19.2696 21.8847 20.0477 22.3292 20.4153C22.673 20.6927 23.4573 20.9202 24.0316 21.0912C24.2767 21.1623 24.4935 21.2187 24.5573 21.2557C24.6991 21.3372 25.1064 21.6439 25.3499 21.8388L25.2877 21.8404C24.362 21.8639 23.0615 21.696 22.8875 21.6695C22.7875 21.5947 22.251 21.1752 21.7815 20.5453C21.3998 20.0291 20.6895 19.4285 20.303 19.1213Z" fill="black"/>
<path d="M7.96875 10.2939C7.99114 10.332 8.06449 10.4307 8.16188 10.6061C8.27508 10.8275 8.54024 11.2075 8.59157 11.2757C8.58367 11.2528 8.56066 11.1992 8.49253 11.0617C8.37181 10.8251 8.04939 10.4002 7.96875 10.2939Z" fill="black"/>
<path d="M20.672 23.242C21.708 23.6951 22.8199 24.1463 23.0005 24.1649C23.0351 24.164 23.0976 24.1702 23.1943 24.1677C23.1377 24.1382 23.0811 24.1087 23.0243 24.0715C22.6209 23.8575 22.2373 23.6198 21.8593 23.351C21.4313 23.0448 21.0414 22.6603 20.645 22.2837C20.646 22.3069 20.6536 22.3221 20.6546 22.3453C20.6964 22.6768 20.7023 22.9783 20.672 23.242Z" fill="#FF0000"/>
<path d="M10.7881 16.7341C11.5721 17.2787 13.3374 18.4557 15.1804 19.6694C15.206 19.2975 15.2655 18.9093 15.328 18.5906C14.4227 18.1187 13.4992 17.7091 12.5577 17.3618C11.9744 17.1447 11.3845 16.9354 10.795 16.7339C10.795 16.7339 10.795 16.7339 10.7881 16.7341Z" fill="#FF0000"/>
<path d="M15.3511 19.781C15.4439 19.8482 15.5432 19.9075 15.636 19.9748C15.6247 19.5497 15.6774 19.1616 15.8092 18.8489C15.7099 18.7896 15.6037 18.7304 15.4977 18.679C15.429 19.0133 15.3698 19.4092 15.3511 19.781Z" fill="#FF0000"/>
<path d="M16.2499 17.1077L16.3052 17.1386C16.395 17.1386 16.5815 17.038 16.7473 16.5585L16.5677 16.3187L16.3224 16.2244C16.2741 16.263 16.1049 16.7983 16.2499 17.1077Z" fill="black"/>
<path d="M16.5348 16.51L16.5531 16.522L16.5579 16.5436L16.5406 16.5733L16.5032 16.5401L16.5045 16.6472L16.5164 16.6522L16.5299 16.6427L16.5488 16.6311L16.5421 16.7131L16.5258 16.7845L16.4887 16.8167L16.5185 16.7357L16.4859 16.7241L16.4646 16.7413L16.4053 16.7815L16.385 16.8403L16.3614 16.8629L16.3409 16.8891L16.3352 17.0128L16.3182 16.9534L16.3046 16.9303L16.3092 16.8865L16.3167 16.8136L16.3085 16.7558L16.2991 16.6236L16.3384 16.5532L16.323 16.6336L16.3273 16.7116L16.3872 16.6477L16.4331 16.6171L16.4455 16.5657L16.442 16.4969L16.4418 16.4642L16.5004 16.4476L16.5348 16.51ZM16.5395 16.3445L16.3378 16.2681C16.2987 16.3712 16.1543 16.8212 16.2769 17.0947C16.315 17.1043 16.5061 17.1284 16.7007 16.5713L16.5395 16.3445Z" fill="#FFFF00"/>
</svg>
