<svg width="76" height="55" viewBox="0 0 76 55" fill="none" xmlns="http://www.w3.org/2000/svg">
<path d="M74.4573 47.9605C74.3559 47.7675 74.1207 47.6523 73.8564 47.5201C73.4378 47.3107 73.0191 47.1013 72.6004 46.8919C71.1894 46.1862 69.7784 45.4805 68.3674 44.7748C66.3488 43.7653 64.3303 42.7558 62.3118 41.7462C59.8746 40.5273 57.4375 39.3084 55.0003 38.0895C52.3335 36.7558 49.6666 35.422 46.9998 34.0882C44.2921 32.734 41.5844 31.3798 38.8767 30.0256C36.3172 28.7455 33.7576 27.4653 31.198 26.1852C28.9754 25.0736 26.7528 23.962 24.5301 22.8504C22.8334 22.0018 21.1367 21.1532 19.44 20.3046C18.458 19.8135 17.4761 19.3224 16.4941 18.8313C16.3265 18.7475 16.1589 18.6637 15.9913 18.5798L0.0461426 25.2435L58.4419 54.4536C59.8987 55.1823 61.6936 55.1825 63.1507 54.4541C63.1507 54.4541 73.8156 49.1225 73.865 49.0978C74.1576 48.9515 74.4248 48.6391 74.4917 48.3403C74.5267 48.1835 74.5103 48.0614 74.4573 47.9605Z" fill="#888888"/>
<path d="M76 40.3562C76 39.7515 75.6417 39.2183 75.0446 38.9081L74.1811 38.4704C73.9698 37.3723 73.3543 36.3539 72.4081 35.582L64.618 29.2801L62.0458 23.3172C61.9723 23.1342 61.8253 22.983 61.6324 22.8795L52.1795 18.1531C51.904 18.0179 51.5457 18.0179 51.2609 18.1531L47.5742 19.9954L46.9307 19.6737L47.026 19.482L49.6716 18.1531C49.69 18.1452 49.6992 18.1372 49.7084 18.1213C49.736 18.1054 49.7635 18.0895 49.7819 18.0656C49.8003 18.0497 49.8186 18.0258 49.837 18.0099C49.8462 17.9861 49.8646 17.9622 49.8737 17.9383C49.8829 17.9144 49.8829 17.8906 49.8921 17.8587C49.8921 17.8429 49.9013 17.8269 49.9013 17.811V15.6945C49.9013 15.6228 49.8737 15.5671 49.8462 15.5114C49.837 15.4956 49.8278 15.4796 49.8095 15.4717C49.7819 15.4319 49.7452 15.4001 49.6992 15.3682C49.69 15.3602 49.6808 15.3523 49.6716 15.3443L46.6585 13.8325C46.5207 13.7609 46.3462 13.7609 46.1991 13.8325L40.7258 16.5712L37.3778 14.8983C37.3778 14.8982 37.3778 14.8983 37.3778 14.8983L37.1629 14.7908C36.9528 14.7425 36.7184 14.7869 36.5233 14.8743L33.8041 16.0121L33.2438 15.7257C33.1059 15.6222 32.9682 15.5348 32.8211 15.4631C32.665 15.3836 32.518 15.3279 32.371 15.2881L19.8616 9.02171L12.5309 4.53404C12.5401 4.51811 12.5584 4.49425 12.5676 4.47036C12.5768 4.44646 12.5768 4.41464 12.586 4.39083C12.586 4.3749 12.5952 4.35897 12.5952 4.34308V2.79944C12.5952 2.73576 12.5768 2.68004 12.5493 2.63229C12.5493 2.61637 12.5309 2.6084 12.5309 2.60051C12.4941 2.56069 12.4665 2.52091 12.4023 2.47316L8.47963 0.0781061C8.33264 -0.017354 8.14891 -0.0253187 7.99277 0.0542508C7.99277 0.0542508 5.02557 1.53425 5.01637 1.54222C4.96124 1.57404 4.90612 1.61378 4.86933 1.6695L4.02421 2.83918C4.01501 2.85507 4.01501 2.87897 3.99662 2.90286C3.98747 2.92672 3.96908 2.95061 3.96908 2.98243C3.95989 2.99836 3.96908 3.02218 3.96908 3.04607C3.96908 3.04607 3.96908 3.13361 3.97828 3.14954L4.98878 6.57899C5.02557 6.6983 5.11739 6.79376 5.23684 6.84151C5.30116 6.86541 5.36544 6.88134 5.43891 6.88134C5.50323 6.88134 5.56751 6.86541 5.63184 6.84151L7.2762 6.18114C7.44154 6.1095 7.55184 5.95832 7.53345 5.79118L7.49671 5.32177L8.09379 5.6639C8.09379 5.67983 8.08459 5.68779 8.08459 5.69572L8.07539 7.24733C8.07539 7.28711 8.09379 7.33486 8.11218 7.37468L2.80238 10.0243C2.79319 10.0323 2.79319 10.0402 2.77489 10.0482C2.72896 10.072 2.69217 10.1119 2.66463 10.1517C2.65544 10.1596 2.63705 10.1755 2.62785 10.1914C2.60031 10.2471 2.57272 10.3028 2.57272 10.3664V11.743C2.57272 11.7589 2.58192 11.7748 2.58192 11.7908C2.59111 11.8226 2.59111 11.8465 2.6095 11.8703C2.61866 11.8942 2.62785 11.9181 2.64624 11.942C2.65544 11.9578 2.67383 11.9817 2.69217 11.9976C2.71056 12.0215 2.73811 12.0374 2.76569 12.0534C2.77489 12.0692 2.78408 12.0772 2.80238 12.0852C2.80238 12.0852 4.50192 12.9366 4.52027 12.9445C4.58459 12.9684 4.65806 12.9923 4.73158 12.9923C4.80506 12.9923 4.87853 12.9684 4.96124 12.9366L5.76048 12.5387L5.68696 13.0957L2.8759 14.5041C2.82078 14.5359 2.78408 14.5757 2.73811 14.6075C2.70137 14.6314 2.67383 14.6553 2.64624 14.6791C2.58192 14.7507 2.52684 14.8224 2.4901 14.9099C2.4809 14.9258 2.46251 14.9417 2.45332 14.9576L0.0372554 21.713C-0.0821056 22.0711 0.092383 22.4531 0.459886 22.6441L2.93103 23.8774C3.20662 24.0126 3.5373 24.0206 3.82213 23.8932L4.40082 23.6068C4.40082 23.6705 4.41001 23.7341 4.41921 23.7899C4.44679 23.941 4.48353 24.0843 4.52027 24.2355C4.59379 24.5219 4.68561 24.7924 4.78671 25.0709C4.79591 25.0868 4.79591 25.1107 4.80506 25.1266C4.92446 25.429 5.0623 25.7154 5.21845 26.0098C5.37459 26.2963 5.54912 26.5827 5.74209 26.8533C5.92582 27.1317 6.13709 27.4023 6.35756 27.6569C6.56887 27.9115 6.80773 28.1502 7.05574 28.381C7.29459 28.6118 7.55184 28.8186 7.81824 29.0175C8.07539 29.2085 8.35103 29.3836 8.63582 29.5427C8.7093 29.5825 8.77357 29.6223 8.84709 29.6541C10.1332 30.2986 11.2906 30.3464 12.1175 29.9087L13.569 29.1847C13.5965 29.2085 13.624 29.2324 13.6608 29.2483L37.7201 41.2951C37.7293 41.2951 37.7385 41.2951 37.7477 41.3031L43.1677 44.0164C43.3146 44.088 43.4708 44.1278 43.627 44.1278L44.0128 43.8732C44.5181 46.0534 46.2635 48.345 48.358 49.4032C49.6441 50.0478 50.8016 50.0955 51.6284 49.6579L53.4381 48.7587V48.8542C53.4381 49.1407 53.6126 50.549 53.8974 50.6843L57.9027 52.6895C58.5182 52.9998 59.2072 53.1589 59.8962 53.1589C60.5944 53.1589 61.2833 52.9998 61.8988 52.6895L74.5578 46.3558C75.4396 45.9102 76 45.0826 76 44.1914V40.7302C76 40.6745 75.9725 40.6347 75.9633 40.579C75.9725 40.5074 76 40.4358 76 40.3562Z" fill="black"/>
<path d="M58.2446 42.9307L50.2892 36.4935L47.6343 30.3396L39.1001 26.0747V36.6765L43.0318 38.6418C43.0317 38.642 43.0319 38.6417 43.0318 38.6418L43.9036 39.0791C44.5504 37.1885 46.5861 36.6156 49.004 37.8187C51.4218 39.0218 53.4502 41.6508 54.0675 44.1652L55.1478 44.7062L55.1484 44.7033C55.1485 44.7039 55.1487 44.7045 55.1488 44.7051L59.8155 47.0365V46.0657C59.8155 44.8801 59.246 43.7423 58.2446 42.9307Z" fill="#CCCCCC"/>
<path d="M72.1529 38.029L59.4205 44.3946C59.1541 43.8456 58.7591 43.3443 58.2446 42.9305L50.2892 36.4934L47.6343 30.3395L39.1001 26.0746L51.7223 19.7646L60.4218 24.1092L62.9573 29.9766C63.0032 30.1039 63.0859 30.2153 63.1961 30.3028L71.1516 36.74C71.6017 37.0981 71.9416 37.5437 72.1529 38.029Z" fill="white"/>
<path d="M72.4281 39.2942V40.7265L59.8152 47.0363V46.0655C59.8152 45.4847 59.6774 44.9197 59.4202 44.3946L72.1526 38.0291C72.3363 38.4269 72.4281 38.8566 72.4281 39.2942Z" fill="#CCCCCC"/>
<path d="M47.6099 44.2018C47.2697 44.0317 46.995 43.6195 46.9961 43.2868C46.9972 42.9482 47.2737 42.8117 47.6139 42.9818C47.9482 43.149 48.223 43.5612 48.2219 43.8998C48.2208 44.2325 47.9442 44.369 47.6099 44.2018ZM48.3838 42.899C47.2752 42.3446 46.375 42.7891 46.3713 43.8924C46.3677 44.9957 47.2622 46.3376 48.3707 46.8919C49.4792 47.4463 50.3795 47.0019 50.3831 45.8986C50.3867 44.7953 49.4923 43.4534 48.3838 42.899Z" fill="#888888"/>
<path d="M47.6137 42.9819C47.2735 42.8118 46.997 42.9483 46.9959 43.2869C46.9948 43.6196 47.2695 44.0318 47.6097 44.202C47.944 44.3691 48.2206 44.2326 48.2217 43.8999C48.2228 43.5613 47.948 43.1491 47.6137 42.9819Z" fill="#BABABA"/>
<path d="M7.10326 12.3121C7.09407 12.336 7.10326 12.3599 7.11246 12.3837L6.68066 12.5986L6.75417 12.0416L7.16757 11.8347L7.10326 12.3121Z" fill="#3751A0"/>
<path d="M43.9316 21.0298L43.6559 21.5709L43.2517 21.364L43.9316 21.0298Z" fill="#808080"/>
<path d="M45.6955 20.1387L45.3188 20.9184L44.8687 21.1571L45.2545 20.3614L45.6955 20.1387Z" fill="#808080"/>
<path d="M48.5251 15.6908L45.6589 17.1231L43.5552 16.0728L46.4305 14.6326L48.5251 15.6908Z" fill="#F79420"/>
<path d="M48.984 16.375V17.5765L45.9617 19.0963V17.8868L48.984 16.375Z" fill="#F79420"/>
<path d="M45.0432 18.3484V19.5499L40.6704 21.7381V20.5365L45.0432 18.3484Z" fill="#F79420"/>
<path d="M44.7402 17.5766L40.3766 19.7648L38.2729 18.7145L42.6457 16.5264L44.7402 17.5766Z" fill="#F79420"/>
<path d="M39.4577 20.2263L36.0588 21.9291L33.9551 20.8788L37.3541 19.176L39.4577 20.2263Z" fill="#F79420"/>
<path d="M39.7519 20.998V22.1996L36.5183 23.8148V22.6133L39.7519 20.998Z" fill="#F79420"/>
<path d="M35.5996 22.6133V23.8148L33.4958 22.7645V21.563L35.5996 22.6133Z" fill="#F79420"/>
<path d="M43.1236 22.2233L37.7771 24.8968L38.2915 23.8465L42.3335 21.8254C42.3427 21.8254 42.3427 21.8334 42.3427 21.8334L43.1236 22.2233Z" fill="#808080"/>
<path d="M35.5351 24.7061L34.8736 25.4254L32.5127 24.2478L33.5232 23.6956L35.5351 24.7061Z" fill="#CCCCCC"/>
<path d="M37.2626 25.8754V28.3531L25.2441 22.3419L27.0171 21.4507L29.9777 22.9265C30.1155 22.9981 30.2716 23.0299 30.4371 23.0299C30.5932 23.0299 30.7494 22.9981 30.8964 22.9265L32.5775 22.1069V22.995C32.5775 23.0108 32.5866 23.0268 32.5866 23.0427C32.5958 23.0665 32.5958 23.0983 32.605 23.1222C32.6142 23.1461 32.6326 23.17 32.6418 23.1939C32.6602 23.2098 32.6694 23.2337 32.6969 23.2495C32.7061 23.2655 32.7153 23.2734 32.7337 23.2894L31.4659 24.128C31.3924 24.2234 31.3648 24.3349 31.3832 24.4463C31.4108 24.5577 31.4935 24.6531 31.6037 24.7089L34.9075 26.3459C34.9075 26.3459 34.9075 26.3459 34.9167 26.3459C34.981 26.3857 35.0637 26.4016 35.1372 26.4016C35.1832 26.4016 35.2383 26.3937 35.2842 26.3777C35.3026 26.3777 35.3209 26.3619 35.3393 26.3539C35.3485 26.3459 35.3668 26.3459 35.376 26.3459L37.2626 25.425C37.3177 25.3931 37.2258 25.9231 37.2626 25.8754Z" fill="#CCCCCC"/>
<path d="M35.5475 19.1632L35.0567 19.4072L34.55 18.7059C34.5408 18.698 34.5224 18.69 34.5132 18.6741C34.5316 18.6263 34.55 18.5866 34.5592 18.5388L35.5475 19.1632Z" fill="#808080"/>
<path d="M38.9046 17.4857L37.4787 18.1938L35.386 17.1145L36.8834 16.4858L38.9046 17.4857Z" fill="#CCCCCC"/>
<path d="M33.4932 18.6423V18.6104C33.4932 17.7034 32.7859 16.6292 31.8672 16.1756C31.7846 16.1358 31.7111 16.112 31.6284 16.0801L31.6468 16.0722L31.6559 16.0642C31.6743 16.0563 31.6927 16.0563 31.7111 16.0483C31.8581 15.9767 32.0969 16.0165 32.3633 16.1438C33.0798 16.5098 33.6954 17.4248 33.6954 18.141C33.6862 18.3797 33.6127 18.5627 33.4932 18.6423Z" fill="#0099FF"/>
<path d="M32.8046 18.6105C32.8046 18.8015 32.7587 18.9527 32.676 19.0561L32.4188 19.1834C32.428 19.1516 32.4372 19.1197 32.4372 19.0879C32.4372 18.1808 31.7206 17.1067 30.8111 16.6531C30.7744 16.6372 30.7468 16.6292 30.7192 16.6133C30.7652 16.6133 30.8203 16.6054 30.8663 16.5894C31.0316 16.5258 31.2705 16.5656 31.5276 16.6929C32.2166 17.043 32.8046 17.9182 32.8046 18.6105Z" fill="#0099FF"/>
<path d="M31.7481 19.0878C31.7389 19.3583 31.647 19.5652 31.4816 19.6448C31.4633 19.6527 31.4541 19.6607 31.4449 19.6686C31.4173 18.7059 30.6824 17.5919 29.7271 17.0826C29.7546 17.0747 29.7822 17.0747 29.8097 17.0667C29.975 17.0031 30.2047 17.0428 30.462 17.1701C31.1601 17.5123 31.7481 18.3955 31.7481 19.0878Z" fill="#0099FF"/>
<path d="M30.526 19.7243C30.526 19.979 30.4433 20.162 30.3055 20.2416L30.2779 20.2495C30.131 20.3132 29.9013 20.2813 29.6441 20.154C28.9183 19.796 28.312 18.8809 28.312 18.1569C28.312 17.8943 28.4039 17.7033 28.5417 17.6317C28.5968 17.6078 28.6519 17.5999 28.7254 17.5999C28.854 17.5999 29.0194 17.6396 29.1939 17.7271C29.9196 18.0932 30.526 19.0003 30.526 19.7243Z" fill="#0099FF"/>
<path d="M34.2503 19.8177L31.803 21.0399L31.4944 20.5689L33.9196 19.353L34.2503 19.8177Z" fill="#0099FF"/>
<path d="M31.1782 21.6897L29.9014 21.0531C29.9748 21.0611 30.0483 21.0849 30.1218 21.0849C30.3148 21.0849 30.4893 21.0452 30.6547 20.9735C30.6638 20.9735 30.673 20.9735 30.6822 20.9656H30.6914L31.1782 21.6897Z" fill="#0099FF"/>
<path d="M24.4631 17.9895L14.1125 12.8133C13.9655 12.7417 13.791 12.7417 13.6532 12.8133L13.2949 12.9883L13.8553 12.1926L18.8435 14.6911L24.4631 17.9895Z" fill="#808080"/>
<path d="M13.3868 11.3413C13.3776 11.3572 13.3592 11.3652 13.3408 11.3811L11.6873 13.7443C11.6689 13.7682 11.6689 13.7841 11.6597 13.808L11.2647 13.999L10.3828 13.5613L12.3763 10.7207L13.3868 11.3413Z" fill="#3751A0"/>
<path d="M27.3935 18.1566C27.3935 18.3953 27.4395 18.642 27.5222 18.8966L12.5049 9.82145C12.4039 9.75778 12.2752 9.73394 12.1466 9.75778C12.0272 9.78168 11.917 9.84534 11.8526 9.94082L9.59281 13.1634L9.41827 13.0759L8.21484 12.4711L10.8238 8.53243C10.833 8.5165 10.833 8.50062 10.8422 8.48469C10.8513 8.46079 10.8697 8.43695 10.8697 8.41306C10.8789 8.38921 10.8789 8.36532 10.8789 8.3335V8.26984C10.8697 8.23803 10.8513 8.20617 10.8422 8.18232C10.833 8.16639 10.833 8.15051 10.8238 8.13458L10.8146 8.12662C10.7962 8.10277 10.7686 8.07888 10.7411 8.05503C10.7227 8.0391 10.7135 8.02317 10.686 8.01521C10.686 8.00724 10.686 8.00724 10.6768 8.00724L8.99567 7.02855L9.00486 6.16919C9.05998 6.19308 9.1151 6.20901 9.17941 6.20901C9.21613 6.20901 9.24372 6.20105 9.27125 6.19308L27.6508 17.3291C27.4946 17.5519 27.3935 17.8303 27.3935 18.1566Z" fill="#0099FF"/>
<path d="M28.9736 16.4937L28.3765 16.7881L10.1807 5.77145L10.7778 5.47705L28.9736 16.4937Z" fill="#0099FF"/>
<path d="M29.929 16.0163L29.6259 16.1595L11.4392 5.14282L11.7148 5.00757L29.929 16.0163Z" fill="#0099FF"/>
<path d="M11.678 3.47998V4.10856L9.63867 5.12703V4.50641L11.678 3.47998Z" fill="#0099FF"/>
<path d="M6.59788 5.57276L5.74355 5.91495L5.16479 3.95752L6.53357 4.75321L6.59788 5.57276Z" fill="#3751A0"/>
<path d="M8.71999 4.48253V5.07139L5.04541 2.93097L5.3945 2.44556L8.71999 4.48253Z" fill="#0099FF"/>
<path d="M4.27375 11.4446V11.8981L3.49292 11.5082V11.0547L4.27375 11.4446Z" fill="#666666"/>
<path d="M11.2923 2.75591L9.20691 3.80623L6.11108 1.90451L8.19642 0.870117L11.2923 2.75591Z" fill="#0099FF"/>
<path d="M9.17037 9.43164L8.68347 10.1637H8.65593L5.19263 11.8983V11.4447L9.17037 9.43164Z" fill="#666666"/>
<path d="M9.5561 8.31768L4.73322 10.7525L3.95239 10.3626L8.85792 7.91187L9.5561 8.31768Z" fill="#666666"/>
<path d="M26.4474 19.8992L24.7479 20.7505L12.1833 14.4604L13.8829 13.6169L26.4474 19.8992Z" fill="#808080"/>
<path d="M22.9107 21.6659L20.2926 22.764L5.17432 15.1927L7.58116 13.9912L22.9107 21.6659Z" fill="#CCCCCC"/>
<path d="M37.2625 30.1917V39.2228L14.9946 28.0672C14.572 25.0356 12.156 21.7414 9.2255 20.2694C7.54436 19.4339 5.90001 19.2986 4.60469 19.8875C3.71363 20.2932 3.07057 21.0014 2.73067 21.9324L2.01416 21.5743L3.86978 16.3784L19.7966 24.3555C20.0629 24.4828 20.3844 24.4908 20.6601 24.3794L23.37 23.2415L37.2625 30.1917Z" fill="#CCCCCC"/>
<path d="M42.7104 40.3206V41.9438L39.1001 40.1376V38.5144L42.7104 40.3206Z" fill="#666666"/>
<path d="M74.1642 42.2302V44.1877C74.1642 44.5139 73.962 44.8162 73.6405 44.9754L60.9725 51.3091C60.311 51.6433 59.4843 51.6433 58.8228 51.3091L55.2769 49.5347V47.0521L57.9042 48.3651C58.5196 48.6754 59.2086 48.8266 59.8976 48.8266C60.5866 48.8266 61.2848 48.6754 61.9003 48.3651L74.1642 42.2302Z" fill="#666666"/>
<path d="M8.87609 23.1494C7.76451 22.5924 6.86426 23.038 6.86426 24.136C6.86426 24.6214 7.02961 25.1545 7.32358 25.6479C7.40628 25.7831 7.48893 25.9184 7.58997 26.0537C7.63594 26.1173 7.69106 26.181 7.74618 26.2446C7.82882 26.3401 7.90233 26.4197 7.99417 26.5072C8.07688 26.5947 8.16872 26.6743 8.26062 26.7539C8.45349 26.905 8.64643 27.0324 8.8577 27.1358C9.96928 27.6928 10.8695 27.2472 10.8695 26.1492C10.8787 25.0431 9.97848 23.6984 8.87609 23.1494ZM8.09527 24.4464C7.75537 24.2792 7.47973 23.8655 7.48893 23.5313C7.48893 23.1971 7.76451 23.0619 8.10446 23.2289C8.43516 23.396 8.71074 23.8098 8.71074 24.144C8.71074 24.4782 8.43516 24.6135 8.09527 24.4464Z" fill="#888888"/>
<path d="M8.10273 23.2285C7.76252 23.0583 7.48597 23.1949 7.48487 23.5334C7.48378 23.8662 7.75853 24.2784 8.09873 24.4485C8.43305 24.6157 8.7096 24.4792 8.71069 24.1465C8.7118 23.8079 8.43704 23.3957 8.10273 23.2285Z" fill="#BABABA"/>
<path d="M48.3359 30.364L59.9698 24.6958L62.4938 30.275L50.7513 35.907L48.3359 30.364Z" fill="#797979"/>
<path d="M40.6704 28.3347V32.4467L46.16 35.1187L44.3361 30.1174L40.6704 28.3347Z" fill="#797979"/>
<path d="M27.5334 33.025C27.4545 33.025 27.3746 33.0071 27.3037 32.9713L22.9052 30.7707C22.7635 30.7 22.6755 30.5687 22.6755 30.4265V25.0936C22.6755 24.9514 22.7635 24.8201 22.9052 24.7494C23.0469 24.6779 23.2228 24.6779 23.3645 24.7494L27.7631 26.9477C27.9048 27.0184 27.9927 27.1497 27.9927 27.2919V32.6271C27.9927 32.7693 27.9048 32.9006 27.7631 32.9713C27.6922 33.0071 27.6124 33.025 27.5334 33.025ZM23.5942 30.1965L27.0741 31.9379V27.5219L23.5942 25.7829V30.1965Z" fill="black"/>
<path d="M31.9278 35.2224C31.8489 35.2224 31.7691 35.2045 31.6982 35.1688L27.3041 32.9713C27.1624 32.9006 27.0745 32.7693 27.0745 32.6271V27.2919C27.0745 27.1497 27.1624 27.0184 27.3041 26.9477C27.4459 26.8762 27.6217 26.8762 27.7634 26.9477L32.1575 29.1451C32.2993 29.2159 32.3872 29.3472 32.3872 29.4894V34.8246C32.3872 34.9668 32.2993 35.0981 32.1575 35.1688C32.0866 35.2045 32.0068 35.2224 31.9278 35.2224ZM27.9931 32.3971L31.4685 34.1353V29.7194L27.9931 27.9811V32.3971Z" fill="black"/>
<path d="M36.3228 37.4207C36.2438 37.4207 36.164 37.4028 36.0931 37.3671L31.6982 35.1688C31.5564 35.0981 31.4685 34.9668 31.4685 34.8246V29.4894C31.4685 29.3472 31.5564 29.2159 31.6982 29.1452C31.8399 29.0737 32.0157 29.0737 32.1575 29.1452L36.5525 31.3434C36.6942 31.4141 36.7821 31.5455 36.7821 31.6877V37.0229C36.7821 37.1651 36.6942 37.2964 36.5525 37.3671C36.4816 37.4028 36.4017 37.4207 36.3228 37.4207ZM32.3872 34.5946L35.8635 36.3336V31.9177L32.3872 30.1786V34.5946Z" fill="black"/>
<path d="M62.2066 43.2187C61.5548 43.5447 61.0267 44.337 61.0288 44.9857C61.0309 45.6345 61.5625 45.8969 62.2143 45.5709C62.8662 45.2449 63.3943 44.4526 63.3921 43.8039C63.39 43.1551 62.8585 42.8927 62.2066 43.2187Z" fill="white"/>
<path d="M70.6151 39.0681C69.9633 39.394 69.4351 40.1863 69.4373 40.8351C69.4394 41.4838 69.9709 41.7462 70.6228 41.4203C71.2746 41.0943 71.8027 40.302 71.8006 39.6532C71.7985 39.0045 71.2669 38.7421 70.6151 39.0681Z" fill="white"/>
<mask id="mask0_2152_2834" style="mask-type:luminance" maskUnits="userSpaceOnUse" x="39" y="32" width="6" height="5">
<path d="M40.0085 33.9385L39.9788 32.498L44.865 35.019L44.8947 36.4595L40.0085 33.9385Z" fill="white"/>
</mask>
<g mask="url(#mask0_2152_2834)">
<path d="M40.3801 32.7052C40.2852 32.6563 40.2026 32.6727 40.136 32.7648C40.0728 32.8502 40.0254 33.0029 40.001 33.218C39.9827 33.3772 39.9857 33.5221 40.0026 33.6404C40.0194 33.7587 40.0465 33.8486 40.0839 33.91C40.1176 33.9696 40.1692 34.0215 40.2348 34.0554C40.2895 34.0836 40.3329 34.0891 40.3721 34.0672C40.4115 34.0538 40.4433 34.0196 40.4747 33.9683C40.5059 33.9086 40.5333 33.8383 40.5567 33.7492L40.4048 33.5528C40.3885 33.6371 40.3679 33.6855 40.347 33.7254L40.2573 33.7465L40.1826 33.6236C40.1704 33.5583 40.1719 33.4579 40.187 33.3139C40.199 33.1936 40.2189 33.1111 40.2397 33.0713C40.2708 33.003 40.3065 32.9877 40.3503 33.0103L40.3982 33.0603L40.4253 33.1502L40.4346 33.2477L40.6042 33.2509C40.6012 33.106 40.5807 32.9858 40.5464 32.9006C40.5084 32.8051 40.453 32.7428 40.3801 32.7052Z" fill="black"/>
</g>
<mask id="mask1_2152_2834" style="mask-type:luminance" maskUnits="userSpaceOnUse" x="39" y="32" width="6" height="5">
<path d="M40.0085 33.9385L39.9788 32.498L44.865 35.019L44.8947 36.4595L40.0085 33.9385Z" fill="white"/>
</mask>
<g mask="url(#mask1_2152_2834)">
<path d="M41.2372 33.1729L40.7449 32.9189L40.595 34.2161L41.0982 34.4757L41.1318 34.181L40.8145 34.0174L40.8417 33.7616L41.1298 33.9102L41.1568 33.6458L40.8724 33.4991L40.897 33.2925L41.2033 33.4506L41.2372 33.1729Z" fill="black"/>
</g>
<mask id="mask2_2152_2834" style="mask-type:luminance" maskUnits="userSpaceOnUse" x="39" y="32" width="6" height="5">
<path d="M40.0085 33.9385L39.9788 32.498L44.865 35.019L44.8947 36.4595L40.0085 33.9385Z" fill="white"/>
</mask>
<g mask="url(#mask2_2152_2834)">
<path d="M41.4714 33.8501L41.5021 33.5876L41.5823 33.629L41.645 33.6951L41.6544 33.8012L41.6343 33.8751L41.5987 33.8989L41.548 33.8896L41.4714 33.8501ZM41.6531 33.3873L41.3468 33.2292L41.1968 34.5264L41.3827 34.6223L41.4441 34.0974L41.4586 34.1049L41.4994 34.1597L41.5234 34.2733L41.576 34.7221L41.7839 34.8293L41.7391 34.4099L41.7228 34.3171L41.6993 34.2291L41.6582 34.1573L41.7264 34.1419L41.8001 34.045L41.8433 33.8649C41.8525 33.7853 41.8509 33.7086 41.8387 33.6433L41.7814 33.4872C41.7517 33.4466 41.7114 33.4174 41.6531 33.3873Z" fill="black"/>
</g>
<mask id="mask3_2152_2834" style="mask-type:luminance" maskUnits="userSpaceOnUse" x="39" y="32" width="6" height="5">
<path d="M40.0085 33.9385L39.9788 32.498L44.865 35.019L44.8947 36.4595L40.0085 33.9385Z" fill="white"/>
</mask>
<g mask="url(#mask3_2152_2834)">
<path d="M42.4992 33.8235L41.9413 33.5356L41.9045 33.854L42.0942 33.9518L41.9809 34.9306L42.1632 35.0247L42.2765 34.0459L42.4625 34.1419L42.4992 33.8235Z" fill="black"/>
</g>
<mask id="mask4_2152_2834" style="mask-type:luminance" maskUnits="userSpaceOnUse" x="39" y="32" width="6" height="5">
<path d="M40.0085 33.9385L39.9788 32.498L44.865 35.019L44.8947 36.4595L40.0085 33.9385Z" fill="white"/>
</mask>
<g mask="url(#mask4_2152_2834)">
<path d="M42.7761 33.9663L42.5901 33.8704L42.4402 35.1675L42.6261 35.2635L42.7761 33.9663Z" fill="black"/>
</g>
<mask id="mask5_2152_2834" style="mask-type:luminance" maskUnits="userSpaceOnUse" x="39" y="32" width="6" height="5">
<path d="M40.0085 33.9385L39.9788 32.498L44.865 35.019L44.8947 36.4595L40.0085 33.9385Z" fill="white"/>
</mask>
<g mask="url(#mask5_2152_2834)">
<path d="M43.3631 34.2696L42.9073 34.0344L42.7573 35.3316L42.9433 35.4275L43.0044 34.8941L43.2342 35.0126L43.2648 34.7501L43.0351 34.6316L43.0593 34.408L43.3292 34.5472L43.3631 34.2696Z" fill="black"/>
</g>
<mask id="mask6_2152_2834" style="mask-type:luminance" maskUnits="userSpaceOnUse" x="39" y="32" width="6" height="5">
<path d="M40.0085 33.9385L39.9788 32.498L44.865 35.019L44.8947 36.4595L40.0085 33.9385Z" fill="white"/>
</mask>
<g mask="url(#mask6_2152_2834)">
<path d="M43.6511 34.418L43.4688 34.324L43.3188 35.6211L43.5048 35.7171L43.6511 34.418Z" fill="black"/>
</g>
<mask id="mask7_2152_2834" style="mask-type:luminance" maskUnits="userSpaceOnUse" x="39" y="32" width="6" height="5">
<path d="M40.0085 33.9385L39.9788 32.498L44.865 35.019L44.8947 36.4595L40.0085 33.9385Z" fill="white"/>
</mask>
<g mask="url(#mask7_2152_2834)">
<path d="M44.2751 34.7398L43.7828 34.4858L43.6365 35.7849L44.136 36.0426L44.1696 35.7479L43.8524 35.5843L43.8832 35.3303L44.1676 35.4771L44.1983 35.2146L43.9139 35.0679L43.9385 34.8613L44.2448 35.0193L44.2751 34.7398Z" fill="black"/>
</g>
<mask id="mask8_2152_2834" style="mask-type:luminance" maskUnits="userSpaceOnUse" x="39" y="32" width="6" height="5">
<path d="M40.0085 33.9385L39.9788 32.498L44.865 35.019L44.8947 36.4595L40.0085 33.9385Z" fill="white"/>
</mask>
<g mask="url(#mask8_2152_2834)">
<path d="M44.4574 35.8963L44.5365 35.1866L44.5839 35.2111C44.6313 35.2355 44.661 35.2761 44.6766 35.3348C44.6925 35.402 44.6909 35.5024 44.6757 35.6379C44.6634 35.7412 44.6504 35.8103 44.6369 35.854L44.5843 35.928C44.5666 35.9442 44.5376 35.9377 44.5011 35.9188L44.4574 35.8963ZM44.6612 34.9389L44.3878 34.7979L44.2378 36.095L44.5113 36.2361C44.5441 36.253 44.5804 36.2633 44.6236 36.2603L44.7198 36.2003L44.8029 36.0324C44.8268 35.9688 44.8426 35.8589 44.8615 35.7253C44.8705 35.6372 44.8758 35.5472 44.8741 35.462L44.8512 35.2309L44.7863 35.0541C44.7564 35.0049 44.7123 34.9653 44.6612 34.9389Z" fill="black"/>
</g>
</svg>
