<svg width="78" height="55" viewBox="0 0 78 55" fill="none" xmlns="http://www.w3.org/2000/svg">
<path d="M33.3946 29.9734L31.8819 29.0083L33.4762 27.9915L34.9893 28.9563L40.799 25.251L77.6173 48.7282C77.9417 48.9351 77.9418 49.4523 77.6174 49.6593L69.5989 54.776C69.1308 55.0747 68.554 55.0747 68.086 54.7761L31.3008 31.3088L33.3946 29.9734Z" fill="#888888"/>
<path d="M77.9999 41.8213C77.9999 40.4855 77.5358 39.2219 76.6991 38.2617L72.96 33.98L71.8552 27.7777C71.8225 27.5683 71.7048 27.395 71.5414 27.2867L62.7296 21.6693C62.527 21.5393 62.2786 21.5393 62.0759 21.6693L59.6507 23.2145L59.7096 23.0051L62.2851 21.366C62.3897 21.301 62.4486 21.1783 62.4486 21.0483V19.4238C62.4486 19.2721 62.3636 19.1422 62.2394 19.0916L60.2391 17.8136C60.1345 17.7486 60.0103 17.7486 59.9122 17.8136L56.6961 19.8642H56.6895L53.3753 21.987L52.8197 22.3335L50.4206 20.8101L41.6611 15.2215C41.4715 15.0988 41.2558 15.0988 41.0728 15.1854L38.7522 12.9182C38.7456 12.9182 38.7456 12.911 38.7391 12.911C38.7195 12.8966 38.6998 12.8821 38.6803 12.8749C38.6606 12.8605 38.6475 12.8533 38.6279 12.846C38.6083 12.8388 38.5887 12.8388 38.5691 12.8388C38.5495 12.8316 38.5233 12.8316 38.5037 12.8316C38.4972 12.8316 38.4841 12.8316 38.4776 12.8388L36.9937 11.864C36.9153 11.8135 36.8237 11.8135 36.7453 11.864L36.4054 12.0735L35.6406 12.2323C35.6144 12.2395 35.5883 12.254 35.5687 12.2684L34.8823 12.7016C34.8823 12.7016 34.8823 12.7089 34.8758 12.7089C34.8365 12.7377 34.7973 12.781 34.7777 12.8388C34.7777 12.8461 34.7777 12.8461 34.7711 12.8533C34.7646 12.8894 34.7581 12.9255 34.7581 12.9688L34.8234 13.662C34.8365 13.7991 34.9476 13.9002 35.0719 13.9002H35.098C35.2287 13.8858 35.3268 13.7558 35.3137 13.6042L35.2745 13.1565L35.4445 13.1204V13.7991C35.4445 13.893 35.4902 13.9796 35.5621 14.0302L36.6276 14.7233L36.4708 15.0771C36.4642 15.0843 36.4642 15.0916 36.4642 15.0988C36.4511 15.1277 36.4511 15.1493 36.4446 15.171L33.5814 16.9905C33.5749 16.9977 33.5684 17.005 33.5618 17.0122L33.5422 17.0338C33.5226 17.0627 33.503 17.0988 33.503 17.1422V18.023C33.503 18.088 33.5357 18.153 33.5814 18.1818L34.3985 18.7017C34.4247 18.7162 34.4508 18.7234 34.4835 18.7234C34.5097 18.7234 34.5358 18.7162 34.562 18.7017L34.6992 18.6151L34.4639 19.3877L32.8101 20.4418C32.7643 20.4707 32.7382 20.5141 32.7055 20.5501C32.6728 20.579 32.6401 20.6079 32.614 20.644C32.5617 20.7234 32.5224 20.8101 32.5028 20.8967C32.5028 20.9112 32.4963 20.9184 32.4898 20.9256L31.5223 26.2253C31.47 26.5286 31.5942 26.8391 31.8426 26.9979L32.4702 27.395L33.2023 27.8644C33.2807 27.9149 33.3723 27.9438 33.4638 27.951C33.3984 28.2181 33.3461 28.5142 33.3461 28.8608C33.3395 30.933 34.6535 33.4457 36.2746 34.4782C37.1114 35.0125 37.8696 35.0558 38.4057 34.6876L39.1051 34.2399C39.7392 33.8356 40.138 33.0991 40.1707 32.3049L52.9046 40.4278L53.8851 41.0559L59.5788 44.6878C59.6311 44.7166 59.6834 44.7383 59.7423 44.76C59.6834 45.0199 59.6377 45.3015 59.6311 45.6336C59.6246 47.7059 60.9385 50.2186 62.5597 51.2511C63.3964 51.7854 64.1547 51.8287 64.6907 51.4604L66.2531 50.464L67.8938 51.511C68.273 51.7493 68.6979 51.872 69.1227 51.872C69.5542 51.872 69.9791 51.7493 70.3582 51.511L77.2024 47.1499C77.6796 46.8466 77.9738 46.2835 77.9803 45.6769L77.9999 44.7455C77.9999 44.7455 77.9934 44.7455 77.9934 44.7383C77.9934 44.7383 77.9999 44.7383 77.9999 44.7311V41.8213ZM36.5165 17.9075L36.68 17.3515L37.1637 17.0483L36.5165 17.9075Z" fill="black"/>
<path d="M50.8745 24.8335V25.6205L52.2603 26.5014V25.7144L50.8745 24.8335Z" fill="#F79420"/>
<path d="M67.0471 48.3433V49.3036L68.5506 50.2567C68.9102 50.4878 69.3481 50.4878 69.7077 50.2567L76.5519 45.9028C76.6303 45.8523 76.6761 45.7656 76.6761 45.6573L76.6891 44.8848L69.6554 49.3686C69.5508 49.4336 69.4397 49.4624 69.3285 49.4624C69.2043 49.4624 69.0866 49.4263 68.9821 49.3542L67.0667 48.1339C67.0667 48.1339 67.0667 48.1411 67.0667 48.1483C67.0733 48.2133 67.0602 48.2783 67.0471 48.3433Z" fill="#666666"/>
<path d="M32.9053 26.0031L33.1275 26.1475C33.3694 25.541 33.7551 25.0789 34.2584 24.8045C35.069 24.3713 36.0757 24.4868 37.0955 25.1366C38.8147 26.2269 40.2462 28.6096 40.6058 30.9129L53.562 39.1802V33.6205L46.3518 29.0284L44.3057 28.9345C44.2011 28.9273 44.0965 28.8985 44.005 28.8335L33.5982 22.198L32.9053 26.0031ZM47.548 34.3137L47.5546 31.0501C47.5546 30.9924 47.5742 30.9491 47.6068 30.9346C47.6395 30.9129 47.6853 30.9201 47.731 30.9491L49.9274 32.3498L52.1304 33.7577C52.1762 33.7866 52.2219 33.8372 52.2546 33.8949C52.2873 33.9527 52.3069 34.0249 52.3069 34.0827L52.3004 37.3463C52.3004 37.404 52.2808 37.4474 52.2481 37.469C52.2154 37.4907 52.1697 37.4835 52.1239 37.4545L49.9209 36.0466L47.718 34.6459C47.6722 34.617 47.6265 34.5664 47.6003 34.5014C47.5676 34.4437 47.548 34.3715 47.548 34.3137Z" fill="#9A3F3F"/>
<path d="M34.8923 19.1149L35.0819 18.9994C35.1212 18.9705 35.1669 18.9705 35.2061 18.9633L35.4545 18.1401L35.1277 18.3496L34.8923 19.1149Z" fill="#0099FF"/>
<path d="M35.5461 18.9707C35.5789 18.9851 35.605 18.9779 35.6311 18.9995L35.6769 19.0212L35.9449 18.6674L36.2587 17.6277L35.8795 17.866V17.8732L35.5461 18.9707Z" fill="#3751A0"/>
<path d="M33.8335 17.4614V17.9235L34.3238 18.234V17.7719L33.8335 17.4614Z" fill="#666666"/>
<path d="M34.6506 17.7723V18.2344L34.9187 18.0611L37.4811 16.4293L37.1935 16.1477L34.6506 17.7723Z" fill="#666666"/>
<path d="M33.9973 17.151L34.4876 17.4615L36.9389 15.8947L36.5598 15.5193L33.9973 17.151Z" fill="#666666"/>
<path d="M36.7229 12.5089L37.8276 13.2237L37.9714 13.1371L36.8732 12.415L36.7229 12.5089Z" fill="#0099FF"/>
<path d="M36.1802 12.8552L37.2784 13.5772L37.5072 13.4328L36.4024 12.718L36.1802 12.8552Z" fill="#0099FF"/>
<path d="M35.9385 13.3242V13.6419L36.8536 14.2412L36.9648 13.9957L35.9385 13.3242Z" fill="#0099FF"/>
<path d="M50.2349 24.1402C50.2349 24.133 50.2349 24.133 50.2349 24.1257C50.2414 24.1041 50.248 24.0752 50.2545 24.0535C50.2676 24.0319 50.2806 24.0102 50.3002 23.9813C50.3133 23.9596 50.333 23.9452 50.3525 23.9308C50.3591 23.9163 50.3656 23.9019 50.3852 23.8947L51.5161 23.1726L49.7707 22.0607L44.9727 18.9993L50.2349 24.1402Z" fill="#9A3F3F"/>
<path d="M38.4092 13.6856L49.5939 24.6749L49.7116 24.5955L48.2473 23.1659L38.4942 13.635L38.4092 13.6856Z" fill="#0099FF"/>
<path d="M37.9128 14.0028L47.2672 23.2809L47.8097 23.8152L49.3067 25.2954C49.2936 25.2521 49.2936 25.2088 49.2936 25.1727V25.1654C49.3002 25.0716 49.3198 24.9922 49.3525 24.9199L38.1155 13.8728L37.9128 14.0028Z" fill="#0099FF"/>
<path d="M38.8733 19.6276L42.6059 22.0103L39.4289 18.8911L38.8733 19.6276Z" fill="#999999"/>
<path d="M38.2266 20.6529L46.7769 26.1042L45.0315 24.3858L38.6972 20.3496L38.2266 20.6529Z" fill="#999999"/>
<path d="M36.252 19.3897L36.3435 19.4474L36.9253 19.8229L37.1345 19.9601L38.7752 17.7795C38.8341 17.7073 38.9125 17.664 39.004 17.6496C39.089 17.6496 39.1805 17.6785 39.2459 17.7434L47.9335 26.2779L49.0971 26.3284C49.1493 26.3284 49.2016 26.3429 49.2474 26.3718L49.6658 26.6389L37.4548 14.5232L37.1671 15.1586L38.2392 16.2055C38.2523 16.22 38.2588 16.2416 38.2719 16.256C38.2849 16.2777 38.3046 16.2921 38.3111 16.3138C38.3242 16.3355 38.3242 16.3571 38.3307 16.3788C38.3372 16.4005 38.3438 16.4293 38.3438 16.451C38.3503 16.4727 38.3438 16.4943 38.3372 16.516C38.3372 16.5377 38.3372 16.5665 38.3307 16.5882C38.3242 16.6098 38.3111 16.6243 38.3046 16.646C38.2915 16.6676 38.2849 16.6893 38.2719 16.7109L36.252 19.3897Z" fill="#0099FF"/>
<path d="M50.2083 26.1911L50.6854 26.6677L50.7704 26.3861L50.3847 26.1406C50.3651 26.1261 50.352 26.1189 50.339 26.1045C50.3194 26.1334 50.2932 26.155 50.2671 26.1695C50.2475 26.1839 50.2278 26.1911 50.2083 26.1911Z" fill="#0099FF"/>
<path d="M49.6201 25.173C49.6201 25.404 49.7835 25.7073 49.9601 25.8228C50.0385 25.8662 50.0843 25.8662 50.1038 25.8517C50.13 25.8373 50.1496 25.7795 50.1496 25.7073C50.1496 25.4763 49.9927 25.1802 49.8031 25.0575C49.7574 25.0286 49.7182 25.0142 49.6986 25.0142C49.6855 25.0142 49.6724 25.0214 49.6659 25.0214C49.6463 25.0358 49.6201 25.0792 49.6201 25.173Z" fill="#0099FF"/>
<path d="M34.448 21.0717L44.5214 27.4978L46.5675 27.5917C46.6721 27.5989 46.7702 27.6278 46.8616 27.6856L53.562 31.9528V29.6062C53.5293 29.6495 53.4966 29.6928 53.4574 29.7217L52.1762 30.5304C52.1304 30.5665 52.0716 30.5809 52.0127 30.5809C51.9801 30.5809 51.9474 30.5737 51.9082 30.5593C51.8951 30.552 51.8885 30.5448 51.8755 30.5376C51.869 30.5376 51.8624 30.5376 51.8493 30.5304L50.1105 29.4185C50.104 29.4112 50.0974 29.404 50.0844 29.3968C50.0713 29.3823 50.0517 29.3679 50.0386 29.3462C50.0255 29.3318 50.0124 29.3174 49.9994 29.2957C49.9863 29.2741 49.9798 29.2524 49.9732 29.2307C49.9667 29.2091 49.9602 29.1874 49.9602 29.1657C49.9536 29.1441 49.9536 29.1224 49.9536 29.1008C49.9536 29.0791 49.9536 29.0502 49.9602 29.0285C49.9667 29.0141 49.9602 29.0069 49.9667 28.9925L50.3066 27.8805L48.9927 27.0429L46.8682 26.9491C46.8159 26.9491 46.7636 26.9347 46.7178 26.9058L36.5987 20.4508L36.5921 20.4435L36.0169 20.0681C36.0169 20.0753 36.0103 20.0753 36.0103 20.0753L34.448 21.0717Z" fill="#9A3F3F"/>
<path d="M52.6077 29.4258L53.0195 29.1587L53.719 26.8337L53.3333 27.0792L52.6077 29.4258Z" fill="#999999"/>
<path d="M50.6719 28.9419L51.8355 29.6856L52.5153 27.4762C52.4892 27.469 52.463 27.4617 52.4369 27.4473C52.4369 27.4473 52.4369 27.4473 52.4303 27.4473L51.3517 26.7542L50.6719 28.9419Z" fill="#CCCCCC"/>
<path d="M54.5095 26.4946L56.6471 25.1372L56.5098 25.0505L54.5749 26.2852L54.5095 26.4946Z" fill="#999999"/>
<path d="M58.4126 24.0107L58.7983 23.7652L58.8636 23.5486L58.478 23.8013L58.4126 24.0107Z" fill="#999999"/>
<path d="M52.9146 25.7143V26.5086L54.0716 25.7721C54.1108 25.7215 54.1697 25.6927 54.2285 25.6782L55.2548 25.0212V24.2197L52.9146 25.7143Z" fill="#F79420"/>
<path d="M55.9084 23.8084V24.6026L58.5755 22.9058V22.1116L55.9084 23.8084Z" fill="#F79420"/>
<path d="M59.2292 21.6927V22.487C59.2619 22.4436 59.3142 22.4148 59.3665 22.4003L61.7983 20.8479V20.0537L59.2292 21.6927Z" fill="#F79420"/>
<path d="M57.5098 20.1762L58.9021 21.0644L61.4711 19.4326L60.0722 18.5444L57.5098 20.1762Z" fill="#F79420"/>
<path d="M54.1899 22.299L55.5823 23.1799L58.2494 21.4831L56.857 20.595L54.1899 22.299Z" fill="#F79420"/>
<path d="M51.2024 24.2057L52.5882 25.0866L54.9219 23.5991L53.5361 22.7183L51.2024 24.2057Z" fill="#F79420"/>
<path d="M54.8691 27.9381L63.0207 33.1368L70.6363 28.3786L62.4062 23.1294L54.8691 27.9381Z" fill="#FF6868"/>
<path d="M63.0208 33.1371L64.1647 39.5488L64.1713 39.556L71.7999 34.6895C71.7541 34.6173 71.728 34.5451 71.7149 34.4657L71.473 33.1155L70.6363 28.3789L63.0208 33.1371Z" fill="#CCCCCC"/>
<path d="M71.3661 34.384L71.1519 33.1893L70.4265 29.0852L63.4146 33.466L64.374 38.8442L71.3661 34.384Z" fill="#797979"/>
<path d="M64.1711 39.556L66.093 41.7582L68.0345 43.9893C68.4594 44.4658 68.7666 45.0434 68.9496 45.6716L69.2569 45.4766L76.5652 40.8123C76.4214 40.2347 76.1468 39.7076 75.7611 39.2671L71.8847 34.8339C71.8455 34.7905 71.8194 34.74 71.7997 34.6895L64.1711 39.556Z" fill="#FF6868"/>
<path d="M68.9502 45.6715C69.0221 45.8954 69.0744 46.1264 69.1005 46.3575C69.1332 46.5813 69.1528 46.8124 69.1528 47.0434V47.7871L69.3293 47.9026L70.4341 47.2022L72.5324 45.8665L76.6965 43.2166V41.8231C76.6965 41.4765 76.6507 41.1372 76.5657 40.8123L69.2574 45.4766L68.9502 45.6715Z" fill="#CCCCCC"/>
<path d="M47.5474 34.3136C47.5474 34.3714 47.567 34.4436 47.5996 34.5013C47.6258 34.5663 47.6716 34.6168 47.7173 34.6457L49.9203 36.0465L52.1232 37.4544C52.169 37.4833 52.2147 37.4906 52.2474 37.4689C52.2801 37.4472 52.2997 37.4039 52.2997 37.3461L52.3062 34.0825C52.3062 34.0248 52.2866 33.9526 52.2539 33.8948C52.2213 33.8371 52.1755 33.7865 52.1298 33.7576L49.9268 32.3497L47.7304 30.9489C47.6846 30.92 47.6389 30.9128 47.6062 30.9345C47.5735 30.9489 47.5539 30.9923 47.5539 31.05L47.5474 34.3136ZM50.0967 35.7216L50.1033 32.9056L51.9533 34.0825L51.9467 36.8985L50.0967 35.7216ZM47.8938 34.3208L47.9069 31.4976L49.7569 32.6818L49.7503 35.4977L47.8938 34.3208Z" fill="black"/>
<path d="M47.894 34.3212L49.7506 35.4981L49.7571 32.6822L47.9071 31.498L47.894 34.3212Z" fill="#CCCCCC"/>
<path d="M50.0977 35.7217L51.9476 36.8986L51.9542 34.0827L50.1042 32.9058L50.0977 35.7217Z" fill="#CCCCCC"/>
<path d="M54.8691 27.9382V40.0107L59.4777 42.9566C59.713 42.3067 60.1052 41.8085 60.6217 41.5197C61.4388 41.0648 62.4586 41.1804 63.5045 41.8374C64.8772 42.7183 66.0473 44.4007 66.6553 46.2057C66.6618 46.2129 66.6618 46.2057 66.6684 46.2129L69.1524 47.787V47.0433C69.1524 45.9025 68.7536 44.805 68.0345 43.9891L64.1647 39.5486L63.0207 33.1369L54.8691 27.9382Z" fill="#9A3F3F"/>
<path d="M61.1182 33.6334L61.9124 38.7535L57.0693 35.6611V31.0513L61.1182 33.6334Z" fill="#797979"/>
<path d="M62.1737 47.0788C61.8982 46.9031 61.6735 46.4786 61.6744 46.129C61.6754 45.7741 61.9014 45.6371 62.1769 45.8127C62.4524 45.9884 62.677 46.4129 62.6761 46.7678C62.6752 47.1174 62.4491 47.2544 62.1737 47.0788ZM62.5823 45.8696C61.8686 45.4145 61.2824 45.7782 61.28 46.6893C61.2777 47.5951 61.8601 48.704 62.5738 49.1591C63.2917 49.6169 63.8779 49.2532 63.8802 48.3474C63.8825 47.4363 63.3001 46.3274 62.5823 45.8696Z" fill="#888888"/>
<path d="M62.177 45.8131C62.4525 45.9887 62.6771 46.4132 62.6762 46.7681C62.6753 47.1177 62.4492 47.2548 62.1738 47.0791C61.8983 46.9034 61.6737 46.4789 61.6746 46.1293C61.6755 45.7744 61.9016 45.6374 62.177 45.8131Z" fill="#BABABA"/>
<path d="M35.8846 30.3058C35.6091 30.1301 35.3845 29.7056 35.3854 29.356C35.3863 29.0011 35.6124 28.8641 35.8879 29.0398C36.1633 29.2154 36.388 29.6399 36.387 29.9948C36.3862 30.3444 36.1601 30.4815 35.8846 30.3058ZM36.2932 29.0966C35.5795 28.6415 34.9933 29.0052 34.991 29.9163C34.9886 30.8221 35.5711 31.931 36.2848 32.3862C37.0026 32.844 37.5888 32.4803 37.5911 31.5745C37.5935 30.6634 37.0111 29.5544 36.2932 29.0966Z" fill="#888888"/>
<path d="M35.8877 29.0394C36.1632 29.2151 36.3878 29.6395 36.3869 29.9944C36.386 30.344 36.1599 30.4811 35.8845 30.3054C35.609 30.1298 35.3844 29.7053 35.3853 29.3556C35.3862 29.0008 35.6123 28.8637 35.8877 29.0394Z" fill="#BABABA"/>
<path d="M28.9129 22.3385C34.7509 22.0824 35.1428 15.3664 35.2715 13.159L34.8603 13.1404C34.6447 16.8289 33.7922 21.7575 28.8928 21.9722L28.9129 22.3385Z" fill="black"/>
<path d="M0.00503236 7.63136C0.00567111 7.64654 0.308154 9.11152 0.363293 9.78577C0.400224 10.3466 0.492594 10.7921 0.662587 11.1749C0.714804 11.3026 0.837993 11.3677 0.957037 11.3343L1.30083 11.2343C1.29828 11.1737 1.28936 11.1207 1.28712 11.0676L1.28394 10.9918C1.25811 10.3776 1.41279 9.91804 1.70341 9.66759C1.74224 9.63623 1.78107 9.60488 1.83324 9.57313L2.24259 9.28166C2.39732 9.30046 2.55934 9.33422 2.73666 9.41314C2.81878 9.45656 2.90792 9.50741 2.99737 9.56584C4.11658 10.2429 5.10255 11.8876 5.29264 13.3859C5.31559 13.613 5.3242 13.8178 5.31879 14.0077C5.31277 14.0231 5.32675 14.0379 5.32739 14.0531C5.3293 14.0985 5.32516 14.1594 5.32074 14.2127C5.31469 14.3874 5.30355 14.6002 5.29148 14.7904C5.2832 14.9121 5.34147 15.0244 5.4373 15.0751C5.50604 15.1188 7.14991 16.0178 8.1625 16.3863C9.12096 16.7411 11.6269 17.929 11.7774 18.0086C12.7967 18.6959 14.0707 19.5512 15.317 20.3844C15.3994 20.4355 15.5063 20.4327 15.5843 20.3775C15.6687 20.3146 15.704 20.1999 15.6862 20.094L15.6687 19.9958L15.6667 19.9503C15.6594 19.9353 15.6588 19.9201 15.6585 19.9125C15.6257 19.6097 15.6342 19.3362 15.6648 19.1077L15.6645 19.1001C15.6702 19.0771 15.6692 19.0544 15.6753 19.039C15.7023 18.8865 15.7501 18.7486 15.8054 18.6333C15.8608 18.518 15.9305 18.4251 16.0146 18.3546C16.2727 18.1278 16.6668 18.11 17.1102 18.3111C17.1924 18.3545 17.2745 18.398 17.3569 18.449C18.3941 19.0827 19.315 20.6151 19.494 22.0074C19.5354 22.3555 19.5281 22.6594 19.4718 22.9114C19.4661 22.9343 19.4606 22.9648 19.4613 22.98C19.4597 23.1015 19.5317 23.2211 19.6402 23.2562C20.1791 23.5005 21.8838 24.2535 22.2263 24.2826C22.2734 24.289 22.374 24.294 22.501 24.2907C23.2831 24.2705 25.2844 24.1201 25.8889 24.0133L25.929 24.0123C25.9621 24.0039 25.9888 24.0032 26.0019 23.9952C26.5251 23.8679 28.2335 22.9582 28.9214 22.447L29.1416 22.2743C29.8422 21.7475 30.7179 21.0872 31.1046 20.4167C31.5406 19.6463 31.4018 17.9341 31.3804 17.7449C31.3791 17.7146 31.3712 17.6844 31.3632 17.6542C31.4371 17.5005 31.4781 17.3628 31.4794 17.2337C31.5013 16.8004 31.3469 15.9921 31.3055 15.8033C31.2453 15.4861 29.4008 12.8386 28.6616 11.9695C27.8727 11.0333 26.6488 10.2527 25.5534 9.98493C24.6675 9.76489 24.1961 9.53414 24.1891 9.52672C24.1891 9.52672 24.1751 9.51188 24.1544 9.49726C24.1951 9.19253 24.2673 8.68203 24.2765 8.26425C24.2899 7.78563 24.1297 7.15964 23.8684 6.9918C23.7652 6.92612 23.6583 6.92889 23.5545 7.00751C23.269 7.21984 23.029 7.71952 23.0564 8.05285C23.0835 8.37859 23.1749 8.48252 23.3681 8.62177C23.4165 8.65847 23.4353 8.78703 23.4343 8.9237C22.5754 8.23228 21.184 7.12949 20.4375 6.56425C19.3393 5.74992 16.5695 4.33357 16.1936 4.14589C15.9628 3.90892 14.6136 2.53934 13.4377 1.62832C11.9702 0.466794 9.06041 0.0181743 9.02699 0.0190388C8.41484 -0.0562353 6.99546 0.0867005 6.01061 0.537291C5.05922 0.987016 1.91245 3.33832 1.77624 3.44053C0.339135 5.23136 0.420686 6.37557 0.450007 6.75439C0.449374 6.89866 0.266651 7.16912 0.0804613 7.35612C0.0165 7.42612 -0.0124941 7.53312 0.00503236 7.63136ZM23.455 8.46008C23.2964 8.35029 23.2407 8.29858 23.2232 8.04094C23.1987 7.77588 23.4148 7.34511 23.6548 7.16432C23.7 7.1252 23.7401 7.12416 23.7882 7.15327C23.9671 7.27014 24.1234 7.80508 24.1088 8.25339C24.104 8.6179 24.0426 9.06742 24.0019 9.37212C23.8981 9.2913 23.7663 9.18086 23.6005 9.05605C23.6193 8.86577 23.6135 8.56988 23.455 8.46008Z" fill="black"/>
<path d="M15.6324 19.6094L15.6356 19.6852C15.6388 19.761 15.6486 19.8367 15.6585 19.9124C15.6588 19.92 15.6595 19.9351 15.6668 19.9501C15.8416 21.2438 16.6967 22.6413 17.6514 23.224C17.7268 23.2676 17.802 23.3036 17.8774 23.3472C18.2798 23.5266 18.628 23.5328 18.896 23.3816C18.968 23.3418 19.0332 23.3022 19.0845 23.2477L19.4613 22.9798C19.4607 22.9646 19.4661 22.9341 19.4718 22.9112C19.5282 22.6592 19.5355 22.3554 19.4941 22.0072C19.3151 20.615 18.3941 19.0825 17.357 18.4488C17.2745 18.3978 17.1924 18.3544 17.1103 18.311C16.6668 18.1098 16.2728 18.1276 16.0146 18.3544C15.8469 18.503 15.7294 18.7338 15.6753 19.0389C15.6356 19.2069 15.6235 19.397 15.6324 19.6094Z" fill="#1A1A1A"/>
<path d="M17.6261 22.3709C17.472 22.2765 17.3217 22.1461 17.1799 21.995L17.6174 21.2772L18.3017 22.5111C18.1478 22.5525 17.9686 22.5396 17.7652 22.4454C17.7186 22.4241 17.6722 22.3991 17.6261 22.3709ZM17.1073 21.9164C17.0359 21.8338 16.9682 21.7458 16.9039 21.6534L17.2028 21.0613C17.2543 20.9634 17.3341 20.9248 17.3971 20.9634C17.4098 20.9711 17.4218 20.9821 17.4328 20.9963C17.4998 21.0828 17.4979 21.2439 17.4336 21.3582L17.1073 21.9164ZM18.3608 22.4923L17.8417 21.5426C17.7408 21.3556 17.6924 21.1714 17.7451 21.141C17.7594 21.1324 17.779 21.1363 17.8019 21.1504C17.8632 21.1879 17.9483 21.2977 18.0207 21.4359L18.52 22.3952C18.4715 22.4367 18.419 22.47 18.3608 22.4923ZM17.4871 20.9884C17.477 20.9823 17.4669 20.9735 17.4576 20.9621C17.4387 20.9382 17.4287 20.9122 17.4256 20.8894C17.4189 20.871 17.418 20.8487 17.4257 20.8373C17.4362 20.8202 17.4565 20.8173 17.478 20.8305C17.487 20.836 17.4962 20.8443 17.505 20.8555L17.5104 20.8607L17.5128 20.865C17.5428 20.9033 17.5538 20.9546 17.5391 20.9817C17.5314 20.9931 17.521 20.9972 17.5067 20.9941L17.5076 20.9975C17.5009 20.9957 17.494 20.9927 17.4871 20.9884ZM17.6713 21.072C17.6685 21.0703 17.6657 21.0683 17.6628 21.066C17.6482 21.0561 17.6348 21.0374 17.6228 21.0168C17.6017 20.9764 17.6008 20.9331 17.6187 20.9137L17.6221 20.9063L17.6243 20.9048L17.6266 20.9053C17.6363 20.901 17.6482 20.9034 17.6604 20.9109C17.6776 20.9214 17.6957 20.9421 17.7098 20.9686C17.7211 20.9888 17.7278 21.0071 17.7278 21.0251C17.731 21.0489 17.7242 21.0665 17.7118 21.0761C17.6995 21.0812 17.6858 21.081 17.6713 21.072ZM16.8367 21.561C16.574 21.1563 16.3823 20.6766 16.323 20.2162C16.3119 20.1259 16.3101 20.0423 16.3091 19.9591L17.2207 20.7763L16.8367 21.561ZM17.3997 20.7259C17.3949 20.723 17.39 20.7193 17.385 20.7147C17.3695 20.7014 17.3561 20.6827 17.3472 20.6669C17.335 20.6423 17.3295 20.6152 17.334 20.5961C17.3354 20.5752 17.3476 20.5627 17.3609 20.5595C17.3715 20.56 17.3825 20.562 17.3938 20.569C17.397 20.5709 17.4002 20.5733 17.4035 20.5761C17.4344 20.6026 17.4566 20.6532 17.4544 20.6917L17.4553 20.6951L17.4555 20.7009L17.4564 20.7043C17.4505 20.733 17.4271 20.7427 17.3997 20.7259ZM17.6946 20.8588C17.6732 20.8457 17.6522 20.8178 17.6383 20.7853L17.6358 20.7781C17.6205 20.7317 17.6339 20.6944 17.6631 20.6933C17.6706 20.6931 17.6785 20.6961 17.6867 20.7012C17.6931 20.7051 17.6998 20.7103 17.7066 20.7161C17.7222 20.7323 17.7365 20.7544 17.7465 20.7804C17.7551 20.8085 17.7553 20.8333 17.7485 20.849C17.7437 20.8613 17.735 20.8663 17.7215 20.8666C17.7128 20.8673 17.7037 20.8644 17.6946 20.8588ZM17.5269 20.6451C17.4941 20.625 17.4679 20.5828 17.4626 20.5392C17.4594 20.5164 17.464 20.5003 17.4718 20.4889C17.4819 20.4809 17.4953 20.4777 17.5121 20.486C17.5146 20.4872 17.5172 20.4885 17.5198 20.4901C17.5342 20.499 17.5489 20.5144 17.561 20.5331C17.5731 20.5537 17.582 20.5725 17.5852 20.5963C17.5906 20.6385 17.5705 20.6594 17.5394 20.6479L17.5403 20.6513L17.5304 20.6471L17.5269 20.6451ZM18.5678 22.3581L17.9227 21.0941L18.724 21.0697C18.7464 21.1631 18.7673 21.2565 18.7792 21.3491C18.8377 21.8081 18.7522 22.1598 18.5678 22.3581ZM17.1092 20.5518C17.0775 20.5324 17.0434 20.5071 17.0085 20.4765L16.3097 19.8628C16.3136 19.7712 16.3237 19.6854 16.3415 19.6071L17.0464 20.1886C17.1856 20.3042 17.2975 20.4695 17.2851 20.552C17.2781 20.6154 17.2047 20.6103 17.1092 20.5518ZM17.9032 20.9172C17.8497 20.8844 17.8073 20.8381 17.7901 20.7853C17.7545 20.68 17.8353 20.6042 17.9603 20.6097L18.592 20.6435C18.6336 20.7487 18.6684 20.8554 18.6981 20.9627L18.0784 20.9675C18.0182 20.9682 17.9555 20.9492 17.9032 20.9172ZM17.2817 20.2757L16.367 19.5336C16.4835 19.1514 16.7708 18.9668 17.1561 19.0661L17.2817 20.2757ZM17.4359 19.1831C17.442 19.1869 17.4481 19.1904 17.4542 19.1936L17.587 20.1316C17.6132 20.3212 17.5781 20.4553 17.5065 20.4219C17.5036 20.4206 17.5008 20.4191 17.4979 20.4173C17.4261 20.3733 17.355 20.1953 17.3342 20.0147L17.2288 19.0898C17.2667 19.1025 17.3029 19.1095 17.3417 19.1276C17.359 19.1356 17.3756 19.1454 17.3923 19.1556C17.4007 19.1607 17.409 19.166 17.4174 19.1711C17.4236 19.1754 17.4297 19.1794 17.4359 19.1831ZM17.7165 20.4756L17.53 19.2381C17.9345 19.5019 18.3082 19.9907 18.5444 20.5366L17.7165 20.4756ZM17.4816 18.9507C17.4238 18.9153 17.3655 18.8839 17.3071 18.8569C16.5165 18.4924 15.9872 19.061 16.1234 20.1244C16.2497 21.1137 16.9006 22.1788 17.6234 22.6213C17.6818 22.6571 17.7408 22.6889 17.7999 22.7161C18.5866 23.0783 19.1152 22.5102 18.9787 21.441C18.8533 20.457 18.2019 19.3916 17.4816 18.9507Z" fill="#CCCCCC"/>
<path d="M1.28428 10.9919L1.28747 11.0677C1.2897 11.1208 1.29862 11.1737 1.30117 11.2344L1.3034 11.2874C1.47218 12.5965 2.3346 14.009 3.29626 14.5991C3.37173 14.6427 3.45386 14.6861 3.52897 14.7221C3.93168 14.9091 4.27989 14.9153 4.54761 14.7566C4.61316 14.7245 4.67808 14.6772 4.73603 14.6226L5.32109 14.2127C5.32551 14.1595 5.32965 14.0986 5.32773 14.0531C5.3271 14.0379 5.31312 14.0232 5.31913 14.0078C5.32454 13.8179 5.31594 13.6131 5.29299 13.3859C5.1029 11.8877 4.11693 10.243 2.99772 9.56592C2.90826 9.50748 2.81912 9.45664 2.737 9.41321C2.55969 9.3343 2.39767 9.30054 2.24293 9.28174L1.83359 9.57321C1.78142 9.60495 1.74259 9.63631 1.70376 9.66766C1.41314 9.91811 1.25846 10.3776 1.28428 10.9919Z" fill="#1A1A1A"/>
<path d="M3.27379 13.7488C3.11971 13.6545 2.96941 13.524 2.82761 13.3729L3.26506 12.6551L3.94942 13.889C3.79553 13.9305 3.61631 13.9175 3.41294 13.8233C3.3663 13.802 3.31988 13.777 3.27379 13.7488ZM2.75496 13.2943C2.68365 13.2118 2.61587 13.1238 2.55165 13.0313L2.85051 12.4392C2.90202 12.3413 2.98176 12.3027 3.04478 12.3413C3.05748 12.3491 3.06951 12.36 3.08048 12.3742C3.14746 12.4607 3.14561 12.6218 3.08134 12.7362L2.75496 13.2943ZM4.00849 13.8702L3.48941 12.9206C3.38855 12.7336 3.34014 12.5493 3.39277 12.5189C3.40711 12.5104 3.4267 12.5143 3.44964 12.5283C3.5109 12.5658 3.59601 12.6757 3.66838 12.8138L4.16766 13.7732C4.1192 13.8146 4.06668 13.8479 4.00849 13.8702ZM3.13478 12.3664C3.12469 12.3602 3.11465 12.3514 3.1053 12.3401C3.08641 12.3162 3.07641 12.2901 3.07327 12.2673C3.06656 12.249 3.06567 12.2266 3.07345 12.2153C3.08387 12.1982 3.10418 12.1952 3.12575 12.2084C3.13471 12.2139 3.1439 12.2222 3.15268 12.2334L3.15812 12.2386L3.16053 12.243C3.19046 12.2812 3.20146 12.3325 3.18683 12.3596C3.17906 12.371 3.16875 12.3751 3.15442 12.372L3.15531 12.3754C3.14857 12.3736 3.14166 12.3706 3.13478 12.3664ZM3.31897 12.45C3.31619 12.4483 3.31339 12.4462 3.31055 12.4439C3.29595 12.434 3.2825 12.4153 3.27047 12.3947C3.24943 12.3543 3.24847 12.311 3.26639 12.2916L3.26984 12.2843L3.27202 12.2828L3.27429 12.2832C3.28404 12.2789 3.29587 12.2813 3.30809 12.2888C3.32533 12.2994 3.34337 12.3201 3.35754 12.3465C3.36881 12.3667 3.37552 12.385 3.37548 12.403C3.37866 12.4268 3.37189 12.4445 3.35955 12.454C3.34719 12.4592 3.33355 12.4589 3.31897 12.45ZM2.48444 12.9389C2.22169 12.5343 2.02999 12.0545 1.97067 11.5941C1.95962 11.5039 1.95781 11.4202 1.95677 11.3371L2.8684 12.1542L2.48444 12.9389ZM3.04737 12.1039C3.04259 12.1009 3.03767 12.0972 3.03271 12.0926C3.01723 12.0793 3.00378 12.0607 2.99493 12.0448C2.98274 12.0203 2.97719 11.9931 2.98167 11.9741C2.98308 11.9531 2.9953 11.9407 3.00863 11.9375C3.01916 11.938 3.03021 11.94 3.04154 11.9469C3.04473 11.9489 3.04793 11.9512 3.05116 11.954C3.08212 11.9805 3.10431 12.0311 3.10209 12.0696L3.10297 12.073L3.1032 12.0788L3.10408 12.0822C3.09822 12.1109 3.0748 12.1206 3.04737 12.1039ZM3.34228 12.2367C3.32092 12.2237 3.29986 12.1957 3.28599 12.1632L3.28346 12.156C3.26817 12.1096 3.28165 12.0724 3.31077 12.0712C3.3183 12.071 3.32618 12.0741 3.33438 12.0791C3.34083 12.083 3.34748 12.0882 3.35429 12.0941C3.36989 12.1103 3.38422 12.1323 3.39422 12.1584C3.40281 12.1864 3.40304 12.2112 3.39618 12.2269C3.39144 12.2392 3.38266 12.2442 3.36922 12.2446C3.36053 12.2452 3.35138 12.2423 3.34228 12.2367ZM3.17465 12.0231C3.14184 12.003 3.11561 11.9608 3.11027 11.9171C3.10712 11.8943 3.11172 11.8782 3.11949 11.8668C3.12965 11.8588 3.14298 11.8556 3.15976 11.864C3.16233 11.8651 3.16493 11.8665 3.16754 11.8681C3.18191 11.8769 3.1966 11.8924 3.20873 11.911C3.22076 11.9317 3.22973 11.9504 3.23291 11.9742C3.23832 12.0164 3.21821 12.0373 3.1871 12.0258L3.18798 12.0292L3.17809 12.0251L3.17465 12.0231ZM4.21555 13.7361L3.57038 12.4721L4.37172 12.4476C4.39411 12.541 4.415 12.6344 4.42689 12.7271C4.48541 13.186 4.39987 13.5378 4.21555 13.7361ZM2.75689 11.9297C2.72521 11.9103 2.69109 11.8851 2.65616 11.8545L1.95744 11.2407C1.9613 11.1492 1.97136 11.0633 1.98921 10.985L2.69413 11.5665C2.83329 11.6821 2.94525 11.8474 2.93282 11.9299C2.92577 11.9933 2.85238 11.9882 2.75689 11.9297ZM3.55092 12.2951C3.49743 12.2623 3.455 12.216 3.43778 12.1632C3.40222 12.0579 3.48297 11.9822 3.60805 11.9876L4.23973 12.0215C4.28127 12.1266 4.31615 12.2333 4.34581 12.3407L3.72613 12.3455C3.66594 12.3461 3.60316 12.3271 3.55092 12.2951ZM2.92937 11.6536L2.01471 10.9115C2.1312 10.5293 2.41852 10.3448 2.80378 10.444L2.92937 11.6536ZM3.08357 10.561C3.0897 10.5648 3.09582 10.5683 3.10193 10.5716L3.23473 11.5095C3.26092 11.6992 3.22584 11.8333 3.15423 11.7999C3.15135 11.7985 3.14848 11.797 3.1456 11.7952C3.07382 11.7513 3.00266 11.5732 2.98186 11.3926L2.8765 10.4677C2.91439 10.4805 2.95056 10.4874 2.98941 10.5055C3.00667 10.5136 3.02334 10.5233 3.04003 10.5336C3.04837 10.5387 3.05672 10.5439 3.06515 10.5491C3.0713 10.5533 3.07744 10.5573 3.08357 10.561ZM3.36422 11.8535L3.17772 10.6161C3.5822 10.8799 3.95595 11.3686 4.19213 11.9145L3.36422 11.8535ZM3.12933 10.3286C3.07154 10.2932 3.01322 10.2618 2.95478 10.2348C2.16422 9.87031 1.63487 10.4389 1.77113 11.5023C1.89741 12.4916 2.54825 13.5567 3.27106 13.9993C3.32947 14.035 3.38846 14.0668 3.44757 14.094C4.23429 14.4562 4.76291 13.8881 4.62643 12.8189C4.501 11.8349 3.84958 10.7696 3.12933 10.3286Z" fill="#CCCCCC"/>
<path d="M23.6545 7.16437C23.6997 7.12525 23.7398 7.12421 23.7879 7.15332C23.9668 7.27019 24.1232 7.80513 24.1085 8.25344C24.1059 8.45238 24.0862 8.67517 24.0624 8.88745C23.8837 8.39214 23.6355 7.92927 23.3479 7.55762C23.4283 7.39962 23.5381 7.25213 23.6545 7.16437Z" fill="#FF0000"/>
<path d="M23.6006 9.05585C23.6194 8.86557 23.6136 8.56968 23.4551 8.45988C23.2966 8.35008 23.2408 8.29838 23.2233 8.04074C23.2107 7.90433 23.263 7.72491 23.3483 7.55737C23.6358 7.92902 23.884 8.39189 24.0627 8.8872C24.043 9.06378 24.0205 9.23354 24.002 9.37191C23.8983 9.2911 23.7665 9.18066 23.6006 9.05585Z" fill="#BF0000"/>
<path d="M28.6355 12.7749L28.6457 13.0176C28.8068 13.188 29.5778 14.0184 29.7819 14.5749C29.9796 15.1392 30.1006 16.1078 30.121 16.2743L30.5772 17.0976C30.6513 16.7919 30.7535 16.1972 30.7006 15.7355C30.3555 15.1674 29.3779 13.7199 28.6355 12.7749Z" fill="#CCCCCC"/>
<path d="M5.80127 14.6557C6.24595 14.8871 7.50528 15.553 8.30745 15.8511C8.51786 15.9216 8.79734 16.0434 9.11059 16.172C8.1142 15.5524 6.71835 14.8217 5.81875 14.4351C5.81525 14.511 5.80505 14.5872 5.80127 14.6557Z" fill="#4D4D4D"/>
<path d="M8.96777 2.27535C9.96924 2.37851 11.1537 2.53769 12.0794 2.74915C13.2617 3.01463 14.3856 3.48666 15.1089 3.81716C14.5649 3.29223 13.827 2.61284 13.1626 2.09103C12.249 1.37062 10.6172 0.919363 9.65146 0.708984C9.71638 0.821154 9.77529 0.948724 9.78772 1.08505C9.8084 1.41855 9.26349 1.98682 8.96777 2.27535Z" fill="#BF0000"/>
<path d="M3.27979 5.29964C3.28876 5.67139 3.36356 5.85925 3.40016 5.93421C3.45939 5.90992 3.50555 5.89353 3.55139 5.86955C3.96515 5.68426 4.59319 5.34159 4.73039 5.26214C4.20322 4.82024 3.81677 4.54174 3.73433 4.49072C3.60509 4.60036 3.48254 4.70982 3.36031 4.82683L3.36063 4.83442C3.31288 4.9723 3.2731 5.14037 3.27979 5.29964Z" fill="#BF0000"/>
<path d="M8.98362 0.581963C9.07785 0.594725 9.22621 0.621241 9.40827 0.654485C9.50696 0.773427 9.60725 0.930231 9.62095 1.09692C9.63685 1.31665 9.11898 1.89182 8.73226 2.24345C8.65843 2.23776 8.58458 2.23207 8.51039 2.21883C8.60111 2.14814 8.87357 1.94371 8.96429 1.71362C9.03685 1.52955 9.00566 1.42406 8.96998 1.37184C9.1355 1.32961 9.29533 1.31028 9.46213 1.29842C9.15462 1.22676 8.84608 1.24609 8.53867 1.31191C8.26221 1.07792 7.9212 0.859316 7.54736 0.673162C8.14729 0.569291 8.70449 0.546039 8.98362 0.581963Z" fill="#BF0000"/>
<path d="M2.10903 3.87218C2.12242 3.87184 5.30798 1.48923 6.20688 1.06361C6.61214 0.876179 7.09183 0.752016 7.5476 0.673096C7.92143 0.859249 8.26244 1.07785 8.53891 1.31184C7.46809 1.54113 6.41316 2.43877 5.4825 2.93472C4.91783 3.35169 1.89268 5.25187 2.53859 6.13099C2.42658 6.14812 2.31534 6.16522 2.20883 6.18215C1.88255 5.84751 1.55616 5.5511 1.22266 5.29917C1.39481 4.89971 1.66617 4.42632 2.10903 3.87218Z" fill="#FF0000"/>
<path d="M2.20887 6.18205C2.20157 6.18321 2.19353 6.18439 2.18627 6.18555C1.91377 6.23059 1.65465 6.27524 1.46909 6.31798C1.24371 6.36936 1.07086 6.39662 0.943848 6.39991C0.955084 6.14736 1.01671 5.77698 1.22269 5.29907C1.5562 5.551 1.88259 5.84741 2.20887 6.18205Z" fill="#BF0000"/>
<path d="M3.87598 4.36537C4.04182 4.49013 4.51837 4.84225 5.12225 5.35802C5.82386 5.97001 7.09212 7.16708 7.25956 7.3298C7.40091 7.3489 8.10821 7.45966 8.40521 7.52033C9.37705 7.71535 9.56137 7.64229 9.59383 7.61865C9.80742 7.44614 10.8307 6.63772 11.8824 5.86656C12.8046 5.19745 14.0498 4.41364 14.4346 4.17595C14.2347 4.03688 13.7203 3.73893 12.6794 3.49255C11.3004 3.16376 6.44375 2.88695 5.99462 2.86816C5.85773 2.95525 5.72089 3.04228 5.58368 3.12173C5.00435 3.50869 4.41902 3.911 3.87598 4.36537Z" fill="#333333"/>
<path d="M8.07178 8.65283C8.25993 8.9896 8.77791 9.84928 9.55146 10.7403C9.56516 10.5881 9.6014 10.3366 9.66694 9.9857C9.75416 9.51276 9.97758 9.09705 10.0963 8.89659C9.18592 8.73033 8.38694 8.66748 8.07178 8.65283Z" fill="#333333"/>
<path d="M6.72043 9.61404C6.69003 9.60708 6.66053 9.60678 6.63013 9.60154C7.04469 10.0736 7.41219 10.5842 7.70667 11.1078C8.03379 11.2205 8.36805 11.3086 8.43178 11.3235C8.37993 11.3628 8.11316 11.3849 7.93744 11.3439C7.93744 11.3439 7.97723 11.4946 8.01707 11.8049C8.06642 12.1832 8.04862 12.3962 8.00788 12.5415C8.09829 12.6227 8.18265 12.7192 8.27306 12.8004C8.33288 12.6318 8.41914 12.455 8.53181 12.2699C8.58179 12.1851 8.63619 12.047 8.67757 11.9169C8.70844 11.8553 8.72564 11.7866 8.75045 11.7404C8.76893 11.702 8.78068 11.6637 8.79247 11.6254C8.84117 11.5103 8.89685 11.4026 8.96595 11.2945C8.46423 10.6622 7.96346 10.0526 7.64324 9.75718C7.50539 9.66205 7.36117 9.57468 7.21126 9.51025C7.38444 9.65002 7.54582 9.82804 7.62412 9.93987C7.62412 9.93987 7.13296 9.71722 6.72043 9.61404ZM7.71135 10.1047C7.78938 10.2089 8.10136 10.626 8.21818 10.8583C8.28409 10.9933 8.30636 11.0458 8.314 11.0684C8.26434 11.0014 8.00776 10.6284 7.89823 10.4111C7.80399 10.2389 7.73302 10.142 7.71135 10.1047Z" fill="#BF0000"/>
<path d="M7.35271 10.9719C6.75298 10.7141 6.4283 10.6313 6.26114 10.4762C6.09115 10.2529 5.91415 10.0221 5.75723 9.79084C5.74862 9.74552 5.74607 9.68483 5.79159 9.65326C5.86361 9.5951 6.24133 9.53479 6.62984 9.60161C7.0444 10.0736 7.4119 10.5843 7.70638 11.1078C7.58242 11.0651 7.45951 11.0191 7.35271 10.9719Z" fill="#FF0000"/>
<path d="M8.74976 12.2108C9.65223 12.9846 10.5101 13.8127 11.362 14.6561C11.5995 14.8929 11.8236 15.1301 12.0544 15.3671C12.0894 15.4041 12.1378 15.4408 12.1728 15.4778C11.8297 14.7959 10.923 13.7641 10.3503 13.0349C10.0479 12.6859 9.56654 12.0606 9.07884 11.4431C9.02853 11.5203 8.98556 11.6125 8.94928 11.7046C8.93084 11.743 8.91905 11.7813 8.90062 11.8197C8.88277 11.8733 8.8586 11.9347 8.83438 11.996C8.81053 12.065 8.7803 12.1417 8.74976 12.2108Z" fill="#BF0000"/>
<path d="M8.34527 13.4133C9.59755 14.2312 10.9065 14.9641 12.2247 15.5981L12.2244 15.5905C12.2094 15.553 12.1945 15.5154 12.1728 15.478C12.1378 15.4409 12.0894 15.4042 12.0544 15.3672C11.8236 15.1302 11.5995 14.8931 11.362 14.6563C10.5102 13.8128 9.65225 12.9847 8.74977 12.2109C8.72556 12.2723 8.70138 12.3336 8.66988 12.38C8.45088 12.7425 8.34236 13.0262 8.34527 13.4133Z" fill="#FF0000"/>
<path d="M12.6118 14.935C12.8009 14.8162 13.0514 14.7263 13.2586 14.7209C13.3388 14.7188 13.413 14.7321 13.4745 14.7609C13.6254 14.8481 13.7887 15.231 13.8584 15.457C13.8737 15.5021 13.9081 15.524 13.9415 15.5231C13.9482 15.523 14.4094 15.511 14.6443 15.6872C14.7091 15.7342 14.7493 15.7951 14.7754 15.8571C14.0278 15.8722 13.2606 15.4192 12.4956 15.021C12.5315 14.9927 12.5622 14.9651 12.6118 14.935Z" fill="#FF0000"/>
<path d="M12.4955 15.021C13.2604 15.4192 14.0276 15.8723 14.7752 15.8571C14.802 15.9208 14.8139 15.9858 14.8196 16.0395C14.6098 15.9842 14.1024 15.853 13.7765 15.74C13.6205 15.6909 13.4183 15.6582 13.2159 15.6179C12.9059 15.5651 12.5146 15.4917 12.4226 15.3726C12.3726 15.298 12.3504 15.2454 12.3548 15.1922C12.3618 15.1402 12.4182 15.0819 12.4955 15.021Z" fill="#BF0000"/>
<path d="M9.69946 10.9185C9.88885 11.1262 10.085 11.3337 10.3008 11.533C11.7575 12.915 13.9461 14.6729 15.4358 15.4088C15.1191 14.5591 13.922 11.3939 13.4161 10.663C12.8036 9.78301 11.4125 9.16609 10.2787 8.93726C10.1905 9.06858 9.92824 9.51569 9.82928 10.0269C9.73 10.5305 9.70866 10.8196 9.69946 10.9185Z" fill="#333333"/>
<path d="M9.1416 11.3427C9.6777 11.9969 10.2565 12.7108 10.4465 12.9336C10.5764 13.158 11.7546 14.4409 12.1945 15.1963C12.1939 15.1811 12.1869 15.1737 12.1929 15.1584C12.2136 15.0136 12.3158 14.8971 12.5313 14.77C12.8248 14.5879 13.2666 14.4322 13.5476 14.5919C13.767 14.7153 13.9396 15.1588 14.0003 15.3318C14.1411 15.3358 14.5036 15.3643 14.7312 15.5255C15.0349 15.7454 14.9853 16.1566 14.9793 16.172C14.9735 16.1949 14.9611 16.218 14.9417 16.2337C14.9286 16.2416 14.9156 16.2495 14.9022 16.2499L14.8822 16.2504C14.8751 16.243 14.1583 16.0641 13.7375 15.9232C13.5882 15.8739 13.386 15.8412 13.1906 15.8083C12.8331 15.7416 12.4957 15.6744 12.3422 15.5265C12.3502 15.5566 12.3512 15.5794 12.3524 15.6097C12.4486 15.668 12.7643 15.8572 12.9579 16.0041C13.4074 16.3492 14.4572 16.9674 15.0742 17.3159C15.1041 17.2316 15.141 17.1547 15.1904 17.0547C15.2642 16.901 15.3632 16.7087 15.4532 16.4634C15.5853 16.1031 15.5369 15.7476 15.5194 15.6494C14.0112 14.9519 11.7122 13.1134 10.1997 11.6797C9.98388 11.4804 9.7878 11.2728 9.59838 11.0652C9.42015 11.1229 9.28263 11.1948 9.17979 11.2961C9.16709 11.3117 9.15435 11.3272 9.1416 11.3427Z" fill="#FF0000"/>
<path d="M8.35083 13.5347C8.35971 13.5876 8.35529 13.6408 8.36449 13.7014C8.39349 13.9132 8.52656 14.2134 8.66696 14.5286C8.80704 14.8363 8.95477 15.1665 9.042 15.4907C9.46092 15.7455 9.83244 15.9865 10.1154 16.1917C10.1845 16.2431 10.2813 16.3165 10.4124 16.4118C10.4261 16.419 10.4328 16.4188 10.4398 16.4263C10.4465 16.4261 10.4465 16.4261 10.4465 16.4261C11.0169 16.6239 11.5877 16.8293 12.1521 17.0425C13.0631 17.3834 13.9567 17.7854 14.8327 18.2486C14.8986 17.9053 14.9673 17.6302 15.0084 17.4925C14.3911 17.1365 13.3279 16.5187 12.8711 16.1584C12.6498 15.9896 12.2386 15.7572 12.2316 15.7498C12.2182 15.7502 12.2118 15.7579 12.1985 15.7583C10.8621 15.1703 9.59646 14.3527 8.35083 13.5347Z" fill="#BF0000"/>
<path d="M14.9963 18.3354C15.0989 18.3858 15.2017 18.4439 15.2978 18.5022C15.3879 18.2569 15.5266 18.056 15.6944 17.9074C16.1009 17.5476 16.6678 17.5026 17.2955 17.7901C17.3844 17.8333 17.4805 17.8916 17.5833 17.9496C18.7439 18.6561 19.7649 20.3378 19.9767 21.8734C20.3603 22.2431 20.7375 22.6205 21.1517 22.9211C21.5104 23.1775 21.8749 23.4111 22.2582 23.6137C22.0996 23.5039 21.9666 23.3631 21.8927 23.198C21.8259 23.0403 21.8188 22.8735 21.8793 22.7201C21.9462 22.5589 22.1196 22.3874 22.3412 22.2451C22.0349 22.1239 21.6055 21.9376 21.1815 21.7208C20.4089 21.3308 20.0014 21.0301 19.9811 21.0231C19.9671 21.0082 19.9528 20.9858 19.9451 20.9632C19.9442 20.9405 19.5022 19.0236 17.9506 17.9326C16.9718 17.2518 16.1254 17.3345 15.6883 17.6038C15.5451 17.6987 15.3847 17.7028 15.2338 17.6156C15.2134 17.6086 15.1857 17.5865 15.1587 17.5796C15.1182 17.7325 15.0495 18.0075 14.9963 18.3354Z" fill="#BF0000"/>
<path d="M25.5883 23.0797C25.6147 23.0714 25.6412 23.0632 25.6679 23.0625C26.0785 22.9608 27.7353 22.098 28.4034 21.5949L28.624 21.4298C29.253 20.9504 30.1159 20.3056 30.446 19.7201C30.5395 19.5582 30.5962 19.3138 30.6315 19.0396C30.6382 19.0394 30.6379 19.0319 30.6375 19.0243C30.6608 18.9402 30.6777 18.8638 30.6945 18.7874C30.7222 18.6501 30.7499 18.5127 30.7938 18.4433C30.8253 18.3969 30.8635 18.3503 30.9145 18.2883C30.9259 18.8802 30.8942 19.7161 30.6758 20.0937C30.3458 20.6792 29.4828 21.3241 28.8539 21.8034L28.6333 21.9685C27.9652 22.4717 26.3084 23.3344 25.8978 23.4361C25.871 23.4368 25.8446 23.4451 25.8182 23.4534C25.6605 23.4713 24.3829 23.6077 23.1482 23.3438L23.3265 23.0473C24.4168 23.2085 25.4486 23.0985 25.5883 23.0797Z" fill="#BF0000"/>
<path d="M23.5277 22.4574C23.6888 22.4684 23.8368 22.4874 23.9644 22.4993C23.7387 22.6557 23.4825 22.8578 23.3292 23.0427C23.328 23.0442 23.3262 23.0457 23.325 23.0472C23.3255 23.0473 23.3259 23.0473 23.3264 23.0474L23.1481 23.3439C23.0265 23.318 22.9047 23.2929 22.7851 23.2585C22.5483 23.1963 22.3534 23.0192 22.3369 22.9437C22.3993 22.8358 22.984 22.4183 23.5277 22.4574Z" fill="#FF0000"/>
<path d="M19.6458 18.7693C20.0198 19.0709 20.7071 19.6604 21.0764 20.1672C21.5306 20.7855 22.0498 21.1972 22.1466 21.2707C22.315 21.2966 23.5733 21.4615 24.4691 21.4384L24.5292 21.4368C24.2937 21.2455 23.8996 20.9445 23.7623 20.8645C23.7006 20.8281 23.4908 20.7728 23.2537 20.703C22.6979 20.5352 21.939 20.3119 21.6063 20.0396C21.1763 19.6787 20.1805 18.9149 20.0287 18.8049L19.6458 18.7693Z" fill="#CCCCCC"/>
<path d="M0.528809 7.67097C0.597558 8.03358 0.769196 8.93256 0.841498 9.53806C0.939508 9.32294 1.07225 9.13731 1.24032 8.99633C1.6732 8.6283 2.26719 8.5902 2.92897 8.89193C3.02512 8.95019 3.12764 9.00069 3.23075 9.06632C4.48052 9.82359 5.57471 11.6552 5.78523 13.32C5.80463 13.4637 5.81037 13.6002 5.81579 13.7292C5.82344 13.7517 5.82535 13.7972 5.82694 13.8351C5.99725 13.9067 6.18126 13.9854 6.38625 14.0864C7.1165 14.4243 8.03326 14.9017 8.8221 15.3596C8.73806 15.1112 8.62661 14.8484 8.52313 14.6157C8.37513 14.278 8.23505 13.9703 8.19808 13.7283C8.17996 13.6149 8.18251 13.5162 8.17836 13.4176C8.09556 13.359 8.01311 13.308 7.92366 13.2495C7.19914 12.7293 6.4479 12.2096 5.82427 11.5425C5.0421 10.4467 4.15041 9.13365 2.93916 8.65632C2.59218 8.52105 2.20764 8.44749 1.84191 8.50249L1.27335 7.71247C1.27335 7.71247 2.24099 7.01178 2.29415 6.84341C2.32884 6.71342 2.29888 6.47886 2.28072 6.36548C2.26069 6.366 2.23428 6.37423 2.21421 6.37475C1.94175 6.41979 1.689 6.45667 1.5101 6.49925C1.25863 6.56649 1.07877 6.58634 0.945104 6.58979L0.95403 6.80211C0.966782 7.10547 0.70735 7.46136 0.528809 7.67097Z" fill="#BF0000"/>
<path d="M29.7452 16.5726C29.6582 15.9371 29.335 14.6169 28.174 12.9464C27.3483 11.7682 26.3531 11.0196 25.6121 10.5833C26.3776 10.8064 27.479 11.3777 28.3032 12.3585C28.3526 12.4179 28.4089 12.4848 28.4586 12.5518L28.4803 13.0675C28.4812 13.0903 28.4955 13.1127 28.5099 13.1351C28.5169 13.1425 29.4193 14.0757 29.6238 14.6398C29.8288 15.2191 29.9546 16.3014 29.9549 16.309C29.9556 16.3242 29.9629 16.3392 29.9702 16.3542L30.542 17.3795C30.5563 17.4019 30.584 17.4239 30.6174 17.4231C30.6174 17.4231 30.6174 17.4231 30.6241 17.4229C30.6505 17.4146 30.683 17.391 30.6884 17.3605C30.7002 17.3222 30.8386 16.7948 30.8825 16.2471C30.9284 16.542 30.9927 16.9579 30.9822 17.1859C30.9771 17.224 30.9612 17.3231 30.8421 17.516C30.7661 17.6166 30.6836 17.725 30.6006 17.8183C30.5172 17.9272 30.4416 18.0214 30.3909 18.1028C30.2223 17.8233 30.0169 17.5447 29.7836 17.2668C29.7991 17.0902 29.7868 16.8748 29.7452 16.5726Z" fill="#BF0000"/>
<path d="M1.27295 7.71253L1.84151 8.50256C2.20724 8.44756 2.59178 8.52112 2.93876 8.65639C4.15001 9.13372 5.04171 10.4468 5.82387 11.5426C6.56687 12.1839 7.36044 12.7555 8.17286 13.2963C8.17855 13.1139 8.21897 12.961 8.27246 12.8003C7.48968 12.327 6.15485 10.5015 5.50002 9.56951C5.44239 9.4723 5.39559 9.31411 5.45668 9.17589C5.53084 9.02973 5.67856 9.04106 5.78581 9.04589C6.64689 9.15272 7.61268 9.3631 8.18888 10.1757C8.30889 10.3244 8.64763 10.7408 9.02835 11.2016L9.06655 11.1551C9.16934 11.0538 9.30654 10.9743 9.46442 10.9095C8.45178 9.74375 7.84884 8.61298 7.84151 8.59801C7.82685 8.568 7.82526 8.53009 7.84438 8.5068C7.85644 8.47613 7.88225 8.45272 7.91598 8.4594C7.92267 8.45922 8.99476 8.49226 10.2563 8.73294C11.6868 9.01485 12.9748 9.72554 13.5446 10.5459C14.1434 11.4187 15.6016 15.3818 15.6688 15.5471L15.6691 15.5547C15.6691 15.5547 15.6691 15.5547 15.6694 15.5623C15.6767 15.5772 15.784 16.0603 15.6035 16.5433C15.5138 16.7961 15.4151 16.996 15.3346 17.15C15.2853 17.2499 15.255 17.3267 15.2248 17.4033C15.2522 17.4178 15.2796 17.4323 15.3069 17.4468C15.4031 17.505 15.51 17.5023 15.6077 17.439C16.0769 17.1384 16.9965 17.0463 18.0308 17.7711C19.541 18.8329 20.0297 20.5891 20.0956 20.8835C20.2058 20.9566 20.5982 21.2198 21.248 21.5521C21.7401 21.7976 22.251 22.0121 22.5436 22.126C22.8122 21.99 23.1162 21.8986 23.4103 21.891C23.4571 21.8898 23.5039 21.8886 23.5444 21.8952C23.9403 21.9229 24.2567 21.9679 24.4251 21.9939C24.4923 21.9997 24.5522 21.9906 24.5983 21.9742C24.6113 21.9663 25.6809 21.4604 25.9212 21.4466C25.9677 21.4378 26.0345 21.436 26.1217 21.4414C26.3894 21.4421 26.8313 21.4458 27.2562 21.2071C27.8378 20.8732 29.9035 19.2331 30.0821 19.0235C30.1394 18.9537 30.1728 18.7935 30.2062 18.6331C30.2457 18.4575 30.2845 18.2667 30.3787 18.1201C30.3818 18.1148 30.3873 18.1082 30.3906 18.1028C30.222 17.8232 30.0166 17.5447 29.7833 17.2668C29.7522 17.6206 29.6006 17.8059 29.2885 18.133C28.8269 18.6157 26.652 20.2054 25.7527 20.464C25.4615 20.5398 25.1689 20.5853 24.8815 20.5928C24.32 20.6073 23.7792 20.4771 23.3399 20.2151C23.0445 20.0329 22.2184 19.4849 21.3442 18.9078C20.367 18.2649 19.2652 17.5266 18.7779 17.2356C17.885 16.6893 16.8758 16.0853 16.8208 16.0487C16.5986 16.0165 16.4435 15.9901 16.3958 15.9686C16.1297 15.8464 16.016 15.5305 15.9176 15.2598C15.9017 15.1994 15.8794 15.1469 15.8641 15.1017C15.7518 14.8161 14.1797 11.0077 14.158 10.9704C14.1427 10.9252 14.1539 10.8718 14.193 10.848C14.5903 10.5872 14.9872 10.3188 15.3845 10.058C16.4581 9.33181 17.6094 8.54288 18.7372 7.67106L18.9444 7.50631C19.1261 7.37252 19.3009 7.23136 19.4826 7.09761C19.6058 7.00333 19.7293 6.91664 19.8525 6.82232C18.5719 5.9672 15.9873 4.6599 15.96 4.64541C15.9326 4.63097 15.9119 4.61631 15.8909 4.5941C15.8839 4.58668 15.7371 4.43863 15.5204 4.21649C14.919 3.92075 13.5266 3.27351 12.0468 2.93218C10.1142 2.48865 7.0208 2.28771 6.92019 2.28271C6.69836 2.4175 6.48317 2.55215 6.2683 2.69435C7.4353 2.75528 11.4474 3.00081 12.7114 3.30218C14.1786 3.65899 14.6252 4.09538 14.6463 4.11759C14.6672 4.13984 14.6752 4.16999 14.6765 4.20035C14.6711 4.23084 14.6586 4.25391 14.6326 4.26979C14.6198 4.28531 13.0671 5.23646 11.976 6.02384C10.9243 6.795 9.90731 7.59565 9.69376 7.76817C9.64856 7.80729 9.57627 7.83955 9.41584 7.8437C9.22869 7.84853 8.91258 7.81116 8.37972 7.71104C8.05568 7.64351 7.22707 7.51309 7.22037 7.51326C7.20034 7.51378 7.18664 7.50653 7.17266 7.4917C7.15864 7.47691 5.76496 6.16158 5.02164 5.51272C4.96592 5.46101 4.91753 5.42431 4.86886 5.38002C4.86281 5.39538 4.85675 5.41069 4.837 5.4188C4.83035 5.41897 4.08486 5.83302 3.61884 6.05006C3.31675 6.18691 2.77215 6.28449 2.28032 6.36555C2.29848 6.47892 2.32844 6.71349 2.29375 6.84348C2.24059 7.01185 1.27295 7.71253 1.27295 7.71253ZM19.2707 18.6121C19.2825 18.5739 19.3146 18.5427 19.355 18.5492L20.0608 18.6221C20.0741 18.6217 20.0878 18.6289 20.1015 18.6362C20.1152 18.6434 21.2354 19.5027 21.6999 19.8855C22.0049 20.1357 22.7841 20.3661 23.2924 20.52C23.5634 20.5965 23.7531 20.6523 23.8285 20.6959C24.0479 20.8193 24.7889 21.4151 24.8236 21.4446C24.8513 21.4666 24.8663 21.5042 24.8545 21.5424C24.8494 21.5806 24.8173 21.6117 24.7839 21.6126C24.6839 21.6228 24.5836 21.6254 24.47 21.6283C23.5007 21.6534 22.1679 21.4677 22.1071 21.454C22.0937 21.4544 22.08 21.4471 22.073 21.4397C22.0457 21.4252 21.4653 20.9923 20.9471 20.2845C20.4501 19.6065 19.3159 18.7324 19.3022 18.7252C19.2675 18.6957 19.2589 18.6504 19.2707 18.6121Z" fill="#FF0000"/>
<path d="M19.2056 16.1008C19.7693 16.1394 20.2652 16.157 20.4718 16.1365C20.992 16.0926 22.1102 15.631 23.4369 14.7161C24.7177 13.8251 25.1133 13.2075 25.3091 12.7698C25.346 12.6929 25.3132 12.5495 25.2817 12.4364L25.2651 12.361C25.1989 12.059 25.0967 11.6972 24.948 11.3442C25.0417 11.9795 24.9411 12.7717 24.1533 13.4525C22.7006 14.7124 21.5353 15.4864 20.6908 15.774C20.2156 15.9305 19.6646 16.0358 19.2056 16.1008Z" fill="#1A1A1A"/>
<path d="M14.3459 10.9733C14.5771 11.5367 15.9171 14.7589 16.0155 15.0297C16.0377 15.0822 16.0533 15.135 16.0756 15.1875C16.1667 15.4433 16.2581 15.7066 16.449 15.7928C16.5579 15.8355 17.3114 15.93 18.1514 16.0145C18.1845 16.0061 19.5873 15.947 20.6432 15.5933C21.4613 15.3141 22.6135 14.5479 24.0468 13.3038C25.0737 12.4193 24.8473 11.332 24.6079 10.7308C24.5582 10.6638 24.5219 10.5964 24.4726 10.537C24.3105 10.3437 24.1361 10.1736 23.9623 10.0187C23.9556 10.0189 23.9556 10.0189 23.9489 10.0191C23.9279 9.9968 21.2962 7.88601 20.1699 7.0421C20.1216 7.00535 20.0665 6.96883 20.0181 6.93213C19.8685 7.03469 19.7192 7.14485 19.5766 7.25478C19.4016 7.3884 19.2201 7.52973 19.0451 7.6633L18.8312 7.82828C17.7034 8.70009 16.5458 9.49679 15.4718 10.2154C15.0943 10.4681 14.7234 10.7206 14.3459 10.9733Z" fill="#333333"/>
<path d="M17.2717 16.1051C17.6566 16.3457 18.2811 16.7167 18.8513 17.0663C19.3456 17.3649 20.4057 18.0662 21.4247 18.7459C22.2988 19.3231 23.1182 19.8713 23.4133 20.0459C24.0448 20.4243 24.8849 20.5089 25.7115 20.275C26.5713 20.0325 28.7332 18.4508 29.169 17.9916C29.6242 17.5167 29.6935 17.4162 29.5789 16.5993C29.4926 15.979 29.1777 14.6965 28.0383 13.0634C26.806 11.2884 25.1809 10.5181 24.6637 10.3113C24.5685 10.2758 24.4803 10.2477 24.3985 10.2119C24.4615 10.2786 24.5309 10.3375 24.594 10.4042C24.6293 10.4488 24.6583 10.5012 24.6939 10.5535C24.7076 10.5607 24.7283 10.5754 24.736 10.5979C24.7433 10.6129 24.7439 10.6281 24.7509 10.6355C25.1148 11.1727 25.323 11.8278 25.4306 12.3185L25.4469 12.3864C25.4797 12.5298 25.5207 12.7109 25.46 12.8567C25.2518 13.3176 24.8441 13.9659 23.5237 14.8731C22.36 15.6851 21.1399 16.2708 20.4931 16.3255C20.46 16.3339 20.4266 16.3348 20.3865 16.3358C19.9921 16.346 19.039 16.2796 18.1592 16.2036L18.1525 16.2038L18.1522 16.1962C17.8367 16.174 17.534 16.1362 17.2717 16.1051Z" fill="#FF0000"/>
<path d="M19.2711 18.6121C19.2593 18.6503 19.2679 18.6957 19.3026 18.7252C19.3163 18.7324 20.4505 19.6065 20.9474 20.2845C21.4657 20.9923 22.046 21.4252 22.0734 21.4397C22.0804 21.4471 22.0941 21.4544 22.1075 21.454C22.1683 21.4676 23.5011 21.6533 24.4703 21.6283C24.584 21.6254 24.6843 21.6228 24.7842 21.6126C24.8176 21.6117 24.8498 21.5805 24.8549 21.5424C24.8667 21.5041 24.8517 21.4666 24.824 21.4446C24.7893 21.4151 24.0482 20.8193 23.8289 20.6959C23.7534 20.6523 23.5637 20.5965 23.2928 20.52C22.7845 20.3661 22.0052 20.1357 21.7003 19.8855C21.2358 19.5027 20.1156 18.6434 20.1019 18.6362C20.0882 18.6289 20.0745 18.6217 20.0612 18.6221L19.3554 18.5492C19.315 18.5427 19.2828 18.5738 19.2711 18.6121ZM19.6458 18.7695L20.0287 18.8051C20.1805 18.915 21.1763 19.6789 21.6063 20.0397C21.939 20.312 22.6979 20.5353 23.2537 20.7032C23.4908 20.7729 23.7006 20.8283 23.7624 20.8646C23.8996 20.9446 24.2937 21.2457 24.5292 21.437L24.4691 21.4385C23.5733 21.4617 22.315 21.2968 22.1466 21.2708C22.0499 21.1974 21.5306 20.7857 21.0764 20.1673C20.7071 19.6606 20.0198 19.071 19.6458 18.7695Z" fill="black"/>
<path d="M7.71118 10.1042C7.73285 10.1416 7.80382 10.2385 7.89806 10.4107C8.00759 10.628 8.26417 11.001 8.31384 11.068C8.30619 11.0454 8.28393 10.9929 8.21801 10.8579C8.10119 10.6256 7.78921 10.2085 7.71118 10.1042Z" fill="black"/>
<path d="M20.003 22.814C21.0054 23.2588 22.0813 23.7016 22.2561 23.7199C22.2895 23.719 22.35 23.7251 22.4436 23.7227C22.3888 23.6937 22.334 23.6647 22.279 23.6282C21.8887 23.4182 21.5175 23.1848 21.1518 22.9209C20.7376 22.6204 20.3604 22.243 19.9768 21.8733C19.9778 21.8961 19.9851 21.911 19.986 21.9338C20.0265 22.2592 20.0322 22.5551 20.003 22.814Z" fill="#FF0000"/>
<path d="M10.4395 16.426C11.1981 16.9605 12.9062 18.1159 14.6895 19.3072C14.7143 18.9422 14.7719 18.5611 14.8324 18.2483C13.9563 17.7851 13.0628 17.3831 12.1517 17.0422C11.5873 16.829 11.0166 16.6236 10.4461 16.4258C10.4461 16.4258 10.4461 16.4258 10.4395 16.426Z" fill="#FF0000"/>
<path d="M14.8542 19.4172C14.944 19.4832 15.0402 19.5414 15.1299 19.6074C15.1191 19.1901 15.17 18.8092 15.2976 18.5023C15.2015 18.444 15.0986 18.3859 14.9961 18.3354C14.9296 18.6637 14.8724 19.0523 14.8542 19.4172Z" fill="#FF0000"/>
</svg>
