<svg width="76" height="53" viewBox="0 0 76 53" fill="none" xmlns="http://www.w3.org/2000/svg">
<path d="M7.64344 23.7334L5.42918 22.6122L7.76287 21.4308L9.97771 22.5517L18.4818 18.2468L72.3754 45.5228C72.8503 45.7631 72.8504 46.3641 72.3755 46.6046L60.6383 52.5492C59.9531 52.8962 59.1089 52.8962 58.4237 52.5493L4.57861 25.2849L7.64344 23.7334Z" fill="#888888"/>
<path d="M76 39.6981C76 37.9302 75.2413 36.2579 73.8734 34.9869L67.7608 29.3202L65.9548 21.1116C65.9013 20.8344 65.7089 20.6051 65.4418 20.4618L51.0364 13.0272C50.7052 12.8552 50.2991 12.8552 49.9678 13.0272L46.0031 15.0722L46.0993 14.7951L50.3098 12.6259C50.4807 12.5398 50.5769 12.3774 50.5769 12.2054V10.0553C50.5769 9.8546 50.438 9.6826 50.235 9.6157L46.9649 7.92433C46.7939 7.8383 46.5909 7.8383 46.4306 7.92433L41.1729 10.6382H41.1622L35.7441 13.4477L34.8358 13.9063L30.9138 11.89L16.594 4.4937C16.284 4.33126 15.9314 4.33126 15.6322 4.44593L11.8385 1.44533C11.8278 1.44533 11.8278 1.43576 11.8171 1.43576C11.7851 1.41669 11.753 1.39756 11.721 1.38799C11.6889 1.36886 11.6675 1.35936 11.6355 1.34979C11.6034 1.34023 11.5714 1.34023 11.5393 1.34023C11.5072 1.33066 11.4644 1.33066 11.4324 1.33066C11.4217 1.33066 11.4003 1.33066 11.3897 1.34023L8.96385 0.0501305C8.83562 -0.0167102 8.686 -0.0167102 8.55776 0.0501305L8.00205 0.327292L6.75175 0.537496C6.70903 0.547062 6.66624 0.566192 6.63421 0.585323L5.51215 1.15866C5.51215 1.15866 5.51215 1.16823 5.50145 1.16823C5.43734 1.20643 5.37322 1.26376 5.34113 1.34023C5.34113 1.34979 5.34113 1.34979 5.33043 1.35936C5.31974 1.40713 5.3091 1.45489 5.3091 1.51223L5.41594 2.42962C5.43734 2.61119 5.61899 2.74493 5.82203 2.74493H5.86476C6.0785 2.72586 6.23882 2.55386 6.21743 2.35316L6.15331 1.76069L6.43117 1.71292V2.61119C6.43117 2.73542 6.50598 2.85009 6.62352 2.91693L8.36542 3.83433L8.10895 4.30256C8.09825 4.31213 8.09825 4.32169 8.09825 4.33126C8.07686 4.36946 8.07686 4.39816 8.06616 4.4268L3.38549 6.83493C3.37486 6.84449 3.36416 6.85406 3.35346 6.86357L3.32137 6.89226C3.28935 6.93047 3.25726 6.97823 3.25726 7.03563V8.20143C3.25726 8.28746 3.31074 8.37343 3.38549 8.41163L4.7213 9.0997C4.76408 9.11883 4.80681 9.12833 4.86023 9.12833C4.90301 9.12833 4.94574 9.11883 4.98846 9.0997L5.2129 8.98503L4.8282 10.0075L2.12449 11.4027C2.04968 11.4409 2.00696 11.4983 1.95354 11.546C1.90012 11.5842 1.84664 11.6225 1.80391 11.6703C1.7184 11.7754 1.65429 11.89 1.62226 12.0047C1.62226 12.0238 1.61156 12.0334 1.60087 12.043L0.0192926 19.057C-0.0662173 19.4584 0.136828 19.8693 0.542919 20.0795L1.56884 20.6051L2.76572 21.2263C2.89395 21.2932 3.04358 21.3314 3.19314 21.3409C3.0863 21.6945 3.00079 22.0863 3.00079 22.545C2.99009 25.2876 5.13808 28.613 7.78831 29.9795C9.1562 30.6867 10.3958 30.7441 11.2721 30.2567L12.4156 29.6642C13.4522 29.1291 14.104 28.1544 14.1575 27.1032L34.9747 37.8538L36.5776 38.6851L45.8856 43.4918C45.9711 43.53 46.0566 43.5587 46.1527 43.5874C46.0566 43.9314 45.9818 44.3041 45.9711 44.7436C45.9604 47.4862 48.1084 50.8117 50.7586 52.1782C52.1265 52.8853 53.3661 52.9427 54.2424 52.4553L56.7965 51.1366L59.4788 52.5222C60.0985 52.8376 60.7932 53 61.4878 53C62.1931 53 62.8878 52.8376 63.5075 52.5222L74.6963 46.7504C75.4764 46.349 75.9573 45.6037 75.968 44.8009L76 43.5682C76 43.5682 75.9893 43.5682 75.9893 43.5587C75.9893 43.5587 76 43.5587 76 43.5491V39.6981ZM8.18376 8.04856L8.45093 7.31273L9.24171 6.91139L8.18376 8.04856Z" fill="black"/>
<path d="M31.6562 17.2151V18.2567L33.9218 19.4225V18.381L31.6562 17.2151Z" fill="#F79420"/>
<path d="M58.0938 48.3297V49.6007L60.5517 50.8621C61.1394 51.1679 61.8554 51.1679 62.4431 50.8621L73.6319 45.0998C73.7601 45.0329 73.835 44.9182 73.835 44.7749L73.8563 43.7524L62.3577 49.6867C62.1867 49.7727 62.005 49.8109 61.8234 49.8109C61.6203 49.8109 61.4279 49.7631 61.257 49.6676L58.1258 48.0526C58.1258 48.0526 58.1258 48.0622 58.1258 48.0717C58.1365 48.1577 58.1151 48.2438 58.0938 48.3297Z" fill="#666666"/>
<path d="M2.2793 18.763L2.64267 18.9542C3.03806 18.1514 3.66852 17.5399 4.4914 17.1768C5.81651 16.6034 7.4622 16.7563 9.12935 17.6163C11.9398 19.0593 14.2802 22.2127 14.868 25.2611L36.0485 36.2027V28.8446L24.2614 22.767L20.9165 22.6428C20.7455 22.6332 20.5745 22.595 20.4249 22.509L3.41206 13.7271L2.2793 18.763ZM26.217 29.762L26.2277 25.4427C26.2277 25.3663 26.2597 25.3089 26.3131 25.2898C26.3666 25.2611 26.4414 25.2707 26.5162 25.3089L30.1068 27.1628L33.7082 29.0262C33.783 29.0644 33.8578 29.1313 33.9112 29.2077C33.9647 29.2842 33.9967 29.3797 33.9967 29.4562L33.986 33.7755C33.986 33.852 33.954 33.9093 33.9006 33.938C33.8471 33.9667 33.7723 33.9571 33.6975 33.9188L30.0962 32.0555L26.4949 30.2016C26.42 30.1633 26.3452 30.0964 26.3024 30.0105C26.249 29.934 26.217 29.8385 26.217 29.762Z" fill="#7E7F3D"/>
<path d="M5.52783 9.64679L5.83778 9.49386C5.9019 9.45565 5.97671 9.45565 6.04083 9.44609L6.44692 8.35669L5.91259 8.63385L5.52783 9.64679Z" fill="#0099FF"/>
<path d="M6.59619 9.45563C6.64968 9.47476 6.6924 9.46519 6.73512 9.49383L6.80993 9.52252L7.24812 9.05429L7.76104 7.67822L7.14121 7.99359V8.00309L6.59619 9.45563Z" fill="#3751A0"/>
<path d="M3.79688 7.45801V8.06961L4.59836 8.48051V7.86897L3.79688 7.45801Z" fill="#666666"/>
<path d="M5.13232 7.86934V8.48088L5.57051 8.25155L9.75958 6.09188L9.28937 5.71924L5.13232 7.86934Z" fill="#666666"/>
<path d="M4.06494 7.04755L4.86643 7.45845L8.87385 5.38481L8.25408 4.88794L4.06494 7.04755Z" fill="#666666"/>
<path d="M8.52051 0.903285L10.3265 1.84932L10.5616 1.73465L8.76628 0.779053L8.52051 0.903285Z" fill="#0099FF"/>
<path d="M7.63379 1.36199L9.42911 2.31759L9.80311 2.12646L7.99709 1.18042L7.63379 1.36199Z" fill="#0099FF"/>
<path d="M7.23779 1.98267V2.40313L8.73386 3.1963L8.91557 2.87137L7.23779 1.98267Z" fill="#0099FF"/>
<path d="M30.6094 16.2975C30.6094 16.288 30.6094 16.288 30.6094 16.2785C30.6201 16.2498 30.6308 16.2116 30.6414 16.1829C30.6628 16.1542 30.6842 16.1255 30.7163 16.0873C30.7377 16.0586 30.7697 16.0396 30.8018 16.0204C30.8125 16.0013 30.8232 15.9822 30.8552 15.9727L32.704 15.0171L29.8507 13.5454L22.0068 9.49365L30.6094 16.2975Z" fill="#CCCCCC"/>
<path d="M11.2778 2.4607L29.5624 17.005L29.7548 16.8998L27.361 15.0077L11.4168 2.3938L11.2778 2.4607Z" fill="#0099FF"/>
<path d="M10.4653 2.88099L25.7577 15.1605L26.6446 15.8676L29.0918 17.8266C29.0704 17.7693 29.0704 17.7119 29.0704 17.6642V17.6546C29.0811 17.5304 29.1132 17.4253 29.1666 17.3297L10.7966 2.70898L10.4653 2.88099Z" fill="#0099FF"/>
<path d="M12.0361 10.325L18.1381 13.4785L12.9445 9.35034L12.0361 10.325Z" fill="#999999"/>
<path d="M10.978 11.6819L24.9559 18.8967L22.1026 16.6224L11.7474 11.2805L10.978 11.6819Z" fill="#999999"/>
<path d="M7.75049 10.0101L7.90011 10.0865L8.85122 10.5834L9.1932 10.765L11.8754 7.87905C11.9717 7.78351 12.0999 7.72618 12.2495 7.70704C12.3884 7.70704 12.538 7.74531 12.6449 7.83128L26.8472 19.1265L28.7494 19.1934C28.8349 19.1934 28.9204 19.2125 28.9952 19.2507L29.6791 19.6043L9.71683 3.56934L9.24662 4.41027L10.9992 5.79584C11.0205 5.81497 11.0312 5.84367 11.0526 5.86274C11.074 5.89144 11.1061 5.91051 11.1167 5.93921C11.1381 5.96784 11.1381 5.99654 11.1488 6.02518C11.1595 6.05387 11.1702 6.09208 11.1702 6.12077C11.1809 6.14941 11.1702 6.17811 11.1595 6.20674C11.1595 6.23544 11.1595 6.27364 11.1488 6.30234C11.1381 6.33098 11.1167 6.35011 11.1061 6.3788C11.0847 6.40744 11.074 6.43614 11.0526 6.46478L7.75049 10.0101Z" fill="#0099FF"/>
<path d="M30.5659 19.0119L31.346 19.6426L31.4849 19.2699L30.8544 18.945C30.8224 18.9259 30.801 18.9163 30.7796 18.8972C30.7476 18.9354 30.7048 18.9641 30.6621 18.9832C30.63 19.0023 30.5979 19.0119 30.5659 19.0119Z" fill="#0099FF"/>
<path d="M29.605 17.6639C29.605 17.9696 29.8721 18.371 30.1607 18.5239C30.2889 18.5812 30.3637 18.5812 30.3958 18.5621C30.4385 18.543 30.4706 18.4665 30.4706 18.371C30.4706 18.0652 30.2141 17.6734 29.9042 17.5109C29.8294 17.4727 29.7653 17.4536 29.7332 17.4536C29.7118 17.4536 29.6905 17.4632 29.6798 17.4632C29.6477 17.4823 29.605 17.5396 29.605 17.6639Z" fill="#0099FF"/>
<path d="M4.80127 12.2362L21.2691 20.7411L24.614 20.8653C24.785 20.8749 24.9453 20.9131 25.0948 20.9895L36.0485 26.6371V23.5314C35.995 23.5887 35.9416 23.6461 35.8775 23.6843L33.7829 24.7546C33.7082 24.8024 33.612 24.8215 33.5158 24.8215C33.4624 24.8215 33.4089 24.8119 33.3448 24.7928C33.3234 24.7832 33.3127 24.7737 33.2914 24.7642C33.2807 24.7642 33.27 24.7642 33.2486 24.7546L30.406 23.283C30.3954 23.2734 30.3847 23.2639 30.3633 23.2543C30.3419 23.2352 30.3098 23.2161 30.2885 23.1874C30.2671 23.1683 30.2457 23.1492 30.2244 23.1205C30.203 23.0919 30.1923 23.0632 30.1816 23.0345C30.1709 23.0058 30.1603 22.9772 30.1603 22.9485C30.1496 22.9199 30.1496 22.8912 30.1496 22.8625C30.1496 22.8338 30.1496 22.7956 30.1603 22.7669C30.1709 22.7478 30.1603 22.7383 30.1709 22.7192L30.7266 21.2476L28.5786 20.139L25.1055 20.0148C25.0201 20.0148 24.9346 19.9957 24.8598 19.9575L8.31716 11.4144L8.30646 11.4048L7.36605 10.908C7.36605 10.9175 7.35535 10.9175 7.35535 10.9175L4.80127 12.2362Z" fill="#CCCCCC"/>
<path d="M34.4878 23.2929L35.161 22.9393L36.3045 19.8623L35.674 20.1872L34.4878 23.2929Z" fill="#999999"/>
<path d="M31.3247 22.6523L33.2269 23.6366L34.3383 20.7124C34.2956 20.7029 34.2528 20.6933 34.2101 20.6742C34.2101 20.6742 34.2101 20.6742 34.1994 20.6742L32.4361 19.7568L31.3247 22.6523Z" fill="#CCCCCC"/>
<path d="M37.5981 19.4132L41.0926 17.6166L40.8682 17.502L37.705 19.1361L37.5981 19.4132Z" fill="#999999"/>
<path d="M43.978 16.1259L44.6085 15.8011L44.7154 15.5144L44.0849 15.8488L43.978 16.1259Z" fill="#999999"/>
<path d="M34.9907 18.3807V19.4318L36.8822 18.4571C36.9464 18.3902 37.0426 18.352 37.1387 18.3329L38.8165 17.4633V16.4026L34.9907 18.3807Z" fill="#F79420"/>
<path d="M39.8853 15.8582V16.9094L44.2453 14.6637V13.6125L39.8853 15.8582Z" fill="#F79420"/>
<path d="M45.314 13.0584V14.1095C45.3674 14.0522 45.4529 14.014 45.5383 13.9949L49.5137 11.9403V10.8892L45.314 13.0584Z" fill="#F79420"/>
<path d="M42.5024 11.0513L44.7787 12.2267L48.9784 10.067L46.6915 8.8916L42.5024 11.0513Z" fill="#F79420"/>
<path d="M37.0747 13.8609L39.3509 15.0268L43.711 12.7811L41.4348 11.6057L37.0747 13.8609Z" fill="#F79420"/>
<path d="M32.1914 16.3841L34.4569 17.5499L38.272 15.5813L36.0065 14.4155L32.1914 16.3841Z" fill="#F79420"/>
<path d="M38.1855 21.324L51.5116 28.2043L63.9613 21.907L50.5071 14.9597L38.1855 21.324Z" fill="#CED064"/>
<path d="M51.5117 28.2046L53.3818 36.6903L53.3925 36.6999L65.8636 30.2592C65.7888 30.1636 65.7461 30.068 65.7247 29.9629L65.3293 28.176L63.9615 21.9072L51.5117 28.2046Z" fill="#CCCCCC"/>
<path d="M65.1548 29.8548L64.8046 28.2738L63.6188 22.842L52.1558 28.64L53.7242 35.7579L65.1548 29.8548Z" fill="#797979"/>
<path d="M53.3926 36.7L56.5344 39.6146L59.7082 42.5674C60.4029 43.1981 60.9051 43.9626 61.2044 44.7939L61.7066 44.536L73.6541 38.3627C73.419 37.5983 72.9702 36.9007 72.3397 36.3177L66.0026 30.4504C65.9385 30.393 65.8958 30.3262 65.8637 30.2593L53.3926 36.7Z" fill="#CED064"/>
<path d="M61.2041 44.7937C61.3216 45.09 61.4071 45.3958 61.4499 45.7016C61.5033 45.9978 61.5354 46.3036 61.5354 46.6094V47.5936L61.8239 47.7466L63.6299 46.8196L67.0603 45.0518L73.8675 41.5447V39.7004C73.8675 39.2417 73.7927 38.7926 73.6538 38.3625L61.7063 44.5358L61.2041 44.7937Z" fill="#CCCCCC"/>
<path d="M26.2163 29.7618C26.2163 29.8383 26.2483 29.9338 26.3018 30.0103C26.3445 30.0963 26.4194 30.1632 26.4942 30.2014L30.0955 32.0553L33.6968 33.9187C33.7716 33.9569 33.8464 33.9665 33.8999 33.9378C33.9533 33.9092 33.9853 33.8518 33.9853 33.7754L33.996 29.456C33.996 29.3796 33.964 29.284 33.9105 29.2076C33.8571 29.1312 33.7823 29.0643 33.7075 29.026L30.1061 27.1626L26.5155 25.3088C26.4407 25.2705 26.3659 25.2609 26.3125 25.2896C26.259 25.3088 26.227 25.3661 26.227 25.4425L26.2163 29.7618ZM30.384 31.6253L30.3947 27.8984L33.419 29.456L33.4083 33.1829L30.384 31.6253ZM26.7827 29.7714L26.8041 26.035L29.8283 27.6022L29.8176 31.329L26.7827 29.7714Z" fill="black"/>
<path d="M26.7837 29.7718L29.8187 31.3295L29.8294 27.6026L26.8051 26.0354L26.7837 29.7718Z" fill="#CCCCCC"/>
<path d="M30.3848 31.6255L33.4091 33.1832L33.4197 29.4563L30.3955 27.8987L30.3848 31.6255Z" fill="#CCCCCC"/>
<path d="M38.1855 21.3242V37.3019L45.7196 41.2008C46.1043 40.3407 46.7454 39.6813 47.5897 39.2991C48.9255 38.697 50.5926 38.85 52.3024 39.7195C54.5466 40.8854 56.4594 43.112 57.4533 45.501C57.464 45.5105 57.464 45.501 57.4747 45.5105L61.5355 47.5937V46.6094C61.5355 45.0996 60.8836 43.6471 59.7081 42.5673L53.3817 36.6903L51.5116 28.2046L38.1855 21.3242Z" fill="#7E7F3D"/>
<path d="M48.4016 28.8615L49.7 35.6379L41.7827 31.5451V25.4441L48.4016 28.8615Z" fill="#797979"/>
<path d="M50.1274 46.6564C49.6771 46.4239 49.3098 45.862 49.3113 45.3993C49.3128 44.9296 49.6824 44.7483 50.1327 44.9808C50.583 45.2133 50.9503 45.775 50.9488 46.2447C50.9473 46.7074 50.5777 46.8888 50.1274 46.6564ZM50.7954 45.056C49.6286 44.4537 48.6703 44.935 48.6665 46.1409C48.6627 47.3397 49.6148 48.8073 50.7816 49.4097C51.9551 50.0156 52.9134 49.5342 52.9172 48.3354C52.9211 47.1296 51.9689 45.6619 50.7954 45.056Z" fill="#888888"/>
<path d="M50.1325 44.9808C50.5828 45.2133 50.95 45.7751 50.9485 46.2448C50.9471 46.7075 50.5775 46.8889 50.1272 46.6564C49.6768 46.4239 49.3096 45.8621 49.311 45.3994C49.3125 44.9297 49.6821 44.7483 50.1325 44.9808Z" fill="#BABABA"/>
<path d="M7.15035 24.4576C6.70002 24.2251 6.33276 23.6633 6.33423 23.2006C6.33572 22.7309 6.70533 22.5496 7.15566 22.7821C7.60597 23.0145 7.97323 23.5763 7.97174 24.046C7.97027 24.5087 7.60066 24.6901 7.15035 24.4576ZM7.81832 22.8573C6.6516 22.2549 5.69329 22.7363 5.68946 23.9421C5.68567 25.141 6.63779 26.6086 7.80452 27.211C8.97807 27.8168 9.93638 27.3355 9.94018 26.1367C9.944 24.9309 8.99187 23.4632 7.81832 22.8573Z" fill="#888888"/>
<path d="M7.15542 22.7818C7.60573 23.0143 7.97299 23.5761 7.97149 24.0458C7.97003 24.5085 7.60042 24.6899 7.15011 24.4574C6.69977 24.2249 6.33252 23.6631 6.33399 23.2004C6.33548 22.7307 6.70509 22.5494 7.15542 22.7818Z" fill="#BABABA"/>
</svg>
